<?xml version="1.0" encoding="utf-8"?>
<!-- Generator: Adobe Illustrator 24.3.0, SVG Export Plug-In . SVG Version: 6.00 Build 0)  -->
<svg version="1.1" id="_x30__x5F_noPIC" xmlns="http://www.w3.org/2000/svg" xmlns:xlink="http://www.w3.org/1999/xlink" x="0px"
	 y="0px" viewBox="0 0 100 100" style="enable-background:new 0 0 100 100;" xml:space="preserve">
<style type="text/css">
	.st0{fill:#596079;}
</style>
<g>
	<path class="st0" d="M99.7,42.3c1.2-8.8-1.5-17.8-7.4-24.5C86.4,11.1,78.9,7.5,70.1,7.3c-9.9-0.3-18.3,3.6-25,11.4l-0.4-0.3
		c-6.1-4.1-12.9-5.7-20-4.7c-12,1.7-21.1,10.1-23.9,22c-0.2,0.9-0.4,1.8-0.5,2.8C0.2,39,0.1,39.4,0,39.8c0,0,0,0.1,0,0.1v4.6
		c0,0.1,0,0.2,0,0.2c0,0.1,0,0.1,0.1,0.2c0,0.1,0.1,0.2,0.1,0.2C0.7,50.9,2.9,56,6.6,60.6c0.5,0.7,1.1,1.3,1.7,1.9
		c0,0.1,0.1,0.1,0.1,0.2C2.8,66,0.1,71.2,0.8,77.5C1.5,83.7,4.9,88,10.8,90c6,2.1,11.5,0.7,16.1-4c0.1-0.1,0.2-0.2,0.2-0.2
		c0,0,0.1,0,0.2,0.1c3.3,1.5,6.7,2.5,9.9,2.9c10.8,1.5,20.9-1,29.9-7.4c1.9,6.7,7.6,11.2,14.5,11.3c0.1,0,0.2,0,0.2,0
		c6.3,0,12.3-4.4,14.2-10.5c1.3-4.1,0.9-8.1-1-11.8c-1.7-3.2-4.4-5.6-7.9-7C94.1,58.4,98.6,50.7,99.7,42.3z M91.4,53.7L78.6,43.4
		c4.8-5.1,10.5-7.9,17.4-8.7C96.8,41.7,95.3,47.9,91.4,53.7z M65.8,57.3c0.5,0.4,1,0.8,1.4,1.2c2.4,2.2,3.9,4.3,4.9,6.7
		c0.2,0.4,0.2,0.5-0.2,0.8c-3.1,2.6-4.9,5.9-5.2,9.7c-0.1,0.8-0.4,1.3-0.9,1.8V57.3z M59.2,32.7l-2.8,2.6c-0.7-2.5-1.5-4.8-2.7-7
		L59.2,32.7z M69.9,11.1c5.4,0.2,10.2,1.8,14.6,4.8L68.8,35.6l-4.4-3.5c2.1-3.1,3.7-6.5,4.6-10C70,18.6,70.3,15,69.9,11.1z
		 M66.1,11.2c0.7,6.8-0.8,12.8-4.6,18.5l-12.3-9.9C53.8,14.9,59.4,12.1,66.1,11.2z M57.1,39.6c0,0,0-0.1,0-0.1
		c1.4-1.3,2.9-2.5,4.3-3.7l0.7-0.6l4.2,3.4l0,0c-0.4,0.6-0.9,1.1-1.3,1.7l-1.8,2.3c-1.5,1.9-3.1,3.9-4.6,5.8
		c-0.3,0.4-0.3,0.4-0.6,0.2c-0.5-0.2-1-0.4-1.4-0.6c0,0,0,0,0,0C57.2,45.3,57.3,42.6,57.1,39.6z M75.6,41L71.8,38l15.7-19.7
		c3.8,3.6,6.4,7.7,7.8,12.8C87.5,32,80.9,35.3,75.6,41z M86.3,74.6l0.1,0.6c0.3,1.7,0.1,3-0.6,3.9c-0.7,0.9-2.1,1.4-3.8,1.5
		c-1.3,0-2.8-0.1-4-1c-1.2-0.9-1.6-1.9-1.4-3.3c0.1-0.4,0.1-0.9,0.2-1.3c0.4-2.6,0.9-5.2,0.7-7.9c0,0,0-0.1,0-0.1
		c2.7-1.1,5.4-1.1,8.1-0.1C85.3,69.6,85.8,72.2,86.3,74.6z M69.4,40.9l3.9,3.1c-2.2,3.2-3.8,6.8-4.8,10.5l-6.5-4.4L69.4,40.9z
		 M73.7,69.5c-0.1,1.1-0.2,2.1-0.3,3.2c-0.1,0.5-0.2,1.1-0.3,1.6c-0.1,0.4-0.1,0.8-0.2,1.1c-0.6,3.8,1.1,6.8,4.6,8.2
		c2.6,1.1,5.2,1.1,7.9,0.2c3.9-1.4,5.7-4.5,4.9-8.7c-0.3-1.7-0.5-3.4-0.8-5l-0.1-0.9c2.6,2.1,4.1,6.8,3.3,10.7
		c-1.1,5.1-5.7,8.8-11,8.9c-5.2,0.1-9.8-3.5-11.1-8.7C69.5,75.6,71.6,71.6,73.7,69.5z M81.8,62.2c-0.2,0.1-0.3,0.2-0.4,0.2
		c-2,0.1-4,0.5-5.8,1.3c0,0,0-0.1-0.1-0.1c-0.3-0.6-0.5-1.2-0.9-1.8c-0.6-1-1.4-2.3-2.4-3.4c-0.4-0.5-0.5-0.8-0.4-1.4
		c0.8-3.9,2.2-7.4,4.4-10.5l12.8,10.2C86.9,59,84.5,60.8,81.8,62.2z M62,54.8c0,8.4,0,16.8,0,25.2c0,0.1,0,0.1,0,0.2
		c-1.4,0.8-2.9,1.5-4.4,2.3l-0.3,0.1V52.1l0.3,0.2c1.5,0.8,3,1.5,4.4,2.3C62,54.7,62,54.7,62,54.8z M53.4,83.7c0,0.2,0,0.3,0,0.3
		c0,0,0,0,0,0c0,0,0,0-0.2,0.1c-8.2,2.3-16.2,1.8-24-1.5c1.4-2.8,1.9-5.4,1.5-8.1c-0.7-4.7-0.6-9.5-0.5-14.2c0-2.8,0.1-5.6,0-8.4
		c0-0.4,0-0.4,0.4-0.5c7.5-2.7,15.1-2.9,22.6-0.7c0.2,0.1,0.3,0.1,0.3,0.1c0,0,0,0,0,0c0,0,0,0.1,0,0.3
		C53.4,61.4,53.4,72.1,53.4,83.7z M7.4,82.4l0.4,0.3l-0.5,0.5c-1.8-1.8-2.8-4.4-2.9-7.2c-0.1-2.9,1-5.6,2.8-7.7l0.2,0.3l-0.3,0.3
		C7.1,69,7,69.3,7.1,69.5c0,0.2,0.2,0.4,0.4,0.5c0.1,0,0.2,0.2,0.2,0.4c0.2,0.4,0.6,1.2,1.6,1.2c0,0,0,0,0,0l0.1,0.1
		c-0.2,0.1-0.3,0.2-0.4,0.3c-0.3,0.5-0.3,1.3,0.1,2c0.3,0.5,0.6,0.9,1,1.1l0,0l-0.1,0c-0.3,0-0.6,0.3-0.7,0.6l-0.1,0.3
		c-0.1,0.2-0.1,0.5-0.2,0.7C9,77,8.9,77.2,8.9,77.5l-0.1,0.3c-0.1,0.4,0.1,0.7,0.5,0.9l0.4,0.2l-0.2,0.5l-0.1-0.1
		c-0.3-0.2-0.8-0.1-1,0.3l-1.2,1.8C7,81.7,7.1,82.1,7.4,82.4z M8.2,55c0,0,0,0.1,0.1,0.1c0.3,0.8,0.6,1.6,0.8,2.5
		c-0.8-1-1.5-2-2.2-3.2C7.4,54.6,7.8,54.8,8.2,55z M49.3,28.7c-2.1-0.7-3.9-1.9-5.7-4c-1-1.2-2.1-2.3-3.2-3.4c-0.3-0.3-0.7-0.7-1-1
		l0.3-0.4c4.1,2.1,7.3,5,9.8,8.8C49.4,28.8,49.4,28.8,49.3,28.7z M17.8,59.5v1.3l-1.1-0.1L17.8,59.5z M27.7,23.2
		c0-0.1,0.2-0.2,0.3-0.2c1-0.1,2-0.2,3-0.2l1.1-0.1c0,0,0,0,0,0l1.1-0.1c0.9-0.1,1.9-0.1,2.8-0.2c0,0,0,0,0,0c0.1,0,0.3,0.1,0.4,0.1
		c2.2,2.3,4.3,4.5,6.3,6.7c0,0.1,0,0.2,0,0.2c-0.8,2.3-1.6,4.4-2.4,6.4c0,0.1-0.2,0.2-0.3,0.2c-2.6,0.4-5.3,0.7-8.2,1
		c-0.1,0-0.2-0.1-0.3-0.2c-2.5-2.6-4.5-4.8-6.3-6.8c0-0.1-0.1-0.2-0.1-0.3C26,27.7,26.9,25.4,27.7,23.2z M24.3,47.1
		c0,0-0.1,0.1-0.2,0.1c-3-0.5-6.1-1-9.3-1.6c0,0-0.1,0,0,0c-0.4-2.7-0.7-5.6-1-8.6c0,0,0,0,0,0c2.7-1.3,5.5-2.7,8.6-4.1
		c1.8,1.9,3.6,3.8,5.3,5.7l0.8,0.9l-0.7,1.3C26.7,43,25.5,45.1,24.3,47.1z M11.9,53.6l0.1-0.2c0.6-1.3,1.3-2.6,1.9-3.9
		c0,0,0.1-0.1,0.2-0.1c2.9,0.5,5.8,1,8.7,1.4l0.1,0c-4,2.4-6.9,4.8-9.3,7.8l0-0.1c-0.6-1.6-1.1-3.2-1.6-4.8
		C11.9,53.7,11.9,53.7,11.9,53.6z M21.6,58.5c0-0.7,0-1.3,0-1.9c0-0.2,0.2-0.5,0.2-0.6c1.3-0.9,2.7-1.7,4.1-2.6l0.4-0.2V65
		c-0.1,0-0.1-0.1-0.2-0.1c-1.1-0.9-2.3-1.8-3.6-2.5c-0.9-0.5-1-0.8-1-1.6C21.6,60,21.6,59.2,21.6,58.5z M32,41.3
		c0.1-0.1,0.3-0.3,0.4-0.3c2.8-0.4,5.6-0.7,8.2-1c0,0,0,0,0,0c0,0,0.1,0,0.1,0c1.1,1.7,2.3,3.5,3.4,5.3l0.1,0.2
		c-5.5-0.1-10.9,0.8-16.2,2.9C29.3,46,30.7,43.6,32,41.3z M53.4,42.8c0,0.1-0.1,0.2-0.1,0.2c-1.3,0.6-2.7,1.1-4.1,1.7L48.4,45
		l-0.6-1c-1.4-2.1-2.7-4.2-4-6.3c0,0,0,0,0,0c0,0,0,0,0,0c0.7-1.8,1.3-3.6,2-5.4l0.3-0.8l0.8,0.3c1.7,0.7,3.4,1.5,5.1,2.2
		c0,0,0.1,0.1,0.2,0.3C53.1,37,53.5,39.9,53.4,42.8z M35,18.8c-1.7,0-3.5,0.2-5.2,0.3c-0.8,0.1-1.7,0.1-2.6,0.2c-0.1,0-0.4,0-0.5,0
		c-1-0.5-1.9-1-2.9-1.5c3.2-0.7,8.8-0.4,12.1,0.8C35.9,18.7,35.5,18.8,35,18.8z M23.7,23.1c-0.8,2-1.5,4-2.3,6c0,0-0.1,0.1-0.2,0.2
		c-3.4,1.6-6.4,3.1-9.3,4.4c-0.1,0-0.2,0.1-0.2,0.1c-1.5-0.7-3-1.5-4.5-2.3l-0.7-0.4c1.2-2.4,2.7-4.6,4.8-6.6c2.1-2.1,4.6-3.8,7.3-5
		c0.1-0.1,0.3-0.1,0.3-0.1c1.5,0.7,2.9,1.5,4.4,2.3l0.8,0.4L23.7,23.1z M10.9,45.4l0.1,1.2c0,0.1,0,0.1,0,0.2
		c-0.6,1.3-1.3,2.6-2,3.9l-0.2,0.5l-0.5-0.2c-1.2-0.6-2.4-1.1-3.6-1.7c0,0-0.1-0.1-0.1-0.1C3.4,44.3,3.5,39.5,5,34.6l0.6,0.3
		c1.5,0.8,2.9,1.5,4.3,2.2c0,0.1,0.1,0.2,0.1,0.3C10.3,40.1,10.6,42.7,10.9,45.4z M10.9,84.8l0.7,0.4c0.3,0.2,0.8,0.1,1-0.2l1.2-1.8
		c0.2-0.3,0.2-0.8-0.2-1.1l-0.8-0.6l0.6-1.8l0.8,0.1c0.4,0.1,0.8-0.2,0.9-0.6l0.5-2c0.1-0.4-0.1-0.8-0.5-0.9
		c-0.2-0.1-0.4-0.2-0.7-0.2c-0.2,0-0.4-0.1-0.5-0.2c-0.1-0.3,0-0.8,0-1.2c0-0.1,0-0.1,0-0.2l1.1-0.3c0.4-0.1,0.6-0.5,0.5-0.9
		l-0.5-2.1c-0.1-0.4-0.5-0.7-0.9-0.6l-1.1,0.2l-0.5-1.2l1-0.8c0.3-0.2,0.4-0.7,0.2-1L12.6,66c-0.2-0.3-0.7-0.4-1-0.2l-0.9,0.6
		l-0.4-0.5c2.9-1.9,7.8-1.9,11,0L21,66.1l-0.6-0.3c-0.3-0.2-0.8-0.1-1,0.2l-1.2,1.8c-0.2,0.3-0.2,0.8,0.2,1l0.6,0.5l-0.6,1.4
		l-0.7-0.1c-0.4-0.1-0.8,0.2-0.8,0.6l-0.5,2.1c-0.1,0.4,0.1,0.8,0.5,0.9l0.6,0.2v1.7l-0.6,0.2c-0.4,0.1-0.6,0.5-0.5,0.9l0.5,2.1
		c0.1,0.4,0.4,0.6,0.8,0.6l0.4,0l0.7,2l-0.4,0.4c-0.3,0.3-0.4,0.7-0.2,1l1.2,1.8c0.2,0.3,0.7,0.4,1,0.2l0.3-0.2l0.5,0.6
		c-2.6,1.9-7.9,1.9-11,0L10.9,84.8z M24.6,82.4c0.3-0.2,0.4-0.7,0.2-1l-1.2-1.8c-0.2-0.3-0.7-0.4-1.1-0.2l-0.5,0.3L21.8,79l0.9-0.3
		c0.4-0.1,0.6-0.5,0.5-0.9l-0.5-2.1c0-0.2-0.2-0.4-0.4-0.5c0.1-0.1,0.3-0.3,0.3-0.4l0.5-2.1c0.1-0.4-0.1-0.8-0.5-0.9l-0.6-0.2
		l0.1-0.1l0.4,0.2c0.3,0.2,0.8,0.1,1-0.2l1.2-1.8c0.1-0.1,0.1-0.3,0.1-0.5c1.2,1.6,2,3.7,2.1,6c0.1,3-0.9,5.9-2.8,8l-0.3-0.3
		L24.6,82.4z"/>
	<path class="st0" d="M50.6,65.5l-1-0.1l-0.1-1.4c0-0.4-0.4-0.7-0.8-0.7h-2.3c-0.4,0-0.7,0.3-0.8,0.7c0-0.4-0.4-0.7-0.8-0.7h-2.2
		c-0.4,0-0.8,0.3-0.8,0.8v1.3h-0.5v-1.3c0-0.4-0.3-0.8-0.8-0.8h-2.2c-0.4,0-0.7,0.3-0.8,0.7l-0.1,1.3h-0.5v-1.3
		c0-0.4-0.3-0.8-0.8-0.8h-2.2c-0.4,0-0.8,0.3-0.8,0.8v1.3l-0.9,0.1c-0.4,0-0.7,0.4-0.7,0.8v2.1c0,0.4,0.3,0.7,0.7,0.8l0.8,0l0.1,1.3
		c0,0.4,0.4,0.7,0.8,0.7h2.2c0.4,0,0.8-0.3,0.8-0.8v-1.2h0.4l0.1,1.2c0,0.4,0.4,0.7,0.8,0.7h2.2c0.4,0,0.8-0.3,0.8-0.8v-1.2H42
		l0.1,1.2c0,0.4,0.4,0.7,0.8,0.7H45c0.4,0,0.7-0.3,0.8-0.7l0-0.9l0,0.8c0,0.4,0.4,0.7,0.8,0.7h2.2c0.4,0,0.8-0.3,0.8-0.8v-1.2l1-0.1
		c0.4,0,0.7-0.4,0.7-0.8v-2.1C51.3,65.9,51,65.6,50.6,65.5z"/>
</g>
</svg>
