<?xml version="1.0" encoding="utf-8"?>
<!-- Generator: Adobe Illustrator 24.3.0, SVG Export Plug-In . SVG Version: 6.00 Build 0)  -->
<svg version="1.1" id="圖層_1" xmlns="http://www.w3.org/2000/svg" xmlns:xlink="http://www.w3.org/1999/xlink" x="0px" y="0px"
	 viewBox="0 0 134 131" style="enable-background:new 0 0 134 131;" xml:space="preserve">
<style type="text/css">
	
		.st0{clip-path:url(#SVGID_2_);fill:none;stroke:#596079;stroke-width:6;stroke-linecap:round;stroke-linejoin:round;stroke-miterlimit:10;}
	.st1{clip-path:url(#SVGID_2_);fill:#596079;}
	
		.st2{clip-path:url(#SVGID_2_);fill:none;stroke:#596079;stroke-width:3;stroke-linecap:round;stroke-linejoin:round;stroke-miterlimit:10;}
</style>
<g>
	<defs>
		<rect id="SVGID_1_" width="134" height="131"/>
	</defs>
	<clipPath id="SVGID_2_">
		<use xlink:href="#SVGID_1_"  style="overflow:visible;"/>
	</clipPath>
	<path class="st0" d="M130.8,115l-8.7-30.2c3.8-4.9,6.1-11,6.1-17.7c0-12.6-8.1-23.3-19.4-27.2v-1.7c0-1.8-1.4-3.2-3.2-3.2H82.9
		c-1.8,0-3.2,1.4-3.2,3.2v4H54.3v-4c0-1.8-1.4-3.2-3.2-3.2H28.4c-1.8,0-3.2,1.4-3.2,3.2v1.7C13.9,43.8,5.8,54.5,5.8,67.1
		c0,6.7,2.3,12.8,6.1,17.7L3.2,115c-0.8,2.8,0.8,5.6,3.6,6.4l22.3,6.4c2.8,0.8,5.6-0.8,6.4-3.6l5.5-19.2c7.8-0.9,13.8-7.5,13.9-15.5
		h24.3c0.1,8,6.1,14.6,13.9,15.5l5.5,19.2c0.8,2.8,3.7,4.3,6.4,3.6l22.3-6.4C130,120.6,131.6,117.7,130.8,115z"/>
	<path class="st1" d="M44.4,68.8h-7.4v7.4c0,2.1-1.7,3.7-3.7,3.7s-3.7-1.7-3.7-3.7v-7.4h-7.4c-2.1,0-3.7-1.7-3.7-3.7
		s1.7-3.7,3.7-3.7h7.4V54c0-2.1,1.7-3.7,3.7-3.7s3.7,1.7,3.7,3.7v7.4h7.4c2.1,0,3.7,1.7,3.7,3.7S46.5,68.8,44.4,68.8"/>
	<path class="st1" d="M88.8,69.8c-2.7,0-4.9-2.2-4.9-4.9s2.2-4.9,4.9-4.9c2.7,0,4.9,2.2,4.9,4.9S91.5,69.8,88.8,69.8"/>
	<path class="st2" d="M88.8,69.8c-2.7,0-4.9-2.2-4.9-4.9s2.2-4.9,4.9-4.9c2.7,0,4.9,2.2,4.9,4.9S91.5,69.8,88.8,69.8z"/>
	<path class="st1" d="M99.7,80.8c-2.7,0-4.9-2.2-4.9-4.9s2.2-4.9,4.9-4.9c2.7,0,4.9,2.2,4.9,4.9S102.4,80.8,99.7,80.8"/>
	<path class="st2" d="M99.7,80.8c-2.7,0-4.9-2.2-4.9-4.9s2.2-4.9,4.9-4.9c2.7,0,4.9,2.2,4.9,4.9S102.4,80.8,99.7,80.8z"/>
	<path class="st1" d="M99.7,58.9c-2.7,0-4.9-2.2-4.9-4.9c0-2.7,2.2-4.9,4.9-4.9c2.7,0,4.9,2.2,4.9,4.9
		C104.6,56.7,102.4,58.9,99.7,58.9"/>
	<path class="st2" d="M99.7,58.9c-2.7,0-4.9-2.2-4.9-4.9c0-2.7,2.2-4.9,4.9-4.9c2.7,0,4.9,2.2,4.9,4.9
		C104.6,56.7,102.4,58.9,99.7,58.9z"/>
	<path class="st1" d="M110.6,69.8c-2.7,0-4.9-2.2-4.9-4.9s2.2-4.9,4.9-4.9c2.7,0,4.9,2.2,4.9,4.9S113.3,69.8,110.6,69.8"/>
	<path class="st2" d="M110.6,69.8c-2.7,0-4.9-2.2-4.9-4.9s2.2-4.9,4.9-4.9c2.7,0,4.9,2.2,4.9,4.9S113.3,69.8,110.6,69.8z"/>
	<path class="st0" d="M67,42.2c0,0-5.1-9.6,3-17.2C80.3,15.3,85,20,85,3"/>
</g>
</svg>
