<?xml version="1.0" encoding="utf-8"?>
<!-- Generator: Adobe Illustrator 24.3.0, SVG Export Plug-In . SVG Version: 6.00 Build 0)  -->
<svg version="1.1" id="_x31_01_x5F_AutoRacing_1_" xmlns="http://www.w3.org/2000/svg" xmlns:xlink="http://www.w3.org/1999/xlink"
	 x="0px" y="0px" viewBox="0 0 100 100" style="enable-background:new 0 0 100 100;" xml:space="preserve">
<style type="text/css">
	.st0{fill:#596079;}
</style>
<g id="_x31_01_x5F_AutoRacing">
	<g>
		<path class="st0" d="M32.3,100C14.5,100,0,85.3,0,67.2s14.5-32.8,32.3-32.8s32.3,14.7,32.3,32.8S50.1,100,32.3,100z M32.3,39.5
			c-15,0-27.1,12.4-27.1,27.6s12.2,27.6,27.1,27.6s27.1-12.4,27.1-27.6S47.3,39.5,32.3,39.5z"/>
	</g>
	<g>
		<path class="st0" d="M32.3,88.8C20.6,88.8,11,79.1,11,67.2s9.6-21.6,21.3-21.6s21.3,9.7,21.3,21.6S44.1,88.8,32.3,88.8z M32.3,50
			c-9.3,0-16.9,7.7-16.9,17.2S23,84.4,32.3,84.4s16.9-7.7,16.9-17.2S41.6,50,32.3,50z"/>
	</g>
	<g>
		<path class="st0" d="M32.3,56.3c-5.9,0-10.7,4.9-10.7,10.9c0,6,4.8,10.9,10.7,10.9S43,73.2,43,67.2C43,61.2,38.2,56.3,32.3,56.3z
			 M32.3,71.7c-2.5,0-4.5-2-4.5-4.5c0-2.5,2-4.5,4.5-4.5c2.5,0,4.5,2,4.5,4.5C36.8,69.7,34.8,71.7,32.3,71.7z"/>
	</g>
	<g>
		<path class="st0" d="M66.4,82.7c-0.1,0-0.3,0-0.4,0c-1.4-0.2-2.4-1.6-2.1-3c1.7-9.7,12.5-19.5,20.5-26.7c2.5-2.3,4.7-4.2,6-5.7
			c2.7-3,3.8-7.9,4.2-11.7c-2.6,1-6,1.6-8.7,0.3c-4.9-2.3-3.7-8.1-2.3-15.5c0.2-0.8,0.3-1.6,0.5-2.4c0.6-3.2,0.2-6.3-0.5-8.8
			C80,15.1,74,21.2,68.4,23c-3.9,1.3-6.4,0.2-7.9-0.9c-4.8-3.6-4.3-9.3-2.6-13.6c-6.4,0.5-9.5,4.3-12.2,7.8c-2,2.5-3.9,4.9-6.9,4.9
			c-1.7,0-3.2-0.7-4.4-1.9c-1.6-1.7-2.2-4.3-2.4-6.5C14.9,19.2,6.7,46.3,6.6,46.6c-0.4,1.4-1.8,2.2-3.2,1.8
			c-1.4-0.4-2.2-1.8-1.8-3.2C2.1,43.8,11.7,11.5,34,6.9c0.8-0.2,1.6,0.1,2.2,0.6c0.6,0.5,0.9,1.3,0.9,2.2c-0.2,1.9,0.1,5.1,1.1,6.2
			c0.1,0.2,0.3,0.2,0.6,0.2c0.5-0.1,2-1.9,2.9-3c3.5-4.4,8.8-11,20.7-9.6c0.9,0.1,1.7,0.7,2,1.5c0.4,0.8,0.3,1.8-0.2,2.5
			c0,0.1-4.8,7.4-0.6,10.5c0.3,0.2,1.1,0.8,3.2,0.1c5.3-1.8,12.6-10,14.5-16.3c0.3-1,1.2-1.7,2.2-1.8c1-0.1,2,0.4,2.5,1.3
			c0.2,0.4,4.8,8.7,3.1,17.7c-0.2,0.9-0.3,1.7-0.5,2.5c-0.9,4.3-1.8,9.2-0.6,9.8c2,0.9,6.2-0.8,6.9-1.9c0.4-1.2,1.5-2,2.8-1.8
			c1.3,0.1,2.3,1.2,2.3,2.5c0,0.6,0.4,13.9-5.8,20.8c-1.5,1.7-3.7,3.7-6.3,6c-7,6.3-17.5,15.8-18.8,23.7
			C68.8,81.8,67.7,82.7,66.4,82.7z"/>
	</g>
	<g>
		<g>
			<ellipse class="st0" cx="59.5" cy="34.7" rx="4.7" ry="4.8"/>
		</g>
		<g>
			<ellipse class="st0" cx="65.1" cy="46.6" rx="3.1" ry="3.1"/>
		</g>
		<g>
			<ellipse class="st0" cx="46.9" cy="31.8" rx="2.9" ry="2.9"/>
		</g>
	</g>
	<g>
		<g>
			<path class="st0" d="M32.3,60.7c-0.6,0-1.1-0.5-1.1-1.1V48.1c0-0.6,0.5-1.1,1.1-1.1c0.6,0,1.1,0.5,1.1,1.1v11.4
				C33.4,60.2,32.9,60.7,32.3,60.7z"/>
		</g>
		<g>
			<path class="st0" d="M32.3,87.7c-0.6,0-1.1-0.5-1.1-1.1V75.1c0-0.6,0.5-1.1,1.1-1.1c0.6,0,1.1,0.5,1.1,1.1v11.5
				C33.4,87.2,32.9,87.7,32.3,87.7z"/>
		</g>
		<g>
			<path class="st0" d="M23.2,68.3h-10c-0.6,0-1.1-0.5-1.1-1.1s0.5-1.1,1.1-1.1h10c0.6,0,1.1,0.5,1.1,1.1S23.9,68.3,23.2,68.3z"/>
		</g>
		<g>
			<path class="st0" d="M51.3,68.3H41.1c-0.6,0-1.1-0.5-1.1-1.1s0.5-1.1,1.1-1.1h10.3c0.6,0,1.1,0.5,1.1,1.1S52,68.3,51.3,68.3z"/>
		</g>
		<g>
			<path class="st0" d="M25.9,61.8c-0.3,0-0.6-0.1-0.8-0.3l-6.6-6.8c-0.4-0.4-0.4-1.1,0-1.6c0.4-0.4,1.1-0.4,1.6,0l6.6,6.8
				c0.4,0.4,0.4,1.1,0,1.6C26.5,61.7,26.2,61.8,25.9,61.8z"/>
		</g>
		<g>
			<path class="st0" d="M45.9,82c-0.3,0-0.5-0.1-0.8-0.3L37,74c-0.4-0.4-0.5-1.1,0-1.6c0.4-0.4,1.1-0.5,1.6,0l8.1,7.6
				c0.4,0.4,0.5,1.1,0,1.6C46.4,81.9,46.1,82,45.9,82z"/>
		</g>
		<g>
			<path class="st0" d="M38.7,61.5c-0.3,0-0.6-0.1-0.8-0.4c-0.4-0.5-0.4-1.2,0.1-1.6l7.4-6.5c0.5-0.4,1.2-0.4,1.6,0.1
				s0.4,1.2-0.1,1.6l-7.4,6.5C39.3,61.4,39,61.5,38.7,61.5z"/>
		</g>
		<g>
			<path class="st0" d="M18.8,82c-0.3,0-0.6-0.1-0.8-0.3c-0.4-0.4-0.4-1.1,0-1.6l7.3-7c0.4-0.4,1.1-0.4,1.6,0c0.4,0.4,0.4,1.1,0,1.6
				l-7.3,7C19.3,81.9,19.1,82,18.8,82z"/>
		</g>
	</g>
</g>
</svg>
