<?xml version="1.0" encoding="utf-8"?>
<!-- Generator: Adobe Illustrator 24.3.0, SVG Export Plug-In . SVG Version: 6.00 Build 0)  -->
<svg version="1.1" id="_x31_02_x5F_AlpineSkiing_1_"
	 xmlns="http://www.w3.org/2000/svg" xmlns:xlink="http://www.w3.org/1999/xlink" x="0px" y="0px" viewBox="0 0 100 100"
	 style="enable-background:new 0 0 100 100;" xml:space="preserve">
<style type="text/css">
	.st0{fill:#596079;}
</style>
<g id="_x31_02_x5F_AlpineSkiing">
	<g>
		<ellipse class="st0" cx="84.7" cy="9.7" rx="8.5" ry="8.4"/>
	</g>
	<g>
		<path class="st0" d="M83.6,52.7c-0.7,0-1.4-0.1-2-0.4c-4.4-1.9-12.4-5.4-16.3-7.6c-4-2.3-4.9-6.8-4.9-10.1l-2.7,0.9
			c-0.8,0.3-1.7,0.1-2.4-0.4L40,23.8c-0.6-0.5-1-1.2-1-1.9c0-0.8,0.3-1.5,0.8-2l3-2.8c0.1-0.1,0.1-0.1,0.2-0.2
			c12.2-9.3,26.8-9.2,32.4-3.4c4.3,4.6,1.4,15.9-0.3,21.3l11.8,8.9c2.1,1.6,2.6,4.4,1.3,6.7C87.1,51.8,85.4,52.7,83.6,52.7z
			 M63.4,28.2c0.6,0,1.3,0.2,1.7,0.7c0.7,0.6,1,1.6,0.8,2.5c0,0.1-1.5,6.9,1.9,8.8c3.7,2.1,11.5,5.5,15.3,7.1l-12.7-9.6
			c-0.9-0.7-1.3-1.9-0.9-2.9c2.5-7,3.9-15.9,2.1-17.8c-3-3.1-14.2-4.5-25.4,3.9l-0.6,0.6l11.8,8.7l5.3-1.8
			C62.9,28.3,63.1,28.2,63.4,28.2z"/>
	</g>
	<g>
		<path class="st0" d="M84.7,98.7c-2.4,0-4.9-0.5-7.2-1.7c-5.1-2.7-58-32.5-74.1-41.6c-1.5-0.9-2.6-2.3-3.1-4
			c-0.4-1.7-0.2-3.5,0.7-5c1.8-3.1,5.8-4.1,8.9-2.3l33.9,19.4l5.4-6.8c0.1-0.1,0.1-0.2,0.2-0.2c0.3-0.3,0.8-1.1,0.8-1.7
			c0-0.5-0.6-1-1.1-1.4c-0.6-0.4-1.5-1-2.5-1.6c-4.6-2.8-12.4-7.4-13.9-14.6c-0.8-3.8,0.2-7.6,2.9-11.6c0.8-1.2,2.4-1.5,3.6-0.7
			L64,42.1c0,0,0.1,0.1,0.1,0.1c0.2,0.2,5.4,4.2,6,10.1c0.3,3.1-0.7,6.1-3,8.8c-4,4.7-7.1,8.5-8.9,10.7l22.9,13.5
			c2.5,0.7,5.5,0.9,6.1,0.4c0.3-0.2,0.5-0.4,0.8-0.6c2-1.7,5.4-4.5,9.5-1.5c1.6,1.2,2.5,2.9,2.4,4.8c-0.1,3-2.3,5.8-4.5,7.2
			C93.4,96.9,89.3,98.7,84.7,98.7z M6.6,48.4c-0.5,0-0.9,0.2-1.2,0.7c-0.2,0.4-0.2,0.8-0.1,1c0.1,0.3,0.3,0.6,0.6,0.8
			c16.1,9.1,68.9,38.9,73.9,41.6c5.1,2.6,11,0,12.9-1.2c1.2-0.8,2.1-2.2,2.1-3c0-0.2,0-0.3-0.3-0.5c-0.7-0.5-0.9-0.6-3.1,1.3
			c-0.3,0.2-0.6,0.5-0.9,0.7c-3.2,2.6-9.3,1-11.2,0.5C79.2,90,79,90,78.8,89.9L53,74.7c-0.7-0.4-1.1-1-1.2-1.8
			c-0.1-0.7,0.1-1.5,0.5-2.1c0-0.1,4.3-5.3,10.9-13.1c1.4-1.6,1.9-3.2,1.8-4.9c-0.4-3.4-3.6-6.1-4-6.5L38.5,30.8
			c-0.9,1.9-1.1,3.6-0.8,5.3c1.1,5,7.4,8.7,11.5,11.2c1.2,0.7,2.2,1.3,2.9,1.8c2.5,1.8,3.1,3.8,3.2,5.2c0.2,2.9-1.6,5-2.2,5.6
			l-6.7,8.5c-0.8,1-2.2,1.3-3.3,0.6L7.3,48.6C7,48.4,6.8,48.4,6.6,48.4z"/>
	</g>
	<g>
		<path class="st0" d="M41.5,24.3c-0.5,0-1.1-0.2-1.5-0.5L21.6,10.4c-1.2-0.8-1.4-2.5-0.6-3.6c0.8-1.2,2.5-1.4,3.6-0.6L43,19.6
			c1.2,0.8,1.4,2.5,0.6,3.6C43.1,23.9,42.3,24.3,41.5,24.3z"/>
	</g>
	<g>
		<path class="st0" d="M30.9,4.8l-8.1,12.2c0,0,5,2.4,9.3-2.8S30.9,4.8,30.9,4.8z"/>
	</g>
</g>
</svg>
