<?xml version="1.0" encoding="utf-8"?>
<!-- Generator: Adobe Illustrator 24.3.0, SVG Export Plug-In . SVG Version: 6.00 Build 0)  -->
<svg version="1.1" id="_x31_04_x5F_Pesapallo_1_" xmlns="http://www.w3.org/2000/svg" xmlns:xlink="http://www.w3.org/1999/xlink"
	 x="0px" y="0px" viewBox="0 0 100 100" style="enable-background:new 0 0 100 100;" xml:space="preserve">
<style type="text/css">
	.st0{fill:#596079;}
</style>
<g id="_x31_04_x5F_Pesapallo">
	<g>
		<g>
			<g>
				<path class="st0" d="M16.5,90.7c-0.6,0-1.2-0.2-1.6-0.7l-5.1-5.1c-0.9-0.9-0.9-2.2,0-3.1l25.9-27.5l22.1-27.4
					c0.1-0.1,0.2-0.2,0.3-0.3L81.9,2.5c1.4-1.4,3.3-2.2,5.3-2.2c0,0,0,0,0,0c2,0,3.9,0.8,5.3,2.2l4.6,4.6c2.9,2.9,2.9,7.7,0,10.6
					l-23.9,24c-0.1,0.1-0.2,0.2-0.3,0.3L45.7,63.6L18.1,90.1C17.7,90.5,17.1,90.7,16.5,90.7z M14.6,83.3l2,2l26.1-25
					c0,0,0.1-0.1,0.2-0.1L70,38.5l23.9-23.9c1.2-1.2,1.2-3.1,0-4.3l-4.6-4.6c-0.6-0.6-1.3-0.9-2.1-0.9c0,0,0,0,0,0
					c-0.8,0-1.5,0.3-2.1,0.9L61.4,29.8L39.2,57.2c0,0-0.1,0.1-0.1,0.1L14.6,83.3z"/>
			</g>
		</g>
		<g>
			<path class="st0" d="M43.9,64.5c-0.6,0-1.2-0.2-1.6-0.7l-6.4-6.4c-0.9-0.9-0.9-2.3,0-3.2c0.9-0.9,2.3-0.9,3.2,0l6.4,6.4
				c0.9,0.9,0.9,2.3,0,3.2C45,64.3,44.4,64.5,43.9,64.5z"/>
		</g>
		<g>
			<polygon class="st0" points="88.2,23.4 76.3,11.5 81.2,6.5 93.1,18.5 			"/>
		</g>
		<g>
			<path class="st0" d="M13.8,100c-1.9,0-3.7-0.8-5.1-2.1l-6.5-6.6c-2.8-2.8-2.8-7.4,0-10.2c1.4-1.4,3.2-2.1,5.1-2.1
				s3.7,0.8,5.1,2.1l6.5,6.6c2.8,2.8,2.8,7.4,0,10.2C17.5,99.2,15.7,100,13.8,100z M7.2,83.4c-0.7,0-1.4,0.3-1.9,0.8
				c-1.1,1.1-1.1,2.9,0,3.9l6.5,6.6l0,0c1,1,2.8,1,3.9,0c1.1-1.1,1.1-2.9,0-3.9l-6.5-6.6C8.6,83.7,7.9,83.4,7.2,83.4z"/>
		</g>
	</g>
	<g>
		<g>
			<g>
				<path class="st0" d="M41.8,52.7c-0.5,0-1-0.2-1.4-0.5L27.5,41.6c-0.1-0.1-0.2-0.2-0.3-0.3l-23.9-24c-2.9-2.9-2.9-7.7,0-10.6
					l4.6-4.6C9.2,0.8,11.1,0,13.1,0c0,0,0,0,0,0c2,0,3.9,0.8,5.3,2.2l23.8,24.1c0,0,0.1,0.1,0.1,0.2l0.1,0.1l9.5,12.1
					c0.8,1,0.6,2.4-0.4,3.1c-1,0.8-2.4,0.6-3.1-0.4l-9.5-12.1l-23.7-24c-0.6-0.6-1.3-0.9-2.1-0.9c0,0,0,0,0,0
					c-0.8,0-1.5,0.3-2.1,0.9L6.4,9.9c-1.2,1.2-1.2,3.1,0,4.3l23.9,24l12.8,10.5c1,0.8,1.1,2.2,0.3,3.2
					C43.1,52.4,42.4,52.7,41.8,52.7z M30.3,38.1L30.3,38.1C30.3,38.2,30.3,38.1,30.3,38.1z"/>
			</g>
			<g>
				<path class="st0" d="M83.5,90.7c-0.6,0-1.1-0.2-1.6-0.6L54.7,63.9l-6-5c-1-0.8-1.1-2.2-0.3-3.2c0.8-1,2.2-1.1,3.2-0.3l6.1,5
					c0,0,0.1,0.1,0.1,0.1l25.7,24.7l2-2L60.6,57c0,0-0.1-0.1-0.1-0.1L56.6,52c-0.8-1-0.6-2.4,0.4-3.1c1-0.8,2.4-0.6,3.1,0.4l4,5.1
					l26,27.5c0.8,0.9,0.8,2.3,0,3.1L85,90C84.6,90.5,84,90.7,83.5,90.7z"/>
			</g>
		</g>
		<g>
			<path class="st0" d="M56.1,64.5c-0.6,0-1.1-0.2-1.6-0.6c-0.9-0.9-0.9-2.3,0-3.2l6.4-6.4c0.9-0.9,2.3-0.9,3.2,0
				c0.9,0.9,0.9,2.3,0,3.2l-6.4,6.4C57.3,64.3,56.7,64.5,56.1,64.5z"/>
		</g>
		<g>
			<polygon class="st0" points="24,11.1 12.1,23.1 7.2,18.2 19.1,6.2 			"/>
		</g>
		<g>
			<path class="st0" d="M86.2,100c-1.9,0-3.7-0.8-5.1-2.1c-2.8-2.8-2.8-7.4,0-10.2l6.5-6.6c1.4-1.4,3.2-2.1,5.1-2.1
				c1.9,0,3.7,0.8,5.1,2.1c2.8,2.8,2.8,7.4,0,10.2v0l-6.5,6.6C90,99.2,88.2,100,86.2,100z M92.8,83.4c-0.7,0-1.4,0.3-1.9,0.8
				l-6.5,6.6c-1.1,1.1-1.1,2.9,0,3.9c1,1,2.8,1,3.9,0l6.5-6.6c0,0,0,0,0,0c1.1-1.1,1.1-2.9,0-3.9C94.2,83.7,93.5,83.4,92.8,83.4z"/>
		</g>
	</g>
</g>
</svg>
