<?xml version="1.0" encoding="utf-8"?>
<!-- Generator: Adobe Illustrator 24.3.0, SVG Export Plug-In . SVG Version: 6.00 Build 0)  -->
<svg version="1.1" id="_x31_06_x5F_SkiJumping_1_" xmlns="http://www.w3.org/2000/svg" xmlns:xlink="http://www.w3.org/1999/xlink"
	 x="0px" y="0px" viewBox="0 0 100 100" style="enable-background:new 0 0 100 100;" xml:space="preserve">
<style type="text/css">
	.st0{fill:#596079;}
</style>
<g id="_x31_06_x5F_SkiJumping">
	<g>
		<path class="st0" d="M2.6,95.2c-1,0-2-0.6-2.4-1.7c-0.5-1.3,0.1-2.8,1.5-3.4L71.7,63c0.8-0.3,1.6-0.9,2.1-1.6
			c0.8-1.1,1.2-2.1,1.1-3c-0.2-1.4,0.9-2.7,2.3-2.9c1.4-0.2,2.7,0.9,2.9,2.3c0.3,2.3-0.5,4.6-2.1,6.8c-1.1,1.4-2.6,2.6-4.3,3.2
			L3.5,95C3.2,95.1,2.9,95.2,2.6,95.2z"/>
	</g>
	<g>
		<path class="st0" d="M89.6,26.7c-5.7,0-10.4-4.9-10.4-10.9S83.9,4.8,89.6,4.8c5.7,0,10.4,4.9,10.4,10.9S95.3,26.7,89.6,26.7z
			 M89.6,10c-2.9,0-5.2,2.6-5.2,5.7s2.3,5.7,5.2,5.7c2.9,0,5.2-2.6,5.2-5.7S92.5,10,89.6,10z"/>
	</g>
	<g>
		<path class="st0" d="M27.6,84.1c-0.5-0.5-4.5-4.8,2.2-13.1c4.1-5.1,20.2-25.2,28-34.8l-19.4,3c-1.6,0.2-3.1-0.2-4.4-1.1
			c-1.3-1-2.2-2.5-2.4-4.2c-0.4-3.2,1.7-6.3,4.7-6.9l36.6-8c1.5-0.3,2.8-0.4,4.1-0.3c5,0.5,8,3.6,8.2,8.5c0.1,3.2-1.1,6.5-3.4,8.9
			l-37.6,40l0.2,0.5c0.5,1.3-0.1,2.8-1.4,3.4c-1.3,0.5-2.8-0.1-3.4-1.4l-0.8-2c-0.4-0.9-0.2-2,0.5-2.7l38.7-41.2
			c1.4-1.5,2.1-3.3,2-5.2c-0.1-1.6-0.5-3.2-3.6-3.5c-0.7-0.1-1.6,0-2.5,0.2l-36.6,8c-0.4,0.1-0.7,0.6-0.7,1.2c0,0.3,0.2,0.6,0.4,0.7
			c0.2,0.1,0.3,0.2,0.5,0.1l26-4.1c1.1-0.2,2.1,0.3,2.6,1.3c0.5,0.9,0.4,2.1-0.2,2.9c0,0-26.7,33.3-32.1,40.1
			c-3,3.8-2.8,5.8-2.5,6.3c-0.1-0.1-0.1-0.2-0.1-0.2L27.6,84.1z"/>
	</g>
</g>
</svg>
