<?xml version="1.0" encoding="utf-8"?>
<!-- Generator: Adobe Illustrator 24.3.0, SVG Export Plug-In . SVG Version: 6.00 Build 0)  -->
<svg version="1.1" id="_x31_10_x5F_Lacross" xmlns="http://www.w3.org/2000/svg" xmlns:xlink="http://www.w3.org/1999/xlink"
	 x="0px" y="0px" viewBox="0 0 100 100" style="enable-background:new 0 0 100 100;" xml:space="preserve">
<style type="text/css">
	.st0{fill:#596079;}
</style>
<g>
	<path class="st0" d="M100,29l-0.1-0.4c-0.1-0.3-0.1-0.6-0.2-0.9c-1.1-6.4-4.2-12.1-9.3-17.5L90.3,10c-0.2-0.2-0.6-0.7-1.3-0.7
		l-0.3,0c-0.6,0-1.3,0-2,0.3c-1.1,0.6-1.4,2-0.7,3.3c0.2,0.4,0.5,0.7,0.8,0.9L87,14c2.7,2.9,4.7,6,6.1,9.4c1.6,4,2.1,7.4,1.4,10.8
		c-1,4.8-5.1,9.6-11.3,9.6c-0.1,0-0.1,0-0.2,0l-0.4,0c-1.8,0-3.9-0.1-5.8,0.9c-1.6,0.8-3.3,1.8-5,3c-2.8,1.9-5.5,2.9-8.3,3.2
		c-4.1,0.4-8.1-1.2-10.9-4.3c-2.8-3.1-4-7.2-3.3-11.3c0.5-2.8,1.7-5.3,3.8-8.1c2.2-2.9,3.3-6,3.1-9.2c0-0.4,0-0.7,0-1.1
		c0-0.2,0-0.4,0-0.6c0.1-3.5,1.6-6.3,4.4-8.5c3.5-2.6,7.6-3.3,12.7-2.1c2.6,0.6,5.1,1.8,7.9,3.5c1.3,0.8,2.8,0.6,3.7-0.6
		c0.4-0.6,0.6-1.3,0.4-2c-0.1-0.7-0.5-1.3-1.2-1.7C77.8,1,72-0.6,65.9,0.2c-7,0.9-13,6.2-14.4,13c-0.4,1.7-0.4,3.4-0.4,5.1l0,0.2
		c0,1.8-0.5,3.4-1.6,4.9c-0.2,0.3-0.5,0.7-0.7,1c-0.3,0.4-0.6,0.8-0.8,1.2c-3.9,5.7-4.9,11.7-3.1,17.8c0,0,0,0,0,0
		c-0.8,0.8-1.6,1.7-2.4,2.5c-0.5,0.4-0.9,0.9-1.3,1.4c-1.3,1.3-1.8,2.9-1.4,4.6c0,0.1,0,0.1,0,0.1c0,0,0,0.1-0.2,0.2
		c-2.9,2.9-5.9,5.9-8.8,8.8L25.6,66c-5.1,5.1-10.2,10.2-15.2,15.2c0,0-0.1,0.1-0.2,0.1c-1.5-0.2-2.8,0.2-3.9,1.3
		c-0.5,0.5-1,1-1.6,1.6c-1,0.9-1.9,1.9-2.9,2.9c-0.5,0.5-0.8,1.1-1.2,1.6c-0.1,0.2-0.3,0.4-0.4,0.7C0.1,89.6,0,89.8,0,90.1v1.3
		c0,0.2,0.1,0.5,0.2,0.7c0.2,0.2,0.3,0.4,0.4,0.6c0.4,0.5,0.7,1.1,1.2,1.6c1.2,1.3,2.5,2.6,3.9,3.9c0.5,0.5,1,0.8,1.5,1.2
		c0.2,0.1,0.4,0.3,0.6,0.4c0.2,0.1,0.4,0.2,0.7,0.2h1.3c0.2,0,0.4-0.1,0.6-0.2c0.1-0.1,0.3-0.2,0.4-0.2c0.4-0.2,0.9-0.5,1.3-0.9
		c1.5-1.4,2.9-2.9,4.4-4.3l0.9-0.9c1.1-1.1,1.5-2.3,1.2-3.6c0-0.1,0-0.2,0-0.2c0,0,0-0.1,0.3-0.3c5.3-5.3,10.6-10.6,15.9-15.9
		c1.2-1.2,1.3-2.8,0.3-3.9c-0.6-0.6-1.3-0.8-2-0.8c-0.7,0.1-1.3,0.4-1.9,1c-0.8,0.8-1.5,1.5-2.3,2.3l-6,6l-1-0.9l20.8-20.8l1,0.9
		l-6.9,6.9l-0.2,0.2c-0.2,0.2-0.5,0.4-0.7,0.7c-0.9,1.1-0.9,2.4,0,3.4c0.9,1,2.4,1.1,3.5,0.3c0.2-0.2,0.4-0.4,0.6-0.5l1.9-1.9
		c2-2,3.9-3.9,5.9-5.9c0,0,0.1,0,0.1-0.1c1.8,0.4,3.4-0.2,4.8-1.6c0.5-0.5,1-1,1.4-1.4c0.7-0.7,1.5-1.5,2.2-2.2c0,0,0,0,0,0
		c0,0,0,0,0,0c3.1,1,6.4,1.2,9.8,0.5c3.3-0.7,6.3-2.1,9.2-4.3c2.1-1.7,4.4-2.4,6.7-2.3c1.2,0.1,2.4,0,3.4-0.2
		c6.7-1.2,11.2-5.2,13.4-12c0.3-0.8,0.4-1.6,0.6-2.4c0.1-0.3,0.1-0.7,0.2-1c0-0.1,0-0.2,0-0.3v-3.8C100,29.1,100,29,100,29z
		 M18.2,81.1l0.8,0.8l-3.4,3.4l-0.8-0.8L18.2,81.1z M12.9,90.5l-3.7,3.6l-3.4-3.4l3.7-3.6L12.9,90.5z M47.3,48.3
		c1.3,1.7,2.7,3.2,4.4,4.4l-0.2,0.2c-0.8,0.8-1.6,1.5-2.3,2.3L48,54c-1.1-1.1-2.1-2.1-3.2-3.2L47.3,48.3z"/>
	<path class="st0" d="M55.8,29.8c-1.2,1.6-2.2,3.3-2.7,5.3c-1.6,6.5,3,12.2,9.7,12c2.6-0.1,4.9-1.1,6.9-2.6c2.3-1.7,4.8-3.4,7.7-3.9
		c2-0.4,4-0.4,6-0.5c2.4-0.1,4.3-1.1,5.8-3c1.4-1.8,1.9-3.8,2-6c-0.2-1.3-0.3-2.7-0.7-3.9c-2.1-7.1-6.7-12.2-13-15.8
		c-2.8-1.6-5.9-2.5-9.2-2.5c-4,0.1-8.8,2.9-8.5,8.7c0.1,1.3,0,2.7-0.2,4C59.1,24.7,57.6,27.3,55.8,29.8z M57.2,32.9
		c0.1,0,0.2,0.1,0.2,0.1c1.2,1.2,2.4,2.4,3.5,3.5c-1.5,1.5-2.9,2.9-4.3,4.3C55.2,39.2,55.4,35.5,57.2,32.9z M58.9,43.3
		c1.5-1.5,2.9-2.9,4.2-4.2c1.2,1.2,2.5,2.5,3.8,3.8C65.6,44.3,60.9,45,58.9,43.3z M69.2,40.6c-1.2-1.2-2.5-2.5-3.8-3.8
		c1.4-1.4,2.9-2.9,4.4-4.3c1.2,1.2,2.5,2.5,3.7,3.8C72.1,37.7,70.7,39.2,69.2,40.6z M69.7,27.9c-1.2-1.2-2.5-2.5-3.8-3.8
		c1.3-1.3,2.8-2.8,4.3-4.3c1.2,1.2,2.6,2.6,3.8,3.8C72.6,25.1,71.1,26.5,69.7,27.9z M71.9,30.2c1.4-1.4,2.9-2.9,4.4-4.4
		c1.3,1.3,2.6,2.7,3.9,4c-1.4,1.4-2.9,2.9-4.3,4.3C74.6,32.9,73.2,31.5,71.9,30.2z M83.5,37.2c-2.3,0.1-4.5,0.2-6.5,0.3
		c1.7-1.7,3.6-3.6,5.4-5.4c1.2,1.2,2.5,2.5,3.9,3.9C85.6,36.8,84.6,37.1,83.5,37.2z M88,33c-1.1-1.1-2.2-2.2-3.3-3.3
		c0.8-0.8,1.8-1.7,2.7-2.7C88.2,28.7,88.5,31.5,88,33z M86.2,23.8c-1.3,1.3-2.6,2.6-3.7,3.7c-1.2-1.2-2.6-2.6-3.8-3.9
		c1.3-1.3,2.8-2.8,4.4-4.4C84.1,20.8,85.2,22.3,86.2,23.8z M80.8,17c-1.6,1.6-3,3-4.4,4.4c-1.3-1.3-2.6-2.6-3.9-3.9
		c1.1-1.1,2.4-2.3,3.8-3.7C77.7,14.8,79.2,15.9,80.8,17z M73,12.5c-1,1-1.9,1.9-2.8,2.8c-1-1-2.2-2.1-3.4-3.3
		C69,11.5,71,11.8,73,12.5z M62.8,16.9c0-1.3,0.4-2.4,1.2-3.2c1.3,1.3,2.6,2.7,3.9,3.9c-1.8,1.8-3.7,3.7-5.4,5.4
		C62.5,21.1,62.7,19,62.8,16.9z M63.7,26.4c1.2,1.2,2.5,2.5,3.8,3.8c-1.4,1.4-2.9,2.9-4.4,4.4c-1.2-1.2-2.5-2.5-3.8-3.8
		C60.8,29.3,62.3,27.9,63.7,26.4z"/>
	<path class="st0" d="M59.8,67.2C59.8,67.2,59.8,67.2,59.8,67.2c-3.2,0-6.2,1.3-8.5,3.5C49,73,47.7,76,47.7,79.2c0,6.6,5.4,12,12,12
		c0,0,0,0,0,0c3.2,0,6.2-1.2,8.5-3.5c2.3-2.3,3.5-5.3,3.5-8.5C71.8,72.6,66.4,67.2,59.8,67.2z M59.8,86.1
		C59.8,86.1,59.8,86.1,59.8,86.1c-1.9,0-3.6-0.7-4.9-2c-1.3-1.3-2-3.1-2-4.9c0-3.7,3.2-6.8,6.9-6.8c0,0,0,0,0,0
		c3.8,0,6.8,3.1,6.8,6.9C66.6,83.1,63.6,86.1,59.8,86.1z"/>
</g>
</svg>
