<?xml version="1.0" encoding="utf-8"?>
<!-- Generator: Adobe Illustrator 24.3.0, SVG Export Plug-In . SVG Version: 6.00 Build 0)  -->
<svg version="1.1" id="_x31_14_x5F_FreestyleWrestling"
	 xmlns="http://www.w3.org/2000/svg" xmlns:xlink="http://www.w3.org/1999/xlink" x="0px" y="0px" viewBox="0 0 100 100"
	 style="enable-background:new 0 0 100 100;" xml:space="preserve">
<style type="text/css">
	.st0{fill:#596079;}
</style>
<g>
	<ellipse class="st0" cx="71.1" cy="31.3" rx="7.1" ry="7"/>
	<path class="st0" d="M99.9,42.5L99.9,42.5c-0.4-2.3-1.7-4.7-6.6-8.9c-2.1-1.8-4.2-3.4-4.6-3.7c-1.4-1-3-1.4-4.7-1.1
		c-1.7,0.2-3.1,1.1-4.1,2.5c-1,1.3-1.4,3-1.2,4.7c0.3,1.7,1.1,3.1,2.5,4.1c1.5,1.1,3.1,2.4,4.4,3.5c-1.9,1.6-4.6,3.5-7.1,5
		c-1.4,0.9-2.4,2.3-2.8,3.9c-0.4,1.6-0.1,3.3,0.8,4.7c0.3,0.4,0.6,0.8,1,1.2c-0.7-0.3-1.5-0.4-2.4-0.4c-3.9,0-7.1,3.2-7.1,7
		c0,0,0,0.1,0,0.1c-0.4-0.5-0.9-1-1.4-1.5c1.9-1.3,2.9-3.5,2.6-5.9c0-0.1-0.7-5.7,1.6-11.2c0.6-1.5,0.6-3.2,0-4.8
		c-0.6-1.6-1.9-2.8-3.4-3.4c0,0,0,0,0,0c-1.6-0.6-3.3-0.6-4.8,0c-1.6,0.6-2.8,1.9-3.4,3.4c-2.3,5.5-2.7,11-2.6,14.4
		c-0.4-0.2-0.7-0.5-1.1-0.7c1.5-6.3,2.3-10,2.5-11.1c0.5-2.9,0.1-5.1-6.7-15.5c-0.9-1.4-2-3-3.1-4.6l1.6-2.2
		c1.2-1.6,1.6-3.5,1.3-5.5c-0.3-1.9-1.4-3.6-3-4.8c-1.6-1.1-3.6-1.6-5.5-1.3c-1.9,0.3-3.7,1.4-4.8,3l-4.6,6.4
		c-1.8,2.5-1.9,5.9-0.1,8.5c4.2,5.9,8.3,12.3,9.9,15.2c-0.6,2.5-1.6,6.7-2.3,9.8c-13.2,3.4-31.2-1.8-31.3-1.8
		c-1.9-0.6-3.9-0.4-5.6,0.5c-1.7,0.9-3,2.5-3.6,4.3c-0.6,1.9-0.4,3.8,0.6,5.6c0.9,1.7,2.5,3,4.4,3.6c1,0.3,23.3,6.9,41.1,1.5
		c1.6,1,3.1,1.9,4.5,2.8c1.2,0.8,2.3,1.6,3.1,2.2c-0.1,0-0.3,0-0.4,0c-1.3,0-4.8-1.2-7.4-2.5c-1.8-0.9-3.8-1-5.6-0.4
		c-1.9,0.6-3.4,1.9-4.3,3.7c-0.9,1.8-1,3.7-0.4,5.6c0.6,1.9,2,3.4,3.7,4.2c1.9,0.9,8.3,3.9,13.6,4l0.3,0c4.8,0,10.6-2.4,14.1-5.8
		c3.2-3.1,3.8-6.2,3.8-8.3c0-0.6,0-1.2-0.2-1.8c1.1,0.8,2.5,1.2,4,1.2c3.9,0,7.1-3.2,7.1-7c0-2.1-0.9-4-2.4-5.3
		c0.6,0.2,1.3,0.3,2,0.3c0.4,0,0.8-0.1,1.2-0.1v23.2c0,3.5,2.8,6.3,6.3,6.3c3.5,0,6.3-2.8,6.3-6.3V59.6c0-2.3-1.3-4.4-3.2-5.4
		C96.8,50.8,100.7,47.2,99.9,42.5z M63.3,43.5c0.2-0.5,0.6-0.9,1.1-1.1c0.2-0.1,0.5-0.2,0.8-0.2c0.3,0,0.5,0.1,0.8,0.2
		c0.5,0.2,0.9,0.6,1.1,1.1c0.2,0.5,0.2,1,0,1.5c-2.7,6.5-1.9,13.1-1.9,13.4c0.1,1.1-0.6,2-1.7,2.2c-0.1,0-0.3,0-0.4,0
		c-0.5-0.4-1.1-0.8-1.7-1.3c-0.1-0.1-0.1-0.3-0.1-0.4C61.1,58.5,60.1,51.1,63.3,43.5z M64.6,78c-2.7,2.6-7.4,4.5-11.1,4.5l-0.2,0
		c-3.5-0.1-8.6-2-11.8-3.6c-0.7-0.4-1.3-1-1.5-1.8c-0.3-0.8-0.2-1.6,0.2-2.3c0.4-0.7,1-1.3,1.8-1.5c0.3-0.1,0.7-0.2,1-0.2
		c0.5,0,0.9,0.1,1.4,0.3c2.3,1.1,6.8,2.9,9.3,2.9c2,0,4.4-1,5.7-1.9c0.6-0.4,0.9-0.9,1-1.6c0.1-0.7-0.2-1.3-0.6-1.8
		c-1.4-1.3-3.5-3-6.3-4.8c-1.7-1.1-3.5-2.3-5.5-3.4c-0.5-0.3-1.2-0.4-1.8-0.2c-16.6,5.5-38.5-0.9-39.4-1.2c-0.8-0.2-1.4-0.8-1.8-1.5
		c-0.4-0.7-0.5-1.5-0.2-2.3c0.2-0.8,0.8-1.4,1.5-1.8c0.7-0.4,1.6-0.5,2.4-0.2c0.8,0.2,20.4,5.9,35,1.5c0.7-0.2,1.3-0.8,1.5-1.6
		c1-4,2.2-9.3,2.8-11.8c0.1-0.5,0-1-0.2-1.4c-1.3-2.7-5.9-9.8-10.6-16.4c-0.7-1-0.7-2.4,0-3.5l4.6-6.4c0.5-0.7,1.2-1.1,2-1.2
		c0.8-0.1,1.6,0.1,2.3,0.5c0.7,0.5,1.1,1.2,1.2,2c0.1,0.8-0.1,1.6-0.5,2.2L43.9,23c-0.5,0.7-0.5,1.7,0,2.5c1.4,2.1,2.7,4,3.9,5.8
		c6.5,10,6.3,11.1,6.1,12.4c-0.1,0.7-0.7,3.5-2.9,12.4c-0.2,0.9,0.2,1.9,1,2.3c1.9,1.2,3.7,2.3,5.3,3.4c0.2,0.2,0.5,0.3,0.7,0.5
		c0.8,1,1.8,1.8,3.1,2.2c6,4.8,6,7,6,8.2C67.1,74,66.7,76,64.6,78z M91.4,83.3c0,1.1-0.9,2-2,2c-1.1,0-2-0.9-2-2V59.6
		c0-1.1,0.9-2,2-2c1.1,0,2,0.9,2,2V83.3z M89.2,51.3c-3.1,2.3-6.2,4.3-6.2,4.3c-0.3,0.2-0.7,0.3-1.1,0.3c-0.7,0-1.3-0.3-1.7-0.9
		c-0.3-0.4-0.4-1-0.3-1.5c0.1-0.5,0.4-0.9,0.9-1.2c3.6-2.3,7.5-5.2,9.5-7c0.4-0.4,0.7-0.9,0.7-1.5c0-0.6-0.2-1.1-0.6-1.5
		c-1.5-1.6-4.1-3.8-6.6-5.6c-0.4-0.3-0.7-0.8-0.8-1.3c-0.1-0.5,0-1,0.4-1.4c0.3-0.4,0.8-0.7,1.3-0.8c0.1,0,0.2,0,0.3,0
		c0.4,0,0.8,0.1,1.2,0.4c0.2,0.2,2.2,1.7,4.3,3.4c4.8,4.1,5,5.7,5.2,6.4C96,45.3,94.2,47.5,89.2,51.3z"/>
</g>
</svg>
