<?xml version="1.0" encoding="utf-8"?>
<!-- Generator: Adobe Illustrator 24.3.0, SVG Export Plug-In . SVG Version: 6.00 Build 0)  -->
<svg version="1.1" id="_x31_16_x5F_RinkHockey_1_" xmlns="http://www.w3.org/2000/svg" xmlns:xlink="http://www.w3.org/1999/xlink"
	 x="0px" y="0px" viewBox="0 0 100 100" style="enable-background:new 0 0 100 100;" xml:space="preserve">
<style type="text/css">
	.st0{fill:#596079;}
</style>
<g id="_x31_16_x5F_RinkHockey">
	<g>
		<path class="st0" d="M78.1,72.1c-5.9,0-10.7-4.8-10.7-10.7s4.8-10.7,10.7-10.7s10.7,4.8,10.7,10.7S84,72.1,78.1,72.1z M78.1,55.1
			c-3.4,0-6.2,2.8-6.2,6.2c0,3.4,2.8,6.2,6.2,6.2s6.2-2.8,6.2-6.2C84.4,57.9,81.6,55.1,78.1,55.1z"/>
	</g>
	<g>
		<path class="st0" d="M75.9,95.5c-3.9,0-21.2-0.9-26.3-17.1c0,0,0-0.1,0-0.1l-0.8-3.1c-2,1.7-4.6,2.7-7.4,2.7
			c-5.8,0-10.7-4.4-11.3-10.1h-0.6c-1.3,4.8-5.8,8.4-11,8.4c-3.7,0-7.1-1.8-9.2-4.7c-2.7,0.7-5.7-0.3-7.5-2.6l-0.3-0.4
			c-2.1-2.8-1.8-6.8,0.5-9.2c-0.2-1.2-0.2-3,0.8-4.6c0.7-1.1,2-2.6,4.9-3.2c3.4-0.6,7.1-2,8.9-2.8c0.7-0.3,1.5-0.2,2.1,0.2
			c0.1,0.1,0.2,0.1,0.4,0.1c0,0,0,0,0,0c0.3,0,4,0.1,6.6,3.9c0.2,0.3,0.4,0.3,0.5,0.3c0.1,0,0.3,0,0.4-0.1c0.2-0.1,0.2-0.3,0.3-0.4
			c0-0.1,0-0.3-0.1-0.5C25.2,50,23.3,49,22,48.4c-0.7-0.3-1.2-0.8-1.4-1.5c-0.2-0.7,0-1.5,0.5-2c0.3-0.3,0.6-0.7,0.9-1.1
			c0.6-0.7,1.5-1,2.3-0.7c0.1,0,0.2,0.1,0.3,0.1c1.4,0.1,3.8,0.7,5.9,3c0.2,0.2,0.4,0.2,0.5,0.2c0.1,0,0.3,0,0.4-0.2
			c0.2-0.1,0.2-0.3,0.2-0.4c0-0.1,0-0.3-0.2-0.5c-1.3-1.5-2.9-2.5-4.7-3c-0.7-0.2-1.2-0.7-1.4-1.3c-0.2-0.6-0.2-1.4,0.2-2
			c0.2-0.4,0.4-0.7,0.6-1.1c0.4-0.6,1-1,1.7-1.1c1.3-0.1,3.9-0.1,6.5,2.1c0.1,0.1,0.3,0.1,0.4,0.1c0.1,0,0.3,0,0.5-0.2
			c0.1-0.2,0.2-0.4,0.1-0.5c0-0.1-0.1-0.3-0.2-0.4c-1.2-1-2.6-1.7-4-2.1c-0.9-0.2-1.6-1.1-1.7-2c-0.1-1,0.5-1.9,1.4-2.2
			c1.4-0.6,3.5-1.2,6-1.3L31.5,7.2c-0.2-0.7,0-1.4,0.4-1.9s1.1-0.9,1.8-0.9h13.2c1,0,1.9,0.7,2.2,1.7l16.9,67.3
			c0.4,0.7,2.3,3.7,5.6,3.2c3.2-0.5,11-1.9,16.9-3c5.2-0.9,10.2,2.4,11.3,7.5c0,0,0,0,0,0c0.6,2.6,0.1,5.3-1.5,7.6
			c-1.5,2.2-3.8,3.7-6.5,4.2l-14.9,2.5c-0.1,0-0.2,0-0.2,0C76.6,95.5,76.3,95.5,75.9,95.5z M53.8,77.1c4.6,14.4,20.8,14,22.4,14
			l14.8-2.4c1.5-0.2,2.7-1,3.5-2.3c0.8-1.2,1.1-2.7,0.8-4.1c-0.6-2.8-3.3-4.6-6.1-4.1c-6,1.1-13.8,2.5-17,3
			c-5.6,0.9-9.3-3.5-10.4-5.9c-0.1-0.1-0.1-0.3-0.1-0.4L45.1,9h-8.6l5.5,23c0.2,0.7,0,1.5-0.5,2c-0.5,0.5-1.2,0.8-1.9,0.7
			c-0.4,0-0.8-0.1-1.1-0.1c0.8,0.8,1.3,1.9,1.5,3.1c0.1,1.4-0.3,2.7-1.1,3.8c-0.8,1-1.9,1.6-3.2,1.8c0.4,0.8,0.6,1.7,0.6,2.6
			c-0.1,1.4-0.7,2.6-1.7,3.5c-0.9,0.9-2.2,1.3-3.4,1.3c0,0,0,0,0,0c0.3,0.9,0.4,1.8,0.3,2.8c-0.3,1.3-1,2.5-2.1,3.3
			c-0.9,0.6-1.9,0.9-2.9,0.9c-1.7,0-3.3-0.8-4.2-2.2c-1.2-1.7-2.7-1.9-2.9-2h0c-0.6,0-1.2-0.1-1.7-0.3c-2.4,0.9-5.7,2.1-8.9,2.7
			c-0.9,0.2-1.5,0.5-1.8,1c-0.5,0.8-0.2,2-0.1,2.4c0.3,0.9,0,1.9-0.7,2.5l-0.4,0.3C4.3,63,4.1,64.7,5,65.8l0.3,0.4
			c0.7,0.9,2,1.3,3,0.9c0.4-0.5,1.1-0.8,1.7-0.8c0.9,0,1.7,0.5,2,1.3c1.1,2.5,3.6,4.1,6.3,4.1c3.6,0,6.6-2.8,6.9-6.3
			c0.1-1.2,1.1-2,2.2-2h4.7c0.6,0,1.2,0.3,1.7,0.7c0.4,0.5,0.6,1.1,0.6,1.7c0,0.2,0,0.5,0,0.7c0,3.8,3.1,6.9,6.9,6.9
			c2.7,0,5.2-1.6,6.3-4.1c0.4-0.8,1.2-1.4,2.1-1.3c0.9,0,1.7,0.6,2,1.5l0.1,0.3c0,0.1,0,0.1,0,0.2L53.8,77.1z"/>
	</g>
</g>
</svg>
