<?xml version="1.0" encoding="utf-8"?>
<!-- Generator: Adobe Illustrator 24.3.0, SVG Export Plug-In . SVG Version: 6.00 Build 0)  -->
<svg version="1.1" id="_x31_1_x5F_Baseball_1_" xmlns="http://www.w3.org/2000/svg" xmlns:xlink="http://www.w3.org/1999/xlink"
	 x="0px" y="0px" viewBox="0 0 100 100" style="enable-background:new 0 0 100 100;" xml:space="preserve">
<style type="text/css">
	.st0{fill:none;stroke:#596079;stroke-width:2;stroke-linecap:round;stroke-linejoin:round;stroke-miterlimit:10;}
	.st1{fill:#596079;}
</style>
<g id="_x31_1_x5F_Baseball">
	<path id="棒球" class="st0" d="M96.3,3.7c-4.9-5-13-5-17.9,0c-0.2,0.2-0.4,0.4-0.5,0.6L9.5,80.8l-1.1-1.1c-2-1.9-5.2-1.8-7.1,0.2
		c-1.8,1.9-1.8,4.9,0,6.8l11.9,11.8c2,1.9,5.1,1.9,7.1,0c2-2,2-5.1,0-7.1l-1.1-1.1L56.6,57c2.5,4.7,7.2,7.8,12.6,8h0.2H70
		c8.3,0,15-6.7,15-15c0-5-2.5-9.6-6.6-12.4l17.4-15.5c5.2-4.7,5.7-12.7,1-17.9C96.6,4.1,96.4,3.9,96.3,3.7L96.3,3.7z M33.6,73.1
		l-6.7-6.7l2.2-2.5l7,7L33.6,73.1z M27.3,78.6l-6.1-6.1l3.3-3.8l6.5,6.5L27.3,78.6z M22.3,83.1l-5.5-5.5L19,75l5.9,5.9L22.3,83.1z
		 M17.8,96.2c-0.6,0.7-1.7,0.7-2.4,0c0,0,0,0,0,0L3.7,84.4C3,83.8,3,82.7,3.7,82c0,0,0,0,0,0c0.6-0.7,1.7-0.7,2.4,0c0,0,0,0,0,0
		l11.8,11.8C18.5,94.5,18.5,95.5,17.8,96.2C17.9,96.2,17.9,96.2,17.8,96.2L17.8,96.2z M11.8,83.1l2.8-3.1l5.3,5.3L16.8,88L11.8,83.1
		z M78.3,58.3c-2,1.9-4.5,3.1-7.3,3.3C71.4,56,75.9,51.4,81.6,51C81.4,53.8,80.3,56.4,78.3,58.3z M81.5,47.7
		c-7.4,0.5-13.3,6.4-13.8,13.8c-4.6-0.9-8.1-4.5-9.1-9.1C66,51.9,71.9,46,72.4,38.7c0.9,0.2,1.7,0.5,2.5,0.8
		c1.2,0.6,2.4,1.4,3.3,2.3C79.8,43.4,80.9,45.5,81.5,47.7L81.5,47.7z M58.3,49c0.5-5.7,5-10.2,10.7-10.7C68.6,44.1,64,48.6,58.3,49z
		 M93.5,19.7L75.2,36c-1.5-0.6-3-0.9-4.6-1c-8.3-0.3-15.3,6.1-15.6,14.4c-0.1,1.4,0.1,2.8,0.4,4.2l-16.9,15l-7.3-7.3l49-54.9
		c3.4-3.9,9.4-4.2,13.2-0.8s4.2,9.3,0.8,13.2C94.1,19.2,93.8,19.4,93.5,19.7L93.5,19.7z"/>
	<path id="棒球_00000086649384519765139690000008001338603795911817_" class="st1" d="M96.3,3.7c-4.9-5-13-5-17.9,0
		c-0.2,0.2-0.4,0.4-0.5,0.6L9.5,80.8l-1.1-1.1c-2-1.9-5.2-1.8-7.1,0.2c-1.8,1.9-1.8,4.9,0,6.8l11.9,11.8c2,1.9,5.1,1.9,7.1,0
		c2-2,2-5.1,0-7.1l-1.1-1.1L56.6,57c2.5,4.7,7.2,7.8,12.6,8h0.2H70c8.3,0,15-6.7,15-15c0-5-2.5-9.6-6.6-12.4l17.4-15.5
		c5.2-4.7,5.7-12.7,1-17.9C96.6,4.1,96.4,3.9,96.3,3.7L96.3,3.7z M33.6,73.1l-6.7-6.7l2.2-2.5l7,7L33.6,73.1z M27.3,78.6l-6.1-6.1
		l3.3-3.8l6.5,6.5L27.3,78.6z M22.3,83.1l-5.5-5.5L19,75l5.9,5.9L22.3,83.1z M17.8,96.2c-0.6,0.7-1.7,0.7-2.4,0c0,0,0,0,0,0
		L3.7,84.4C3,83.8,3,82.7,3.7,82c0,0,0,0,0,0c0.6-0.7,1.7-0.7,2.4,0c0,0,0,0,0,0l11.8,11.8C18.5,94.5,18.5,95.5,17.8,96.2
		C17.9,96.2,17.9,96.2,17.8,96.2L17.8,96.2z M11.8,83.1l2.8-3.1l5.3,5.3L16.8,88L11.8,83.1z M78.3,58.3c-2,1.9-4.5,3.1-7.3,3.3
		C71.4,56,75.9,51.4,81.6,51C81.4,53.8,80.3,56.4,78.3,58.3z M81.5,47.7c-7.4,0.5-13.3,6.4-13.8,13.8c-4.6-0.9-8.1-4.5-9.1-9.1
		C66,51.9,71.9,46,72.4,38.7c0.9,0.2,1.7,0.5,2.5,0.8c1.2,0.6,2.4,1.4,3.3,2.3C79.8,43.4,80.9,45.5,81.5,47.7L81.5,47.7z M58.3,49
		c0.5-5.7,5-10.2,10.7-10.7C68.6,44.1,64,48.6,58.3,49z M93.5,19.7L75.2,36c-1.5-0.6-3-0.9-4.6-1c-8.3-0.3-15.3,6.1-15.6,14.4
		c-0.1,1.4,0.1,2.8,0.4,4.2l-16.9,15l-7.3-7.3l49-54.9c3.4-3.9,9.4-4.2,13.2-0.8s4.2,9.3,0.8,13.2C94.1,19.2,93.8,19.4,93.5,19.7
		L93.5,19.7z"/>
</g>
</svg>
