<?xml version="1.0" encoding="utf-8"?>
<!-- Generator: Adobe Illustrator 24.3.0, SVG Export Plug-In . SVG Version: 6.00 Build 0)  -->
<svg version="1.1" id="_x31_24_x5F_ArcheryH2H_1_" xmlns="http://www.w3.org/2000/svg" xmlns:xlink="http://www.w3.org/1999/xlink"
	 x="0px" y="0px" viewBox="0 0 100 100" style="enable-background:new 0 0 100 100;" xml:space="preserve">
<style type="text/css">
	.st0{fill:#596079;}
</style>
<g id="_x31_24_x5F_ArcheryH2H">
	<path class="st0" d="M100,94.5c-0.1,0.2-0.3,0.4-0.4,0.7c-1,1.8-3.2,2.2-4.7,0.9c-0.6-0.5-1.2-1.1-1.8-1.7
		C87.9,89.2,82.7,84,77.4,78.7C69.9,86.4,60.8,90.6,50,90.6c-10.8,0-19.8-4.2-27.4-11.9c-0.3,0.3-0.5,0.5-0.8,0.7
		C16.4,84.9,11,90.3,5.6,95.7c-1,1-2.1,1.5-3.4,1c-2.1-0.7-2.9-3.1-1.6-4.8c0.3-0.3,0.6-0.6,0.9-0.9c5.5-5.5,11-11,16.4-16.4
		c0.3-0.2,0.6-0.4,0.9-0.6c-0.1,0-0.3-0.1-0.4-0.1c-1.3-3-2.8-5.8-3.9-8.9c-2-5.6-2.5-11.5-1.5-17.4c1.2-8,4.7-15,10.4-20.7
		c5-5.1,11.1-8.5,18.1-10.2c7-1.6,13.9-1.3,20.7,1.1c0.9,0.3,1.8,0.6,2.6,1c1.7,0.7,2.4,2.4,1.8,4c-0.6,1.6-2.3,2.4-4,1.8
		c-2.8-1-5.6-1.9-8.5-2.3c-5.8-0.8-11.4,0-16.8,2.4c-7.4,3.3-12.7,8.7-16,16c-2.5,5.7-3.2,11.7-2.2,17.8
		c2.2,12.6,11.9,22.9,24.5,25.2c12.6,2.4,23.2-1.6,31.2-11.8c5.1-6.5,7-14,6.2-22.2c-0.3-3.2-1.3-6.2-2.4-9.1
		c-0.7-1.9,0.1-3.6,1.8-4.2c1.6-0.5,3.2,0.2,3.9,1.7c2.6,6.2,3.7,12.7,2.9,19.5c-0.7,5.6-2.5,10.7-5.5,15.5
		c-0.1,0.2-0.2,0.4-0.5,0.9c0.3,0.2,0.6,0.4,0.8,0.6c5.3,5.3,10.6,10.6,15.9,16c0.7,0.7,1.3,1.6,2,2.5C100,93.5,100,94,100,94.5z"/>
	<path class="st0" d="M100,15.8c-0.6,0.8-1.1,1.7-1.8,2.4c-3.2,3.3-6.5,6.5-9.7,9.8c-1.2,1.2-2.5,1.6-4.1,1
		c-1.1-0.4-2.3-0.7-3.4-1.2c-0.6-0.2-1-0.1-1.5,0.4c-6.6,6.6-13.2,13.2-19.7,19.7c-2.5,2.5-4.9,4.9-7.4,7.4
		c-1.1,1.1-2.4,1.3-3.7,0.6c-1.1-0.6-1.9-1.8-1.7-3c0.2-0.8,0.6-1.7,1.2-2.2c4.1-4.2,8.2-8.3,12.3-12.4c4.8-4.8,9.6-9.6,14.4-14.4
		c0.5-0.5,0.7-0.9,0.4-1.7c-0.5-1.2-0.8-2.4-1.2-3.6c-0.4-1.3-0.3-2.5,0.7-3.4c3.7-3.7,7.4-7.5,11.1-11.1c1.7-1.6,4.2-1,5.1,1.3
		c0.6,1.5,1,3,1.6,4.5c0.1,0.3,0.5,0.7,0.8,0.8c1.1,0.4,2.2,0.8,3.3,1.1c1.5,0.4,2.7,1.1,3.3,2.5C100,14.8,100,15.3,100,15.8z
		 M91.2,16.4c-2.8-0.3-4.1-1.8-4.5-4.2c-0.2,0.1-0.3,0.1-0.3,0.2c-1.3,1.3-2.6,2.6-3.9,3.9c-2.1,2.1-2.1,2.1-1,4.8
		c0.2,0.5,3.1,1.7,3.6,1.4c0.1,0,0.1-0.1,0.2-0.2C87.2,20.4,89.1,18.5,91.2,16.4z"/>
	<path class="st0" d="M31.2,53.2c0-9.2,6.8-17.2,15.9-18.5c1.7-0.3,3.2,0.7,3.6,2.3c0.4,1.7-0.5,3.3-2.2,3.8
		c-1.4,0.4-2.9,0.7-4.2,1.4c-4.9,2.4-7.5,7.9-6.6,13.4c0.9,5.1,5.2,9.2,10.4,10c6.7,1,12.8-3.4,14.1-10.2c0.4-1.9,1.4-2.9,2.9-3
		c2-0.1,3.6,1.6,3.3,3.6c-1,8.1-8,14.9-16.1,15.8C41.1,73,31.3,64.5,31.2,53.2z"/>
</g>
</svg>
