<?xml version="1.0" encoding="utf-8"?>
<!-- Generator: Adobe Illustrator 24.3.0, SVG Export Plug-In . SVG Version: 6.00 Build 0)  -->
<svg version="1.1" id="_x31_2_x5F_BeachFootball" xmlns="http://www.w3.org/2000/svg" xmlns:xlink="http://www.w3.org/1999/xlink"
	 x="0px" y="0px" viewBox="0 0 100 100" style="enable-background:new 0 0 100 100;" xml:space="preserve">
<style type="text/css">
	.st0{fill:#596079;}
</style>
<g>
	<path class="st0" d="M92.8,93.5L90.2,93c-0.7-0.1-1.3-0.4-1.8-0.8l-4.8-3.7c-0.1-0.1-0.3-0.2-0.5-0.3c-3-1.6-6.7-1.6-9.7-0.1
		l-8.2,4c-1.2,0.6-2.7,0.6-3.8-0.1l-6.8-3.6c-3.2-1.7-7-1.7-10.1,0l-6.9,3.7c-1.2,0.6-2.6,0.7-3.8,0.1l-9-4.2
		c-3-1.4-6.5-1.3-9.4,0.2c-0.2,0.1-0.3,0.2-0.5,0.3l-4.9,3.7c-0.5,0.4-1.1,0.7-1.8,0.8l-3,0.6c-1.8,0.3-3,2-2.6,3.8
		c0.3,1.6,1.7,2.7,3.2,2.7c0.2,0,0.4,0,0.6-0.1l3-0.6c1.6-0.3,3.2-1,4.5-2l4.7-3.5c1.1-0.5,2.4-0.5,3.5,0l9,4.2
		c3,1.4,6.6,1.3,9.6-0.3l6.9-3.7c1.2-0.7,2.7-0.7,4,0l6.8,3.6c3,1.6,6.7,1.7,9.8,0.2l8.2-4c1.1-0.5,2.5-0.6,3.6,0l4.5,3.5
		c1.4,1,3,1.7,4.6,2l2.6,0.5c1.8,0.3,3.5-0.9,3.8-2.6S94.6,93.8,92.8,93.5z"/>
	<path class="st0" d="M0,50c0,11.4,3.9,22.4,10.9,31.2c0,0,0,0.1,0.1,0.1c0.5,0.7,1.1,1.3,1.7,2c0.6,0.7,1.5,1.1,2.4,1.1
		c0.8,0,1.6-0.3,2.2-0.8c1.3-1.2,1.5-3.3,0.3-4.6c0,0,0,0,0,0l4.2-7.5l9.6,3l6.9,8.8c0.6,0.8,1.6,1.3,2.6,1.3c0.7,0,1.4-0.2,2-0.7
		c1.4-1.1,1.7-3.2,0.6-4.6l-7.5-9.6c-0.4-0.5-1-0.9-1.6-1.1l-13.1-4.1c-1.5-0.5-3.1,0.2-3.8,1.5l-4.1,7.3c-4-6.3-6.3-13.6-6.6-21.1
		l8.6,3.3c0.4,0.1,0.8,0.2,1.2,0.2c1,0,2-0.5,2.6-1.3l7.4-10.1c0.4-0.6,0.6-1.2,0.6-1.9V29c0-1.5-1-2.8-2.5-3.2l-9.1-2.1
		c4.9-6.4,11.5-11.4,19.1-14.3l-0.8,9.3c-0.1,1.5,0.7,2.8,2.1,3.3l12,4.6c0.4,0.1,0.8,0.2,1.2,0.2c0.3,0,0.6,0,1-0.1l12.8-3.9
		c1.5-0.4,2.4-1.8,2.3-3.3L64.4,9c7.9,2.8,14.8,7.8,19.9,14.3l-10.4,2.4c-1.5,0.3-2.5,1.7-2.5,3.2v13.2c0,0.7,0.2,1.4,0.6,1.9
		l7.4,10.1c0.6,0.9,1.6,1.3,2.6,1.3c0.4,0,0.8-0.1,1.2-0.2l10.2-3.9c-0.3,8.3-2.9,16.2-7.5,23l-4.8-8.6c-0.8-1.3-2.4-2-3.8-1.5
		l-13.1,4.1c-0.6,0.2-1.2,0.6-1.6,1.1l-7.5,9.6c-1.1,1.4-0.9,3.5,0.6,4.6c0.6,0.5,1.3,0.7,2,0.7c1,0,1.9-0.4,2.6-1.3l6.9-8.8l9.6-3
		l5,9c-0.3,1.1,0.1,2.4,1,3.2c1.3,1.2,3.4,1.1,4.6-0.3c8.2-9.2,12.7-21,12.7-33.3c0-27.6-22.4-50-50-50c-4,0-7.9,0.5-11.7,1.4
		c-0.6,0-1.2,0.1-1.7,0.5C24.3,5.3,14,13.2,7.5,23.8c-0.2,0.2-0.3,0.4-0.4,0.7C2.6,31.9,0,40.7,0,50z M78,41.1v-9.5l10.2-2.4
		c2.6,4.7,4.3,9.9,5,15.4l-9.9,3.8L78,41.1z M57.8,7.3l0.7,10l-9.2,2.9l-8.7-3.3l0.8-9.3C44.1,6.8,47,6.5,50,6.5
		C52.7,6.5,55.2,6.8,57.8,7.3z M20.5,31.6v9.5l-5.3,7.2l-8.4-3.2c0.6-5.6,2.3-10.9,4.9-15.6L20.5,31.6z"/>
	<path class="st0" d="M60.1,62.8l4.6-14.6c0.4-1.3,0-2.8-1.2-3.6l-12-9c-1.2-0.9-2.8-0.9-3.9,0l-12,9c-1.1,0.8-1.6,2.3-1.2,3.6
		L39,62.8c0.4,1.4,1.7,2.3,3.1,2.3H57C58.4,65.1,59.7,64.2,60.1,62.8z M44.5,58.6l-3.2-10.1l8.2-6.2l8.2,6.2l-3.2,10.1H44.5z"/>
</g>
</svg>
