<?xml version="1.0" encoding="utf-8"?>
<!-- Generator: Adobe Illustrator 24.3.0, SVG Export Plug-In . SVG Version: 6.00 Build 0)  -->
<svg version="1.1" id="_x31_47_x5F_TVShowsAndMovies"
	 xmlns="http://www.w3.org/2000/svg" xmlns:xlink="http://www.w3.org/1999/xlink" x="0px" y="0px" viewBox="0 0 100 100"
	 style="enable-background:new 0 0 100 100;" xml:space="preserve">
<style type="text/css">
	.st0{fill:#596079;}
</style>
<g>
	<path class="st0" d="M97.8,13.8H2.2C1,13.8,0,14.8,0,16v59.5c0,1.2,1,2.2,2.2,2.2H43V82h16.6v-4.2h38.2c1.2,0,2.2-1,2.2-2.2V16
		C100,14.8,99,13.8,97.8,13.8z M95.5,73.3h-91v-55h91V73.3z"/>
	<path class="st0" d="M64.4,83.9H38.1c-1.3,0-2.3,1-2.3,2.3h30.9C66.7,84.9,65.7,83.9,64.4,83.9z"/>
	<path class="st0" d="M7.5,72h84.9c0.6,0,1.1-0.5,1.1-1.1V20.7c0-0.1,0-0.3-0.1-0.4c0,0,0,0,0,0c-0.1-0.3-0.3-0.5-0.6-0.6
		c0,0,0,0,0,0c-0.1,0-0.3-0.1-0.4-0.1h-58c0,0,0,0,0,0H7.5c-0.6,0-1.1,0.5-1.1,1.1v50.3C6.4,71.5,6.9,72,7.5,72z M50.2,64.8V38.4
		h3.6l-0.4,5c0,0.1-0.1,0.1-0.1,0.2l-2.6,5.3c-0.2,0.3-0.2,0.8,0.1,1.1c0.2,0.3,0.6,0.5,1,0.5h1.2l-1.1,14.3H50.2z M41.4,38.4
		l2.1,26.4h-2.2l-5.1-26.4H41.4z M45.7,64.8l-2.1-26.4h4.3v26.4H45.7z M50.9,32.8c-0.2-0.3-0.3-0.8-0.2-1.1c0.2-0.4,0.5-0.7,1.1-0.8
		c1.4-0.3,2,1.4,2.1,1.5c0.1,0.4,0.4,0.6,0.8,0.7c0.8,0.2,1.4,0.5,1.6,1c0.3,0.6,0.1,1.4-0.1,2h-7.2c0,0,0,0,0,0s0,0,0,0h-0.2
		c0.4-1.1,1.4-1.6,1.5-1.6c0.3-0.1,0.6-0.4,0.7-0.7C51.2,33.5,51.1,33.1,50.9,32.8z M70.5,45.2l1.5,3h-0.7H54.2h-0.8l1.5-3h5.7
		c0,0,0,0,0,0H70.5z M55.5,50.4H70l-2.6,17.2h-9.4L55.5,50.4z M59.8,42.9h-4.1l0.4-4.5h4.6L59.8,42.9z M54.4,58.3l1,6.4h-1.5
		L54.4,58.3z M31.7,21.8l-7.5,7.5c-0.4,0.4-0.4,1.1,0,1.6c0.2,0.2,0.5,0.3,0.8,0.3c0.3,0,0.6-0.1,0.8-0.3l9.1-9H80L65.3,36.5
		c-0.4,0.4-0.4,1.1,0,1.6c0.2,0.2,0.5,0.3,0.8,0.3c0.3,0,0.6-0.1,0.8-0.3l16.4-16.3h6.5L72.3,39.3c-0.4,0.4-0.4,1.1,0,1.6
		c0.2,0.2,0.5,0.3,0.8,0.3c0.3,0,0.6-0.1,0.8-0.3l17.5-17.5v46.4H68.9c0.4-0.1,0.6-0.5,0.7-0.9l2.8-18.5h1.5c0.4,0,0.7-0.2,1-0.5
		c0.2-0.3,0.2-0.7,0.1-1.1l-2.6-5.3c-0.2-0.4-0.6-0.6-1-0.6h-4.1l5.6-5.4c0.4-0.4,0.5-1.1,0-1.6c-0.4-0.4-1.1-0.5-1.6,0l-7.2,7H62
		l1-5.4c0.1-0.3,0-0.7-0.2-0.9c-0.2-0.3-0.5-0.4-0.9-0.4h-3.4c0.2-0.9,0.3-1.9-0.2-3c-0.3-0.7-1-1.6-2.6-2.1
		c-0.6-1.2-2.1-2.8-4.3-2.4c-1.3,0.2-2.3,1-2.8,2.1c-0.3,0.7-0.3,1.4-0.1,2.2c-0.9,0.6-1.8,1.6-2,3.2H34.9c-0.3,0-0.7,0.1-0.9,0.4
		c-0.2,0.3-0.3,0.6-0.2,0.9l5.5,28.6c0.1,0.5,0.6,0.9,1.1,0.9h15.4l0.3,1.9c0.1,0.4,0.3,0.7,0.7,0.9H34.8l3.2-3.1
		c0.4-0.4,0.4-1.1,0-1.6c-0.4-0.4-1.1-0.4-1.6,0l-4.8,4.7h-23V47.7l13.2-13.1c0.4-0.4,0.4-1.1,0-1.6c-0.4-0.4-1.1-0.4-1.6,0
		L8.7,44.6V21.8H31.7z"/>
	<path class="st0" d="M26.3,66.1c0.9,0,1.7-0.3,2.2-0.6c1.2,0.7,3.1,1.1,4.8-0.5c1-0.9,1.2-1.8,1.2-2.4c0-1.1-0.7-2.1-1.2-2.6
		c0.1-0.9,0.1-2.6-0.9-3.8C32,55.7,31.2,55,29.7,55c-1.7,0-2.6,0.7-3.1,1.3c-0.6,0.7-0.7,1.6-0.7,2.2c-1.9,0.3-3.1,1.9-3.1,4
		C22.7,64.6,24.2,66.1,26.3,66.1z M26.6,60.6c0.8,0,1,0.6,1.1,0.8c0.2,0.6,0.8,0.9,1.4,0.8c0.6-0.2,1-0.8,0.8-1.4
		c-0.2-0.6-0.7-1.6-1.8-2.1c0-0.2,0-0.7,0.2-1c0.3-0.4,0.9-0.4,1.4-0.4c0.6,0,0.9,0.2,1,0.4c0.6,0.7,0.4,2.1,0.4,2.5
		c-0.1,0.4,0.1,0.8,0.4,1.1c0.2,0.2,0.8,0.8,0.8,1.4c0,0.2,0,0.4-0.4,0.7c-1.2,1-2.4,0.1-2.6-0.1c-0.4-0.4-1.1-0.4-1.5,0.1
		c0,0-0.6,0.5-1.4,0.5c-0.5,0-1.4-0.2-1.4-1.4C25,61.6,25.4,60.6,26.6,60.6z"/>
	<path class="st0" d="M35.6,31.8c0.9,0.4,1.7,0.4,2.3,0.4c0.6,0.9,1.8,1.8,3.3,1.8c0.4,0,0.8-0.1,1.3-0.2c1.3-0.4,1.8-1.1,2.1-1.7
		c0.5-1,0.3-2.2,0.1-2.9c0.5-0.8,1.2-2.3,0.8-3.8c-0.2-0.7-0.7-1.6-2-2.2c-1.6-0.7-2.7-0.5-3.3-0.2c-0.9,0.4-1.3,1.1-1.6,1.7
		c-1.8-0.5-3.7,0.4-4.5,2.3c-0.5,1-0.5,2-0.2,2.9C34.1,30.7,34.8,31.4,35.6,31.8z M36,27.9c0.4-0.8,1.2-1.5,2.3-0.9
		c0.7,0.3,0.7,1,0.6,1.2c-0.1,0.6,0.3,1.2,0.9,1.3c0.6,0.1,1.2-0.3,1.3-0.9c0.1-0.6,0-1.8-0.7-2.7c0.1-0.2,0.3-0.7,0.7-0.8
		c0.4-0.2,1,0,1.4,0.2c0.6,0.3,0.7,0.6,0.8,0.8c0.2,0.8-0.5,2.1-0.8,2.5c-0.2,0.3-0.3,0.8-0.1,1.1c0.1,0.3,0.4,1.1,0.1,1.6
		c-0.1,0.1-0.2,0.3-0.7,0.5c-1.5,0.4-2.2-0.9-2.3-1.2c-0.2-0.4-0.6-0.7-1-0.7c-0.1,0-0.2,0-0.4,0.1c0,0-0.8,0.2-1.5-0.1
		c-0.4-0.2-0.6-0.4-0.7-0.7C35.7,28.8,35.8,28.4,36,27.9z"/>
	<path class="st0" d="M59.4,32.1c1,0.3,1.9,0.2,2.5,0.1c0.7,0.7,1.9,1.5,3.3,1.5c0.6,0,1.2-0.1,1.8-0.4c1.3-0.6,1.7-1.4,1.9-2.1
		c0.3-1.2-0.1-2.3-0.4-3c0.3-0.9,0.8-2.5,0.2-4c-0.3-0.7-1-1.6-2.5-2.1c-1.4-0.4-2.6-0.3-3.6,0.3c-0.8,0.6-1.2,1.4-1.4,2
		c-0.9-0.1-1.8,0-2.5,0.5c-0.9,0.5-1.6,1.4-1.9,2.5c-0.3,1.1-0.2,2.1,0.3,3C57.6,31.3,58.4,31.9,59.4,32.1z M59,28.1
		c0.2-0.6,0.5-1,0.9-1.2c0.4-0.2,0.9-0.3,1.5-0.1c0.9,0.3,1,1,1,1.2c0,0.6,0.5,1.1,1.1,1.1c0.6,0,1.1-0.5,1.1-1.1
		c0-0.7-0.3-1.8-1.2-2.7c0-0.2,0.2-0.7,0.6-1c0.4-0.3,1.1-0.2,1.7,0c0.7,0.2,0.9,0.6,1,0.8c0.4,0.9-0.2,2.2-0.4,2.7
		c-0.2,0.4-0.2,0.8,0.1,1.1c0.2,0.3,0.6,1.2,0.4,1.7c0,0.1-0.1,0.4-0.7,0.6c-1.7,0.7-2.7-0.8-2.9-0.9c-0.2-0.3-0.6-0.5-0.9-0.5
		c-0.2,0-0.3,0-0.5,0.1c0,0-0.8,0.4-1.7,0.1c-0.4-0.1-0.8-0.4-1-0.7C58.8,29,58.8,28.6,59,28.1z"/>
</g>
</svg>
