<?xml version="1.0" encoding="utf-8"?>
<!-- Generator: Adobe Illustrator 24.3.0, SVG Export Plug-In . SVG Version: 6.00 Build 0)  -->
<svg version="1.1" id="_x31_4_x5F_BeachVolleyball" xmlns="http://www.w3.org/2000/svg" xmlns:xlink="http://www.w3.org/1999/xlink"
	 x="0px" y="0px" viewBox="0 0 100 100" style="enable-background:new 0 0 100 100;" xml:space="preserve">
<style type="text/css">
	.st0{fill:#596079;}
</style>
<g id="_x31_4_x5F_BeachVolleyball_1_">
	<g>
		<path class="st0" d="M53.1,99c-2,0-4.1,0-6.1,0c-0.2-0.1-0.5-0.1-0.7-0.2c-9.9-0.8-18.7-4.2-26.5-10.4C10,80.7,3.9,70.7,1.7,58.3
			c-0.3-1.8-0.5-3.5-0.7-5.3c0-2,0-4.1,0-6.1c0.1-1.2,0.3-2.3,0.4-3.5c1.4-9.7,5.2-18.3,11.7-25.6C22.5,7.2,34.4,1.5,48.5,1
			c11.1-0.4,21.2,2.7,30.1,9.3C91.7,19.9,98.5,33,99,49.2c0.3,9.2-2,17.8-6.8,25.6c-7.8,12.8-19,20.7-33.8,23.5
			C56.7,98.6,54.9,98.8,53.1,99z M52.7,31.7c-0.1,0.5-0.2,0.7-0.3,1c-1,3.3-3.1,5.7-6.2,7.1c-0.6,0.3-0.9,0.6-1,1.2
			c-1.4,5.6-1.7,11.2-1,16.9c1.9,14.4,9,25.5,20.9,33.7c0.5,0.3,0.9,0.5,1.6,0.2c12.7-5.4,21.4-14.6,25.9-27.6c0.2-0.4,0.2-1,0-1.5
			c-5.4-15.4-16-25.4-31.9-29.6C58.2,32.4,55.4,32.1,52.7,31.7z M34,37.4c-0.1,0.1-0.2,0.1-0.3,0.1c-0.2,0.2-0.4,0.3-0.6,0.5
			C21,48.6,15.3,61.9,16.2,78.1c0.1,1.3,0.5,2.2,1.4,3.1c10,10.1,22.1,14.6,36.3,13.6c2.3-0.2,4.6-0.7,6.8-1c0-0.1,0-0.2,0-0.3
			C52.6,87.4,46.6,79.6,43,70.1c-3.6-9.6-4.1-19.4-1.9-29.4C38.3,40.4,36,39.3,34,37.4z M94.5,55.9c0.6-4.6,0.5-9.1-0.3-13.5
			C91.6,28,83.7,17.4,71,10.3c-0.6-0.3-1-0.3-1.6,0c-6.5,3.3-11.8,8-16.2,13.7c-1,1.3-1.2,2.3-0.4,3.6
			C71.8,29.4,85.7,38.7,94.5,55.9z M31,27.9c-0.2-0.1-0.4-0.1-0.5-0.1c-5.9-1.5-11.9-1.8-17.9-0.9c-0.7,0.1-1.2,0.3-1.6,1
			C3.2,42.2,3,56.7,10.4,71.2c0.4,0.8,0.9,1.6,1.4,2.4c0.1-0.1,0.2-0.2,0.2-0.2c0-0.3,0-0.6,0-0.9c0.3-9.1,2.9-17.5,7.7-25.2
			c3-4.9,6.8-9.2,11.3-12.9c0.3-0.2,0.5-0.7,0.5-1C30.9,31.7,30.7,29.9,31,27.9z M49.5,21.7c2.5-2.6,4.7-5.3,7.3-7.6
			c2.6-2.3,5.5-4.3,8.3-6.4C56.6,4.4,46,4.5,39.9,6.3c0.3,4.1,0.6,8.2,0.8,12.3C45.4,18.9,46.4,19.2,49.5,21.7z M35.7,7.4
			c-8.5,2.9-15.5,7.9-21.2,15c0.4,0,0.6,0,0.8,0c5.5-0.4,11,0.1,16.4,1.4c0.3,0.1,0.7-0.2,0.9-0.4c0.6-0.6,1-1.5,1.7-1.9
			c1.8-1,2.1-2.6,2.1-4.5C36.5,13.9,36.4,10.7,35.7,7.4z M41.8,22.7c-3.8,0-6.9,3.1-6.9,7c0,3.8,3.1,6.9,6.9,6.9
			c3.8,0,6.9-3.1,6.9-6.9C48.8,25.8,45.7,22.7,41.8,22.7z"/>
		<path class="st0" d="M53.1,100h-6.1c-0.1,0-0.1,0-0.2,0c-0.1,0-0.2,0-0.3-0.1c-0.1,0-0.2-0.1-0.3-0.1C36,99,26.9,95.5,19.1,89.3
			C9.2,81.3,3,71,0.8,58.5c-0.2-1.2-0.4-2.5-0.5-3.7c-0.1-0.6-0.1-1.1-0.2-1.7c0,0,0-0.1,0-0.1v-6.1c0,0,0-0.1,0-0.1l0.1-1.1
			c0.1-0.8,0.2-1.6,0.3-2.4c1.4-10,5.4-18.8,11.9-26.1C22,6.3,34.1,0.5,48.5,0c11.4-0.4,21.7,2.8,30.8,9.5
			c13.3,9.8,20.3,23.2,20.7,39.6c0.3,9.4-2.1,18.2-6.9,26.2c-7.9,13.1-19.5,21.1-34.4,23.9c-1.2,0.2-2.5,0.4-3.7,0.5
			c-0.6,0.1-1.1,0.1-1.7,0.2C53.2,100,53.1,100,53.1,100z M47.1,98H53c0.5-0.1,1.1-0.1,1.6-0.2c1.2-0.1,2.4-0.3,3.6-0.5
			c14.4-2.7,25.5-10.4,33.1-23c4.6-7.7,6.9-16.1,6.6-25.1c-0.5-15.8-7.2-28.7-19.9-38.1C69.4,4.7,59.5,1.6,48.6,2
			C34.8,2.5,23.1,8,13.8,18.4c-6.2,7-10.1,15.5-11.5,25.1c-0.1,0.8-0.2,1.6-0.3,2.4L2,47v6c0.1,0.5,0.1,1.1,0.2,1.6
			c0.1,1.2,0.3,2.4,0.5,3.6c2.1,12,8.1,21.9,17.7,29.6c7.5,6,16.2,9.4,25.9,10.2c0.2,0,0.4,0.1,0.7,0.1L47.1,98z M50.1,95.9
			c-12.7,0-23.9-4.7-33.2-14c-1.1-1.1-1.6-2.2-1.7-3.7c-1-16.3,4.8-30.1,17.3-40.9c0.2-0.2,0.4-0.3,0.6-0.5c0.2-0.1,0.3-0.2,0.4-0.2
			l0.1,0c0.4-0.2,0.8-0.1,1.1,0.2c1.7,1.7,3.9,2.7,6.5,3c0.3,0,0.5,0.2,0.7,0.4c0.2,0.2,0.2,0.5,0.2,0.8c-2.2,10-1.5,19.7,1.9,28.9
			c3.4,9.2,9.3,16.9,17.5,23c0.3,0.2,0.4,0.6,0.4,1l0,0.3c-0.1,0.4-0.4,0.7-0.8,0.8c-0.7,0.1-1.4,0.2-2.1,0.4
			c-1.6,0.3-3.2,0.6-4.8,0.7C52.7,95.8,51.4,95.9,50.1,95.9z M33.9,38.6c0,0-0.1,0.1-0.1,0.1C21.9,49.1,16.3,62.3,17.2,78
			c0.1,1,0.4,1.7,1.1,2.4c9.8,9.8,21.7,14.3,35.5,13.3c1.5-0.1,3.1-0.4,4.6-0.6c0.1,0,0.2,0,0.3,0C51,87,45.4,79.4,42.1,70.4
			c-3.4-9.2-4.2-19-2.2-28.9C37.6,41.1,35.6,40.1,33.9,38.6z M66.1,92.8c-0.6,0-1.1-0.3-1.5-0.5C52.3,84,45.1,72.4,43.3,58
			c-0.7-5.7-0.4-11.5,1-17.3c0.2-0.9,0.7-1.5,1.6-1.9c2.9-1.3,4.7-3.4,5.7-6.5c0-0.1,0.1-0.3,0.1-0.5l0.1-0.4
			c0.1-0.5,0.6-0.8,1.1-0.7c0.9,0.1,1.7,0.3,2.6,0.4c1.8,0.3,3.8,0.5,5.6,1c16.1,4.3,27,14.4,32.6,30.2c0.2,0.6,0.2,1.5,0,2.1
			C89,77.6,80.1,87.1,67.1,92.6C66.7,92.8,66.4,92.8,66.1,92.8z M53.4,32.8c0,0,0,0.1,0,0.1c-1.1,3.6-3.4,6.2-6.8,7.7
			c-0.3,0.1-0.4,0.2-0.5,0.5c-1.4,5.6-1.7,11.1-1,16.5c1.8,13.9,8.7,25,20.5,33c0.3,0.2,0.4,0.2,0.6,0.1c12.4-5.3,21-14.4,25.4-27.1
			c0.1-0.2,0.1-0.6,0-0.8C86.4,47.8,75.9,38.1,60.5,34c-1.7-0.5-3.5-0.7-5.4-1C54.6,32.9,54,32.9,53.4,32.8z M11.8,74.6
			C11.8,74.6,11.8,74.6,11.8,74.6c-0.4,0-0.7-0.2-0.8-0.5c-0.2-0.3-0.3-0.5-0.5-0.8c-0.3-0.5-0.7-1.1-1-1.7C2,56.9,2.2,42,10.1,27.4
			c0.6-1.2,1.6-1.4,2.3-1.5c6.3-0.8,12.4-0.5,18.3,1l0.5,0.1c0.5,0.1,0.8,0.6,0.7,1.1c-0.2,1.9-0.1,3.5,0.5,5.1
			c0.3,0.8-0.4,1.7-0.8,2c-4.4,3.6-8.2,7.9-11.1,12.6c-4.7,7.6-7.2,15.9-7.5,24.7c0,0.3,0,0.6-0.1,0.9c0,0.3-0.2,0.6-0.3,0.7
			l-0.1,0.1C12.4,74.5,12.1,74.6,11.8,74.6z M19.1,27.3c-2.1,0-4.3,0.1-6.5,0.4c-0.5,0.1-0.6,0.2-0.8,0.5
			c-7.5,13.9-7.7,28.1-0.6,42.2c0.6-8.4,3.2-16.4,7.7-23.7c3-4.9,6.9-9.4,11.5-13.1c0,0,0.1-0.1,0.1-0.1c-0.5-1.6-0.7-3.2-0.6-4.9
			C26.4,27.8,22.8,27.3,19.1,27.3z M94.5,56.8c-0.4,0-0.7-0.2-0.9-0.5c-8.7-16.9-22.1-26-41-27.7c-0.3,0-0.6-0.2-0.8-0.5
			c-1.2-2.1-0.3-3.7,0.5-4.7c4.6-6,10.2-10.7,16.6-14c0.9-0.5,1.7-0.5,2.5,0c13,7.3,21,18.3,23.7,32.7c0.8,4.4,0.9,8.9,0.3,13.8
			c-0.1,0.4-0.4,0.8-0.8,0.8C94.7,56.8,94.6,56.8,94.5,56.8z M53.4,26.7c18,1.8,31.6,10.5,40.5,25.9c0.2-3.5,0-6.8-0.6-10
			c-2.6-13.8-10.3-24.4-22.8-31.4c-0.2-0.1-0.3-0.2-0.6,0c-6.1,3.2-11.5,7.7-15.9,13.4C53.3,25.5,53.2,26.1,53.4,26.7z M41.8,37.6
			C41.8,37.6,41.8,37.6,41.8,37.6c-4.3,0-7.9-3.5-7.9-7.9c0-2.1,0.8-4.1,2.3-5.6c1.5-1.5,3.5-2.3,5.6-2.3c0,0,0,0,0,0
			c2.1,0,4.1,0.8,5.6,2.3c1.5,1.5,2.3,3.5,2.3,5.6c0,2.1-0.8,4.1-2.3,5.6C45.9,36.7,43.9,37.6,41.8,37.6z M41.8,22.7l0,1
			c-1.6,0-3.1,0.6-4.2,1.8c-1.1,1.1-1.7,2.6-1.7,4.2c0,3.3,2.7,5.9,5.9,5.9c1.6,0,3.1-0.6,4.2-1.7c1.1-1.1,1.7-2.6,1.8-4.2
			c0-1.6-0.6-3.1-1.7-4.2c-1.1-1.1-2.6-1.7-4.2-1.7c0,0,0,0,0,0L41.8,22.7z M31.9,24.9c-0.1,0-0.2,0-0.3,0
			c-5.3-1.3-10.8-1.8-16.1-1.4c-0.2,0-0.3,0-0.5,0l-0.4,0c-0.4,0-0.7-0.2-0.9-0.6c-0.2-0.3-0.1-0.7,0.1-1
			c5.8-7.3,12.9-12.3,21.6-15.3c0.3-0.1,0.6-0.1,0.8,0.1c0.2,0.1,0.4,0.4,0.5,0.7c0.7,3.6,0.8,7,0.8,9.9c0,2-0.3,4-2.6,5.3
			c-0.3,0.1-0.5,0.5-0.8,0.9c-0.2,0.3-0.4,0.6-0.7,0.9C33.1,24.4,32.6,24.9,31.9,24.9z M19.2,21.3c4.2,0,8.5,0.5,12.7,1.6
			c0,0,0.1-0.1,0.1-0.1c0.2-0.2,0.4-0.4,0.5-0.7c0.4-0.5,0.8-1,1.4-1.4c1.3-0.8,1.6-1.8,1.6-3.6c0-2.5-0.1-5.4-0.6-8.4
			c-7.2,2.7-13.2,6.8-18.2,12.6C17.5,21.3,18.3,21.3,19.2,21.3z M49.5,22.7c-0.2,0-0.4-0.1-0.6-0.2c-2.9-2.4-3.7-2.6-8.1-2.9
			c-0.5,0-0.9-0.4-0.9-0.9L39,6.4c0-0.5,0.3-0.9,0.7-1c6.2-1.9,17-2,25.8,1.4c0.3,0.1,0.6,0.4,0.6,0.8c0,0.4-0.1,0.7-0.4,0.9
			c-0.8,0.6-1.7,1.3-2.5,1.9c-1.9,1.4-3.9,2.9-5.7,4.5c-1.8,1.6-3.4,3.3-5,5.1c-0.7,0.8-1.5,1.6-2.2,2.4
			C50,22.6,49.7,22.7,49.5,22.7z M41.7,17.7c3.8,0.3,5.1,0.7,7.7,2.7c0.5-0.6,1.1-1.2,1.6-1.7c1.6-1.8,3.3-3.6,5.2-5.3
			C58,11.7,60,10.2,62,8.8C62.3,8.5,62.7,8.3,63,8c-7.7-2.5-16.5-2.4-22.1-1L41.7,17.7z"/>
	</g>
</g>
</svg>
