<?xml version="1.0" encoding="utf-8"?>
<!-- Generator: Adobe Illustrator 24.3.0, SVG Export Plug-In . SVG Version: 6.00 Build 0)  -->
<svg version="1.1" id="_x31_53_x5F_HorseRacingSpecials_1_"
	 xmlns="http://www.w3.org/2000/svg" xmlns:xlink="http://www.w3.org/1999/xlink" x="0px" y="0px" viewBox="0 0 100 100"
	 style="enable-background:new 0 0 100 100;" xml:space="preserve">
<style type="text/css">
	.st0{fill:#596079;}
</style>
<g id="_x31_53_x5F_HorseRacingSpecials">
	<g>
		<path class="st0" d="M26,100c-1.5-0.3-3-0.4-4.4-0.8C11.8,96.6,5,90.5,1.8,80.9c-2.8-8.7-1.4-17,3.9-24.5
			c4.2-5.9,10-9.5,17.2-10.9c3-0.6,6.1-0.7,9.1-0.2c0.3,0,0.5,0,0.8,0.1c0.4-2,0.7-4,1.2-5.9c1.7-6.9,4-13.5,8.4-19.3
			c2.4-3.1,5.3-5.6,9-7.1c0.5-0.2,1-0.7,1.2-1.1c1.5-3,3.1-6,5.4-8.6c0.8-0.8,1.6-1.6,2.5-2.3c1.9-1.3,3.9-1.4,5.9-0.4
			c2.1,1.1,2.7,3,2.7,5.2c0,0.6-0.1,1.2-0.2,1.7c-0.3,1.5-1.4,2.4-2.8,2.6c-1.4,0.1-2.6-0.6-3.3-2c-0.1-0.1-0.1-0.3-0.3-0.7
			c-0.9,1.5-1.8,2.8-2.6,4.2c-0.8,1.5-1.6,3-2.3,4.5c-0.4,0.9-1,1.7-2,2c-5.3,1.6-8.5,5.5-10.8,10.2c-2.9,5.7-4.7,11.8-5.6,18.2
			c-0.1,0.7,0.3,0.8,0.7,1.1c6.3,3.1,11,7.9,13.6,14.5c3.5,9,2.6,17.6-2.7,25.7c-1.2,1.9-2.9,3.4-4.4,5.1c-0.1,0.2-0.4,0.2-0.6,0.3
			c0.1,0.1,0.1,0.2,0.2,0.3c0.3,0,0.6,0,0.8,0c9,0,18,0,27,0c0.8,0,1.1-0.3,1.3-1c0.8-3.1,0.8-6.2-0.2-9.2
			c-1.6-4.9-3.3-9.7-5.2-14.5c-1.9-4.9-3.5-10-3.7-15.3c-0.1-2.6,0.1-5.3,0.4-8c0.2-1.6,1.2-2.6,2.8-2.7c3.9-0.2,7.9-1,11.9-0.3
			c2.6,0.4,5.2,1.1,7.8,1.7c0.6,0.2,1.1,0.1,1.5-0.4c0.9-1.2,1.7-2.3,2.5-3.5c0.4-0.6,0.3-1.2-0.1-1.8c-1.8-2.7-4.2-4.9-6.9-6.7
			c-2.7-1.8-5.6-3.5-8.4-5.1c-1-0.6-1.7-1.3-2.3-2.3c-0.9-1.5-1.9-2.9-2.9-4.2c-0.5-0.6-1.3-1-2-1.3c-2.2-0.8-4.4-1.2-6.8-0.9
			c-1.7,0.2-3.2-1-3.5-2.6c-0.3-1.7,0.8-3.5,2.6-3.7c4.9-0.6,9.7,0.2,13.6,3.3c1.6,1.3,2.8,3.2,4,5c0.5,0.7,1,1.2,1.7,1.6
			c5,2.6,9.7,5.8,13.6,9.9c1.1,1.1,2,2.4,2.9,3.7c1.5,2.1,1.6,4.4,0.7,6.8c-1.2,3.2-3.2,5.8-6,7.8c-1.4,1-2.9,1.3-4.6,0.8
			c-3.1-0.8-6.2-1.6-9.4-2c-2.2-0.3-4.4,0.1-6.6,0.2c-0.3,3.4,0,6.5,0.8,9.7c1.3,5.4,3.6,10.4,5.5,15.6c1.6,4.2,3.1,8.4,3.2,13
			c0.1,2-0.2,4.1-0.3,6.2c0.8,0,1.7,0,2.7,0c1.6,0,3.3,0,4.9,0c2.2,0,3.5,0.8,3.9,2.5c0.4,1.7-0.4,2.9-2.4,3.9
			C69.1,100,47.6,100,26,100z M6.9,72.5c0,11.7,9.5,21.1,21.1,21.1c11.7,0,21.2-9.5,21.1-21.2c-0.1-11.6-9.5-21.1-21.1-21
			C16.3,51.4,6.8,60.9,6.9,72.5z"/>
	</g>
	<polygon class="st0" points="26.9,58 31.1,66.6 40.6,67.9 33.8,74.6 35.4,84 26.9,79.6 18.5,84 20.1,74.6 13.2,67.9 22.7,66.6 	"/>
</g>
</svg>
