<?xml version="1.0" encoding="utf-8"?>
<!-- Generator: Adobe Illustrator 24.3.0, SVG Export Plug-In . SVG Version: 6.00 Build 0)  -->
<svg version="1.1" id="_x31_5_x5F_Biathlon_1_" xmlns="http://www.w3.org/2000/svg" xmlns:xlink="http://www.w3.org/1999/xlink"
	 x="0px" y="0px" viewBox="0 0 100 100" style="enable-background:new 0 0 100 100;" xml:space="preserve">
<style type="text/css">
	.st0{fill:#596079;}
</style>
<g id="_x31_5_x5F_Biathlon">
	<path class="st0" d="M69.3,100C69.2,100,69.2,100,69.3,100l-65.9,0c-1.6,0-2.8-1.3-2.8-2.8c0-1.6,1.3-2.8,2.8-2.8h44.1l4.5-17.8
		c0.3-1-0.1-2.1-0.8-2.8l-10.2-9.4c0,0,0,0,0,0L30.4,75.8c-0.5,0.6-1.3,0.9-2.1,0.9H7.8c-4.3,0-7.8-3.5-7.8-7.9
		C0,64.5,3.5,61,7.8,61H23l7.2-9c0.5-0.6,1.3-1,2.1-1.1c0.1-2.4,1-4.7,2.6-6.5l15-18.1c2.1-2.6,5.3-4,8.6-3.9
		c-0.4-1.2-0.6-2.4-0.6-3.7c0-1.7,0.4-3.2,1-4.6L42.8,30.6c0.7,1.4,0.4,3.2-0.7,4.5l-19.5,23c-0.8,1-2,1.5-3.2,1.6
		c-1.1,0-2.1-0.4-2.9-1.1l-5.2-5.3c-0.7-0.7-1.1-1.7-1.1-2.8c0-1.2,0.6-2.3,1.5-3.2l22.5-19.9c1.3-1.2,3.1-1.4,4.5-0.8l19-19.4
		l-0.6-0.6c-1.1-1.1-1.1-2.9,0-4c1.1-1.1,2.9-1.1,4,0l0.5,0.5l2.2-2.2c1.1-1.1,2.9-1.1,4,0c1.1,1.1,1.1,2.9,0,4l-4,4.1
		c1.4-0.7,3-1.1,4.6-1.1c5.9,0,10.7,4.9,10.7,10.9c0,5.5-4.1,10.1-9.4,10.8l5.3,5.1c1.3,1.3,3,2.1,4.8,2.2l8.3,0.8
		c3.2,0.3,5.7,3,5.7,6.3c0,1.8-0.8,3.5-2.1,4.7c-0.9,0.9-2.1,1.4-3.4,1.6l-15.3,44h20.6c0.1,0,0.2-0.1,0.3-0.1
		c0.1-0.1,0.2-0.3,0.2-0.4v-1.2c0-1.6,1.3-2.8,2.8-2.8c1.6,0,2.8,1.3,2.8,2.8v1.2c0,1.7-0.6,3.2-1.8,4.4c-1.2,1.2-2.7,1.8-4.4,1.8
		L69.3,100C69.3,100,69.3,100,69.3,100z M62.2,94.3h5l15.5-44.4l-8.2-0.8c-3.1-0.3-6-1.6-8.3-3.8l0,0l-2.5-2.4l-9.2,10.8l8.5,9.5
		c2,2.3,3.4,5,4,8c0.6,2.8,0.4,5.6-0.4,8.3L62.2,94.3z M53.3,94.3h3l5-16.5c0.5-1.8,0.6-3.7,0.3-5.5c-0.4-2-1.3-3.9-2.7-5.4
		l-8.5-9.5c-1.9-2.1-1.9-5.3-0.1-7.5l11.2-13c0.5-0.6,1.2-1,2-1c0.8,0,1.5,0.3,2.1,0.8l4.7,4.5c1.3,1.3,3,2.1,4.9,2.3l11.7,1.1
		c0,0,0.1,0,0.1,0l0.8,0.1c0.2,0,0.4-0.1,0.5-0.2c0.1-0.1,0.2-0.3,0.2-0.6c0-0.4-0.3-0.7-0.6-0.7l-8.3-0.8c-3.1-0.3-6-1.7-8.2-3.8
		l-9.4-9.1c-1-0.9-2.2-1.5-3.6-1.5c-1.5,0-3,0.7-4,1.9L39.2,48c-0.8,1-1.3,2.2-1.3,3.5c0,1.6,0.6,3,1.8,4.1l15.2,13.9
		c2.3,2.1,3.2,5.3,2.5,8.3L53.3,94.3z M7.8,66.6c-1.2,0-2.1,1-2.1,2.2c0,1.2,0.9,2.2,2.1,2.2h19.3l7.6-8.3c-1.3-1.2-2.2-2.4-3-3.6
		l-4.3,5.3c-1.1,1.3-2.6,2.1-4.3,2.1H7.8z M23.1,61L23.1,61L23.1,61L23.1,61z M20.6,54.6L20.6,54.6L20.6,54.6z M16.6,50.5l2.6,2.7
		l13.1-15.5c-0.1-0.1-0.2-0.2-0.3-0.3c-0.1-0.1-0.2-0.2-0.3-0.3L16.6,50.5z M15.4,49.3L15.4,49.3L15.4,49.3z M68.6,13.5
		c-2.8,0-5,2.3-5,5.2s2.3,5.2,5,5.2c2.8,0,5-2.3,5-5.2S71.4,13.5,68.6,13.5z"/>
</g>
</svg>
