<?xml version="1.0" encoding="utf-8"?>
<!-- Generator: Adobe Illustrator 24.3.0, SVG Export Plug-In . SVG Version: 6.00 Build 0)  -->
<svg version="1.1" id="_x31_6_x5F_Bowls" xmlns="http://www.w3.org/2000/svg" xmlns:xlink="http://www.w3.org/1999/xlink" x="0px"
	 y="0px" viewBox="0 0 100 100" style="enable-background:new 0 0 100 100;" xml:space="preserve">
<style type="text/css">
	.st0{fill:#596079;}
</style>
<g>
	<g>
		<path class="st0" d="M20.4,17.8c-0.4,0-0.7-0.1-1.1-0.2c-1.2-0.4-2-1.5-2.2-2.7c0,0,0-0.1,0-0.1c-0.1-1.4,0.7-2.7,1.9-3.3
			c1.3-0.6,2.8-0.3,3.7,0.7l0,0c1.2,1.3,1.2,3.3-0.1,4.6c0,0-0.1,0.1-0.1,0.1C22,17.5,21.2,17.8,20.4,17.8z"/>
	</g>
	<g>
		<path class="st0" d="M64.3,97.6c-0.9,0-1.7-0.3-2.3-1L4.3,38.2c-0.8-0.9-1.2-2.1-0.8-3.3c2.7-8.9,7.8-16.8,14.7-22.9
			c0.9-0.8,2.2-1,3.4-0.6c1.1,0.5,1.9,1.5,2,2.8c0,0.1,1.2,12.8,9.3,26.7c10.9,18.6,28.4,30.8,52.2,36.2c1.1,0.3,2,1.1,2.4,2.1
			c0.4,1.1,0.1,2.3-0.6,3.1c-5.8,6.9-13.2,12-21.6,14.9C65.1,97.6,64.7,97.6,64.3,97.6z M10.4,35l54.8,55.5
			c4.8-1.9,9.2-4.7,13.1-8.3c-44.6-12.5-56.8-46.4-60-60.8C14.9,25.4,12.2,30,10.4,35z"/>
	</g>
	<g>
		<path class="st0" d="M6.7,39.2c-0.9,0-1.9-0.4-2.5-1.1l2.5-2.1L3.6,37c-0.5-1.5,0.1-3.1,1.4-3.9c1.4-0.8,3.1-0.5,4.1,0.7l0,0
			l-2.5,2.1l3.1-1.1c0.1,0.4,0.2,0.7,0.2,1.1c0,1.4-0.9,2.6-2.1,3.1C7.4,39.1,7.1,39.2,6.7,39.2z M3.4,35.9h3.3H3.4z"/>
	</g>
	<g>
		<path class="st0" d="M50,100C23.1,100,1.3,77.6,1.3,50c0-5.1,0.8-10.2,2.3-15.1c0.4-1.3,1.6-2.3,3-2.3c1.4-0.1,2.7,0.8,3.2,2.1
			c0.2,0.4,16.3,41.9,55.7,56.5c1.3,0.5,2.1,1.7,2.1,3.1c0,1.4-0.9,2.6-2.2,3.1C60.4,99.1,55.2,100,50,100z M8,46.4
			c-0.1,1.2-0.1,2.4-0.1,3.6c0,24,18.9,43.5,42.2,43.5c1.3,0,2.5-0.1,3.8-0.2C29,80.6,14.6,58.8,8,46.4z"/>
	</g>
	<g>
		<path class="st0" d="M84.5,83.7c-0.2,0-0.4,0-0.6-0.1c0,0-0.1,0-0.1,0c-1.2-0.3-2.1-1.1-2.4-2.3c-0.3-1-0.1-2.2,0.6-3
			c0.1-0.1,0.1-0.2,0.2-0.2c1.3-1.3,3.3-1.3,4.6,0c1,1,1.3,2.6,0.6,3.9C86.8,83.1,85.7,83.7,84.5,83.7z"/>
	</g>
	<g>
		<path class="st0" d="M64.3,97.6c-0.4,0-0.9-0.1-1.3-0.3c0,0,0,0,0,0c-1.2-0.5-2-1.8-2-3.1c0.1-1.4,0.9-2.5,2.2-3
			c1.2-0.4,2.6-0.1,3.5,0.9c1.1,1.2,1.1,2.9,0.2,4.2C66.3,97.2,65.3,97.6,64.3,97.6z"/>
	</g>
	<g>
		<path class="st0" d="M95.1,47.5c-0.9,0-1.7-0.3-2.3-1L76,29.5c-0.8-0.8-1.1-2.1-0.8-3.2c0.2-0.6,0.5-1.1,0.9-1.5
			c-0.2-0.3-0.4-0.6-0.8-1c-0.3-0.3-0.6-0.5-0.8-0.7c-0.4,0.4-0.9,0.8-1.5,0.9c-1.2,0.4-2.4,0-3.3-0.8L52.7,5.9
			c-1-1-1.2-2.5-0.6-3.7c0.6-1.2,1.9-2,3.3-1.8c22.5,2.6,40.1,20.5,42.9,43.5c0.2,1.4-0.6,2.7-1.8,3.3C96,47.4,95.6,47.5,95.1,47.5z
			 M82.7,27l6.3,6.4c-1.8-4.5-4.3-8.7-7.4-12.3C82.8,23.1,83.2,25.2,82.7,27z M77.6,24L77.6,24L77.6,24z M75.3,21.5
			C75.3,21.5,75.3,21.5,75.3,21.5C75.3,21.5,75.3,21.5,75.3,21.5z M73.9,16.2L73.9,16.2c1.5,0,3,0.5,4.4,1.5
			c-3.7-3.5-8-6.2-12.8-8.2l6.8,6.9C72.8,16.3,73.3,16.2,73.9,16.2z"/>
	</g>
	<g>
		<path class="st0" d="M93.6,66.6c-0.1,0-0.2,0-0.3,0c-1.7-0.1-3-1.5-3-3.3c0-0.2,0-0.3,0-0.5c0.2-1.1,0.9-2.1,2-2.6
			c1.2-0.5,2.6-0.2,3.6,0.7c0.9,0.9,1.2,2.3,0.7,3.6C96.1,65.8,94.9,66.6,93.6,66.6z"/>
	</g>
	<g>
		<path class="st0" d="M93.6,66.6c-0.9,0-1.7-0.4-2.3-1L34.9,7.4c-0.8-0.8-1.1-2-0.8-3.1c0.3-1.1,1.1-2,2.2-2.3
			c4.5-1.3,9.1-2,13.7-2c1.8,0,3.6,0.1,5.4,0.3c1.6,0.2,2.9,1.6,2.9,3.2c0,1.4,0.8,34.6,37,37.4c1.6,0.1,2.8,1.3,3,2.9
			c0.3,2.1,0.4,4.2,0.4,6.1c0,4.8-0.7,9.6-2,14.2c-0.3,1.1-1.2,2-2.4,2.3C94.1,66.5,93.8,66.6,93.6,66.6z M79.6,44.2l12,12.4
			c0.3-2.2,0.5-4.4,0.5-6.7c0-0.9,0-1.8-0.1-2.8C87.4,46.7,83.3,45.6,79.6,44.2z M43.6,7l11.1,11.5C53,13.7,52.3,9.3,52,6.6
			C49.1,6.4,46.4,6.6,43.6,7z"/>
	</g>
	<g>
		<path class="st0" d="M84.5,83.7c-0.9,0-1.7-0.4-2.3-1l-64-65.9c-0.6-0.6-1-1.5-0.9-2.4c0-0.9,0.4-1.7,1.1-2.3
			C23.6,7.4,29.6,4,36.3,2c1-0.3,2.1-0.1,2.9,0.5s1.3,1.6,1.3,2.6c0,0.1,0.2,12,6.9,24.6c8.9,16.7,24.6,27,46.7,30.4
			c0.9,0.1,1.8,0.7,2.3,1.5c0.5,0.8,0.6,1.8,0.4,2.7c-2,6.8-5.2,12.9-9.7,18.3c-0.6,0.7-1.5,1.1-2.4,1.2
			C84.5,83.7,84.5,83.7,84.5,83.7z M67.8,58.6l16.4,16.9c2.1-3,3.8-6.2,5.1-9.6C80.9,64.2,73.8,61.7,67.8,58.6z M25.3,14.8
			l15.1,15.5c-4-8.3-5.5-16-6-20.7C31.1,11,28.1,12.7,25.3,14.8z"/>
	</g>
	<g>
		<path class="st0" d="M77.8,30.5c-2.1,0-4.3-1.1-6.2-3v0c-2.1-2.2-3.2-4.9-2.8-7.2c0.2-1.2,1.1-2.2,2.3-2.6c1.2-0.4,2.4,0,3.3,0.8
			l6.2,6.3c0.8,0.8,1.1,2.1,0.8,3.2c-0.3,1.1-1.3,2-2.4,2.3C78.7,30.5,78.3,30.5,77.8,30.5z"/>
	</g>
	<g>
		<path class="st0" d="M55,6.8c-0.1,0-0.3,0-0.4,0c-1.6-0.2-2.9-1.6-2.9-3.2c0-1.4,0.8-2.6,2.1-3.1c1.3-0.5,2.7-0.1,3.6,0.9l0,0
			c0.9,1.1,1.1,2.6,0.3,3.9C57.2,6.3,56.2,6.8,55,6.8z"/>
	</g>
	<g>
		<path class="st0" d="M37.2,8.4c-0.8,0-1.5-0.3-2.1-0.8C34.4,7,34,6.1,34,5.2c0-1.3,0.8-2.5,2.1-3c1.2-0.5,2.7-0.2,3.6,0.8l0,0
			c0.8,0.8,1.1,2,0.8,3c-0.3,1.1-1.1,2-2.1,2.3c-0.2,0.1-0.3,0.1-0.5,0.1C37.6,8.4,37.4,8.4,37.2,8.4z M37.2,5.1l-0.5-3.2L37.2,5.1z
			"/>
	</g>
	<g>
		<path class="st0" d="M95.1,47.5c-0.1,0-0.2,0-0.4,0c-1.4-0.2-2.6-1.2-2.9-2.6c0-0.1,0-0.1,0-0.2c-0.2-1.4,0.5-2.7,1.7-3.3
			c1.3-0.7,2.9-0.4,3.9,0.7c0.9,1,1.2,2.5,0.5,3.7C97.4,46.8,96.3,47.5,95.1,47.5z"/>
	</g>
</g>
</svg>
