<?xml version="1.0" encoding="utf-8"?>
<!-- Generator: Adobe Illustrator 24.3.0, SVG Export Plug-In . SVG Version: 6.00 Build 0)  -->
<svg version="1.1" id="_x31_7_x5F_Boxing_1_" xmlns="http://www.w3.org/2000/svg" xmlns:xlink="http://www.w3.org/1999/xlink"
	 x="0px" y="0px" viewBox="0 0 100 100" style="enable-background:new 0 0 100 100;" xml:space="preserve">
<style type="text/css">
	.st0{fill:#596079;}
</style>
<g id="_x31_7_x5F_Boxing">
	<path class="st0" d="M66.6,100H28.4c-4.1,0-7.4-3.3-7.4-7.4V77.2c0-0.3,0-0.5-0.1-0.7c0,0,0-0.1,0-0.1l-7.1-20.1
		c-1-2.9-1.6-6-1.6-9.1V28.4c0-5.8,1.9-11.6,5.3-16.1C21.7,6.7,29.9,0,45.2,0c28.9,0,31.1,23.4,31.1,23.7c0,0.1,0,0.1,0,0.2v20
		c0,1.4-1.2,2.6-2.6,2.6c-1.4,0-2.6-1.2-2.6-2.6V24c-0.2-1.5-2.5-18.8-25.9-18.8c-10.5,0-18.4,3.4-23.5,10.2
		c-2.7,3.6-4.2,8.3-4.2,13v18.9c0,2.5,0.4,5,1.3,7.3L25.2,73h29.1c1.4,0,2.6,1.2,2.6,2.6v4.5c0,1.4-1.2,2.6-2.6,2.6
		c-1.4,0-2.6-1.2-2.6-2.6v-1.9H26.2v6.7h28.1c1.4,0,2.6,1.2,2.6,2.6s-1.2,2.6-2.6,2.6H26.2v2.5c0,1.2,1,2.3,2.2,2.3h38.2
		c1.4,0,2.6,1.2,2.6,2.6S68,100,66.6,100z M66.5,91.9c-1.4,0-2.6-1.2-2.6-2.6V84c0-5.7,1.9-11.3,5.5-15.7l8.9-11.3
		c2.8-3.5,4.3-7.9,4.3-12.5c0-4-1.2-7.9-3.4-11.2l-1-1.5c-0.8-1.2-0.5-2.8,0.7-3.6c1.2-0.8,2.8-0.5,3.6,0.7l1,1.5
		c2.8,4.2,4.3,9,4.3,14.1c0,5.7-1.9,11.3-5.5,15.7l-8.9,11.3c-2.8,3.5-4.3,7.9-4.3,12.5v5.3C69.1,90.8,67.9,91.9,66.5,91.9z
		 M25.6,39.5c-1.4,0-2.6-1.2-2.6-2.6v-6.4c0-13.3,8.4-17.8,12.9-18.3c1.4-0.2,2.7,0.9,2.9,2.3c0.2,1.4-0.9,2.7-2.3,2.9
		c-0.9,0.1-8.3,1.5-8.3,13.1v6.4C28.1,38.3,27,39.5,25.6,39.5z"/>
</g>
</svg>
