<?xml version="1.0" encoding="utf-8"?>
<!-- Generator: Adobe Illustrator 24.3.0, SVG Export Plug-In . SVG Version: 6.00 Build 0)  -->
<svg version="1.1" id="_x31_80_x5F_FutureHorseRacing_1_"
	 xmlns="http://www.w3.org/2000/svg" xmlns:xlink="http://www.w3.org/1999/xlink" x="0px" y="0px" viewBox="0 0 100 100"
	 style="enable-background:new 0 0 100 100;" xml:space="preserve">
<style type="text/css">
	.st0{fill:#596079;}
</style>
<g id="_x31_80_x5F_FutureHorseRacing">
	<g>
		<ellipse class="st0" cx="33.8" cy="11.9" rx="6.6" ry="6.6"/>
	</g>
	<g>
		<path class="st0" d="M51.1,57.2c-1,0-1.8-0.6-2.1-1.6c-0.4-1.2,0.3-2.4,1.5-2.8c1.7-0.5,3.8-1.3,4.9-1.8c-0.1-0.9-0.4-2.9-1.7-7.4
			c-0.9-3,0.4-6.2,3-7.8c4.9-2.9,6.3-4.9,6.4-5.5c-1.5-2.7-16.1-8.7-19.6-8.9c-1.1,0-2.2,0.9-3.7,2.6c-1.2,1.3-2.6,2.7-4.4,3.6
			c-4.3,2-12-3.5-15.1-5.9c-1-0.8-1.1-2.2-0.4-3.1c0.8-1,2.2-1.1,3.1-0.4c4.1,3.2,9.2,5.9,10.4,5.4c1-0.5,2-1.5,3.1-2.6
			c1.8-1.9,3.9-4.1,7.1-4c2.6,0.1,8.7,2.3,13.2,4.3c9.6,4.3,10.8,7.1,10.7,9.1c-0.1,2.9-2.9,5.9-8.6,9.4c-0.9,0.6-1.3,1.7-1,2.7
			c2.6,8.8,2.3,10.8,0.7,12c-1.5,1.1-5.6,2.4-6.8,2.8C51.6,57.2,51.3,57.2,51.1,57.2z M63.2,30.4L63.2,30.4L63.2,30.4z"/>
	</g>
	<g>
		<path class="st0" d="M52.2,52.1c-0.7,0-1.4-0.3-1.8-0.9c-0.5-0.7-5.1-7.4-5-12.4c0.2-5.6,7.4-9.5,8.3-9.9c1.1-0.6,2.4-0.1,3,1
			c0.6,1.1,0.1,2.4-1,3c-1.9,1-5.8,3.8-5.9,6.1c-0.1,2.7,2.5,7.3,4.2,9.7c0.7,1,0.5,2.4-0.5,3.1C53.1,52,52.7,52.1,52.2,52.1z"/>
	</g>
	<g>
		<path class="st0" d="M68,94.8c-1.1,0-2.1-0.8-2.2-2l-1.4-11.4C54.1,76.7,52.3,67.9,52.3,63c-7.4,1.8-11.8-1.6-13.5-3.2
			c-2.5-0.3-5.2-0.4-7.2-0.5c1.3,1.7,3.4,4,5.3,6c0.9,0.9,0.8,2.3-0.1,3.2c-0.9,0.9-2.3,0.8-3.2-0.1c-8.5-9-8.1-10.4-7.7-11.5
			c0.7-2.1,3-2.3,8.3-2c2.9,0.2,5.7,0.5,5.9,0.5c0.6,0.1,1.2,0.4,1.6,0.9c0.1,0.2,3.9,4.9,12.2,1.5c0.8-0.3,1.6-0.2,2.3,0.3
			c0.6,0.5,0.9,1.4,0.8,2.2c-0.1,0.5-2.3,12.5,10.4,17.5c0.8,0.3,1.3,1,1.4,1.8l1.5,12.7c0.1,1.2-0.7,2.3-2,2.5
			C68.2,94.8,68.1,94.8,68,94.8z"/>
	</g>
	<g>
		<path class="st0" d="M80.2,89.9c-1,0-1.9-0.7-2.2-1.7L74.1,74c-4.7-2.3-7.3-7.2-6.6-12.7c0.6-4.4-1.6-9.8-1.6-9.9
			c-0.5-1.1,0-2.4,1.2-2.9c10.6-4.8,13.3,0.9,16.1,7c0.3,0.7,0.6,1.4,1,2.1c1.4,2.9,4.4,4.5,7.3,5.4c-0.9-1.6-1.7-3.5-2.6-5.3
			c-0.6-1.3-1.2-2.6-1.7-3.7c-2.3-4.6-8.4-8.5-12.1-8.7c-3.6-0.2-7,2.5-7,2.5c-0.7,0.6-1.8,0.7-2.6,0.2l-7.8-4.7
			c-1.1-0.6-1.4-2-0.8-3.1c0.6-1.1,2-1.4,3.1-0.8l6.5,3.9c1.8-1.1,5.1-2.8,8.8-2.6c5.6,0.3,13,5.6,15.8,11.2
			c0.6,1.2,1.2,2.6,1.8,3.9c1.2,2.6,3.7,8.1,5,8.3c1.2,0.1,2.1,1.1,2,2.3c-0.1,1.2-1.1,2.2-2.3,2.1c-0.5,0-13.5-0.4-17.6-9
			c-0.4-0.8-0.7-1.5-1-2.2c-2.6-5.6-3.4-7.4-8.3-5.6c0.7,2.4,1.7,6.4,1.2,10.1c-0.5,3.8,1.4,7.1,4.8,8.4c0.7,0.2,1.2,0.8,1.4,1.5
			l4.2,15.3c0.3,1.2-0.4,2.4-1.6,2.7C80.6,89.9,80.4,89.9,80.2,89.9z"/>
	</g>
	<g>
		<path class="st0" d="M32,73.4c-0.6,0-1.3-0.3-1.7-0.8C16.6,56.6,17.8,54.3,18.4,53c1.1-2.3,4.3-2.7,6.9-2.6c-0.8-2.9-2-5-3.6-5.9
			c-0.6-0.4-1.3-0.5-1.8-0.6c-0.3,3.8-2.2,7.6-2.8,8.7c-1.2,4.3-5.1,7.8-5.3,8c-0.5,0.5-1.3,0.7-2,0.5c-2.7-0.6-4.5-1.7-5.6-3.4
			c-1.6-2.5-0.9-5.4-0.5-6.7c0.5-2.2,0.8-7.3,0.3-8.8c-2-1.4-3.4-4.9-3.9-6.4c-0.3-1,0.1-2.2,1.1-2.7c1-0.5,2.2-0.2,2.8,0.6
			C4.3,34,6,34.1,7.5,33.8c12.6-15.1,27.5-6,29.1-4.9l9.1,4.9c1.1,0.6,1.5,2,0.9,3c-0.6,1.1-1.9,1.5-3,0.9l-9.1-5
			c-0.1,0-0.2-0.1-0.2-0.1c-0.5-0.4-13-8.9-23.7,4.5c-0.3,0.4-0.7,0.6-1.1,0.8c-0.4,0.1-1.5,0.4-2.8,0.5C10.3,40.5,8,51.8,8,51.9
			c-0.2,0.8-0.6,2.4,0,3.3c0.3,0.5,1,0.9,1.6,1.1c1-1.1,2.7-3.1,3.2-5.2c0.1-0.2,0.1-0.4,0.2-0.6c0.8-1.4,2.8-5.6,2.4-8.3
			c-0.2-1.1,0.4-2.1,1.4-2.5c0.4-0.1,3.6-1.2,7.1,0.8c3.3,1.9,5.5,6,6.4,12c0.1,0.7-0.1,1.4-0.6,1.9c-0.5,0.5-1.2,0.7-1.9,0.6
			c-1.8-0.3-3.9-0.3-4.9-0.1c1.2,2.6,6.3,9.3,10.9,14.7c0.8,0.9,0.7,2.4-0.2,3.2C33,73.2,32.5,73.4,32,73.4z M4.4,42.4
			C4.4,42.4,4.4,42.4,4.4,42.4C4.4,42.4,4.4,42.4,4.4,42.4z"/>
	</g>
</g>
</svg>
