<?xml version="1.0" encoding="utf-8"?>
<!-- Generator: Adobe Illustrator 24.3.0, SVG Export Plug-In . SVG Version: 6.00 Build 0)  -->
<svg version="1.1" id="_x31_8_x5F_Chess_1_" xmlns="http://www.w3.org/2000/svg" xmlns:xlink="http://www.w3.org/1999/xlink"
	 x="0px" y="0px" viewBox="0 0 100 100" style="enable-background:new 0 0 100 100;" xml:space="preserve">
<style type="text/css">
	.st0{fill:#596079;}
</style>
<g id="_x31_8_x5F_Chess">
	<path class="st0" d="M84.1,100H14.8c-1.4,0-2.6-1.2-2.6-2.6c0-6.1,3.9-11.3,9.4-13.3V78c0-3.5,2.3-6.4,5.5-7.4
		c0.7-6.9,4.9-13.9,11.8-19.8c3.2-2.7,5.2-5.4,6.4-7.3c-0.8-0.2-1.6-0.4-2.4-0.4c-1.9,0-5,2-8.4,5.4c-2.9,2.9-7.5,2.9-10.4,0.1
		l-4.2-4.1c-1.5-1.4-2.3-3.3-2.3-5.3c0-2,0.8-3.9,2.2-5.3l8.1-8c1.8-8.7,7.2-12,11.3-12.8V2.6c0-1.4,1.2-2.6,2.6-2.6h5.4
		C74,0,83.3,20.2,86.1,28.8c4.5,14-1.1,31.7-1.4,32.5c-0.3,1.1-1.3,1.8-2.5,1.8h-9.6c-0.8,2.9-1.2,5.3-0.9,7.5
		c3.1,1,5.4,3.9,5.4,7.4v6.1c5.6,1.9,9.5,7.2,9.5,13.3C86.6,98.8,85.5,100,84.1,100z M17.8,94.8h63.3c-1.1-3.7-4.6-6.3-8.6-6.3H57.9
		c-1.4,0-2.6-1.2-2.6-2.6c0-1.4,1.2-2.6,2.6-2.6h14V78c0-1.4-1.2-2.5-2.6-2.5H29.4c-1.4,0-2.6,1.1-2.6,2.5v5.3h14.9
		c1.4,0,2.6,1.2,2.6,2.6c0,1.4-1.2,2.6-2.6,2.6H26.4C22.4,88.5,18.9,91.2,17.8,94.8z M32.5,70.3h34c-0.2-3.4,0.6-6.7,1.6-10.4
		c0,0,0,0,0-0.1c0.1-0.2,0.1-0.4,0.2-0.6c1.4-5.1,3.2-11.4,3.2-20.6C71.5,22.3,54,18.2,53.2,18c-1.2-0.3-2-1.3-2-2.5V9.1
		c0-2.2-1.8-3.9-4-3.9h-2.8v10.3c0,0.7-0.3,1.4-0.8,1.9c-0.5,0.5-1.2,0.7-1.9,0.7c-0.7,0-7.1,0-8.8,9.6c-0.1,0.5-0.4,1-0.7,1.4
		l-8.7,8.5c-0.4,0.4-0.7,1-0.7,1.6c0,0.6,0.2,1.2,0.7,1.6l4.2,4.1c0.9,0.9,2.3,0.8,3.2,0c4.6-4.5,8.7-6.8,12-6.8
		c2.3,0,4.2,0.7,5.8,1.2c0.4,0.1,0.7,0.3,1.1,0.4c0,0,0,0,0.1,0c2.4,0.8,4.9,1.1,9.8-1.2c1.3-0.6,2.8-0.1,3.5,1.2
		c0.6,1.3,0.1,2.8-1.2,3.5c-5.2,2.4-8.7,2.5-11.4,2c-1.2,2.2-3.7,5.9-8.1,9.6C36.8,59.5,33.3,65,32.5,70.3z M74,57.9h6.2
		c1.2-4.7,4.1-17.5,0.9-27.5C78.5,22.3,72,9.5,55.9,6.1c0.3,1,0.5,2,0.5,3v4.4c8,2.5,20.2,10.1,20.2,25.2C76.6,46.9,75.3,53,74,57.9
		z M49.8,90.4c-2.4,0-4.4-2-4.4-4.4c0-2.4,2-4.4,4.4-4.4s4.4,2,4.4,4.4C54.2,88.4,52.2,90.4,49.8,90.4z M49.8,85.2
		c-0.4,0-0.8,0.3-0.8,0.8c0,0.4,0.3,0.8,0.8,0.8s0.8-0.3,0.8-0.8C50.5,85.6,50.2,85.2,49.8,85.2z"/>
</g>
</svg>
