<?xml version="1.0" encoding="utf-8"?>
<!-- Generator: Adobe Illustrator 24.3.0, SVG Export Plug-In . SVG Version: 6.00 Build 0)  -->
<svg version="1.1" id="_x31_9_x5F_Cricket_1_" xmlns="http://www.w3.org/2000/svg" xmlns:xlink="http://www.w3.org/1999/xlink"
	 x="0px" y="0px" viewBox="0 0 100 100" style="enable-background:new 0 0 100 100;" xml:space="preserve">
<style type="text/css">
	.st0{fill:#596079;}
</style>
<path id="_x31_9_x5F_Cricket" class="st0" d="M30.4,70.5c-4.4,4.4-8.7,8.7-13,13c-1.2,1.2-2.5,2.1-4.1,2.5c-3.8,1.1-7.8-0.6-9.8-4
	c-2-3.4-1.5-7.6,1.4-10.5c4.1-4.2,8.3-8.3,12.5-12.5c0.3-0.3,0.6-0.4,1-0.7c-2.3-2.7-3-5.4-2.2-8.5c0.4-1.6,1.3-2.9,2.5-4
	c2.1-2.1,4.2-4.2,6.3-6.3c0.3-0.3,0.7-0.4,1-0.7c-4.1-4.1-8.1-8-11.9-11.9c-3-3-3.5-7.5-1.3-10.9c0.4-0.6,0.9-1.2,1.4-1.7
	c3.8-3.8,7.6-7.6,11.4-11.4c3.9-3.9,9-3.9,12.9,0C42,6.4,45.5,10,49.1,13.5c0.3,0.3,0.6,0.5,0.9,0.8c0.3-0.3,0.6-0.6,0.9-0.8
	c3.5-3.5,7.1-7.1,10.6-10.6c3.9-3.9,9-3.9,12.9,0c3.8,3.8,7.5,7.5,11.3,11.3c3.9,3.9,3.9,9,0,12.9c-3.8,3.8-7.6,7.6-11.5,11.5
	c1.8,1.7,3.5,3.4,5.2,5.1c0.8,0.8,1.5,1.5,2.3,2.3c3.2,3.4,3.4,8,0.6,11.6c-0.1,0.2-0.3,0.3-0.4,0.6c2,2,4,4,6,5.9
	c2.4,2.4,4.9,4.9,7.3,7.3c2.5,2.6,3.4,5.7,2.2,9.1c-1.2,3.4-3.8,5.4-7.4,5.7c-2.8,0.3-5.1-0.7-7.1-2.7c-4.1-4.1-8.2-8.2-12.3-12.3
	c-0.3-0.3-0.5-0.7-0.7-1c-3.2,2.7-6.5,3.3-10,1.6c-0.9-0.4-1.8-1.2-2.5-1.9c-2.4-2.3-4.7-4.7-7.4-7.4c-0.3,0.5-0.4,0.9-0.7,1.3
	c-1.9,2-3.9,3.9-5.8,5.8C39.2,73.6,34.9,73.9,30.4,70.5z M20.3,52.2c0,1.3,0.5,2.3,1.4,3.2c3.8,3.8,7.6,7.6,11.4,11.4
	c2.1,2.1,4.5,2.1,6.6,0C54,52.4,68.2,38.2,82.5,23.9c2.1-2.1,2.1-4.4,0-6.5c-3.7-3.7-7.4-7.4-11.1-11.1c-2.4-2.4-4.5-2.4-7,0
	C54.7,16.2,44.8,26,35,35.8c-4.4,4.4-8.8,8.8-13.2,13.2C20.9,49.9,20.3,50.9,20.3,52.2z M28.7,35.2c6-6,11.9-11.9,17.8-17.8
	C42.8,13.7,39,9.9,35.2,6.1c-2.1-2.1-4.3-2-6.4,0c-3.8,3.8-7.5,7.5-11.3,11.3c-2.1,2.1-2.1,4.4,0,6.5c3.6,3.6,7.2,7.2,10.8,10.8
	C28.4,34.9,28.7,35.1,28.7,35.2z M71.1,42C65.1,48,59.2,53.9,53.3,59.8c2.4,2.4,4.9,4.9,7.4,7.4c1.5,1.4,3.7,1.5,5.3,0.3
	c0.2-0.2,0.4-0.4,0.6-0.6c3.9-3.9,7.7-7.7,11.6-11.6c1.7-1.7,1.9-4.1,0.4-5.7C76.2,47,73.6,44.5,71.1,42z M13.8,69.1
	c-2,1.9-4.1,3.9-6,6c-1.4,1.5-1.3,3.9,0.1,5.4c1.4,1.5,3.9,1.9,5.4,0.5c2.2-2,4.2-4.2,6.2-6.3C17.6,72.9,15.7,71,13.8,69.1z
	 M80.4,74.8c2,2,3.9,4.1,6,6c1.5,1.4,3.9,1.3,5.4-0.1c1.5-1.4,1.9-3.9,0.5-5.4c-2-2.2-4.2-4.2-6.3-6.2C84.2,71,82.3,72.9,80.4,74.8z
	 M22.8,71.2c1.4-1.4,2.8-2.8,4.1-4c-1.8-1.8-3.7-3.7-5.5-5.5c-1.3,1.3-2.7,2.7-4.1,4.1C19.1,67.6,21,69.4,22.8,71.2z M77,71.2
	c1.9-1.9,3.8-3.8,5.6-5.6c-1.3-1.3-2.7-2.7-4-4c-1.8,1.8-3.7,3.7-5.6,5.6C74.3,68.5,75.7,69.9,77,71.2z M61.3,88.7
	c0,6.2-5.1,11.3-11.3,11.3c-6.3,0-11.4-5.1-11.4-11.3c0-6.3,5-11.4,11.2-11.4C56.2,77.2,61.3,82.3,61.3,88.7z M50,95.4
	c3.8,0,6.8-3.1,6.8-6.8c0-3.7-3.2-6.8-6.9-6.8c-3.7,0.1-6.7,3.1-6.7,6.8C43.2,92.4,46.2,95.4,50,95.4z"/>
</svg>
