<?xml version="1.0" encoding="utf-8"?>
<!-- Generator: Adobe Illustrator 24.3.0, SVG Export Plug-In . SVG Version: 6.00 Build 0)  -->
<svg version="1.1" id="_x32_05_x5F_BasketballShots_1_"
	 xmlns="http://www.w3.org/2000/svg" xmlns:xlink="http://www.w3.org/1999/xlink" x="0px" y="0px" viewBox="0 0 100 100"
	 style="enable-background:new 0 0 100 100;" xml:space="preserve">
<style type="text/css">
	.st0{fill:#596079;}
</style>
<g id="_x32_05_x5F_BasketballShots">
	<g>
		<path class="st0" d="M30.1,99c-0.9-0.4-1.3-1.2-1.5-2.1c-2.3-8.6-4.6-17.1-6.9-25.7c-0.2-0.8-0.5-1.1-1.4-1.1
			c-2.6,0.1-5.2,0-7.7,0c-1.8,0-2.5-0.7-2.5-2.5c0-19.2,0-38.4,0-57.6c0-1.8,0.7-2.5,2.5-2.5c6.7,0,13.4,0,20.1,0
			c0.7,0,1.2-0.2,1.8-0.7c8.8-8.2,22.4-8.1,31.2,0.1c0.3,0.3,0.9,0.5,1.4,0.5c6.7,0,13.4,0,20,0c2.1,0,2.7,0.6,2.7,2.7
			c0,19.1,0,38.1,0,57.2c0,2.1-0.6,2.7-2.7,2.7c-2.5,0-5.1,0-7.6,0c-0.8,0-1.1,0.2-1.3,1C76,79.8,73.6,88.4,71.3,97
			c-0.2,0.9-0.6,1.7-1.5,2.1c-0.4,0-0.8,0-1.1,0c-1.3-1-1.5-1.4-1.1-3.1c0.3-1.2,0.6-2.4,1-3.6c-2.2,0-4.3,0-6.4,0
			c-0.2,1.5-0.5,2.9-0.7,4.4c-0.1,1-0.5,1.8-1.4,2.3c-0.4,0-0.8,0-1.1,0c-1.3-0.8-1.5-1.3-1.2-2.9c0.2-1.2,0.4-2.5,0.6-3.7
			c-2.2,0-4.3,0-6.4,0c0,1.4-0.1,2.7,0,4.1c0.1,1.2-0.3,2-1.4,2.6c-0.4,0-0.8,0-1.1,0c-1-0.6-1.4-1.4-1.4-2.6c0.1-1.4,0-2.7,0-4.1
			c-2.2,0-4.3,0-6.4,0c0,0.3,0,0.4,0.1,0.6c0.2,1,0.3,2.1,0.5,3.1c0.3,1.6,0.1,2.1-1.2,2.9c-0.4,0-0.8,0-1.1,0
			c-0.9-0.5-1.3-1.3-1.4-2.3c-0.2-1.5-0.5-2.9-0.7-4.4c-2.2,0-4.2,0-6.4,0c0.3,1.2,0.6,2.4,0.9,3.6c0.5,1.7,0.3,2.2-1,3.2
			C30.9,99,30.5,99,30.1,99z M69.4,11.6c6.4,10.8,3.1,22.7-4,29.2c-7.3,6.6-18.1,7.9-26.8,2.9c-5.6-3.2-9.2-8-10.7-14.3
			c-1.5-6.3-0.5-12.2,2.8-17.8c-5.7,0-11.1,0-16.7,0c0,18.3,0,36.5,0,54.8c2.3,0,4.6,0,7,0c0-0.4,0-0.7,0-1.1c0-2.5,0-5,0-7.5
			c0-1.4,0.7-2.1,2-2.1c6.1,0,12.2,0,18.2,0c1.2,0,2,0.8,2,1.8c0,1-0.8,1.9-1.9,2c-0.3,0-0.6,0-0.9,0c-4.8,0-9.7,0-14.5,0
			c-0.4,0-0.7,0-1.1,0c0,2.4,0,4.6,0,6.8c16.8,0,33.5,0,50.3,0c0-2.3,0-4.5,0-6.8c-0.4,0-0.8,0-1.2,0c-5,0-9.9,0-14.9,0
			c-1.4,0-2.4-0.8-2.3-2c0-1.2,0.9-1.9,2.3-1.9c5.9,0,11.8,0,17.7,0c1.6,0,2.2,0.7,2.2,2.3c0,2.5,0,4.9,0,7.4c0,0.3,0,0.7,0,1
			c2.4,0,4.7,0,6.9,0c0-18.3,0-36.5,0-54.7C80.4,11.6,75,11.6,69.4,11.6z M64.9,11.9c-4,4-8,8-11.9,12c1.8,1.8,3.7,3.7,5.7,5.7
			c3-2.5,6.4-4.1,10.3-4.9C69.1,19.8,67.8,15.6,64.9,11.9z M50.9,42.9c0.8-4,2.4-7.4,4.9-10.3c-2-2-3.9-3.9-5.8-5.7
			c-3.9,3.9-7.8,7.9-11.8,11.9C41.8,41.6,46,43,50.9,42.9z M44.3,15.1c2,2,3.9,3.9,5.8,5.8C54,17,57.9,13,61.9,9
			c-3.6-2.9-7.7-4.3-12.3-4.2c-0.2,0-0.5,0.3-0.6,0.5C48.3,9,46.7,12.3,44.3,15.1z M31.1,23c-0.2,4.8,1.2,9.1,4.1,12.8
			c4-4,8-8,11.8-11.9c-1.9-1.9-3.8-3.8-5.7-5.8C38.4,20.6,35,22.2,31.1,23z M48,77.6c0-2.5,0-4.8,0-7.2c-3.3,0-6.5,0-9.8,0
			c0.4,2.4,0.8,4.8,1.1,7.2C42.3,77.6,45.1,77.6,48,77.6z M52,77.5c3,0,5.8,0,8.7,0c0.4-2.4,0.7-4.8,1.1-7.2c-3.3,0-6.5,0-9.8,0
			C52,72.7,52,75.1,52,77.5z M25.4,70.3c0.4,1.4,0.7,2.7,1.1,4.1c0.3,1,0.3,2.5,1,3c0.7,0.5,2.1,0.2,3.2,0.2c1.6,0,3.1,0,4.8,0
			c-0.4-2.5-0.8-4.9-1.2-7.3C31.4,70.3,28.5,70.3,25.4,70.3z M64.5,77.6c1.7,0,3.3,0,5,0c1,0,2.3,0.3,3-0.2c0.7-0.5,0.7-1.9,1-2.9
			c0.2-0.6,0.3-1.2,0.5-1.8c0.2-0.8,0.4-1.6,0.7-2.5c-3,0-5.9,0-8.9,0C65.3,72.7,64.9,75.1,64.5,77.6z M40,81.5
			c0.4,2.3,0.7,4.6,1.1,6.9c2.4,0,4.7,0,7,0c0-2.3,0-4.6,0-6.9C45.4,81.5,42.7,81.5,40,81.5z M60,81.5c-2.8,0-5.4,0-8.1,0
			c0,2.3,0,4.6,0,6.9c2.3,0,4.6,0,7,0C59.3,86.1,59.7,83.8,60,81.5z M28.5,81.5c0.6,2.2,1.2,4.4,1.8,6.5c0.1,0.2,0.5,0.4,0.8,0.4
			c1.3,0,2.5,0,3.8,0c0.8,0,1.5,0,2.4,0c-0.4-2.4-0.7-4.7-1.1-7C33.5,81.5,31.1,81.5,28.5,81.5z M62.8,88.5c2.2,0,4.3,0,6.4,0
			c0.2,0,0.5-0.3,0.6-0.5c0.6-2.1,1.2-4.3,1.8-6.5c-2.6,0-5.1,0-7.6,0C63.5,83.8,63.2,86,62.8,88.5z M41.5,12.5
			c1.7-2.1,2.9-4.4,3.5-7.1c-2.7,0.8-5,1.9-6.9,3.5C39.3,10.2,40.4,11.3,41.5,12.5z M64.8,35.8c1.7-2.1,2.9-4.4,3.6-7.1
			c-2.7,0.7-5,1.9-7,3.6C62.5,33.5,63.6,34.6,64.8,35.8z M61.9,38.7c-1.2-1.2-2.3-2.3-3.4-3.5c-1.6,2-2.8,4.3-3.5,7
			C57.7,41.5,59.9,40.3,61.9,38.7z M38.6,15.3c-1.2-1.2-2.3-2.3-3.4-3.4c-1.6,2-2.8,4.3-3.5,7C34.4,18.1,36.7,17,38.6,15.3z"/>
		<path class="st0" d="M69.9,100h-1.1c-0.2,0-0.4-0.1-0.6-0.2c-1.7-1.2-2-2.1-1.4-4.1l0.7-2.4H63c0,0.2-0.1,0.4-0.1,0.5
			c-0.2,1-0.3,2-0.5,3c-0.2,1.4-0.8,2.4-1.9,3c-0.1,0.1-0.3,0.1-0.5,0.1H59c-0.2,0-0.4-0.1-0.5-0.1c-1.6-1-2-1.9-1.7-3.9
			c0.1-0.9,0.3-1.7,0.4-2.6l0,0h-4.3c0,0.1,0,0.2,0,0.3c0,0.9,0,1.8,0,2.7c0.1,1.6-0.5,2.8-1.8,3.5c-0.1,0.1-0.3,0.1-0.5,0.1h-1.1
			c-0.2,0-0.3,0-0.5-0.1c-1.3-0.7-1.9-1.9-1.8-3.5c0.1-0.9,0-1.8,0-2.8c0-0.1,0-0.2,0-0.3h-4.3l0,0.2c0.1,0.8,0.2,1.6,0.4,2.4
			c0.3,2,0,2.9-1.7,3.9c-0.2,0.1-0.3,0.2-0.5,0.2h-1.1c-0.2,0-0.3,0-0.5-0.1c-1.1-0.7-1.7-1.6-1.9-3c-0.1-1-0.3-2-0.5-3
			c0-0.2-0.1-0.3-0.1-0.5h-4.3c0.2,0.8,0.4,1.6,0.6,2.3c0.6,2.1,0.3,2.9-1.4,4.2c-0.2,0.1-0.4,0.2-0.6,0.2h-1.1
			c-0.1,0-0.3,0-0.4-0.1c-1.3-0.6-1.8-1.8-2-2.7c-0.9-3.5-1.9-6.9-2.8-10.4c-1.4-5.1-2.7-10.2-4.1-15.3c-0.1-0.2-0.1-0.3-0.1-0.3
			c0,0-0.1,0-0.3,0c0,0,0,0-0.1,0c-2,0.1-4.1,0-6,0l-1.7,0c-2.3,0-3.4-1.1-3.4-3.5c0-19.2,0-38.4,0-57.6c0-2.3,1.1-3.4,3.4-3.4
			l1.5,0c6.2,0,12.4,0,18.6,0c0.5,0,0.8-0.1,1.1-0.4C43-2.2,57.2-2.1,66.4,6.5c0.1,0.1,0.5,0.3,0.8,0.3c5.2,0,10.3,0,15.5,0h4.5
			c2.6,0,3.6,1.1,3.6,3.6v57.2c0,2.6-1,3.7-3.6,3.7l-2,0c-1.9,0-3.8,0-5.7,0c-0.2,0-0.2,0-0.3,0c0,0,0,0.1-0.1,0.2
			c-1.4,5.1-2.7,10.2-4.1,15.2c-0.9,3.5-1.9,7-2.8,10.5c-0.2,0.9-0.7,2.1-2,2.7C70.1,100,70,100,69.9,100z M69,98.1h0.6
			c0.4-0.2,0.6-0.6,0.8-1.4c0.9-3.5,1.9-7,2.8-10.5C74.6,81.1,76,76,77.3,71c0.3-1.2,1-1.7,2.2-1.7c1.9,0,3.8,0,5.7,0l2,0
			c1.5,0,1.7-0.2,1.7-1.7V10.4c0-1.5-0.2-1.7-1.7-1.7h-4.5c-5.2,0-10.3,0-15.5,0c-0.6,0-1.5-0.2-2.1-0.8C56.7,0,43.6-0.1,35.2,7.7
			c-0.7,0.6-1.5,0.9-2.4,0.9c-6.2,0-12.4,0-18.6,0l-1.5,0c-1.3,0-1.5,0.3-1.5,1.5c0,19.2,0,38.4,0,57.6c0,1.3,0.3,1.5,1.5,1.5l1.7,0
			c2,0,4,0,6,0c1.3,0,2,0.5,2.4,1.8c1.4,5.1,2.7,10.2,4.1,15.3c0.9,3.5,1.9,6.9,2.8,10.4c0.2,0.7,0.4,1.1,0.8,1.4H31
			c0.8-0.6,0.8-0.7,0.4-1.9c-0.2-0.8-0.4-1.6-0.6-2.4l-0.3-1.1c-0.1-0.3,0-0.6,0.2-0.8c0.2-0.2,0.5-0.4,0.8-0.4h6.4
			c0.5,0,0.9,0.3,0.9,0.8c0.1,0.4,0.1,0.9,0.2,1.3c0.2,1,0.4,2.1,0.5,3.1c0.1,0.7,0.3,1.1,0.7,1.5h0.6c0.7-0.5,0.8-0.6,0.6-1.8
			c-0.1-0.8-0.3-1.6-0.4-2.5l-0.1-0.7c0-0.1,0-0.3,0-0.5l0-0.2c0-0.3,0.1-0.5,0.3-0.7c0.2-0.2,0.4-0.3,0.7-0.3h6.4c0.5,0,1,0.4,1,1
			c0,0.4,0,0.8,0,1.2c0,1,0,1.9,0,2.9c0,0.8,0.1,1.2,0.7,1.6h0.6c0.5-0.4,0.7-0.8,0.7-1.6c-0.1-1,0-1.9,0-2.9c0-0.4,0-0.8,0-1.3
			c0-0.5,0.4-1,1-1h6.4c0.3,0,0.5,0.1,0.7,0.3c0.2,0.2,0.3,0.5,0.2,0.8l-0.2,1.1c-0.1,0.9-0.3,1.7-0.4,2.6c-0.2,1.2-0.2,1.4,0.6,1.8
			h0.6c0.4-0.3,0.7-0.8,0.7-1.5c0.1-1,0.3-2.1,0.5-3.1c0.1-0.4,0.2-0.9,0.2-1.3c0.1-0.5,0.5-0.8,0.9-0.8h6.4c0.3,0,0.6,0.1,0.8,0.4
			c0.2,0.2,0.2,0.5,0.2,0.8l-1,3.6C68.3,97.4,68.2,97.5,69,98.1z M32.8,89.4c-0.6,0-1.2,0-1.9,0c-0.5,0-1.4-0.4-1.7-1.1
			c-0.5-1.7-0.9-3.3-1.4-5.1l-0.4-1.5c-0.1-0.3,0-0.6,0.2-0.8c0.2-0.2,0.5-0.4,0.8-0.4h7.6c0.5,0,0.9,0.3,0.9,0.8l1.1,7
			c0,0.3,0,0.6-0.2,0.8c-0.2,0.2-0.4,0.3-0.7,0.3l-3.4,0C33.5,89.4,33.2,89.4,32.8,89.4z M31.1,87.5C31.1,87.5,31.1,87.5,31.1,87.5
			c0.9,0,1.8,0,2.7,0l2.3,0l-0.8-5.1h-5.6l0.1,0.3C30.2,84.3,30.6,85.9,31.1,87.5z M65.6,89.4c-0.5,0-0.9,0-1.4,0l-1.4,0
			c-0.3,0-0.5-0.1-0.7-0.3c-0.2-0.2-0.3-0.5-0.2-0.8l1.1-7c0.1-0.5,0.5-0.8,0.9-0.8h7.6c0.3,0,0.6,0.1,0.8,0.4
			c0.2,0.2,0.2,0.5,0.2,0.8l-0.4,1.3c-0.5,1.7-0.9,3.4-1.4,5.2c-0.2,0.6-0.9,1.1-1.5,1.2C68,89.4,66.8,89.4,65.6,89.4z M63.9,87.5
			l0.3,0c1.6,0,3.2,0,4.7,0c0.5-1.6,0.9-3.2,1.3-4.9l0-0.1h-5.6L63.9,87.5z M69.2,87.5C69.2,87.5,69.2,87.5,69.2,87.5
			C69.2,87.5,69.2,87.5,69.2,87.5z M48,89.4h-7c-0.5,0-0.9-0.3-0.9-0.8L39,81.6c0-0.3,0-0.6,0.2-0.8c0.2-0.2,0.4-0.3,0.7-0.3H48
			c0.5,0,1,0.4,1,1v6.9C49,88.9,48.6,89.4,48,89.4z M41.9,87.4h5.2v-5h-6L41.9,87.4z M58.9,89.4h-7c-0.5,0-1-0.4-1-1v-6.9
			c0-0.5,0.4-1,1-1H60c0.3,0,0.5,0.1,0.7,0.3c0.2,0.2,0.3,0.5,0.2,0.8l-1.1,6.9C59.8,89,59.4,89.4,58.9,89.4z M52.9,87.4h5.2l0.8-5
			h-6V87.4z M71.3,78.7c-0.3,0-0.7,0-1-0.1c-0.3,0-0.6,0-0.8,0c-1.2,0-2.3,0-3.5,0l-1.5,0c-0.3,0-0.5-0.1-0.7-0.3
			c-0.2-0.2-0.3-0.5-0.2-0.8l1.2-7.3c0.1-0.5,0.5-0.8,0.9-0.8h8.9c0.3,0,0.6,0.1,0.8,0.4c0.2,0.2,0.2,0.5,0.2,0.8l-0.8,3.1
			c-0.1,0.4-0.2,0.8-0.3,1.2c-0.1,0.3-0.1,0.6-0.2,0.9c-0.2,0.9-0.4,1.9-1.1,2.5C72.6,78.6,72,78.7,71.3,78.7z M69.5,76.6
			c0.3,0,0.7,0,1,0.1c0.4,0,1.2,0.1,1.3,0c0.2-0.2,0.3-0.9,0.4-1.4c0.1-0.4,0.1-0.7,0.2-1c0.1-0.4,0.2-0.7,0.3-1.1l0.5-1.9h-6.8
			l-0.8,5.4l0.4,0C67.2,76.6,68.3,76.7,69.5,76.6C69.5,76.6,69.5,76.6,69.5,76.6z M28.8,78.6c-0.7,0-1.3-0.1-1.9-0.5
			c-0.8-0.6-1-1.7-1.1-2.6c-0.1-0.3-0.1-0.6-0.2-0.9c-0.3-0.9-0.5-1.9-0.8-2.8l-0.3-1.3c-0.1-0.3,0-0.6,0.2-0.8
			c0.2-0.2,0.5-0.4,0.8-0.4h8.9c0.5,0,0.9,0.3,0.9,0.8l1.2,7.3c0,0.3,0,0.6-0.2,0.8c-0.2,0.2-0.4,0.3-0.7,0.3l-1.5,0
			c-1.1,0-2.2,0-3.3,0c-0.3,0-0.6,0-0.9,0C29.5,78.6,29.2,78.6,28.8,78.6z M26.7,71.3L26.7,71.3c0.3,1,0.5,1.9,0.8,2.9
			c0.1,0.4,0.2,0.7,0.2,1.1c0.1,0.4,0.2,1.3,0.4,1.4c0.2,0.2,1,0.1,1.6,0.1c0.4,0,0.7,0,1.1,0c1.1,0,2.2,0,3.3,0h0.4l-0.9-5.4H26.7z
			 M48,78.5h-8.7c-0.5,0-0.9-0.3-0.9-0.8l-1.1-7.2c0-0.3,0-0.6,0.2-0.8c0.2-0.2,0.4-0.3,0.7-0.3H48c0.5,0,1,0.4,1,1v7.2
			C49,78.1,48.6,78.5,48,78.5z M40.2,76.6h6.9v-5.3h-7.7L40.2,76.6z M60.6,78.5H52c-0.5,0-1-0.4-1-1v-7.2c0-0.5,0.4-1,1-1h9.8
			c0.3,0,0.5,0.1,0.7,0.3s0.3,0.5,0.2,0.8l-1.1,7.2C61.5,78.2,61.1,78.5,60.6,78.5z M52.9,76.6h6.9l0.8-5.3h-7.7V76.6z M21,67.3h-7
			c-0.5,0-1-0.4-1-1V11.6c0-0.5,0.4-1,1-1h16.7c0.3,0,0.7,0.2,0.8,0.5c0.2,0.3,0.2,0.7,0,1c-3.2,5.4-4.1,11.2-2.7,17
			c1.5,6,4.9,10.6,10.3,13.7c8.3,4.8,18.6,3.7,25.6-2.7c6.4-5.8,10.3-17,3.8-28c-0.2-0.3-0.2-0.7,0-1c0.2-0.3,0.5-0.5,0.8-0.5H86
			c0.5,0,1,0.4,1,1v54.7c0,0.5-0.4,1-1,1h-6.9c-0.5,0-0.9-0.4-1-0.9l0-0.3c0-0.2,0-0.5,0-0.8l0-3.3c0-1.4,0-2.7,0-4.1
			c0-1.1-0.2-1.3-1.3-1.3c-5.9,0-11.8,0-17.7,0c-0.6,0-1.3,0.2-1.3,0.9c0,0.3,0.1,0.5,0.2,0.6c0.2,0.2,0.6,0.4,1.2,0.4
			c3.6,0,7.2,0,10.8,0l5.3,0c0.5,0,1,0.4,1,1v6.8c0,0.5-0.4,1-1,1H24.9c-0.5,0-1-0.4-1-1v-6.8c0-0.5,0.4-1,1-1l15.8,0
			c0.2,0,0.4,0,0.5,0c0.7-0.1,1.1-0.4,1.1-1c0-0.6-0.4-0.9-1.1-0.9c-6.1,0-12.1,0-18.2,0c-0.7,0-1.1,0.2-1.1,1.2c0,1.8,0,3.5,0,5.3
			l0,3.3C22,66.9,21.5,67.3,21,67.3z M15,65.4H20l0-2.3c0-1.8,0-3.5,0-5.3c0-1.9,1.1-3.1,3-3.1c6.1,0,12.2,0,18.2,0
			c1.7,0,2.9,1.2,3,2.8c0,1.6-1.1,2.8-2.8,2.9c-0.2,0-0.5,0-0.7,0l-0.2,0l-14.7,0v4.9h48.4v-4.9l-4.3,0c-3.6,0-7.2,0-10.8,0
			c-1,0-1.9-0.3-2.5-0.9c-0.5-0.5-0.8-1.2-0.8-2c0-1.7,1.3-2.8,3.2-2.8c5.9,0,11.8,0,17.8,0c2.1,0,3.2,1.1,3.2,3.3
			c0,1.4,0,2.7,0,4.1l0,3.3c0,0,0,0,0,0h5V12.5H71c5.9,11.4,1.7,22.9-5,28.9c-7.7,7-18.9,8.2-27.9,3c-5.8-3.3-9.6-8.4-11.2-14.9
			c-1.4-5.9-0.7-11.6,2.1-17H15V65.4z M50.3,43.8c-4.8,0-9.1-1.5-12.8-4.4c-0.2-0.2-0.3-0.4-0.4-0.7c0-0.3,0.1-0.5,0.3-0.7
			l11.8-11.9c0.4-0.4,1-0.4,1.4,0l5.8,5.7c0.4,0.3,0.4,0.9,0.1,1.3c-2.4,2.8-3.9,6.2-4.7,9.9c-0.1,0.4-0.5,0.8-0.9,0.8
			C50.7,43.8,50.5,43.8,50.3,43.8z M50.9,42.9L50.9,42.9L50.9,42.9z M39.6,38.6c3.1,2.2,6.6,3.3,10.5,3.4c0.8-3.4,2.2-6.6,4.3-9.3
			l-4.5-4.5L39.6,38.6z M55,43.2c-0.3,0-0.5-0.1-0.7-0.3C54,42.6,54,42.3,54,42c0.7-2.7,1.9-5.1,3.7-7.3c0.2-0.2,0.4-0.3,0.7-0.4
			c0.3,0,0.5,0.1,0.7,0.3l3.4,3.5c0.2,0.2,0.3,0.5,0.3,0.7c0,0.3-0.1,0.5-0.4,0.7c-2.3,1.8-4.6,3-7.3,3.7C55.1,43.1,55,43.2,55,43.2
			z M58.6,36.7c-0.9,1.3-1.6,2.6-2.1,4c1.4-0.5,2.7-1.2,4-2.1L58.6,36.7z M64.8,36.8c-0.3,0-0.5-0.1-0.7-0.3L60.7,33
			c-0.2-0.2-0.3-0.4-0.3-0.7c0-0.3,0.1-0.5,0.3-0.7c2.1-1.7,4.4-3,7.3-3.8c0.3-0.1,0.7,0,0.9,0.2c0.2,0.2,0.3,0.6,0.3,0.9
			c-0.7,2.7-1.9,5.1-3.7,7.4C65.4,36.6,65.1,36.8,64.8,36.8C64.8,36.8,64.8,36.8,64.8,36.8z M62.8,32.4l1.9,1.9
			c0.9-1.3,1.6-2.7,2.2-4.1C65.4,30.8,64,31.5,62.8,32.4z M35.2,36.7C35.2,36.7,35.2,36.7,35.2,36.7c-0.3,0-0.6-0.1-0.8-0.4
			c-3.1-3.9-4.5-8.4-4.3-13.4c0-0.4,0.3-0.8,0.8-0.9c3.8-0.8,7.1-2.3,9.8-4.7c0.4-0.3,0.9-0.3,1.3,0.1l5.7,5.8c0.4,0.4,0.4,1,0,1.4
			L35.9,36.4C35.7,36.6,35.5,36.7,35.2,36.7z M32,23.8c0,3.9,1.1,7.4,3.3,10.5l10.4-10.4l-4.4-4.5C38.6,21.5,35.5,22.9,32,23.8z
			 M58.7,30.5c-0.2,0-0.5-0.1-0.7-0.3l-5.7-5.7c-0.4-0.4-0.4-1,0-1.4l11.9-12c0.2-0.2,0.5-0.3,0.7-0.3c0.3,0,0.5,0.1,0.7,0.4
			c3,3.8,4.5,8.3,4.4,13.4c0,0.4-0.3,0.8-0.8,0.9c-3.7,0.8-7.1,2.3-9.9,4.7C59.1,30.5,58.9,30.5,58.7,30.5z M54.3,23.9l4.4,4.4
			c2.7-2.1,5.9-3.6,9.3-4.4c0-4-1.1-7.4-3.3-10.5L54.3,23.9z M50.1,21.8c-0.3,0-0.5-0.1-0.7-0.3l-5.8-5.8c-0.3-0.3-0.4-0.9-0.1-1.3
			c2.3-2.8,3.8-6,4.6-9.5c0.1-0.6,0.8-1.2,1.5-1.2c4.8-0.1,9.2,1.4,12.9,4.4c0.2,0.2,0.3,0.4,0.4,0.7c0,0.3-0.1,0.5-0.3,0.7
			L50.7,21.6C50.6,21.7,50.3,21.8,50.1,21.8C50.1,21.8,50.1,21.8,50.1,21.8z M45.6,15.1l4.5,4.5L60.5,9.1C57.4,6.9,53.9,5.7,50,5.7
			c0,0,0,0-0.1,0C49.2,9.1,47.7,12.3,45.6,15.1z M50,5.5C50,5.5,50,5.5,50,5.5C50,5.5,50,5.5,50,5.5z M31.7,19.8
			c-0.2,0-0.5-0.1-0.7-0.3c-0.2-0.2-0.3-0.6-0.3-0.9c0.7-2.7,1.9-5.1,3.7-7.4c0.2-0.2,0.4-0.3,0.7-0.4c0.3,0,0.5,0.1,0.7,0.3
			l3.4,3.4c0.2,0.2,0.3,0.5,0.3,0.7c0,0.3-0.1,0.5-0.3,0.7c-2,1.7-4.4,2.9-7.3,3.7C31.9,19.8,31.8,19.8,31.7,19.8z M35.3,13.4
			c-0.9,1.3-1.6,2.6-2.1,4c1.5-0.6,2.8-1.3,4-2.1L35.3,13.4z M41.5,13.5c-0.3,0-0.5-0.1-0.7-0.3l-3.4-3.5c-0.2-0.2-0.3-0.4-0.3-0.7
			c0-0.3,0.1-0.5,0.3-0.7c2-1.7,4.4-2.9,7.3-3.7c0.3-0.1,0.7,0,0.9,0.2C46,5,46.1,5.3,46,5.7c-0.6,2.6-1.8,5-3.7,7.4
			C42.1,13.3,41.8,13.4,41.5,13.5C41.6,13.5,41.5,13.5,41.5,13.5z M39.6,9.1l1.9,1.9c1-1.4,1.7-2.7,2.2-4.1
			C42.1,7.5,40.8,8.2,39.6,9.1z"/>
	</g>
	<g>
		<path class="st0" d="M50,55.7c1.1,0,1.9,0.8,1.9,1.9c0,1-0.8,1.9-1.8,1.9c-1,0-2-0.9-2-1.9C48.1,56.5,49,55.7,50,55.7z"/>
		<path class="st0" d="M50,60.5c-0.7,0-1.5-0.3-2-0.8c-0.6-0.6-0.9-1.3-0.9-2.1c0-1.5,1.3-2.8,2.9-2.8c0,0,0,0,0,0l0,0
			c1.6,0,2.8,1.2,2.8,2.8C52.9,59.1,51.6,60.4,50,60.5C50.1,60.5,50.1,60.5,50,60.5z M50,56.7c-0.5,0-0.9,0.4-1,0.9
			c0,0.2,0.1,0.5,0.3,0.7c0.2,0.2,0.4,0.3,0.7,0.3c0.5,0,0.9-0.4,0.9-1C51,57,50.6,56.7,50,56.7C50,56.7,50,56.7,50,56.7z"/>
	</g>
</g>
</svg>
