<?xml version="1.0" encoding="utf-8"?>
<!-- Generator: Adobe Illustrator 24.3.0, SVG Export Plug-In . SVG Version: 6.00 Build 0)  -->
<svg version="1.1" id="_x32_0_x5F_Cycling_1_" xmlns="http://www.w3.org/2000/svg" xmlns:xlink="http://www.w3.org/1999/xlink"
	 x="0px" y="0px" viewBox="0 0 100 100" style="enable-background:new 0 0 100 100;" xml:space="preserve">
<style type="text/css">
	.st0{fill:#596079;}
</style>
<g id="_x32_0_x5F_Cycling">
	<g>
		<path class="st0" d="M77.4,83.6c-12.5,0-22.6-10.2-22.6-22.7c0-12.5,10.1-22.7,22.6-22.7S100,48.4,100,60.9
			C100,73.4,89.9,83.6,77.4,83.6z M77.4,44.9c-8.7,0-15.8,7.2-15.8,15.9s7.1,15.9,15.8,15.9c8.7,0,15.8-7.2,15.8-15.9
			S86.1,44.9,77.4,44.9z"/>
	</g>
	<g>
		<path class="st0" d="M81.6,35.1c-5.1,0-9.3-4.2-9.3-9.3s4.2-9.3,9.3-9.3c5.1,0,9.3,4.2,9.3,9.3S86.7,35.1,81.6,35.1z M81.6,23.2
			c-1.4,0-2.5,1.2-2.5,2.6s1.1,2.6,2.5,2.6c1.4,0,2.6-1.2,2.6-2.6S83,23.2,81.6,23.2z"/>
	</g>
	<g>
		<path class="st0" d="M44.7,24.9l9.5,9h13.6l-5,5c-0.5,0.5-0.8,1.3-0.8,2l0,0c0,0.8,0.3,1.5,0.9,2.1l10.4,10c1,1,2.6,0.8,3.5-0.3
			l0,0c0.7-1,0.7-2.3-0.2-3.2l-9.2-9l5.6-5.8c1.6-1.7,2.1-4.2,1.2-6.3v0c-0.9-2.2-3-3.6-5.3-3.6H44.7z"/>
	</g>
	<g>
		<path class="st0" d="M57.8,44.5L41.1,27.7v44.2c0,1.4,1.1,2.5,2.5,2.5c1.4,0,2.5-1.1,2.5-2.5v-10l11.7-11.7
			c0.7-0.7,1.2-1.8,1.2-2.8C59,46.2,58.6,45.2,57.8,44.5z M46.1,55.5V40.4l7.7,7.1L46.1,55.5z"/>
	</g>
	<g>
		<path class="st0" d="M19.2,41.6C8.6,41.6,0,50.2,0,60.9s8.6,19.3,19.2,19.3c10.6,0,19.2-8.7,19.2-19.3S29.9,41.6,19.2,41.6z
			 M19.2,69.9c-5,0-9.1-4.1-9.1-9.1c0-5,4.1-9.1,9.1-9.1c5,0,9.1,4.1,9.1,9.1C28.3,65.9,24.2,69.9,19.2,69.9z"/>
	</g>
	<g>
		<g>
			<path class="st0" d="M32.9,30.3H5.4c-1.3,0-2.4-1.1-2.4-2.4s1.1-2.4,2.4-2.4h27.5c1.3,0,2.4,1.1,2.4,2.4S34.2,30.3,32.9,30.3z"/>
		</g>
		<g>
			<path class="st0" d="M32.9,37.9H20.4c-1.3,0-2.4-1.1-2.4-2.4S19,33,20.4,33h12.5c1.3,0,2.4,1.1,2.4,2.4S34.2,37.9,32.9,37.9z"/>
		</g>
		<g>
			<path class="st0" d="M11.7,37.9H5.4c-1.3,0-2.4-1.1-2.4-2.4S4.1,33,5.4,33h6.3c1.3,0,2.4,1.1,2.4,2.4S13,37.9,11.7,37.9z"/>
		</g>
		<g>
			<path class="st0" d="M63.6,22.2H16.9c-1.3,0-2.4-1.1-2.4-2.4s1.1-2.4,2.4-2.4h46.7c1.3,0,2.4,1.1,2.4,2.4S64.9,22.2,63.6,22.2z"
				/>
		</g>
	</g>
</g>
</svg>
