<?xml version="1.0" encoding="utf-8"?>
<!-- Generator: Adobe Illustrator 24.3.0, SVG Export Plug-In . SVG Version: 6.00 Build 0)  -->
<svg version="1.1" id="_x32_10_x5F_Archery_1_" xmlns="http://www.w3.org/2000/svg" xmlns:xlink="http://www.w3.org/1999/xlink"
	 x="0px" y="0px" viewBox="0 0 100 100" style="enable-background:new 0 0 100 100;" xml:space="preserve">
<style type="text/css">
	.st0{fill:#596079;}
</style>
<g id="_x32_10_x5F_Archery">
	<g>
		<path class="st0" d="M41,51c-3.5,0-6.9,0-10.2,0c-1.3,0-2.8-0.3-3.9,0.2c-1.1,0.5-1.8,1.8-2.6,2.7c-0.9,1-1.8,2-2.7,3
			c-0.3,0.3-0.7,0.5-1,0.5c-5.9,0-11.9,0-17.8,0c-0.1,0-0.1,0-0.3-0.1c0.4-0.6,0.7-1.3,1.1-1.9c0.9-1.6,1.9-3.2,2.9-4.7
			c0.3-0.5,0.3-0.9,0-1.4c-1.3-2.2-2.6-4.3-4-6.6c0.5,0,0.8-0.1,1.1-0.1c5.6,0,11.1,0,16.7,0c0.7,0,1.1,0.2,1.5,0.7
			c1.5,1.7,3.1,3.4,4.7,5.1c0.2,0.3,0.7,0.5,1,0.5c4.4,0,8.9,0,13.3,0c0.1,0,0.2,0,0.4-0.1c0-0.3,0-0.6,0-1c0-10.4,0-20.7,0-31.1
			c0-0.7-0.3-1.1-0.8-1.5c-3.8-2.6-5.9-6.3-6.4-10.9c0-0.2,0-0.4,0-0.6c0-0.1,0-0.2,0.1-0.3c0.6,0,1.2,0,1.9,0
			c0.2,2.9,1,5.4,2.8,7.6c2.3,2.8,5.4,4.4,8.9,5.2c6.4,1.5,11.7,4.8,16.2,9.6c5.1,5.5,7.8,12.1,8.9,19.4c0.2,1.2,0.3,2.4,0.5,3.6
			c1.5,0,3,0,4.5,0c1.3-5,5.5-7.3,10.5-5.8c3.4,1,6.9,3.5,9.6,7c-0.8,0.7-1.6,1.5-2.5,2.3c-2.2,1.9-4.5,3.6-7.4,4.6
			c-2.6,0.8-5,0.4-7.2-1c-1.8-1.1-2.7-2.8-3-4.9c-1.5,0-3,0-4.4,0c-0.5,2.6-0.8,5.2-1.4,7.7c-3,11.8-10.1,20-21.7,24.3
			c-1.5,0.5-3.1,0.8-4.5,1.3c-5.8,2-9,6-9.6,12.2c-0.3,0-0.6,0-0.9,0c-0.3,0-0.6,0-1.1,0c0.1-0.9,0.1-1.7,0.3-2.5
			c0.8-4,2.9-7.1,6.2-9.5c0.3-0.2,0.7-0.8,0.7-1.1c0-10.6,0-21.2,0-31.9C41.1,51.4,41,51.2,41,51z M43.1,48.9c9.3,0,18.5,0,27.8,0
			c-0.2-1.6-0.4-3.2-0.7-4.7c-3.2-16.4-13.5-24.1-27.1-27.1C43.1,27.7,43.1,38.3,43.1,48.9z M70.9,51c-9.3,0-18.5,0-27.7,0
			c0,10.6,0,21.2,0,31.8C60.1,79.3,69.6,67.8,70.9,51z M94.9,49.9c-2.6-2.6-5.4-4.7-9-5.3c-2.5-0.4-5.4,1.3-6,3.6
			c-1.2,4.4,2.1,7.4,6,6.9C89.5,54.8,92.2,52.3,94.9,49.9z"/>
		<path class="st0" d="M34.5,98.9c-0.1,0-0.2,0-0.3,0l-0.4,0c-0.7,0-1.3-0.3-1.8-0.8c-0.5-0.5-0.7-1.2-0.6-1.9
			c0-0.3,0.1-0.5,0.1-0.8c0.1-0.6,0.1-1.3,0.3-1.9c0.9-4.5,3.2-8.1,6.9-10.7c0-9.2,0-18.4,0-27.6l0-1.8H38c-2.4,0-4.9,0-7.3,0
			c-0.5,0-0.9,0-1.3-0.1c-0.5,0-1.4-0.1-1.6,0c-0.2,0.1-0.7,0.7-1,1.1c-0.3,0.4-0.6,0.7-0.9,1c-0.3,0.3-0.6,0.7-0.9,1
			c-0.6,0.7-1.2,1.4-1.9,2c-0.4,0.4-1.3,1.2-2.7,1.2c-5.2,0-10.4,0-15.7,0l-2.2,0c-0.5,0-0.9-0.2-1.1-0.2c-0.7-0.2-1.2-0.8-1.4-1.4
			C0,57.4,0,56.6,0.4,56l0.3-0.6C1,55,1.2,54.6,1.5,54.1l0.6-1C2.7,52,3.4,51,4,50c-0.9-1.4-1.7-2.8-2.6-4.3l-1.1-1.8
			c-0.4-0.7-0.5-1.6-0.1-2.3c0.4-0.7,1.1-1.2,2-1.3l0.4,0c0.3,0,0.6,0,0.8,0l4.9,0c3.9,0,7.8,0,11.8,0c0,0,0,0,0,0
			c1.3,0,2.4,0.5,3.3,1.5c1.4,1.6,2.8,3.1,4.4,4.8c3.6,0,7.1,0,10.7,0h0.1l0-6.2c0-7.7,0-15.5,0-23.2c-4.2-3-6.6-7.2-7.2-12.4
			c0-0.3,0-0.6,0-0.9c0-0.3,0.1-0.6,0.1-0.7c0.2-1.1,1.2-2,2.3-2h1.9c1.3,0,2.3,1,2.4,2.2c0.2,2.5,0.9,4.6,2.3,6.3
			c1.7,2.2,4.1,3.5,7.5,4.3c6.6,1.6,12.5,5,17.4,10.3c5.1,5.5,8.2,12.2,9.5,20.6c0.1,0.5,0.2,1.1,0.2,1.6h0.7c0.9-2.2,2.4-4,4.4-5
			c2.5-1.4,5.4-1.6,8.6-0.7c3.9,1.2,7.8,4,10.8,7.8c0.8,1,0.7,2.4-0.2,3.2l-0.7,0.7c-0.6,0.5-1.2,1.1-1.8,1.6c-2,1.7-4.7,3.9-8.2,5
			c-3.1,1-6.2,0.6-9.2-1.2c-1.8-1.1-3-2.6-3.7-4.6h-0.5c0,0.1,0,0.3-0.1,0.4c-0.3,1.8-0.6,3.6-1.1,5.4
			c-3.3,12.8-11.1,21.5-23.2,25.9c-0.9,0.3-1.8,0.5-2.6,0.8c-0.7,0.2-1.3,0.3-2,0.5c-5,1.7-7.5,4.9-8,10.2c-0.1,1.2-1.1,2.1-2.3,2.2
			l-0.2,0c-0.2,0-0.5,0-0.7,0C34.8,98.9,34.7,98.9,34.5,98.9z M45.5,53.4v26.4c13.1-3.6,20.9-12.7,22.7-26.4H45.5z M6.5,55
			c4.5,0,9,0,13.5,0c0.5-0.6,1-1.1,1.5-1.7c0.3-0.3,0.6-0.7,0.9-1c0.2-0.2,0.4-0.5,0.6-0.8c0.4-0.5,0.8-1.1,1.4-1.6
			c-1.6-1.7-3.1-3.4-4.5-4.9c-3.9,0-7.8,0-11.6,0l-1.8,0c0.6,1,1.2,2,1.9,3.1c1,1.6,0.6,3,0,3.9C7.8,52.9,7.2,53.9,6.5,55z M85.1,47
			c-1.3,0-2.7,0.9-3,1.9c-0.3,1.2-0.2,2.2,0.4,2.9c0.7,0.8,1.8,1.2,3.1,1c2.2-0.2,3.9-1.4,5.8-3c-1.7-1.4-3.5-2.5-5.8-2.9
			C85.4,47,85.2,47,85.1,47z M40.7,46.6C40.7,46.6,40.7,46.6,40.7,46.6L40.7,46.6z M45.5,46.5h22.7c-0.1-0.6-0.2-1.3-0.3-1.9
			c-2.5-12.9-9.9-21-22.4-24.5V46.5z M36.2,3.9C36.2,3.9,36.2,3.9,36.2,3.9C36.2,3.9,36.2,3.9,36.2,3.9z"/>
	</g>
</g>
</svg>
