<?xml version="1.0" encoding="utf-8"?>
<!-- Generator: Adobe Illustrator 24.3.0, SVG Export Plug-In . SVG Version: 6.00 Build 0)  -->
<svg version="1.1" id="_x32_4_x5F_Floorball_1_" xmlns="http://www.w3.org/2000/svg" xmlns:xlink="http://www.w3.org/1999/xlink"
	 x="0px" y="0px" viewBox="0 0 100 100" style="enable-background:new 0 0 100 100;" xml:space="preserve">
<style type="text/css">
	.st0{fill:#596079;}
</style>
<g id="_x32_4_x5F_Floorball">
	<g>
		<path class="st0" d="M35.4,100c-3.1,0-6.6-0.3-10.4-0.8c-7.1-0.9-13.7-3.1-19.4-6.5c-5.4-3.2-7.3-10.1-4.2-15.6l0-0.1
			c1.4-2.6,3.8-4.6,6.7-5.4c2.9-0.8,5.9-0.5,8.6,0.9c8.7,4.8,17.9,4.5,21.1,4.2L85.7,3.6c0,0,0,0,0,0c2.2-3.3,6.4-4.5,10-2.7
			c2,1,3.5,2.8,4.1,5c0.6,2.2,0.2,4.6-1,6.5L59,73c0,0,0,0,0,0c0,0,0,0,0,0L53,82.2c0.3,6.4-1.1,10.9-4.2,13.8
			c-1.6,1.5-3.6,2.5-5.9,3.1c-0.2,0.1-0.3,0.1-0.5,0.1C40.3,99.8,38,100,35.4,100z M18.4,92.6c2.3,0.7,4.8,1.2,7.3,1.5
			c3.8,0.5,7.5,0.8,10.8,0.7c-4.9-5.6-6.4-10.2-6.7-12.9c-1.2-0.1-2.4-0.3-3.7-0.6C25,84.3,22.8,89.2,18.4,92.6z M35.1,82.1
			c0.6,2.4,2.3,6.5,7.6,11.7c1-0.4,1.9-0.9,2.5-1.5c2-1.9,2.8-5.4,2.5-10.6c0-0.6,0.1-1.1,0.4-1.6l5-7.7l-4.4-2.9l-7.3,11.2
			c-0.4,0.6-1,1-1.8,1.1C39.5,81.8,37.8,82.1,35.1,82.1z M11.3,76.4c-0.6,0-1.1,0.1-1.7,0.2c-1.5,0.5-2.8,1.5-3.6,2.9l0,0.1
			c-1.7,3-0.6,7,2.3,8.7c1.2,0.7,2.5,1.4,3.8,2C17.3,88.1,19.9,83,21,80c-2.2-0.7-4.5-1.7-6.7-2.9C13.3,76.6,12.3,76.4,11.3,76.4z
			 M39.3,79.2L39.3,79.2L39.3,79.2z M51.6,65.1l4.4,2.9L94.4,9.5c0.4-0.7,0.6-1.5,0.4-2.3c-0.2-0.8-0.7-1.4-1.4-1.7
			c-1.2-0.6-2.6-0.2-3.3,0.9L51.6,65.1z M28.6,68.5c-7.3,0-13.3-6.1-13.3-13.5s6-13.5,13.3-13.5s13.3,6.1,13.3,13.5
			S35.9,68.5,28.6,68.5z M28.6,46.6c-4.5,0-8.1,3.7-8.1,8.3c0,4.6,3.6,8.3,8.1,8.3s8.1-3.7,8.1-8.3C36.7,50.3,33.1,46.6,28.6,46.6z"
			/>
	</g>
	<g>
		<ellipse class="st0" cx="28.6" cy="54.9" rx="3.2" ry="3.2"/>
	</g>
</g>
</svg>
