<?xml version="1.0" encoding="utf-8"?>
<!-- Generator: Adobe Illustrator 24.3.0, SVG Export Plug-In . SVG Version: 6.00 Build 0)  -->
<svg version="1.1" id="_x32_5_x5F_Formula1_1_" xmlns="http://www.w3.org/2000/svg" xmlns:xlink="http://www.w3.org/1999/xlink"
	 x="0px" y="0px" viewBox="0 0 100 100" style="enable-background:new 0 0 100 100;" xml:space="preserve">
<style type="text/css">
	.st0{fill:#596079;}
</style>
<g id="_x32_5_x5F_Formula1">
	<g>
		<path class="st0" d="M3.3,97.1c-0.4,0-0.7-0.1-1.1-0.2c-1.7-0.6-2.6-2.5-2-4.2l13.4-37.1c0,0,0,0,0,0v0c0,0,0,0,0,0c0,0,0,0,0,0
			L33,5c0.4-1.1,1.4-1.9,2.6-2.1c1.2-0.2,2.3,0.3,3.1,1.2c0.1,0.1,4.8,6.2,11.5,8.8c2.1,0.8,7.4,0.4,12.6,0
			c13.2-1.1,33.1-2.7,37.3,14.2c0.2,0.6,0.1,1.3-0.1,1.9L82,78.2c-0.4,1.2-1.5,2-2.7,2.1c-1.2,0.1-2.5-0.5-3.1-1.5
			c0-0.1-4.9-7.7-11.7-8.8c-3.3-0.5-8-0.2-13.1,0.2c-7.3,0.6-14.9,1.1-21-0.6c-5.4-1.5-9.6-4.4-12.4-6.9L6.3,94.9
			C5.9,96.3,4.6,97.1,3.3,97.1z M60.4,63.2c1.8,0,3.6,0.1,5.1,0.4c5.3,0.9,9.5,4.1,12.3,7l15.5-42.7c-3.1-9.7-15-9.5-30.1-8.3
			c-6.7,0.5-12,1-15.5-0.4c-4.4-1.7-8-4.5-10.5-6.9L20.5,56c1.9,2,6,5.7,11.7,7.3c5,1.4,12,0.9,18.8,0.4
			C54.2,63.4,57.5,63.2,60.4,63.2z"/>
	</g>
	<g>
		<path class="st0" d="M45.5,32.3l-3.6,9.5c-4.3-0.9-7.6-3-9.6-4.5l3.6-9.6C37.6,29.1,41.1,31.4,45.5,32.3z M56.2,32.1l-3.7,9.8
			c3.4-0.4,7.2-0.9,11-1l3.6-9.7C63.3,31.4,59.5,31.8,56.2,32.1z M63.6,40.9l-3.7,9.8c3.7-0.2,7.3-0.2,10.8,0.5l3.6-9.5
			C70.7,40.8,67.1,40.7,63.6,40.9z M70.7,51.1l-3.3,8.8c3.6,0.7,6.9,2,9.5,4.3l3.4-8.9C77.4,53,74.1,51.7,70.7,51.1z M48.9,51.6
			l-3.4,9c3.2-0.4,7.1-0.9,11.1-1.1l3.3-8.7C56.1,50.8,52.4,51.3,48.9,51.6z M28.7,46.8l-3.3,8.9c1.8,1.3,5.4,3.6,9.5,4.8l3.5-9.2
			C33.8,50.3,30.5,48.2,28.7,46.8z M46.2,42.3c-1.5,0-2.9-0.2-4.3-0.5l-3.5,9.4c1.3,0.3,2.7,0.5,4.3,0.5c1.9,0.1,4.1,0,6.3-0.2
			l3.6-9.6C50.2,42.2,48,42.4,46.2,42.3z M48.8,23.4l-3.3,8.9c1.5,0.3,3.2,0.5,4.9,0.4c1.6-0.1,3.6-0.3,5.8-0.6l3.1-8.4
			C55,24,51.5,23.8,48.8,23.4z M70.4,22.6l-3.2,8.6c3.6-0.1,7.3,0,10.7,0.6l3.4-9C78.5,22.3,75,22.2,70.4,22.6z M77.9,31.8l-3.7,9.7
			c3.4,0.7,6.6,2,9.5,4.2l3.7-9.8C84.9,33.8,81.6,32.5,77.9,31.8z"/>
	</g>
</g>
</svg>
