<?xml version="1.0" encoding="utf-8"?>
<!-- Generator: Adobe Illustrator 24.3.0, SVG Export Plug-In . SVG Version: 6.00 Build 0)  -->
<svg version="1.1" id="_x32_6_x5F_Futsal_1_" xmlns="http://www.w3.org/2000/svg" xmlns:xlink="http://www.w3.org/1999/xlink"
	 x="0px" y="0px" viewBox="0 0 100 100" style="enable-background:new 0 0 100 100;" xml:space="preserve">
<style type="text/css">
	.st0{fill:#596079;}
</style>
<g id="_x32_6_x5F_Futsal">
	<path class="st0" d="M99.1,45.4c-0.5-4.6-1.5-9-3.2-13.4C91,19.3,80.8,9.1,68,4.2c-0.7-0.3-1.4-0.5-2.2-0.8
		C60.7,1.6,55.5,0.8,50,0.8c-3.1,0-6.1,0.3-9.2,0.8C37.8,2.1,34.9,3,32,4.2l0,0C19.3,9.1,9.1,19.3,4.2,32C2,37.8,0.8,43.9,0.8,50
		c0,0.8,0,1.5,0,2.4C0.9,57.8,2.1,63.1,4.2,68C9.1,80.7,19.3,90.9,32,95.8c5.8,2.2,11.7,3.4,18,3.4c1.5,0,3.1,0,4.6-0.2
		c4.6-0.5,9-1.5,13.2-3.2l0,0C80.6,90.9,90.8,80.7,95.7,68c2.2-5.8,3.4-11.7,3.4-18C99.3,48.5,99.3,46.9,99.1,45.4z M95.7,53.7
		c0,0.2,0,0.3,0,0.3c-0.2,1.2-0.2,2.2-0.5,3.4c0,0.2,0,0.3-0.2,0.5c-0.2,1-0.5,2.2-0.7,3.2c0,0.2-0.2,0.3-0.2,0.5
		c-0.3,1-0.7,2.2-1,3.2v0.2c-6.8-1.9-11.5-8.1-11.5-15.3s4.8-13.4,11.5-15.3v0.2c0.3,1,0.7,2.2,1,3.2c0,0.2,0.2,0.3,0.2,0.5
		c0.3,1,0.5,2.2,0.7,3.2c0,0.2,0,0.3,0.2,0.5c0.2,1.2,0.3,2.2,0.5,3.4c0,0.2,0,0.3,0,0.3c0.2,1.7,0.2,2.9,0.2,4.1
		C95.9,51.2,95.9,52.4,95.7,53.7z M92,31.5c-7.5,2.2-12.9,9-13.6,16.8h-9c-0.8-9.3-8.2-16.6-17.5-17.5v-9
		c7.8-0.7,14.4-6.1,16.8-13.6C78.9,12.7,87.4,21.1,92,31.5z M65.1,93.3c-1,0.3-2,0.7-3.2,1c-0.2,0-0.5,0.2-0.7,0.2
		c-1,0.3-2,0.5-3.2,0.7c-0.2,0-0.5,0-0.7,0.2c-1,0.2-2.2,0.3-3.2,0.3c-0.2,0-0.3,0-0.5,0c-1.2,0-2.2,0.2-3.4,0.2c-0.2,0-0.2,0-0.3,0
		c-1.2,0-2.2,0-3.4-0.2c-0.2,0-0.3,0-0.5,0c-1-0.2-2.2-0.2-3.2-0.3c-0.2,0-0.5,0-0.7-0.2c-1-0.2-2-0.3-3.2-0.7
		c-0.2,0-0.5-0.2-0.7-0.2c-1-0.3-2.2-0.7-3.2-1h-0.2c1.9-6.8,8.2-11.5,15.3-11.5s13.4,4.8,15.3,11.5C65.3,93.3,65.1,93.3,65.1,93.3z
		 M50,66c-8.8,0-16-7.1-16-16s7.1-16,16-16s16,7.1,16,16S58.9,66,50,66z M34.9,6.7c1-0.3,2.2-0.7,3.4-1c0.2,0,0.3,0,0.3-0.2
		C39.8,5.2,41,5,42.2,4.7c0,0,0,0,0.2,0c5.1-0.8,10.4-0.8,15.5,0c0,0,0,0,0.2,0c1.2,0.2,2.4,0.5,3.6,0.8c0.2,0,0.3,0,0.3,0.2
		c1.2,0.3,2.2,0.7,3.4,1h0.2c-1.9,6.8-8.2,11.5-15.3,11.5S36.8,13.5,34.9,6.7C34.7,6.7,34.9,6.7,34.9,6.7z M31.5,8.1
		c2.2,7.5,9,12.9,16.8,13.6v9c-9.3,0.8-16.6,8.1-17.5,17.5h-9c-0.7-7.8-6.1-14.4-13.6-16.8C12.7,21.1,21.1,12.7,31.5,8.1z M6.9,65.3
		v-0.2c-0.3-1-0.7-2.2-1-3.2c0-0.2-0.2-0.3-0.2-0.5c-0.3-1-0.5-2.2-0.7-3.2c0-0.2,0-0.3-0.2-0.5c-0.2-1.2-0.3-2.2-0.5-3.4
		c0-0.2,0-0.3,0-0.3c-0.2-1.5-0.2-2.7-0.2-3.9c0-1.2,0-2.4,0.2-3.7c0-0.2,0-0.3,0-0.3c0.2-1.2,0.2-2.2,0.5-3.4c0-0.2,0-0.3,0.2-0.5
		c0.2-1,0.5-2.2,0.7-3.2c0-0.2,0.2-0.3,0.2-0.5c0.3-1,0.7-2.2,1-3.2v-0.2c6.8,1.9,11.5,8.1,11.5,15.3C18.4,57.1,13.7,63.4,6.9,65.3z
		 M8.1,68.5c7.5-2.2,12.9-9,13.6-16.8h9c0.8,9.3,8.2,16.6,17.5,17.5v9c-7.8,0.7-14.4,6.1-16.8,13.6C21.1,87.3,12.7,78.9,8.1,68.5z
		 M68.5,91.9c-2.2-7.5-9-12.9-16.8-13.6v-9c9.3-0.8,16.6-8.1,17.5-17.5h9c0.7,7.8,6.1,14.4,13.6,16.8C87.4,78.9,78.9,87.3,68.5,91.9
		z"/>
	<path class="st0" d="M50,100c-6.2,0-12.2-1.1-18.3-3.4c-13-5-23.3-15.3-28.3-28.3C1.3,63.2,0.2,57.8,0,52.4L0,50
		c0-6.1,1.2-12.3,3.4-18.3c5-13,15.3-23.3,28.3-28.3c3-1.2,5.9-2.1,9-2.6C44.2,0.3,47.2,0,50,0c5.5,0,10.9,0.9,16,2.6
		c0.4,0.1,0.7,0.2,0.9,0.3c0.5,0.2,0.9,0.3,1.4,0.5c12.9,5,23.2,15.3,28.2,28.3c1.7,4.3,2.7,8.8,3.3,13.6c0.2,1.6,0.2,3.1,0,4.7
		c0,6.2-1.1,12.2-3.4,18.2c-5,13-15.3,23.3-28.3,28.3c-4.1,1.7-8.5,2.7-13.4,3.3C53.1,100,51.5,100,50,100z M50,1.5
		c-2.7,0-5.7,0.3-9,0.8c-2.9,0.5-5.8,1.3-8.7,2.5C19.7,9.7,9.7,19.7,4.9,32.3C2.7,38.1,1.5,44,1.5,50v2.4c0.2,5.2,1.3,10.4,3.3,15.3
		c4.9,12.6,14.9,22.6,27.4,27.4c5.9,2.2,11.7,3.3,17.7,3.3c1.5,0,3,0,4.5-0.2c4.8-0.5,9-1.6,13-3.2C80.1,90.3,90.1,80.3,95,67.7
		c2.2-5.9,3.3-11.7,3.3-17.7c0,0,0-0.1,0-0.1c0.2-1.5,0.2-2.9,0-4.4c-0.5-4.7-1.6-9-3.2-13.2C90.3,19.7,80.3,9.7,67.7,4.9
		c-0.4-0.2-0.8-0.3-1.2-0.5c-0.3-0.1-0.6-0.2-1-0.4C60.6,2.4,55.3,1.5,50,1.5z M50.2,96.6h-0.3c-1.2,0-2.2,0-3.5-0.2h-0.5
		c0,0-0.1,0-0.1,0c-0.5-0.1-1-0.1-1.5-0.2c-0.5,0-1.1-0.1-1.6-0.2c-0.2,0-0.6,0-0.9-0.2c-0.9-0.2-1.9-0.3-3.1-0.6
		c-0.2,0-0.3-0.1-0.4-0.1c-0.1,0-0.1,0-0.2-0.1c-0.1,0-0.1,0-0.2,0c-0.5-0.2-1.1-0.3-1.6-0.5c-0.5-0.2-1-0.3-1.5-0.5h0
		c-0.2,0-0.5-0.1-0.6-0.3c-0.1-0.2-0.2-0.4-0.1-0.7C36,86,42.5,81,50,81c7.5,0,14.1,5,16,12.1c0.1,0.2,0,0.5-0.1,0.7
		c-0.1,0.2-0.4,0.3-0.6,0.3h0c-1,0.3-2,0.7-3.1,1c-0.1,0-0.1,0-0.2,0c0,0,0,0-0.1,0c-0.1,0-0.3,0.1-0.4,0.1
		c-1.1,0.4-2.2,0.5-3.3,0.7c-0.1,0-0.2,0-0.3,0c-0.1,0.1-0.2,0.1-0.3,0.1c-1,0.2-2.2,0.4-3.4,0.4h-0.5c-0.6,0-1.1,0-1.6,0.1
		C51.4,96.6,50.8,96.6,50.2,96.6z M57.9,95.9L57.9,95.9L57.9,95.9z M46,94.9h0.4c0,0,0.1,0,0.1,0c1.1,0.2,2.1,0.2,3.3,0.2h0.3
		c0.6,0,1.1,0,1.6-0.1c0.6,0,1.1-0.1,1.8-0.1h0.5c0.9,0,2-0.2,2.9-0.3c0.3-0.2,0.7-0.2,0.9-0.2c1-0.1,2.1-0.3,3-0.6
		c0.1,0,0.2,0,0.2,0c0,0,0,0,0.1,0c0.1,0,0.3-0.1,0.4-0.1c0.9-0.3,1.8-0.5,2.6-0.8c-2-6.1-7.8-10.2-14.3-10.2
		c-6.5,0-12.3,4.2-14.3,10.2c0.3,0.1,0.7,0.2,1,0.3c0.5,0.2,1.1,0.3,1.5,0.5c0.2,0,0.3,0.1,0.4,0.1c0.1,0,0.1,0,0.2,0.1
		c0.1,0,0.1,0,0.1,0c1.1,0.3,2.1,0.5,3.1,0.7c0.1,0,0.2,0.1,0.3,0.1c0.1,0,0.2,0,0.2,0c0,0,0.1,0,0.1,0c0.5,0.1,1,0.1,1.5,0.2
		C44.9,94.8,45.5,94.8,46,94.9z M42.6,94.6C42.6,94.6,42.6,94.6,42.6,94.6C42.6,94.6,42.6,94.6,42.6,94.6z M65.2,93.3l0.2,0.7
		L65.2,93.3z M68.5,92.7c-0.1,0-0.2,0-0.3-0.1c-0.2-0.1-0.4-0.3-0.4-0.5c-2.1-7.1-8.6-12.4-16.1-13c-0.4,0-0.7-0.4-0.7-0.8v-9
		c0-0.4,0.3-0.7,0.7-0.8c8.9-0.8,16-7.9,16.8-16.8c0-0.4,0.4-0.7,0.8-0.7h9c0.4,0,0.7,0.3,0.8,0.7c0.7,7.5,5.8,13.8,13.1,16.1
		c0.2,0.1,0.4,0.2,0.5,0.4c0.1,0.2,0.1,0.4,0,0.6C88,79.3,79.4,88,68.8,92.6C68.7,92.7,68.6,92.7,68.5,92.7z M52.5,77.7
		c7.6,0.9,14.1,6.1,16.5,13.2c9.6-4.5,17.4-12.3,21.8-21.7c-7.2-2.6-12.3-9-13.2-16.5h-7.6c-1.1,9.1-8.3,16.3-17.4,17.4V77.7z
		 M31.3,92.5c-0.1,0-0.2,0-0.3-0.1C20.7,88,12,79.4,7.4,68.8c-0.1-0.2-0.1-0.4,0-0.6c0.1-0.2,0.3-0.4,0.5-0.4
		c7.1-2.1,12.4-8.6,13-16.1c0-0.4,0.4-0.7,0.8-0.7h9c0.4,0,0.7,0.3,0.8,0.7c0.8,8.9,7.9,16,16.8,16.8c0.4,0,0.7,0.4,0.7,0.8v9
		c0,0.4-0.3,0.7-0.7,0.8c-7.5,0.7-13.8,5.8-16.1,13c-0.1,0.2-0.2,0.4-0.4,0.5C31.6,92.5,31.4,92.5,31.3,92.5z M9.1,69
		c4.5,9.6,12.3,17.4,21.8,21.7c2.6-7.2,9-12.3,16.5-13.2v-7.6c-9.1-1.1-16.3-8.3-17.4-17.4h-7.6C21.4,60,16.2,66.5,9.1,69z M50,66.7
		c-9.2,0-16.7-7.5-16.7-16.7S40.8,33.3,50,33.3c9.2,0,16.7,7.5,16.7,16.7S59.2,66.7,50,66.7z M50,34.8c-8.4,0-15.2,6.8-15.2,15.2
		c0,8.4,6.8,15.2,15.2,15.2c8.4,0,15.2-6.8,15.2-15.2C65.2,41.6,58.4,34.8,50,34.8z M6.9,66c-0.2,0-0.3-0.1-0.5-0.2
		c-0.2-0.1-0.3-0.4-0.3-0.6v0c-0.2-0.5-0.3-1-0.5-1.5c-0.2-0.5-0.3-1.1-0.5-1.6c0,0,0-0.1,0-0.1C5,61.9,5,61.7,4.9,61.5
		c-0.3-0.9-0.5-2-0.6-2.9l-0.1-0.4c0,0,0-0.1,0-0.1c0,0,0,0,0,0c-0.1-0.1-0.1-0.2-0.2-0.4c-0.1-0.6-0.2-1.1-0.3-1.7
		c-0.1-0.6-0.2-1.1-0.3-1.7c0,0,0-0.1,0-0.1v-0.3c-0.2-1.5-0.2-2.8-0.2-3.9s0-2.4,0.2-3.8v-0.3c0,0,0-0.1,0-0.1
		c0.1-0.4,0.1-0.7,0.1-1.1c0.1-0.7,0.2-1.5,0.4-2.3c0-0.2,0-0.5,0.2-0.7c0.1-0.5,0.2-1,0.3-1.5c0.1-0.5,0.2-1,0.3-1.5
		c0-0.2,0.1-0.4,0.2-0.5c0,0,0,0,0,0c0,0,0-0.1,0-0.1c0.2-0.5,0.3-1,0.5-1.6c0.2-0.5,0.3-1,0.5-1.5v0c0-0.2,0.1-0.5,0.3-0.6
		c0.2-0.1,0.4-0.2,0.7-0.1c7.1,2,12.1,8.5,12.1,16c0,7.4-5,13.9-12.1,15.8C7,66,7,66,6.9,66z M6.6,61.7c0.2,0.5,0.3,1,0.5,1.5
		c0.1,0.4,0.2,0.7,0.3,1c6.1-2,10.2-7.7,10.2-14.1c0-6.5-4.2-12.3-10.2-14.3c-0.1,0.3-0.2,0.7-0.3,1c-0.2,0.5-0.3,1.1-0.5,1.5
		c0,0.2-0.1,0.3-0.2,0.4c0,0,0,0,0,0c0,0,0,0,0,0c-0.1,0.5-0.2,1.1-0.3,1.7c-0.1,0.5-0.2,1.1-0.3,1.6c0,0.1-0.1,0.3-0.2,0.4
		c0,0,0,0,0,0c0,0.1,0,0.1,0,0.2c-0.2,0.7-0.3,1.4-0.4,2.2c0,0.4-0.1,0.7-0.1,1.1v0.3c0,0,0,0.1,0,0.1c-0.2,1.3-0.2,2.4-0.2,3.6
		c0,1.2,0,2.3,0.2,3.8c0,0,0,0.1,0,0.1v0.3c0.1,0.6,0.2,1.1,0.2,1.6c0.1,0.5,0.2,1,0.2,1.5c0.2,0.3,0.2,0.6,0.2,0.8l0.1,0.3
		c0.1,0.9,0.3,1.9,0.6,2.7c0,0,0,0.1,0,0.1C6.5,61.4,6.6,61.5,6.6,61.7z M5.1,61.9C5.1,61.9,5.1,61.9,5.1,61.9
		C5.1,61.9,5.1,61.9,5.1,61.9z M6.5,61.4C6.5,61.4,6.5,61.4,6.5,61.4C6.5,61.4,6.5,61.4,6.5,61.4z M6.5,38.8
		C6.5,38.8,6.5,38.8,6.5,38.8C6.5,38.8,6.5,38.8,6.5,38.8z M5.1,38.3C5.1,38.3,5.1,38.3,5.1,38.3S5.1,38.3,5.1,38.3z M93.2,65.9
		c-0.1,0-0.1,0-0.2,0c-7.1-2-12.1-8.5-12.1-16s5-14.1,12.1-16c0.2-0.1,0.5,0,0.7,0.1c0.2,0.1,0.3,0.4,0.3,0.6v0
		c0.2,0.5,0.3,1,0.5,1.5c0.2,0.5,0.3,1.1,0.5,1.6c0,0,0,0.1,0,0.1c0.1,0.1,0.1,0.3,0.2,0.5c0.3,0.9,0.5,2,0.6,2.9l0.1,0.4
		c0,0,0,0.1,0,0.1c0,0,0,0,0,0c0.1,0.1,0.1,0.2,0.2,0.4c0.1,0.6,0.2,1.1,0.3,1.7c0.1,0.6,0.2,1.1,0.3,1.7c0,0,0,0.1,0,0.1v0.3
		c0.2,1.7,0.2,2.9,0.2,4.1c0,1.2,0,2.4-0.2,3.8v0.3c0,0,0,0.1,0,0.1c-0.1,0.4-0.1,0.7-0.1,1.1c-0.1,0.7-0.2,1.5-0.4,2.3
		c0,0.2,0,0.5-0.2,0.7c-0.1,0.5-0.2,1-0.3,1.5c-0.1,0.5-0.2,1-0.3,1.5c0,0.2-0.1,0.4-0.2,0.5c0,0,0,0,0,0c0,0,0,0.1,0,0.1
		c-0.2,0.5-0.3,1-0.5,1.6c-0.2,0.5-0.3,1-0.5,1.5v0c0,0.2-0.1,0.5-0.3,0.6C93.5,65.8,93.3,65.9,93.2,65.9z M92.6,35.5
		c-6.1,2-10.2,7.8-10.2,14.3c0,6.5,4.2,12.3,10.2,14.3c0.1-0.3,0.2-0.7,0.3-1.1c0.2-0.5,0.3-1,0.5-1.5c0-0.2,0.1-0.3,0.2-0.4
		c0,0,0,0,0,0c0,0,0,0,0,0c0.1-0.5,0.2-1.1,0.3-1.7c0.1-0.5,0.2-1.1,0.3-1.6c0-0.1,0.1-0.3,0.2-0.4c0,0,0,0,0,0c0-0.1,0-0.1,0-0.2
		c0.2-0.7,0.3-1.4,0.4-2.2c0-0.4,0.1-0.7,0.1-1.1v-0.3c0,0,0-0.1,0-0.1c0.2-1.3,0.2-2.4,0.2-3.6c0-1.2,0-2.3-0.2-4l0-0.4
		c-0.1-0.6-0.2-1.1-0.2-1.6c-0.1-0.5-0.2-1-0.2-1.5c-0.2-0.3-0.2-0.6-0.2-0.8l-0.1-0.3c-0.1-0.9-0.3-1.9-0.6-2.7c0,0,0-0.1,0-0.1
		c-0.1-0.1-0.1-0.3-0.2-0.5c-0.2-0.5-0.3-1-0.5-1.5C92.8,36.2,92.7,35.9,92.6,35.5z M94.9,61.7C94.9,61.7,94.9,61.7,94.9,61.7
		C94.9,61.7,94.9,61.7,94.9,61.7z M93.6,61.2C93.6,61.2,93.6,61.2,93.6,61.2C93.6,61.2,93.6,61.2,93.6,61.2z M95.7,54.1L95.7,54.1
		L95.7,54.1z M93.6,38.5C93.6,38.5,93.6,38.5,93.6,38.5C93.6,38.5,93.6,38.5,93.6,38.5z M94.9,37.9C94.9,37.9,94.9,37.9,94.9,37.9
		C94.9,37.9,94.9,37.9,94.9,37.9z M78.4,49.1h-9c-0.4,0-0.7-0.3-0.8-0.7c-0.8-8.9-7.9-16-16.8-16.8c-0.4,0-0.7-0.4-0.7-0.8v-9
		c0-0.4,0.3-0.7,0.7-0.8c7.5-0.7,13.8-5.8,16.1-13c0.1-0.2,0.2-0.4,0.4-0.5c0.2-0.1,0.4-0.1,0.6,0C79.4,12,88,20.6,92.7,31.2
		c0.1,0.2,0.1,0.4,0,0.6c-0.1,0.2-0.3,0.4-0.5,0.4c-7.1,2.1-12.4,8.6-13,16.1C79.1,48.8,78.8,49.1,78.4,49.1z M70.1,47.5h7.6
		c0.9-7.6,6.1-14,13.2-16.5c-4.5-9.6-12.3-17.4-21.8-21.7c-2.6,7.2-9,12.3-16.5,13.2v7.6C61.8,31.3,68.9,38.4,70.1,47.5z M30.8,48.9
		h-9c-0.4,0-0.7-0.3-0.8-0.7C20.4,40.7,15.3,34.4,8,32.1c-0.2-0.1-0.4-0.2-0.5-0.4c-0.1-0.2-0.1-0.4,0-0.6C12,20.7,20.7,12,31.2,7.4
		c0.2-0.1,0.4-0.1,0.6,0c0.2,0.1,0.4,0.3,0.4,0.5c2.1,7.1,8.6,12.4,16.1,13c0.4,0,0.7,0.4,0.7,0.8v9c0,0.4-0.3,0.7-0.7,0.8
		c-8.9,0.8-16,7.9-16.8,16.8C31.6,48.6,31.2,48.9,30.8,48.9z M22.5,47.4h7.6c1.1-9.1,8.3-16.3,17.4-17.4v-7.6
		C40,21.4,33.5,16.2,31,9.1c-9.6,4.5-17.4,12.3-21.8,21.7C16.5,33.5,21.6,39.8,22.5,47.4z M50.2,19c-7.4,0-13.9-4.8-15.9-11.8
		c-0.1-0.1-0.2-0.3-0.2-0.5c0-0.4,0.3-0.7,0.7-0.8c1-0.3,2.2-0.7,3.3-1c0,0,0,0,0.1,0c0.1-0.1,0.2-0.1,0.3-0.2
		c0.6-0.2,1.2-0.3,1.8-0.4c0.6-0.1,1.2-0.2,1.7-0.4c0.1,0,0.1,0,0.2,0h0.1C47.5,3,52.7,3,57.9,3.9H58c0,0,0.1,0,0.1,0
		c1.2,0.2,2.4,0.5,3.6,0.8c0.4,0,0.6,0.1,0.7,0.3c0.5,0.1,1,0.3,1.4,0.4c0.5,0.2,1,0.3,1.6,0.5h0.1c0.2,0,0.5,0.1,0.6,0.3
		c0.1,0.2,0.2,0.4,0.1,0.7C64.3,14,57.7,19,50.2,19z M35.9,7.2c2,6.1,7.8,10.3,14.3,10.3c6.5,0,12.3-4.2,14.3-10.2
		c-0.4-0.1-0.7-0.2-1.1-0.3c-0.5-0.2-1.1-0.3-1.7-0.5c-0.1,0-0.2-0.1-0.3-0.2c0,0,0,0,0,0c-1.2-0.3-2.3-0.7-3.4-0.8h-0.1
		c0,0-0.1,0-0.1,0c-5-0.8-10.2-0.8-15.2,0c0,0-0.1,0-0.1,0h-0.1c-0.6,0.2-1.2,0.3-1.7,0.4c-0.5,0.1-1,0.2-1.4,0.3
		c-0.1,0.1-0.4,0.3-0.7,0.3C37.6,6.7,36.7,7,35.9,7.2z"/>
</g>
</svg>
