<?xml version="1.0" encoding="utf-8"?>
<!-- Generator: Adobe Illustrator 24.3.0, SVG Export Plug-In . SVG Version: 6.00 Build 0)  -->
<svg version="1.1" id="_x32_7_x5F_Golf_1_" xmlns="http://www.w3.org/2000/svg" xmlns:xlink="http://www.w3.org/1999/xlink" x="0px"
	 y="0px" viewBox="0 0 100 100" style="enable-background:new 0 0 100 100;" xml:space="preserve">
<style type="text/css">
	.st0{fill:#596079;}
</style>
<g id="_x32_7_x5F_Golf">
	<g>
		<path class="st0" d="M97,100H3c-1.4,0-2.6-1.2-2.6-2.6s1.2-2.6,2.6-2.6H97c1.4,0,2.6,1.2,2.6,2.6S98.5,100,97,100z"/>
	</g>
	<g>
		<path class="st0" d="M54.1,100c-1.4,0-2.6-1.2-2.6-2.6c0-18.2,14.7-27.3,19.7-29.8v-3.2H28.6v3.2c5,2.5,19.7,11.6,19.7,29.8
			c0,1.4-1.2,2.6-2.6,2.6c-1.4,0-2.6-1.2-2.6-2.6c0-17.7-16.8-25.2-18-25.8c-1-0.4-1.6-1.3-1.6-2.4v-7.4c0-1.4,1.2-2.6,2.6-2.6h47.7
			c1.4,0,2.6,1.2,2.6,2.6v7.4c0,1.1-0.7,2-1.7,2.4c-1.4,0.6-18,8.2-18,25.8C56.7,98.8,55.5,100,54.1,100z"/>
	</g>
	<g>
		<path class="st0" d="M49.8,64.4c-17.8,0-32.2-14.4-32.2-32.2S32,0,49.8,0C67.5,0,82,14.4,82,32.2S67.5,64.4,49.8,64.4z M49.8,5.2
			c-14.9,0-27,12.1-27,27c0,14.9,12.1,27,27,27s27-12.1,27-27C76.8,17.3,64.7,5.2,49.8,5.2z"/>
	</g>
	<g>
		<circle class="st0" cx="38.5" cy="17.9" r="3.7"/>
	</g>
	<g>
		<circle class="st0" cx="31.6" cy="27.9" r="3.7"/>
	</g>
	<g>
		<circle class="st0" cx="44.2" cy="27.7" r="3.7"/>
	</g>
</g>
</svg>
