<?xml version="1.0" encoding="utf-8"?>
<!-- Generator: Adobe Illustrator 24.3.0, SVG Export Plug-In . SVG Version: 6.00 Build 0)  -->
<svg version="1.1" id="_x33_0_x5F_Hockey_1_" xmlns="http://www.w3.org/2000/svg" xmlns:xlink="http://www.w3.org/1999/xlink"
	 x="0px" y="0px" viewBox="0 0 100 100" style="enable-background:new 0 0 100 100;" xml:space="preserve">
<style type="text/css">
	.st0{fill:#596079;}
</style>
<g id="_x33_0_x5F_Hockey">
	<path class="st0" d="M100,89.5c-0.4,1.7-1,3.3-2.2,4.6c-1.7,1.8-3.7,2.8-6.1,2.8c-9.2,0-18.5,0-27.7,0c-0.4,0-0.9-0.3-1.2-0.7
		c-4-4.9-8-9.9-12-14.9c-0.2-0.3-0.5-0.5-0.8-0.9c-0.3,0.3-0.5,0.6-0.8,0.9c-4,5-8,9.9-11.9,14.9c-0.4,0.5-0.8,0.8-1.5,0.8
		c-8.9,0-17.8,0-26.7,0c-5.4,0-9.1-3.7-9.1-9.1c0-2.8,0-5.5,0-8.3c0-5.3,3.6-8.9,8.9-9c2.7,0,5.5,0,8.2,0c4.3,0,8.6,0,12.9,0
		c0.7,0,1.2-0.2,1.6-0.8c1.6-2,3.3-4,5-6c-2.7-3.3-5.3-6.6-7.9-9.8c-7.9-9.8-15.7-19.6-23.6-29.4C1.8,20.3,2.3,14.3,6.5,11
		c4.1-3.3,10-2.8,13.5,1.4c9.8,11.6,19.6,23.2,29.4,34.8c0.2,0.2,0.4,0.5,0.7,0.8c1.9-2.2,3.7-4.4,5.5-6.5
		c8.2-9.7,16.4-19.5,24.6-29.2c2.8-3.3,6.9-4.3,11-2.7c3.7,1.4,6.1,5.1,5.9,9.2c-0.1,2.1-0.8,4-2.2,5.7
		C84.7,37.2,74.5,49.9,64.3,62.6c-0.3,0.4-0.6,0.8-0.9,1.2c1.8,2.2,3.6,4.3,5.4,6.4c0.2,0.3,0.7,0.3,1.1,0.3c7,0,14,0,21,0
		c4.2,0,7.4,2.2,8.7,5.9c0.2,0.5,0.3,1,0.5,1.5C100,81.7,100,85.6,100,89.5z M26.5,91c2,0,3.8-0.1,5.7,0c1.2,0.1,2-0.3,2.8-1.3
		c14.6-18.3,29.3-36.6,44-54.8c3.7-4.6,7.4-9.3,11.2-13.9c0.8-0.9,1.2-2,1-3.2c-0.2-1.5-1.2-2.5-2.6-3c-1.7-0.5-3,0.1-4.1,1.4
		c-16.4,19.5-32.9,39-49.3,58.5c-0.9,1.1-1.9,1.7-3.3,1.6c-1.7-0.1-3.4,0-5.2,0C26.5,81.3,26.5,86.1,26.5,91z M46.2,52.5
		c-0.3-0.3-0.5-0.6-0.7-0.8c-8-9.5-16-19-24-28.5c-2-2.4-4-4.8-6.1-7.2c-1.2-1.4-3.1-1.7-4.7-0.7c-1.5,0.9-2.2,2.6-1.6,4.3
		c0.2,0.6,0.6,1.2,1.1,1.7C18,31.2,26,41.1,34,51c2.2,2.7,4.3,5.4,6.6,8.2C42.4,56.9,44.3,54.7,46.2,52.5z M73.5,91
		c0-4.9,0-9.7,0-14.6c-2.2,0-4.3,0-6.4,0c-0.4,0-1-0.3-1.3-0.6c-1.9-2.2-3.8-4.5-5.7-6.8c-0.2-0.2-0.2-0.5-0.4-0.8
		c-2.1,2.7-4,5-5.9,7.4c0.1,0.2,0.2,0.3,0.2,0.4c3.9,4.9,7.8,9.8,11.8,14.6c0.1,0.2,0.4,0.4,0.6,0.4C68.7,91,71.1,91,73.5,91z
		 M20.5,76.4c-4.1,0-8.2,0-12.2,0c-1.5,0-2.5,1.2-2.5,2.8c0,2.8,0,5.6,0,8.4c0,2.2,1.1,3.3,3.3,3.3c3.5,0,7,0,10.4,0
		c0.3,0,0.6,0,1,0C20.5,86.1,20.5,81.3,20.5,76.4z M79.5,76.4c0,4.9,0,9.7,0,14.5c0.1,0.1,0.2,0.1,0.2,0.1c3.9,0,7.9,0.1,11.8,0
		c1.5,0,2.6-1.2,2.6-2.7c0-3,0-6.1,0-9.1c0-1.6-1.1-2.7-2.6-2.7C87.5,76.3,83.6,76.4,79.5,76.4z"/>
	<path class="st0" d="M50,20.7c-2.7,0-5.5,0-8.2,0c-3.9,0-6.5-2.5-6.5-6.4c0-1.7,0-3.3,0-5c0.1-3.6,2.7-6.2,6.3-6.2
		c5.6,0,11.2,0,16.8,0c3.6,0,6.2,2.6,6.3,6.2c0,1.8,0,3.6,0,5.3c-0.1,3.4-2.6,5.9-6,6c-0.1,0-0.2,0-0.3,0
		C55.6,20.7,52.8,20.7,50,20.7z M58.8,14.8c0-1.8,0-3.5,0-5.2c0-0.6-0.3-0.6-0.7-0.6c-5.4,0-10.8,0-16.2,0c-0.2,0-0.6,0.2-0.6,0.4
		c0,1.8,0,3.6,0,5.4C47.1,14.8,52.9,14.8,58.8,14.8z"/>
</g>
</svg>
