<?xml version="1.0" encoding="utf-8"?>
<!-- Generator: Adobe Illustrator 24.3.0, SVG Export Plug-In . SVG Version: 6.00 Build 0)  -->
<svg version="1.1" id="_x32__x5F_IceHockey_1_" xmlns="http://www.w3.org/2000/svg" xmlns:xlink="http://www.w3.org/1999/xlink"
	 x="0px" y="0px" viewBox="0 0 100 100" style="enable-background:new 0 0 100 100;" xml:space="preserve">
<style type="text/css">
	.st0{fill:none;stroke:#596079;stroke-width:6;stroke-linecap:round;stroke-linejoin:round;stroke-miterlimit:10;}
</style>
<g id="_x32__x5F_IceHockey">
	<path class="st0" d="M0,71.9c0.2-0.6,0.4-1.3,0.7-1.9c1.4-2.8,3.7-4.3,6.8-4.3c7,0,14,0,21,0c9.1,0,18.2,0,27.2,0
		c0.8,0,1.1-0.2,1.4-0.9c8.5-21,17-42,25.5-63C83.3,0.1,83.5,0,85.2,0c4.2,0,8.5,0,12.7,0c1.8,0,2.4,0.9,1.8,2.6
		C90.5,30,81.2,57.5,71.8,84.9c-1.3,3.8-4,5.7-8,5.7c-1.4,0-2.9,0-4.4,0c0-0.6,0-1.1,0-1.7c0-1.9,0-3.8,0-5.8c0-2.3-0.9-4.2-2.7-5.6
		c-2.4-1.9-5.3-2.8-8.3-3.4c-7-1.3-14-1.2-20.9,0.5c-2.2,0.6-4.3,1.4-6.1,2.9c-1.7,1.4-2.6,3.2-2.6,5.4c0,2.5,0,4.9,0,7.3
		c-2.9,0-5.7,0.3-8.4-0.1C6.6,90,4.1,87.6,2.9,84c-1-3.1-1.8-6.3-2.7-9.5C0.2,74.4,0.1,74.2,0,74C0,73.3,0,72.6,0,71.9z"/>
	<path class="st0" d="M36,100c-1.9-0.3-3.8-0.4-5.6-0.8c-2-0.5-4.1-1.2-6-2c-1.8-0.8-2.7-2.2-2.5-4.3c0.1-1.4,0-2.9,0-4.4
		c5.4,3.1,11.2,3.7,17.1,3.7c5.9,0,11.8-0.6,17.2-3.7c0,2,0.1,3.9,0,5.8c-0.1,1.4-1.2,2.3-2.4,2.9c-2.2,1.3-4.6,1.8-7.1,2.3
		c-1.5,0.2-3,0.4-4.5,0.6C40.1,100,38,100,36,100z"/>
	<path class="st0" d="M39.4,76.6c4.1,0.1,8.5,0.5,12.6,2.2c0.8,0.3,1.7,0.8,2.4,1.3c2.5,1.8,2.5,3.9-0.1,5.6
		c-1.2,0.8-2.6,1.4-3.9,1.8c-5.4,1.7-10.9,1.9-16.5,1.3c-3-0.3-6-0.9-8.7-2.3c-0.6-0.3-1.3-0.7-1.8-1.1c-2-1.6-2.1-3.6,0-5
		c1.5-1,3.2-1.8,5-2.4C31.8,76.9,35.4,76.6,39.4,76.6z"/>
</g>
</svg>
