<?xml version="1.0" encoding="utf-8"?>
<!-- Generator: Adobe Illustrator 24.3.0, SVG Export Plug-In . SVG Version: 6.00 Build 0)  -->
<svg version="1.1" id="_x33_2_x5F_Motorsport_1_" xmlns="http://www.w3.org/2000/svg" xmlns:xlink="http://www.w3.org/1999/xlink"
	 x="0px" y="0px" viewBox="0 0 100 100" style="enable-background:new 0 0 100 100;" xml:space="preserve">
<style type="text/css">
	.st0{fill:#596079;}
</style>
<g id="_x33_2_x5F_Motorsport">
	<g>
		<path class="st0" d="M65.4,62.4c-5.2,0-9.5-4.3-9.5-9.5s4.2-9.5,9.5-9.5s9.5,4.3,9.5,9.5S70.6,62.4,65.4,62.4z M65.4,50
			c-1.6,0-2.9,1.3-2.9,2.9s1.3,2.9,2.9,2.9c1.6,0,2.9-1.3,2.9-2.9S67,50,65.4,50z"/>
	</g>
	<g>
		<path class="st0" d="M55.6,45l-8.7-4v22.8l8.7-3.3C55.6,60.6,49,53,55.6,45z"/>
	</g>
	<g>
		<path class="st0" d="M41.4,40.1v25.5c0,0-16.4,4.3-38.8,3.3l8.4-33C11,35.9,28.5,35.7,41.4,40.1z"/>
	</g>
	<g>
		<circle class="st0" cx="83.2" cy="44.2" r="3.2"/>
	</g>
	<g>
		<circle class="st0" cx="82.9" cy="55.7" r="2.8"/>
	</g>
	<g>
		<path class="st0" d="M74.5,95.2H14.6c-1.1,0-2.1-0.6-2.7-1.5L0.6,76.7c-0.7-1-0.7-2.3-0.2-3.4c0.6-1.1,1.7-1.7,2.9-1.7
			c40.8,0,56.3-10.7,56.5-10.8c0.6-0.4,1.4-0.7,2.1-0.6c1.4,0.1,5.6-0.3,7.9-2.5c1.2-1.2,1.8-2.7,1.8-4.8c0-2.1-0.6-3.7-1.8-4.9
			c-2.4-2.4-6.8-2.9-8.3-2.9c0,0,0,0,0,0c-0.8,0-1.6-0.3-2.2-0.8C51,37.2,24.1,34,14.4,33.4c-1.1-0.1-2.1-0.7-2.6-1.6
			c-0.5-1-0.6-2.1-0.1-3.1C23.5,4.9,51.3,4.8,52.5,4.8c22.8,0,47.5,18,47.5,47c0,30.3-23,42.5-24,43C75.5,95.1,75,95.2,74.5,95.2z
			 M16.4,88.6h57.2c1.5-0.9,5.4-3.4,9.3-7.9h-4.5c-4.9,0-8.8-4-8.8-8.8s4-8.8,8.8-8.8h13.7c0.8-3.4,1.3-7.1,1.3-11.3
			c0-27.6-24.4-40.4-40.9-40.4c0,0,0,0,0,0c-0.3,0-21.3,0.2-32.3,15.9c10.5,1,32.7,3.9,42.4,11.2c2.5,0.2,8,1,11.8,4.7
			c2.5,2.5,3.8,5.7,3.8,9.6c0,3.9-1.3,7.2-3.9,9.6c-3.8,3.6-9.2,4.2-11.6,4.3c-3.9,2.4-19.5,10.5-53.3,11.3L16.4,88.6z M78.4,69.7
			c-1.2,0-2.2,1-2.2,2.2s1,2.2,2.2,2.2h9.3c0.8-1.4,1.6-2.9,2.2-4.5H78.4z"/>
	</g>
</g>
</svg>
