<?xml version="1.0" encoding="utf-8"?>
<!-- Generator: Adobe Illustrator 24.3.0, SVG Export Plug-In . SVG Version: 6.00 Build 0)  -->
<svg version="1.1" id="_x33_3_x5F_Nascar_1_" xmlns="http://www.w3.org/2000/svg" xmlns:xlink="http://www.w3.org/1999/xlink"
	 x="0px" y="0px" viewBox="0 0 100 100" style="enable-background:new 0 0 100 100;" xml:space="preserve">
<style type="text/css">
	.st0{fill:#596079;}
</style>
<g id="_x33_3_x5F_Nascar">
	<path class="st0" d="M59.2,92.6H2.6C1.2,92.6,0,91.4,0,90s1.2-2.6,2.6-2.6H37c-3.3-1.8-6.3-4-9-6.6H12.9c-1.4,0-2.6-1.2-2.6-2.6
		c0-1.4,1.2-2.6,2.6-2.6h10.5c-5.4-7.1-8.6-16-8.6-25.6c0-8.2,2.3-15.8,6.3-22.3H2.6c-1.4,0-2.6-1.2-2.6-2.6c0-1.4,1.2-2.6,2.6-2.6
		h22.3c3.4-4,7.5-7.4,12.2-9.9H17.4c-1.4,0-2.6-1.2-2.6-2.6s1.2-2.6,2.6-2.6h40C80.9,7.4,100,26.5,100,50
		c0,22.7-17.8,41.3-40.2,42.5C59.6,92.6,59.4,92.6,59.2,92.6z M57.4,87.4C78,87.4,94.8,70.6,94.8,50S78,12.6,57.4,12.6
		C36.8,12.6,20,29.4,20,50S36.8,87.4,57.4,87.4z M57.4,76.1c-5.7,0-11-1.8-15.3-5c-0.1,0-0.1-0.1-0.2-0.1c-0.1-0.1-0.1-0.1-0.2-0.2
		C35.4,66.1,31.3,58.5,31.3,50c0-2.9,0.5-5.8,1.4-8.4c0,0,0-0.1,0-0.1c0,0,0-0.1,0-0.1C36.3,31.2,46,23.9,57.4,23.9
		s21.1,7.3,24.6,17.5c0,0,0,0.1,0,0.1c0,0,0,0.1,0,0.1c0.9,2.6,1.4,5.5,1.4,8.4c0,8.5-4.1,16.1-10.4,20.9C73,70.9,73,71,72.9,71
		c-0.1,0-0.1,0.1-0.2,0.1C68.4,74.3,63.1,76.1,57.4,76.1z M47.1,68.2c3,1.7,6.5,2.7,10.3,2.7c3.7,0,7.2-1,10.3-2.7l-6-8.2
		c-1.3,0.6-2.8,0.9-4.3,0.9c-1.5,0-3-0.3-4.3-0.9L47.1,68.2z M36.9,45.7c-0.3,1.4-0.4,2.8-0.4,4.3c0,6,2.5,11.3,6.5,15.2l6-8.3
		c-1.5-1.9-2.5-4.3-2.5-6.9c0-0.3,0-0.6,0-0.9L36.9,45.7z M65.8,56.9l6,8.3c4-3.8,6.5-9.2,6.5-15.2c0-1.5-0.2-2.9-0.4-4.3l-9.7,3.4
		c0,0.3,0,0.6,0,0.9C68.3,52.6,67.4,55,65.8,56.9z M52,48.2c-0.2,0.6-0.3,1.1-0.3,1.8c0,3.1,2.6,5.7,5.7,5.7c3.1,0,5.7-2.6,5.7-5.7
		c0-0.6-0.1-1.2-0.3-1.8c0,0,0,0,0,0c0,0,0-0.1,0-0.1c-0.8-2.2-2.9-3.8-5.4-3.8C54.9,44.3,52.8,45.9,52,48.2
		C52,48.2,52,48.2,52,48.2C52,48.2,52,48.2,52,48.2z M60,39.4c2.7,0.7,5.1,2.4,6.6,4.7l9.6-3.4c-3.1-6.2-9.1-10.7-16.2-11.6V39.4z
		 M38.6,40.8l9.6,3.4c1.5-2.3,3.8-4,6.6-4.7V29.2C47.7,30.1,41.7,34.6,38.6,40.8z"/>
</g>
</svg>
