<?xml version="1.0" encoding="utf-8"?>
<!-- Generator: Adobe Illustrator 24.3.0, SVG Export Plug-In . SVG Version: 6.00 Build 0)  -->
<svg version="1.1" id="_x33_4_x5F_Pool_1_" xmlns="http://www.w3.org/2000/svg" xmlns:xlink="http://www.w3.org/1999/xlink" x="0px"
	 y="0px" viewBox="0 0 100 100" style="enable-background:new 0 0 100 100;" xml:space="preserve">
<style type="text/css">
	.st0{fill:#596079;}
</style>
<g id="_x33_4_x5F_Pool">
	<g>
		<path class="st0" d="M99.2,47.1c0,1.9,0,3.8,0,5.8c-0.1,0.3-0.1,0.7-0.2,1c-0.2,1.8-0.4,3.6-0.7,5.3C96.5,69,92,77.5,85,84.6
			C77.7,92,68.8,96.7,58.5,98.5c-1.9,0.3-3.7,0.5-5.6,0.8c-1.9,0-3.8,0-5.8,0c-0.3-0.1-0.6-0.1-0.8-0.2c-2.7-0.4-5.4-0.6-8-1.3
			C13,91.7-3.3,66.3,1.7,40.8c2.1-10.6,7-19.7,15-27C28.1,3.5,41.5-0.7,56.8,1.3C66.5,2.5,75.1,6.5,82.4,13
			c8.7,7.6,14.1,17.1,16.1,28.5C98.8,43.4,99,45.2,99.2,47.1z M50,6.5C26,6.5,6.5,26,6.6,50C6.6,74,26,93.5,50,93.4
			C74,93.4,93.5,74,93.5,50C93.4,26,74,6.5,50,6.5z"/>
		<path class="st0" d="M52.9,100h-5.8c-0.1,0-0.1,0-0.2,0l-0.3-0.1c-0.2,0-0.4-0.1-0.5-0.1c-0.9-0.1-1.7-0.2-2.6-0.4
			c-1.8-0.2-3.7-0.5-5.5-0.9C25.7,95.5,15,87.9,8,77C1,66.1-1.5,53.2,0.9,40.6C3,29.8,8.1,20.6,16.1,13.3
			C27.6,2.8,41.3-1.5,56.9,0.5c9.7,1.2,18.5,5.2,26,11.9c8.8,7.8,14.3,17.5,16.3,29c0.2,1.3,0.4,2.6,0.5,3.9
			c0.1,0.6,0.1,1.2,0.2,1.8c0,0,0,0.1,0,0.1v5.8c0,0,0,0.1,0,0.1l-0.1,0.3c0,0.2-0.1,0.4-0.1,0.6c-0.1,0.6-0.1,1.2-0.2,1.7
			c-0.1,1.2-0.3,2.4-0.5,3.6c-1.9,9.9-6.4,18.6-13.5,25.8C78.1,92.7,69,97.4,58.6,99.2c-1.3,0.2-2.6,0.4-3.9,0.5
			c-0.6,0.1-1.2,0.1-1.8,0.2C53,100,52.9,100,52.9,100z M47.2,98.4h5.6c0.6-0.1,1.2-0.1,1.7-0.2c1.2-0.2,2.5-0.3,3.8-0.5
			C68.4,96,77.2,91.4,84.5,84c6.9-7,11.3-15.3,13.1-25c0.2-1.2,0.4-2.4,0.5-3.5c0.1-0.6,0.1-1.2,0.2-1.8c0-0.2,0.1-0.5,0.1-0.7
			l0-0.3v-5.6c-0.1-0.6-0.1-1.2-0.2-1.7c-0.2-1.2-0.3-2.5-0.5-3.8c-1.9-11.1-7.3-20.6-15.8-28.1C74.6,7.1,66.1,3.2,56.7,2
			C41.6,0.1,28.3,4.3,17.2,14.4c-7.8,7.1-12.7,16-14.8,26.5c-4.8,25,11.3,50.2,36,56.1c1.8,0.4,3.6,0.7,5.4,0.9
			c0.9,0.1,1.7,0.2,2.6,0.4c0.2,0,0.4,0.1,0.6,0.1L47.2,98.4z M50,94.2c-11.8,0-22.9-4.6-31.2-12.9c-8.4-8.3-13-19.5-13-31.3
			c0-11.8,4.6-22.9,12.9-31.3s19.5-13,31.3-13l0,0c0,0,0,0,0,0c11.8,0,22.9,4.6,31.2,12.9c8.4,8.3,13,19.5,13,31.3
			c0,11.8-4.6,22.9-12.9,31.3C73,89.6,61.8,94.2,50,94.2C50,94.2,50,94.2,50,94.2z M50,7.3c-11.4,0-22.1,4.5-30.2,12.5
			C11.8,27.9,7.3,38.6,7.3,50c0,11.4,4.5,22.1,12.5,30.2c8.1,8.1,18.8,12.5,30.1,12.5c0,0,0,0,0,0c11.4,0,22.1-4.5,30.2-12.5
			c8.1-8.1,12.5-18.8,12.5-30.2c0-11.4-4.5-22.1-12.5-30.2C72.1,11.7,61.4,7.3,50,7.3C50,7.3,50,7.3,50,7.3L50,7.3z M50,6.5L50,6.5
			L50,6.5z"/>
	</g>
	<g>
		<path class="st0" d="M23.7,50c0-14.5,11.8-26.3,26.3-26.3c14.6,0,26.4,11.9,26.4,26.4C76.3,64.6,64.5,76.4,50,76.3
			C35.4,76.3,23.6,64.5,23.7,50z M50,29.4c-11.4,0-20.6,9.2-20.6,20.6c0,11.4,9.2,20.6,20.6,20.6c11.4,0,20.6-9.2,20.6-20.6
			C70.6,38.6,61.4,29.4,50,29.4z"/>
		<path class="st0" d="M50,77.1C50,77.1,50,77.1,50,77.1c-15,0-27.2-12.2-27.2-27.1l0.8,0l-0.8,0C22.9,35,35.1,22.9,50,22.9
			c0,0,0,0,0,0c7.2,0,14.1,2.8,19.2,8c5.1,5.2,7.9,12,7.9,19.2C77.1,65,64.9,77.1,50,77.1z M50,24.4C50,24.4,50,24.4,50,24.4
			c-14.1,0-25.6,11.5-25.6,25.6c0,14.1,11.5,25.6,25.6,25.6c0,0,0,0,0.1,0c14,0,25.5-11.4,25.6-25.5c0-6.8-2.6-13.2-7.5-18.1
			C63.3,27.1,56.9,24.4,50,24.4z M50,71.3c-11.8,0-21.3-9.6-21.4-21.4c0-5.7,2.2-11.1,6.3-15.1c4-4,9.4-6.3,15.1-6.3h0c0,0,0,0,0,0
			c5.7,0,11.1,2.2,15.1,6.3c4,4,6.3,9.4,6.3,15.1c0,5.7-2.2,11.1-6.3,15.1C61.1,69.1,55.7,71.3,50,71.3C50,71.3,50,71.3,50,71.3z
			 M50,30.2c-5.3,0-10.3,2.1-14,5.8c-3.7,3.7-5.8,8.7-5.8,14c0,10.9,8.9,19.8,19.8,19.8c0,0,0,0,0,0c5.3,0,10.3-2.1,14-5.8
			c3.7-3.7,5.8-8.7,5.8-14c0-5.3-2.1-10.3-5.8-14C60.3,32.2,55.3,30.2,50,30.2C50,30.2,50,30.2,50,30.2L50,30.2z M50,29.4L50,29.4
			L50,29.4z"/>
	</g>
	<g>
		<path class="st0" d="M43.5,48.4c-3-4.4-1.4-9.2,1.5-11.4c3.1-2.4,7.4-2.3,10.5,0.4c2.8,2.4,3.9,7,1,11.1c2.3,2.3,3.4,5.1,2.8,8.4
			c-0.4,2.5-1.7,4.4-3.6,6c-3.5,2.8-8.9,2.5-12.3-0.8C40.6,59.4,38.7,53.4,43.5,48.4z M46.3,55.3c0,2.1,1.6,3.7,3.7,3.8
			c2,0,3.7-1.6,3.7-3.6c0-2.1-1.6-3.8-3.6-3.8C48.1,51.5,46.3,53.2,46.3,55.3z M50.1,45.8c1.3,0,2.4-1.1,2.4-2.4
			c0-1.3-1.2-2.5-2.5-2.4c-1.2,0-2.4,1.2-2.4,2.4C47.6,44.7,48.7,45.8,50.1,45.8z"/>
		<path class="st0" d="M50.1,65.6c-2.6,0-5.2-1-7.2-2.9c-2.8-2.6-5.2-8.8-0.4-14.4c-2.8-4.6-1.1-9.5,2-12c3.4-2.7,8.2-2.5,11.5,0.4
			c2.8,2.5,4.2,7.2,1.5,11.6c2.2,2.4,3.1,5.4,2.6,8.6c-0.4,2.6-1.7,4.8-3.9,6.5C54.4,64.9,52.3,65.6,50.1,65.6z M50,36
			c-1.6,0-3.2,0.5-4.5,1.6c-2.7,2.1-4.1,6.4-1.4,10.4c0.2,0.3,0.2,0.7-0.1,1c-4.6,4.9-2.5,10.3-0.1,12.6c3.2,3,8,3.3,11.3,0.7
			c1.9-1.5,3-3.4,3.4-5.5c0.5-3-0.4-5.6-2.6-7.8c-0.3-0.3-0.3-0.7-0.1-1c2.6-3.8,1.5-7.9-0.9-10.1C53.5,36.6,51.7,36,50,36z
			 M50,59.8C50,59.8,50,59.8,50,59.8c-1.2,0-2.3-0.5-3.2-1.3c-0.8-0.9-1.3-2-1.3-3.2c0-1.2,0.5-2.3,1.4-3.2c0.9-0.8,2-1.3,3.2-1.3
			c2.5,0.1,4.4,2.1,4.4,4.6C54.4,57.8,52.4,59.8,50,59.8z M50,52.4c-0.7,0-1.4,0.3-2,0.8c-0.6,0.6-0.9,1.3-0.9,2.1l0,0
			c0,0.8,0.3,1.5,0.9,2.1c0.5,0.6,1.3,0.9,2.1,0.9c0,0,0,0,0,0c1.6,0,2.9-1.3,2.9-2.9C53,53.7,51.7,52.4,50,52.4
			C50,52.4,50,52.4,50,52.4z M46.3,55.3L46.3,55.3L46.3,55.3z M50,46.6c-0.8,0-1.6-0.3-2.3-0.9c-0.6-0.6-1-1.4-1-2.2
			c0-1.7,1.5-3.2,3.1-3.2c0.8,0,1.6,0.3,2.3,0.9c0.6,0.6,1,1.4,1,2.3C53.2,45,51.7,46.5,50,46.6l0-0.8L50,46.6
			C50.1,46.6,50,46.6,50,46.6z M50,41.7C50,41.7,50,41.7,50,41.7c-0.8,0-1.7,0.8-1.7,1.7c0,0.4,0.2,0.8,0.5,1.1
			c0.3,0.3,0.8,0.5,1.2,0.5l0,0c0.9,0,1.6-0.8,1.6-1.6c0-0.4-0.2-0.8-0.5-1.2C50.8,41.9,50.4,41.7,50,41.7z"/>
	</g>
</g>
</svg>
