<?xml version="1.0" encoding="utf-8"?>
<!-- Generator: Adobe Illustrator 24.3.0, SVG Export Plug-In . SVG Version: 6.00 Build 0)  -->
<svg version="1.1" id="_x33_5_x5F_Rally_1_" xmlns="http://www.w3.org/2000/svg" xmlns:xlink="http://www.w3.org/1999/xlink"
	 x="0px" y="0px" viewBox="0 0 100 100" style="enable-background:new 0 0 100 100;" xml:space="preserve">
<style type="text/css">
	.st0{fill:#596079;}
</style>
<g id="_x33_5_x5F_Rally">
	<g>
		<path class="st0" d="M29.6,79.7c1.8-1.2,3.3-2.2,4.8-3.3c0.9-0.7,1.9-1,3.1-1c1.2,0.1,2.5,0,3.9,0c0-1.1,0-2.2,0-3.2
			c0-0.2-0.4-0.6-0.7-0.7c-4.2-1.6-6-4.8-6-9.2c0-1.7,0-3.3,0-5c-0.1-3.3-2.3-5.6-5.6-5.6c-2.9,0-5.8,0-8.7,0
			c-5.1-0.1-8.7-3.4-9.2-8.4c-0.1-0.9,0-1.9,0.2-2.8c0.3-1.8,0.8-3.6,1.2-5.5c0.4-1.6,0.8-1.9,2.4-1.9c2.8,0,5.6-0.1,8.4,0
			c1.3,0.1,1.6-0.4,1.8-1.5c0.8-4.5,1.8-9,2.7-13.5c0.3-1.6,0.8-2,2.4-2c2.8,0,5.6,0,8.4,0c0.1-0.1,0.2-0.2,0.2-0.4
			c-1.6-1.5-3.2-3.1-4.8-4.6c-0.8-0.7-1.1-1.5-1.1-2.6c0.1-1.9,0-3.7,0-5.6c0-1.4,0.7-2.1,1.7-2.1c1,0,1.6,0.8,1.6,2.1
			c0,1.5-0.1,3.1,0,4.6c0,0.6,0.3,1.3,0.7,1.7c2,2.1,4.1,4.1,6.1,6.2c0.4,0.4,1,0.6,1.5,0.6c4.6,0,9.3,0,13.9,0c0.5,0,1-0.3,1.4-0.6
			c2.1-2,4.2-4.1,6.2-6.2c0.4-0.4,0.6-1,0.6-1.5c0.1-1.6,0-3.2,0-4.8c0-1.2,0.7-2,1.7-2c1,0,1.7,0.8,1.7,2c0,2,0.1,4.1,0,6.1
			c0,0.7-0.4,1.4-0.9,1.9c-1.6,1.7-3.3,3.3-5.1,5.1c0.6,0.1,0.9,0.1,1.3,0.1c2.5,0,5,0,7.4,0c1.6,0,2.2,0.6,2.5,2.1
			c0.9,4.7,1.9,9.3,2.7,14c0.1,0.8,0.5,0.9,1.2,0.9c2.4,0,4.7,0,7.1,0c1.8,0,2.2,0.3,2.5,2c0.4,1.8,0.8,3.6,1.2,5.4
			c1.2,6.1-2.9,11.1-9.1,11.2c-2.8,0-5.5,0-8.3,0c-3.7,0-5.9,2.3-6,6c0,1.3,0,2.7,0,4c0.2,5-1.9,8.5-6.7,10.1c0,1.2,0,2.3,0,3.6
			c1.5,0,2.9-0.1,4.3,0c0.8,0.1,1.7,0.5,2.4,0.9c1.1,0.8,2.1,1.8,3.3,2.9c0-0.7,0.1-1.1,0.1-1.6c0-3.8-0.1-7.5,0-11.3
			c0.2-5.2,3.7-9.1,8.9-9.5c3.7-0.3,7.4-0.3,11,0c5.2,0.4,8.9,4.6,8.9,9.9c0.1,7.9,0.3,15.7-0.1,23.6c-0.2,4.2-3.1,7.9-7.9,8.5
			c-4.2,0.5-8.5,0.4-12.7,0c-4.7-0.5-8-4.7-8.1-9.4c0-1.6,0-3.1,0-4.7c0-0.5-0.3-1-0.7-1.5c-0.3-0.4-0.8-0.7-1.2-1.1
			c-2.4-2.9-5.4-3.6-9.1-3.5c-7.1,0.3-14.1,0.1-21.2,0.1c-0.8,0-1.6,0.3-2.3,0.7c-1.9,1.2-3.7,2.5-5.5,3.8c-0.4,0.3-0.7,0.9-0.7,1.4
			c-0.1,1.5,0,3,0,4.5c-0.1,5.4-4.1,9.7-9.5,9.9c-3.3,0.1-6.5,0.2-9.8,0c-5-0.3-8-3.2-9.4-8c-0.1-0.4,0-0.9,0-1.4
			c0-7.6,0-15.2,0-22.9C0.8,61,5,56.8,11,56.7c2.8,0,5.6,0,8.4,0c6,0,10.2,4.3,10.2,10.3c0,3.9,0,7.7,0,11.6
			C29.6,78.9,29.6,79.1,29.6,79.7z M15.7,36.4c-0.4,1.6-0.7,3.2-1.1,4.9c-0.8,3.8,1.7,7,5.6,7c2.9,0,5.8,0,8.7,0
			c5.2,0,9.1,3.9,9.1,9.1c0,1.8,0,3.6,0,5.5c0,3.3,2.4,5.7,5.7,5.7c4.6,0,9.3,0,13.9,0c3.4,0,5.7-2.3,5.8-5.8c0-1.8,0-3.6,0-5.3
			c0.1-5.5,4-9.2,9.4-9.2c2.9,0,5.7,0,8.6,0c3.7,0,6.2-3,5.5-6.6c-0.2-1.3-0.6-2.7-0.8-4c-0.2-1-0.6-1.3-1.6-1.3
			c-14.6,0.1-29.1,0.1-43.7,0.1C32.5,36.4,24.2,36.4,15.7,36.4z M95.4,65.2c-0.2-2.5-2.8-4.9-5.4-5c-3.6-0.1-7.1-0.1-10.7,0
			c-2.6,0.1-5.2,2.5-5.4,5c0.5,0,0.9,0,1.4,0c0.5,0,1,0,1.5,0c1.2,0,1.9,0.7,2,1.7c0,1-0.8,1.7-2,1.7c-1,0-2,0-3,0
			c0,2.9,0,5.6,0,8.3c0.2,0.1,0.2,0.1,0.3,0.1c0.9,0,1.7,0,2.6,0c1.3,0,2.1,0.8,2.1,1.8c0,1-0.9,1.6-2.1,1.7c-1,0-1.9,0-3,0
			c0,1.5,0,2.9,0,4.2c0,1.4,0,2.8,0,4.3c1.2,0,2.2,0,3.2,0c1.1,0,1.9,0.7,1.9,1.7c0,0.9-0.8,1.7-1.9,1.7c-0.7,0-1.5,0-2.3,0
			c0.9,2,2.8,3.3,4.9,3.3c3.5,0.1,7,0.1,10.4,0c2.2-0.1,3.7-1.3,5.1-3.3c-1,0-1.7,0-2.4,0c-1.2-0.1-1.9-0.7-1.9-1.7
			c0-1,0.7-1.6,1.9-1.7c1,0,2,0,3,0c0-2.9,0-5.7,0-8.4c-0.2,0-0.3-0.1-0.3-0.1c-0.7,0-1.5,0-2.2,0c-1.5,0-2.4-0.6-2.4-1.8
			c0-1.1,0.8-1.7,2.3-1.7c0.9,0,1.8,0,2.6,0c0-2.9,0-5.7,0-8.5c-1,0-1.9,0-2.8,0c-1.3,0-2.1-0.7-2.1-1.7c0-1,0.8-1.7,2-1.7
			C93.6,65.2,94.5,65.2,95.4,65.2z M4.4,65.2c1,0,2,0,2.9,0c1.1,0,1.9,0.7,1.9,1.7c0,1-0.8,1.7-2,1.7c-1,0-2,0-3,0
			c0,2.9,0,5.6,0,8.3c0.2,0.1,0.2,0.1,0.3,0.1c0.8,0,1.7,0,2.5,0c1.3,0,2.2,0.7,2.2,1.7c0,1.1-0.8,1.7-2.3,1.7c-0.9,0-1.8,0-2.7,0
			c0,2.9,0,5.6,0,8.3c0.2,0.1,0.3,0.1,0.3,0.1c0.9,0,1.7,0,2.6,0c1.2,0,2,0.7,2,1.7c0,1-0.8,1.7-2,1.7c-0.7,0-1.4,0-2.3,0
			c1.3,2,2.8,3.3,5,3.3c3.5,0.1,7,0.1,10.4,0c2.2-0.1,3.7-1.3,4.9-3.1c-0.1-0.1-0.1-0.2-0.2-0.2c-0.7,0-1.4-0.1-2.1-0.1
			c-1.2-0.1-1.9-0.7-1.9-1.7c0-1,0.7-1.6,1.9-1.7c1,0,2,0,3.1,0c0-2.9,0-5.6,0-8.5c-1,0-1.9,0-2.9,0c-1.3,0-2.1-0.7-2.1-1.8
			c0-1,0.8-1.6,2.1-1.7c1,0,1.9,0,2.9,0c0-2.9,0-5.6,0-8.5c-1.1,0-2,0-3,0c-1.2,0-1.9-0.7-1.9-1.6c0-1,0.7-1.7,2-1.8
			c0.9,0,1.9,0,2.8,0c-0.4-2.7-2.9-5-5.8-5c-3.3-0.1-6.6-0.1-9.9,0C7.4,60.2,5.1,62.2,4.4,65.2z M75,32.8c-0.9-4.5-1.8-8.9-2.7-13.3
			c-13.8,0-27.6,0-41.3,0c-0.9,4.5-1.8,8.9-2.6,13.3C43.9,32.8,59.3,32.8,75,32.8z M44.9,75.3c4,0,7.8,0,11.7,0c0-1.1,0-2.1,0-3.2
			c-3.9,0-7.8,0-11.7,0C44.9,73.2,44.9,74.2,44.9,75.3z"/>
		<path class="st0" d="M14.9,100c-1.7,0-3.2,0-4.7-0.1C5,99.6,1.7,96.7,0.1,91.3C0,90.9,0,90.5,0,90.1c0-0.1,0-0.2,0-0.3l0-6.4
			c0-5.5,0-11,0-16.5c0-6.4,4.5-10.9,11-11c2.6,0,5.4,0,8.5,0c6.4,0,11,4.7,11,11.1l0,11.2c0.1-0.1,0.3-0.2,0.4-0.3
			c1.1-0.8,2.2-1.5,3.2-2.2c1.1-0.8,2.3-1.2,3.6-1.1c0.8,0,1.7,0,2.6,0c0.2,0,0.4,0,0.5,0c0,0,0-0.1,0-0.1c0-0.7,0-1.4,0-2.1
			c-0.1-0.1-0.2-0.1-0.3-0.2c-4.3-1.7-6.5-5-6.5-9.9c0-0.7,0-1.3,0-2c0-1,0-2,0-3c-0.1-2.9-2-4.8-4.9-4.9c-1.3,0-2.6,0-3.9,0
			c-1.6,0-3.2,0-4.8,0c-5.5-0.1-9.4-3.7-9.9-9.1c-0.1-1.1,0.1-2.1,0.2-3c0.3-1.4,0.6-2.9,0.9-4.2l0.3-1.2c0.4-1.9,1.2-2.5,3.1-2.5
			l1.8,0c2.2,0,4.5,0,6.7,0c0.8,0,0.8-0.1,1-0.9c0.7-3.9,1.5-7.8,2.3-11.6l0.4-1.9c0.4-2,1.2-2.6,3.2-2.6c2,0,3.9,0,5.9,0l1.2,0
			c-0.1-0.1-0.3-0.2-0.4-0.4c-1.1-1.1-2.3-2.2-3.4-3.2c-1-0.9-1.4-1.9-1.4-3.2c0-1.1,0-2.3,0-3.4c0-0.7,0-1.5,0-2.2
			c0-1,0.3-1.7,0.8-2.2c0.4-0.4,1-0.6,1.7-0.6c1.1,0,2.3,0.8,2.3,2.9c0,0.5,0,1,0,1.5c0,1,0,2.1,0,3.1c0,0.5,0.2,1,0.5,1.2
			c1.8,1.9,3.8,3.9,6.1,6.1c0.2,0.2,0.7,0.4,1,0.4c4.4,0,9.1,0,13.9,0c0.3,0,0.7-0.2,0.9-0.4c2.2-2.2,4.3-4.2,6.2-6.2
			c0.2-0.2,0.4-0.6,0.4-1c0-1,0-2.1,0-3.1c0-0.6,0-1.1,0-1.7c0-1.6,1-2.8,2.5-2.8c0,0,0,0,0,0C70,0,71,1.1,71.1,2.8l0,0.8
			c0,1.7,0.1,3.5-0.1,5.3c0,0.8-0.5,1.7-1.1,2.4c-1.1,1.2-2.3,2.4-3.6,3.6c-0.1,0.1-0.2,0.2-0.3,0.3c1,0,2,0,2.9,0c1.3,0,2.7,0,4,0
			c2,0,2.9,0.8,3.3,2.7c0.4,2,0.8,4,1.2,5.9c0.5,2.7,1.1,5.4,1.6,8.1c0,0.2,0.1,0.2,0.1,0.3c0,0,0.1,0,0.3,0c0,0,0,0,0,0
			c2.4,0,4.9,0,7.1,0c2.1,0,2.8,0.6,3.3,2.6c0.1,0.7,0.3,1.3,0.4,2c0.3,1.2,0.5,2.3,0.8,3.5c0.6,3.2,0,6.2-1.9,8.5
			c-1.9,2.3-4.7,3.6-7.9,3.6c-1.5,0-3.1,0-4.6,0c-1.2,0-2.5,0-3.7,0c-3.2,0-5.2,2-5.2,5.2l0,0.9c0,1,0,2,0,3.1
			c0.2,5.3-2.1,8.9-6.7,10.7v2.3c0.2,0,0.3,0,0.5,0c1,0,2.1,0,3.1,0.1c0.9,0.1,2,0.5,2.8,1.1c0.8,0.5,1.5,1.2,2.2,1.8
			c0-1.2,0-2.4,0-3.6c0-2.5,0-5.1,0.1-7.7c0.2-5.7,4.1-9.8,9.6-10.2c3.8-0.3,7.5-0.3,11.2,0c5.6,0.5,9.6,4.9,9.6,10.7
			c0,1.6,0,3.3,0,4.9c0.1,6.1,0.1,12.5-0.2,18.7c-0.2,4.9-3.7,8.6-8.6,9.2c-3.9,0.5-8.2,0.5-12.9,0c-4.9-0.5-8.7-4.8-8.8-10.2
			c0-0.6,0-1.2,0-1.9c0-0.9,0-1.9,0-2.8c0-0.2-0.1-0.5-0.5-1.1c-0.1-0.1-0.3-0.3-0.5-0.4c-0.2-0.2-0.5-0.4-0.7-0.6
			c-2-2.4-4.5-3.4-8.4-3.2c-4.6,0.2-9.3,0.2-13.8,0.1c-2.4,0-4.9,0-7.4,0c-0.6,0-1.3,0.2-1.9,0.6c-1.7,1.1-3.5,2.3-5.5,3.8
			c-0.2,0.1-0.4,0.5-0.4,0.8c-0.1,0.9,0,1.9,0,2.8c0,0.5,0,1.1,0,1.6c-0.1,5.9-4.4,10.4-10.3,10.7C18.2,100,16.5,100,14.9,100z
			 M15,57.5c-1.4,0-2.7,0-4,0c-5.5,0-9.4,3.9-9.4,9.4c0,5.5,0,11,0,16.5l0,6.4c0,0.1,0,0.3,0,0.4c0,0.3,0,0.5,0,0.7
			c1.4,4.7,4.2,7.1,8.7,7.4c2.8,0.2,5.9,0.2,9.7,0c5-0.2,8.7-4.1,8.8-9.2c0-0.5,0-1,0-1.6c0-1,0-2,0-2.9c0-0.7,0.5-1.5,1-2
			c2-1.5,3.8-2.8,5.6-3.8c0.8-0.5,1.8-0.8,2.7-0.8c2.5,0,5,0,7.4,0c4.5,0,9.2,0.1,13.8-0.1c4.4-0.2,7.4,1,9.7,3.8
			c0.1,0.1,0.3,0.3,0.4,0.4c0.3,0.2,0.5,0.4,0.8,0.7c0.5,0.7,0.8,1.3,0.8,1.9c0.1,1,0,2,0,2.9c0,0.6,0,1.2,0,1.8
			c0.1,4.5,3.3,8.2,7.4,8.6c4.6,0.4,8.8,0.4,12.6,0c4.2-0.5,7-3.6,7.2-7.8c0.3-6.2,0.2-12.5,0.2-18.6c0-1.6,0-3.3,0-4.9
			c0-5-3.4-8.7-8.2-9.2c-3.6-0.3-7.2-0.3-10.9,0c-4.7,0.4-8,3.9-8.2,8.8C71,68.9,71,71.5,71,74c0,1.2,0,2.4,0,3.6c0,0.3,0,0.6-0.1,1
			l0,0.6c0,0.3-0.2,0.6-0.5,0.7c-0.3,0.1-0.6,0.1-0.8-0.1c-0.4-0.3-0.7-0.7-1.1-1c-0.8-0.7-1.4-1.3-2.1-1.8
			c-0.6-0.4-1.4-0.7-2.1-0.8c-0.9-0.1-1.9-0.1-2.9-0.1c-0.4,0-0.9,0-1.3,0c-0.4,0-0.8-0.3-0.8-0.8v-3.6c0-0.3,0.2-0.6,0.5-0.7
			c4.3-1.5,6.4-4.5,6.2-9.4c0-1,0-2.1,0-3.1l0-0.9c0-4.1,2.6-6.7,6.7-6.7c1.2,0,2.5,0,3.7,0c1.5,0,3.1,0,4.6,0
			c2.8,0,5.2-1.1,6.7-3.1c1.6-1.9,2.1-4.5,1.6-7.2c-0.2-1.2-0.5-2.3-0.8-3.4c-0.2-0.7-0.3-1.3-0.4-2c-0.3-1.4-0.4-1.4-1.8-1.4
			c-2.2,0-4.7,0-7.1,0c-0.7,0-1.7-0.1-1.9-1.5c-0.5-2.7-1-5.4-1.6-8.1c-0.4-2-0.8-4-1.2-5.9c-0.2-1.2-0.5-1.5-1.8-1.5
			c-1.3,0-2.7,0-4,0c-1.1,0-2.3,0-3.4,0c-0.2,0-0.5,0-0.8-0.1c-0.2,0-0.3,0-0.5-0.1c-0.3,0-0.6-0.2-0.7-0.5c-0.1-0.3,0-0.6,0.2-0.8
			c0.5-0.5,1-1,1.5-1.5c1.3-1.2,2.4-2.4,3.6-3.6c0.4-0.4,0.7-1,0.7-1.4c0.1-1.7,0.1-3.5,0-5.2l0-0.8c0-0.3-0.1-1.2-1-1.2
			c0,0,0,0,0,0c-0.8,0-0.9,0.9-0.9,1.3c0,0.6,0,1.1,0,1.7c0,1,0,2.1,0,3.2c0,0.7-0.4,1.5-0.8,2c-2,2-4,4.1-6.3,6.3
			c-0.5,0.5-1.3,0.8-1.9,0.8c-4.8,0-9.5,0-13.9,0c-0.7,0-1.5-0.3-2-0.8c-2.3-2.2-4.3-4.2-6.2-6.2c-0.5-0.5-0.8-1.4-0.9-2.2
			c-0.1-1.1-0.1-2.1,0-3.2c0-0.5,0-1,0-1.5c0-1.3-0.6-1.3-0.9-1.3c-0.3,0-0.5,0-0.6,0.2c-0.2,0.2-0.3,0.6-0.3,1.1c0,0.7,0,1.4,0,2.2
			c0,1.1,0,2.3,0,3.4c0,0.8,0.2,1.5,0.9,2c1.2,1.1,2.3,2.2,3.4,3.3l1.4,1.3c0.3,0.3,0.3,0.7,0.1,1l-0.2,0.4
			c-0.1,0.2-0.4,0.4-0.7,0.4l-2.5,0c-2,0-3.9,0-5.9,0c-1.3,0-1.4,0.1-1.7,1.4L28.2,20c-0.8,3.8-1.6,7.7-2.3,11.6
			c-0.2,1.2-0.7,2.2-2.6,2.2c-2.2-0.1-4.5-0.1-6.6,0l-1.8,0c-1.2,0-1.4,0.1-1.6,1.3L13,36.4c-0.3,1.4-0.6,2.8-0.9,4.2
			c-0.2,0.8-0.3,1.7-0.2,2.6c0.5,4.7,3.7,7.6,8.4,7.7c1.6,0,3.2,0,4.7,0c1.3,0,2.6,0,3.9,0c3.8,0,6.3,2.6,6.4,6.4c0,1,0,2,0,3
			c0,0.7,0,1.3,0,2c0,4.2,1.8,7,5.6,8.5c0.4,0.2,1.2,0.6,1.2,1.3c0.1,0.8,0.1,1.6,0,2.4c0,0.3,0,0.6,0,0.9c0,0.4-0.3,0.8-0.8,0.8
			c-0.4,0-0.9,0-1.3,0c-0.9,0-1.8,0-2.7,0c-0.9-0.1-1.8,0.2-2.6,0.8c-1,0.8-2.1,1.5-3.3,2.3c-0.5,0.3-1,0.7-1.6,1.1
			c-0.2,0.2-0.5,0.2-0.8,0c-0.3-0.1-0.4-0.4-0.4-0.7l0-12.6c0-5.6-3.9-9.5-9.4-9.6C17.9,57.5,16.4,57.5,15,57.5z M15.1,96.5
			c-1.8,0-3.5,0-5.1-0.1c-2.3-0.1-4.1-1.3-5.6-3.7c-0.1-0.2-0.2-0.5,0-0.8c0.1-0.2,0.4-0.4,0.7-0.4l0.8,0c0.5,0,1,0,1.4,0
			c0.6,0,1.3-0.2,1.3-0.9c0-0.8-0.9-0.9-1.3-0.9c-0.5,0-0.9,0-1.4,0c-0.4,0-0.8,0-1.2,0c-0.2,0-0.3-0.1-0.5-0.1L4,89.6
			c-0.3-0.1-0.5-0.4-0.5-0.7v-8.3c0-0.4,0.3-0.8,0.8-0.8l0.8,0c0.6,0,1.3,0,1.9,0c0.6,0,1-0.1,1.3-0.4c0.1-0.1,0.2-0.3,0.2-0.6
			c0-0.8-1-0.9-1.4-0.9c-0.4,0-0.9,0-1.3,0c-0.4,0-0.8,0-1.2,0c-0.2,0-0.3-0.1-0.4-0.1l-0.1,0c-0.3-0.1-0.5-0.4-0.5-0.7v-8.3
			c0-0.4,0.3-0.8,0.8-0.8l0.9,0c0.7,0,1.4,0,2,0c0.4,0,0.8-0.1,1-0.4c0.1-0.2,0.2-0.4,0.2-0.6c0-0.7-0.6-0.9-1.2-0.9
			c-0.6,0-1.3,0-1.9,0l-1,0c-0.2,0-0.5-0.1-0.6-0.3c-0.1-0.2-0.2-0.4-0.1-0.7c0.8-3.3,3.4-5.6,6.6-5.6c3.5-0.1,6.8-0.1,10,0
			c3.2,0.1,6.1,2.6,6.5,5.7c0,0.2,0,0.4-0.2,0.6c-0.1,0.2-0.4,0.3-0.6,0.3l-0.9,0c-0.6,0-1.3,0-1.9,0c-0.3,0-1.2,0.1-1.2,1
			c0,0.8,0.8,0.9,1.2,0.9c0.7,0,1.3,0,2,0l1,0c0.4,0,0.8,0.3,0.8,0.8v8.5c0,0.4-0.3,0.8-0.8,0.8l-0.9,0c-0.7,0-1.3,0-2,0
			c-0.8,0-1.3,0.3-1.3,0.9c0,0.3,0.1,0.5,0.2,0.6c0.2,0.2,0.6,0.4,1.1,0.4c0.6,0,1.3,0,1.9,0l0.9,0c0.4,0,0.8,0.3,0.8,0.8V89
			c0,0.4-0.3,0.8-0.8,0.8l-0.9,0c-0.7,0-1.4,0-2.1,0c-0.8,0-1.1,0.3-1.2,0.9c0,0.2,0,0.9,1.2,0.9c0.4,0,0.8,0,1.2,0.1l0.9,0
			c0.4,0,0.6,0.3,0.6,0.4l0.1,0.1c0.2,0.3,0.3,0.6,0.1,0.9c-1.5,2.2-3.3,3.3-5.5,3.4C18.6,96.5,16.8,96.5,15.1,96.5z M6.5,93.1
			c1,1.2,2.2,1.7,3.5,1.8c3.3,0.1,6.7,0.1,10.4,0c1.4,0,2.5-0.6,3.5-1.8c-0.3,0-0.6,0-0.9,0c-1.6-0.1-2.6-1.1-2.6-2.5
			c0-1.4,1.1-2.4,2.7-2.4c0.7,0,1.4,0,2.1,0l0.2,0v-6.9h-0.1c-0.7,0-1.3,0-2,0c-0.9,0-1.7-0.3-2.2-0.8c-0.4-0.5-0.7-1-0.6-1.7
			c0-1.4,1.1-2.4,2.8-2.4c0.7,0,1.4,0,2,0l0.1,0v-6.9l-0.2,0c-0.7,0-1.4,0-2.1,0c-1.6,0-2.7-1-2.7-2.4c0-1.5,1.1-2.5,2.7-2.6
			c0.6,0,1.3,0,1.9,0c-0.7-1.9-2.7-3.4-4.8-3.5c-3.2-0.1-6.4-0.1-9.9,0c-2.1,0-4,1.4-4.8,3.5c0.7,0,1.3,0,1.9,0c1.5,0,2.7,1,2.7,2.4
			c0,0.6-0.2,1.2-0.6,1.7c-0.5,0.5-1.3,0.8-2.1,0.8c-0.7,0-1.4,0-2.1,0l-0.2,0v6.9c0.2,0,0.5,0,0.7,0c0.4,0,0.9,0,1.3,0
			c1.8,0,2.9,1,2.9,2.4c0,0.6-0.2,1.2-0.6,1.7C8.8,81,8,81.3,7,81.3c-0.6,0-1.3,0-1.9,0H5v6.9c0.3,0,0.5,0,0.8,0c0.5,0,0.9,0,1.4,0
			c1.7,0,2.8,1,2.8,2.4c0,1.4-1.1,2.4-2.8,2.5C7,93.1,6.7,93.1,6.5,93.1z M25.1,93.2C25.1,93.2,25.1,93.2,25.1,93.2L25.1,93.2z
			 M84.9,96.5c-1.7,0-3.5,0-5.4-0.1c-2.3,0-4.5-1.5-5.5-3.8c-0.1-0.2-0.1-0.5,0-0.7c0.1-0.2,0.4-0.4,0.7-0.4c0.3,0,0.5,0,0.7,0
			c0.5,0,1,0,1.5,0c0.6,0,1.2-0.3,1.2-0.9c0-0.5-0.5-0.9-1.2-0.9c-0.7,0-1.3,0-2.1,0l-1.1,0c-0.4,0-0.8-0.3-0.8-0.8v-8.5
			c0-0.4,0.3-0.8,0.8-0.8l1,0c0.7,0,1.4,0,2,0c0.3,0,1.3-0.1,1.3-0.9c0-0.2-0.1-0.4-0.2-0.6c-0.2-0.2-0.7-0.4-1.1-0.4
			c-0.9,0-1.7,0-2.6,0c-0.2,0-0.3-0.1-0.4-0.1l-0.1,0C73.2,77.6,73,77.3,73,77v-8.3c0-0.4,0.3-0.8,0.8-0.8l1,0c0.7,0,1.4,0,2,0
			c0.4,0,0.8-0.1,1-0.4c0.2-0.2,0.2-0.4,0.2-0.6c0-0.6-0.6-0.9-1.2-0.9c-0.3,0-0.7,0-1,0l-1.8,0c-0.2,0-0.4-0.1-0.6-0.3
			c-0.1-0.2-0.2-0.4-0.2-0.6c0.3-2.9,3.2-5.6,6.2-5.7c3.7-0.1,7.3-0.1,10.7,0c2.9,0.1,5.8,2.8,6.1,5.7c0,0.2-0.1,0.4-0.2,0.6
			c-0.1,0.2-0.4,0.3-0.6,0.3l-0.8,0c-0.6,0-1.2,0-1.8,0c-0.6,0-1.3,0.2-1.3,0.9c0,0.3,0.1,0.5,0.2,0.6c0.2,0.2,0.6,0.3,1.1,0.4
			c0.6,0,1.2,0,1.9,0l0.9,0c0.4,0,0.8,0.3,0.8,0.8v8.5c0,0.4-0.3,0.8-0.8,0.8l-0.8,0c-0.6,0-1.2,0-1.8,0c-1.5,0-1.5,0.6-1.5,0.9
			c0,0.3,0.1,0.5,0.2,0.6c0.2,0.2,0.7,0.4,1.4,0.4l2.2,0c0.1,0,0.2,0,0.3,0l0.1,0c0.4,0.1,0.6,0.4,0.6,0.8V89c0,0.4-0.3,0.8-0.8,0.8
			l-0.9,0c-0.7,0-1.4,0-2.1,0c-0.8,0-1.1,0.3-1.2,0.9c0,0.6,0.4,0.9,1.1,0.9c0.5,0,0.9,0,1.5,0c0.3,0,0.6,0,0.9,0
			c0.3,0,0.5,0.2,0.7,0.4s0.1,0.6,0,0.8c-1.1,1.7-2.8,3.6-5.7,3.7C88.3,96.5,86.6,96.5,84.9,96.5z M76,93.1c0.9,1.1,2.2,1.8,3.5,1.8
			c3.8,0.1,7.2,0.1,10.4,0c1.3,0,2.4-0.6,3.5-1.8c-0.3,0-0.6,0-0.9,0c-1.6-0.1-2.6-1-2.6-2.5c0-1.4,1.1-2.4,2.7-2.4
			c0.7,0,1.4,0,2.1,0l0.1,0v-6.9l-1.8,0c-1.1,0-1.9-0.3-2.5-0.8c-0.4-0.4-0.6-1-0.6-1.7c0-0.7,0.3-2.4,3.1-2.4c0.6,0,1.2,0,1.8,0h0
			v-6.9l-0.2,0c-0.7,0-1.3,0-1.9,0c-1,0-1.7-0.3-2.2-0.8c-0.4-0.4-0.6-1-0.6-1.7c0-1.4,1.1-2.4,2.8-2.4c0.6,0,1.2,0,1.8,0
			C93.9,62.6,91.9,61,90,61c-3.4-0.1-7-0.1-10.6,0c-1.9,0.1-3.9,1.6-4.5,3.5l0.9,0c0.4,0,0.7,0,1.1,0c1.5,0.1,2.7,1.1,2.7,2.4
			c0,0.6-0.2,1.2-0.6,1.7c-0.5,0.5-1.3,0.8-2.1,0.9c-0.7,0-1.4,0-2.1,0l-0.2,0v6.9c0.7,0,1.4,0,2.2,0c0.9,0,1.7,0.3,2.2,0.9
			c0.4,0.5,0.7,1,0.6,1.7c-0.1,1.4-1.2,2.4-2.9,2.4c-0.7,0-1.3,0-2,0h-0.2v6.9l0.3,0c0.7,0,1.4,0,2.1,0c1.5,0,2.7,1,2.7,2.4
			c0,1.4-1.1,2.4-2.6,2.5C76.6,93.1,76.3,93.1,76,93.1z M56.6,76.1H44.9c-0.4,0-0.8-0.3-0.8-0.8v-3.2c0-0.4,0.3-0.8,0.8-0.8h11.7
			c0.4,0,0.8,0.3,0.8,0.8v3.2C57.4,75.7,57.1,76.1,56.6,76.1z M45.7,74.5h10.2v-1.7H45.7V74.5z M50.6,69.4c-2.3,0-4.6,0-6.8,0
			c-3.7,0-6.4-2.8-6.5-6.5c0-0.9,0-1.8,0-2.7c0-0.9,0-1.8,0-2.8c-0.1-4.8-3.6-8.3-8.4-8.4c-1.6,0-3.2,0-4.8,0c-1.3,0-2.6,0-3.9,0
			c-2.1,0-4-0.8-5.2-2.4c-1.2-1.5-1.6-3.5-1.2-5.6c0.2-1.1,0.5-2.2,0.7-3.3l0.3-1.5c0.1-0.4,0.4-0.6,0.8-0.6l8.1,0
			c5.7,0,11.4,0,17,0l4,0c13,0,26.4,0,39.7-0.1c0,0,0,0,0,0c1,0,2.1,0.2,2.4,1.9c0.1,0.7,0.3,1.4,0.4,2.1c0.1,0.6,0.3,1.2,0.4,1.9
			c0.3,2-0.1,3.8-1.3,5.3c-1.2,1.4-3,2.2-5,2.3c-1.7,0-3.4,0-5.1,0c-1.1,0-2.3,0-3.4,0c-5,0-8.5,3.4-8.6,8.5c0,0.9,0,1.9,0,2.8
			c0,0.8,0,1.7,0,2.5c-0.1,3.9-2.7,6.5-6.6,6.5C55.2,69.4,52.9,69.4,50.6,69.4z M25.9,47.5c1,0,2,0,3,0c5.6,0,9.8,4.3,9.9,9.9
			c0,0.9,0,1.9,0,2.8c0,0.9,0,1.8,0,2.7c0,2.9,2.1,5,4.9,5c4.4,0,8.9,0,13.9,0c3,0,5-2,5-5c0-0.8,0-1.6,0-2.5c0-1,0-1.9,0-2.9
			c0.1-5.9,4.3-10,10.2-10c1.1,0,2.3,0,3.4,0c1.7,0,3.4,0,5.1,0c1.6,0,2.9-0.6,3.8-1.7c0.9-1.1,1.2-2.5,1-4
			c-0.1-0.6-0.2-1.2-0.4-1.8c-0.2-0.7-0.3-1.5-0.5-2.2c-0.1-0.5-0.1-0.6-0.9-0.6c-13.2,0-26.7,0.1-39.7,0.1l-4,0c-5.7,0-11.3,0-17,0
			l-7.5,0l-0.2,0.9c-0.3,1.1-0.5,2.2-0.7,3.3c-0.3,1.6,0,3.1,0.9,4.3c0.9,1.1,2.3,1.8,4,1.8c1.3,0,2.6,0,3.9,0
			C24.7,47.5,25.3,47.5,25.9,47.5z M75,33.6H28.3c-0.2,0-0.4-0.1-0.6-0.3c-0.1-0.2-0.2-0.4-0.2-0.6l2.6-13.3
			c0.1-0.4,0.4-0.6,0.8-0.6h41.3c0.4,0,0.7,0.3,0.8,0.6l2.7,13.3c0,0.2,0,0.5-0.2,0.6C75.4,33.5,75.2,33.6,75,33.6z M29.2,32.1H74
			l-2.4-11.8H31.6L29.2,32.1z"/>
	</g>
	<g>
		<path class="st0" d="M58.4,51.7c0,2,0,4.1,0,6.1c0,3.3-2.3,5.6-5.6,5.7c-1.4,0-2.8,0.1-4.2,0c-3-0.1-5.2-2.2-5.4-5.2
			c-0.1-2.7-0.1-5.4-0.1-8.1c0-1.7-0.1-3.4,0-5.1c0.2-3.2,2.5-5.3,5.7-5.3c1.3,0,2.6,0,3.8,0c3.2,0,5.6,2.4,5.6,5.7
			C58.4,47.5,58.4,49.6,58.4,51.7z M54.9,48.3c-2.9,0-5.6,0-8.4,0c0,0.6,0,1.1,0.1,1.5c2.8,0,5.6,0,8.3,0
			C54.9,49.4,54.9,48.9,54.9,48.3z M46.6,54.9c2.8,0,5.6,0,8.3,0c0-0.5,0-1,0-1.5c-2.8,0-5.6,0-8.3,0C46.6,54,46.6,54.4,46.6,54.9z
			 M46.8,58.5c-0.1,0.2-0.2,0.3-0.2,0.5c0.6,0.4,1.3,1,1.9,1.1c1.5,0.2,3.1,0.1,4.7,0c0.9-0.1,1.5-0.6,1.7-1.6
			C52.1,58.5,49.4,58.5,46.8,58.5z M46.6,44.8c2.8,0,5.5,0,8.3,0c-0.4-1.1-1-1.6-2.1-1.6c-1.4,0-2.8,0-4.2,0
			C47.7,43.2,47,43.6,46.6,44.8z"/>
	</g>
	<g>
		<path class="st0" d="M26.2,46.5c-2.2,0-4.3,0-6.5,0c-1.3,0-2-0.6-2-2c0-1.5,0-3,0-4.5c0-1.3,0.7-2,2-2c3.8,0,7.5,0,11.3,0
			c1.1,0,1.7,0.5,2.1,1.5c0.5,1.5,1,3,1.4,4.5c0.5,1.6-0.2,2.5-1.8,2.5C30.5,46.6,28.3,46.5,26.2,46.5z"/>
	</g>
	<g>
		<path class="st0" d="M75.3,46.5c-2.1,0-4.3,0-6.4,0c-1.6,0-2.3-0.9-1.8-2.4c0.5-1.5,1-3.1,1.5-4.6c0.3-1,1-1.5,2-1.5
			c3.8,0,7.5,0,11.3,0c1.3,0,2,0.8,2,2c0,1.5,0,3-0.1,4.5c0,1.4-0.6,2-2.1,2C79.6,46.5,77.5,46.5,75.3,46.5
			C75.3,46.5,75.3,46.5,75.3,46.5z"/>
	</g>
</g>
</svg>
