<?xml version="1.0" encoding="utf-8"?>
<!-- Generator: Adobe Illustrator 24.3.0, SVG Export Plug-In . SVG Version: 6.00 Build 0)  -->
<svg version="1.1" id="_x33_6_x5F_RugbyLeague_1_" xmlns="http://www.w3.org/2000/svg" xmlns:xlink="http://www.w3.org/1999/xlink"
	 x="0px" y="0px" viewBox="0 0 100 100" style="enable-background:new 0 0 100 100;" xml:space="preserve">
<style type="text/css">
	.st0{fill:#596079;}
</style>
<g id="_x33_6_x5F_RugbyLeague">
	<path class="st0" d="M0,73.4C-0.3,65,1.8,57.3,4.6,49.8c3.1-8.3,7.3-16,12.7-23.1c5.1-6.5,11.3-11.8,18.4-16
		c7.6-4.6,15.7-7.8,24.3-9.6c4.6-1,9.3-1.1,14-1.1c3.6,0,7.1,0.7,10.6,1.9c8,2.8,12.6,8.6,14.5,16.6c1.2,5.1,1.2,10.2,0.6,15.3
		C97.7,48,92.1,60.7,83.5,72.1C78,79.4,71.1,85,63.2,89.4c-8.4,4.7-17.3,8.1-26.9,9.7c-5.3,0.9-10.6,1.2-15.9,0.3
		c-4.5-0.7-8.7-2.2-12.2-5.1c-4.1-3.3-6.4-7.8-7.6-12.9C0,78.7,0,75.9,0,73.4z M13.7,65.4c0,0.5,0,1.4,0.1,2.3c0.1,1.4,0.4,2.8,1,4
		c0.4,0.9,1.1,1.4,2.1,1.3c0.5,0,1.1,0,1.6-0.2c3.6-0.8,7-2.2,10.2-4c9.1-5.1,17.7-11,26.1-17.1C65.5,44.1,74.4,34.7,81.8,24
		c1.8-2.6,3.6-5.3,4.5-8.4c0.5-1.7,0.9-3.5,0.6-5.3c-0.1-0.8-0.5-1.5-1.3-1.8c-1.3-0.5-2.6-1.1-4-1.5c-5.4-1.4-10.9-1.1-16.3-0.2
		c-8.1,1.4-15.6,4.3-22.6,8.4C32.5,21.2,25,29.5,20,40.3c-2.3,4.9-3.8,9.9-5,15.1C14.3,58.6,13.7,61.8,13.7,65.4z M92.7,21.7
		c-0.1,0-0.1-0.1-0.2-0.1c-0.1,0.1-0.3,0.3-0.4,0.4c-0.2,0.3-0.4,0.7-0.6,1c-2.5,4.5-5.7,8.5-8.9,12.4c-6.5,7.9-13.5,15.5-20.8,22.8
		c-8.7,8.7-18.2,16.5-28,24c-0.6,0.4-1.1,1-1.4,1.7c-0.6,1-0.2,1.9,0.9,2.3c0.5,0.2,1,0.4,1.5,0.4c1.6,0,3.3,0.1,4.9,0
		c2.4-0.2,4.9-0.4,7.2-1.2c4.9-1.6,9.6-3.7,14.1-6.3c5.7-3.3,10.9-7.1,15.1-12.2c8.2-9.7,13.4-20.7,15.9-33.1
		c0.7-3.6,1-7.2,0.8-10.8C92.8,22.7,92.8,22.2,92.7,21.7z"/>
</g>
</svg>
