<?xml version="1.0" encoding="utf-8"?>
<!-- Generator: Adobe Illustrator 24.3.0, SVG Export Plug-In . SVG Version: 6.00 Build 0)  -->
<svg version="1.1" id="_x33_7_x5F_RugbyUnion_1_" xmlns="http://www.w3.org/2000/svg" xmlns:xlink="http://www.w3.org/1999/xlink"
	 x="0px" y="0px" viewBox="0 0 100 100" style="enable-background:new 0 0 100 100;" xml:space="preserve">
<style type="text/css">
	.st0{fill:#596079;}
</style>
<g id="_x33_7_x5F_RugbyUnion">
	<g>
		<path class="st0" d="M76,100c-6.5,0-13-0.8-19.4-2.4C45.4,94.9,35.7,90,27.9,83.2C16.8,73.6,9.6,61.7,6.6,47.8
			c-1.2-5.4-1.7-11.1-1.4-17.4c0.4-8.9,2.2-17.7,5.6-26.1c0.1-0.3,0.2-0.4,0.2-0.6c0.2-0.4,0.4-0.6,0.5-0.8l0.1-0.1
			c0.5-0.7,1.3-1.2,2.2-1.3c0.2,0,0.4,0,0.6,0C15,0.6,16,0,17.1,0c0.9,0,1.8,0,2.7,0c2,0,4,0,6,0c6.7,0.1,13.4,1.1,19.9,2.8
			C53.6,5,60.8,8.3,67,12.7c7.9,5.6,14.2,12.9,19.2,22.4c3.8,7.2,6.3,14.7,7.6,22.3c0.9,5.5,1.3,10.9,1,16.1
			c-0.3,6.5-1.4,12.5-3.2,18.2c-0.3,0.8-0.6,1.7-0.8,2.4l-0.3,0.9c-0.3,0.9-1,1.6-1.9,2c-0.1,0.4-0.2,0.7-0.4,1
			c-0.6,0.9-1.5,1.5-2.6,1.5c-0.8,0-1.6,0.1-2.3,0.1c-1.7,0.1-3.4,0.2-5.1,0.2C77.5,100,76.7,100,76,100z M15.6,10.1
			c-2.3,6.7-3.6,13.6-3.9,20.6c-0.2,5.7,0.2,10.8,1.3,15.7c2.7,12.4,9.2,23.2,19.2,31.9c7.2,6.2,15.6,10.5,26,13
			c6.5,1.6,13.2,2.3,19.9,2.1c0.8,0,1.7-0.1,2.5-0.1c-6.2-13.9-12.3-25.5-19-36.1L57,59.5c-1.5,0.8-3.4,0.3-4.3-1.2l-1.7-2.7
			c-0.5-0.8-0.6-1.7-0.4-2.6s0.9-1.6,1.7-2l18.9-9.6c1.6-0.8,3.5-0.2,4.4,1.4l1.5,2.8c0.4,0.8,0.5,1.7,0.2,2.5
			c-0.3,0.8-0.8,1.5-1.6,1.9l-4.5,2.3c3.6,6.1,6.9,12.3,9.7,18.5c2,4.5,4,9,5.9,13.5c0.8-3.5,1.2-7.2,1.4-11.1
			c0.3-4.8-0.1-9.7-0.9-14.7c-1.2-6.9-3.5-13.8-7-20.4C75.9,29.6,70.3,23,63.2,18c-5.6-3.9-12.1-6.9-19.2-8.8C39.1,7.9,34,7,29,6.7
			c2.5,1.7,5.1,3.5,7.6,5.5c0.5-0.3,1.1-0.5,1.6-0.8c0.7-0.4,1.5-0.8,2.2-1.1c1.1-0.5,2.7-0.8,4,0.1c0.7,0.4,1.4,0.9,2,1.4l0.6,0.4
			c1.4,1,1.8,2.8,1,4.2c-0.4,0.8-1,1.2-1.4,1.4l-1.5,0.8c-5.7,2.9-11.5,5.9-17.2,8.8c-1.3,0.6-3,0.5-4.1-0.4
			c-0.6-0.5-1.2-0.9-1.8-1.4L21.5,25c-0.9-0.7-1.3-1.8-1.2-2.9c0.1-1.1,0.8-2.1,1.8-2.6l3.3-1.7L15.6,10.1z M18.9,0.9
			C18.9,0.9,18.9,0.9,18.9,0.9C18.9,0.9,18.9,0.9,18.9,0.9z M49.8,51.2c-1.5,0-2.6-0.8-3.4-1.8c-0.3-0.4-0.7-0.9-1.1-1.3
			c-0.2-0.2-0.4-0.4-0.6-0.7c-0.6-0.8-0.9-1.8-0.7-2.7s0.8-1.8,1.7-2.2l19.6-10c1.4-0.7,3.2-0.3,4.1,1l2.1,2.9
			c0.6,0.8,0.8,1.8,0.5,2.7c-0.2,0.9-0.8,1.7-1.7,2.1l-2.6,1.3c-1.9,1-3.7,1.9-5.6,2.9l-3.5,1.8c-2.3,1.2-4.6,2.3-6.9,3.5
			C51.2,51,50.4,51.2,49.8,51.2z M42.5,42.9c-1.2,0-2.3-0.5-3.2-1.5c-0.2-0.2-0.5-0.5-0.8-0.8c-0.2-0.2-0.5-0.4-0.7-0.6
			c-0.8-0.7-1.2-1.8-1.1-2.9c0.1-1.1,0.8-2,1.8-2.5l19.9-10.2c1.2-0.6,2.6-0.4,3.6,0.4l2.6,2.2c0.8,0.7,1.2,1.8,1.1,2.9
			c-0.1,1.1-0.8,2-1.7,2.5l-1.3,0.7c-0.9,0.4-1.7,0.9-2.5,1.3l-4.3,2.2c-3.7,1.9-7.5,3.8-11.2,5.7C44,42.7,43.2,42.9,42.5,42.9z
			 M34.7,35.5c-0.8,0-1.6-0.3-2.2-0.9l-2.7-2.5c-0.8-0.7-1.2-1.8-1-2.8c0.1-1.1,0.8-2,1.8-2.5l19.7-10.1c1.2-0.6,2.6-0.4,3.6,0.4
			l2.9,2.4c0.8,0.7,1.3,1.8,1.1,2.9c-0.1,1.1-0.8,2-1.8,2.5L36.2,35.2C35.7,35.4,35.2,35.5,34.7,35.5z"/>
	</g>
</g>
</svg>
