<?xml version="1.0" encoding="utf-8"?>
<!-- Generator: Adobe Illustrator 24.3.0, SVG Export Plug-In . SVG Version: 6.00 Build 0)  -->
<svg version="1.1" id="_x33_9_x5F_Snooker" xmlns="http://www.w3.org/2000/svg" xmlns:xlink="http://www.w3.org/1999/xlink" x="0px"
	 y="0px" viewBox="0 0 100 100" style="enable-background:new 0 0 100 100;" xml:space="preserve">
<style type="text/css">
	.st0{fill:#596079;}
</style>
<path class="st0" d="M97.4,68.6c-4.4-7.3-8.8-14.7-13.3-22L64.5,14.1c-3.1-5.1-7.4-7.9-13-8.3c-7-0.5-12.4,2.3-16.1,8.4
	c-3.4,5.6-6.8,11.2-10.2,16.8l-9.4,15.6c-4.4,7.3-8.8,14.6-13.2,21.9c-2.4,4-3.2,8.1-2.3,12.3C2.1,89,8.7,94.2,17.2,94.3
	c7.6,0,15.3,0,22.9,0l24.5,0c6.1,0,12.2,0,18.2,0c0,0,0.1,0,0.1,0c3.7,0,6.9-0.9,9.7-2.8C100.1,86.4,102.2,76.6,97.4,68.6z M69,74.5
	c0-4.4,3.5-8.1,8-8.1c0,0,0,0,0.1,0c2.1,0,4.1,0.8,5.6,2.3c1.5,1.5,2.4,3.5,2.4,5.7c0,2.2-0.8,4.2-2.3,5.7c-1.5,1.5-3.5,2.3-5.7,2.3
	C72.6,82.4,69,78.9,69,74.5z M67.4,64.8c-2.1,2.1-3.4,4.9-3.8,7.8c-0.6-4.1-3-7.7-6.4-9.8c1.9,1,4.1,1.6,6.4,1.6c0,0,0,0,0,0
	c2.2,0,4.3-0.6,6.2-1.5C68.9,63.4,68.1,64,67.4,64.8z M36.6,72.6c-0.5-4-2.9-7.5-6.2-9.6c1.8,0.9,3.9,1.5,6.1,1.5c0,0,0,0,0,0
	c2.3,0,4.6-0.6,6.5-1.6C39.5,64.9,37.1,68.4,36.6,72.6z M23.1,82.4C23.1,82.4,23.1,82.4,23.1,82.4c-2.2,0-4.2-0.8-5.7-2.3
	c-1.5-1.5-2.3-3.5-2.3-5.7c0-4.4,3.6-8,7.9-8c0,0,0,0,0,0c2.1,0,4.1,0.8,5.6,2.3c1.5,1.5,2.4,3.5,2.4,5.7c0,2.2-0.8,4.2-2.3,5.7
	C27.2,81.6,25.2,82.4,23.1,82.4z M50,52.6c0.6,4.1,3,7.7,6.4,9.8c-1.9-1-4.1-1.6-6.5-1.6c-2.3,0-4.5,0.6-6.4,1.7
	C47,60.3,49.5,56.8,50,52.6z M63.5,58.8c-2.1,0-4.1-0.8-5.6-2.3c-1.5-1.5-2.4-3.6-2.4-5.7c0-4.4,3.6-8,8-8c0,0,0.1,0,0.1,0
	c2.1,0,4.1,0.8,5.6,2.3c1.5,1.5,2.4,3.5,2.4,5.7c0,2.2-0.8,4.2-2.3,5.7C67.7,58,65.7,58.8,63.5,58.8C63.5,58.8,63.5,58.8,63.5,58.8z
	 M58,74.7c-0.1,4.3-3.7,7.8-8.1,7.7c-2.2,0-4.2-0.9-5.7-2.5c-1.5-1.5-2.3-3.6-2.2-5.8c0.1-4.3,3.7-7.8,8-7.8c0.1,0,0.1,0,0.2,0
	c2.1,0,4.1,0.9,5.6,2.4C57.3,70.4,58.1,72.5,58,74.7z M36.5,58.8C36.5,58.8,36.5,58.8,36.5,58.8c-2.1,0-4.1-0.8-5.6-2.3
	c-1.5-1.5-2.4-3.6-2.4-5.7c0-2.2,0.9-4.2,2.4-5.7c1.5-1.5,3.5-2.3,5.7-2.3c4.4,0,8,3.7,8,8.1C44.5,55.2,40.9,58.8,36.5,58.8z
	 M53.9,41.1c-2.1,2.1-3.5,4.9-3.9,7.8c-0.4-2.9-1.7-5.7-3.8-7.8c-0.7-0.7-1.5-1.3-2.3-1.9c1.9,1,4,1.5,6.1,1.5c0,0,0,0,0,0
	c2.1,0,4.2-0.5,6.1-1.4C55.3,39.8,54.6,40.4,53.9,41.1z M55.7,21.4c1.5,1.5,2.3,3.5,2.3,5.7c0,2.2-0.8,4.2-2.3,5.7
	c-1.5,1.5-3.5,2.3-5.7,2.3c0,0,0,0,0,0c-4.4,0-7.9-3.6-8-8c0-2.2,0.8-4.2,2.3-5.7c1.5-1.5,3.5-2.3,5.7-2.3c0,0,0,0,0,0
	C52.2,19.1,54.2,19.9,55.7,21.4z M50,13.5c-4.3,0-8.1,2-10.5,5c0.4-0.6,0.7-1.2,1.1-1.8c1.8-3,4.9-5,8.4-5.3
	c3.4-0.4,6.7,0.9,9.1,3.4c0.6,0.6,1.2,1.4,1.8,2.4c0.4,0.6,0.7,1.2,1.1,1.8c-0.4-0.5-0.8-1.1-1.3-1.6C57,14.8,53.6,13.5,50,13.5z
	 M36.4,27.1c0,3.6,1.4,7.1,4,9.7c0.7,0.7,1.5,1.3,2.3,1.9c-1.9-1-4-1.5-6.1-1.5c0,0,0,0,0,0c-3.6,0-7,1.4-9.6,4c-2.6,2.6-4,6-4,9.7
	c0,4.8,2.5,9.1,6.3,11.5c-1.8-0.9-3.9-1.5-6-1.5c-3.7,0-7.1,1.4-9.8,4c-2.6,2.6-4,6-4,9.7c0,7.5,6.1,13.6,13.6,13.6c0,0,0,0,0.1,0
	c3.6,0,7-1.4,9.5-3.9c2.2-2.2,3.5-4.9,3.9-7.9c0.4,3,1.7,5.7,3.9,7.9c2.6,2.6,6,4,9.6,4c0,0,0,0,0.1,0c3.6,0,7-1.5,9.6-4.1
	c2.1-2.1,3.4-4.8,3.8-7.7c0.4,3,1.7,5.7,3.9,7.9c2.6,2.6,6,4,9.6,4c0,0,0,0,0.1,0c7.5,0,13.6-6.2,13.6-13.6c0-3.6-1.4-7-4-9.6
	c-2.6-2.6-6-4-9.7-4c0,0,0,0,0,0c-2.2,0-4.3,0.5-6.2,1.5c3.8-2.4,6.3-6.7,6.4-11.5c0-3.6-1.4-7.1-4-9.7c-2.6-2.6-6-4-9.6-4
	c0,0,0,0,0,0c-2.1,0-4.2,0.5-6,1.4c0.8-0.5,1.5-1.1,2.2-1.8c2.6-2.6,4-6,4-9.7c0-2-0.5-4-1.3-5.8c10.1,16.7,20.1,33.3,30.2,50
	c3.3,5.5,2,11.9-3,15.4c-1.9,1.3-4.1,1.9-6.8,1.9c0,0,0,0,0,0c-5,0-10,0-15,0c-2.9,0-5.9,0-8.8,0l-8.7,0c0,0-0.1,0-0.1,0l-9.8,0
	c-7.7,0-15.6,0-23.4,0c-5.5,0-9.7-3.5-10.9-8.9c-0.6-2.8-0.1-5.5,1.5-8.2c4.1-6.8,8.3-13.7,12.4-20.5l4.5-7.4c1.7-2.7,3.3-5.5,5-8.2
	c2.7-4.6,5.6-9.2,8.4-13.9C36.9,23.2,36.4,25.1,36.4,27.1z"/>
</svg>
