<?xml version="1.0" encoding="utf-8"?>
<!-- Generator: Adobe Illustrator 24.3.0, SVG Export Plug-In . SVG Version: 6.00 Build 0)  -->
<svg version="1.1" id="_x34_1_x5F_TableTennis_1_" xmlns="http://www.w3.org/2000/svg" xmlns:xlink="http://www.w3.org/1999/xlink"
	 x="0px" y="0px" viewBox="0 0 100 100" style="enable-background:new 0 0 100 100;" xml:space="preserve">
<style type="text/css">
	.st0{fill:#596079;}
</style>
<g id="_x34_1_x5F_TableTennis">
	<g>
		<path class="st0" d="M31.7,77.7c-0.2,0.2-0.4,0.7-0.7,1c-5.8,5.9-11.7,11.7-17.5,17.6c-2.9,2.9-6,2.8-9,0.1
			c-3.9-3.5-3.8-7.2,0-10.8c5.8-5.4,11.2-11.2,16.8-16.8c0.3-0.3,0.7-0.5,0.8-0.6c-1.4-3-2.9-5.6-3.8-8.4C14,47.2,15.8,35.2,22.7,24
			c7.3-12,18-19.5,32-21.9c22-3.7,39.9,10.5,43.3,30c1.5,8.8-0.1,17.2-4.1,25.2c-0.2,0.4-0.4,0.7-0.6,1.1c2,1.9,3.5,4.1,4.3,6.8
			c1.9,6.3-0.7,13.1-6.3,16.5c-5.7,3.5-12.8,2.7-17.6-1.9c-0.7-0.7-1.1-0.8-2-0.3c-11.3,5.3-22.9,6.1-34.5,1.1
			C35.4,79.8,33.7,78.8,31.7,77.7z M91.3,56.9c0.2-0.5,0.5-1,0.7-1.5c2.2-4.6,3.6-9.5,3.9-14.6c0.6-11.4-3.3-21.1-11.9-28.6
			c-8.5-7.4-18.6-9.5-29.5-7.6c-16.6,2.8-31,16.4-34.9,32.7c-0.2,0.8-0.1,1.3,0.5,2c3.5,3.4,6.9,6.9,10.3,10.3
			c10.1,10.1,20.1,20.2,30.2,30.2c0.3,0.3,0.8,0.7,1.1,0.7c3.3-0.7,6.5-1.9,9.5-3.4c-4.1-7.4-1.6-14.1,2.1-17.9
			C77.1,55.4,83.8,52.8,91.3,56.9z M18.7,41.7c-1.3,12.4,2,23.3,11.7,31.8c8.8,7.6,21.3,9.1,27.8,7.4C45.1,67.8,32,54.8,18.7,41.7z
			 M95.7,69.3c0-6.7-5.5-12.2-12.1-12.1c-6.6,0-12,5.4-12,12.1c0,6.6,5.4,12.2,12.1,12.2C90.3,81.5,95.8,76,95.7,69.3z M23.2,70.4
			c0.1-0.1,0.2-0.2,0.3-0.3c-0.1,0-0.1,0.1-0.2,0.1c-6.2,6.2-12.3,12.3-18.4,18.5c-1.4,1.4-1.4,3.3,0,4.8c0.4,0.4,0.8,0.8,1.2,1.2
			c2,2,3.7,2,5.7,0c5.8-5.8,11.6-11.6,17.4-17.4c0.3-0.3,0.5-0.6,0.8-0.8c-0.2,0.1-0.3,0.2-0.5,0.3C27.4,74.5,25.3,72.4,23.2,70.4z"
			/>
		<path class="st0" d="M9,100c-1.9,0-3.8-0.8-5.6-2.5c-2.2-2-3.4-4.1-3.4-6.4c0-2.3,1.1-4.5,3.3-6.6c3.9-3.7,7.8-7.6,11.5-11.4
			c1.8-1.8,3.5-3.6,5.3-5.3c0,0,0,0,0,0c-0.3-0.6-0.5-1.1-0.8-1.7c-1-2-1.9-3.8-2.5-5.8c-4.3-12.7-2.7-25.2,4.6-37.1
			C29,10.6,40.1,3,54.4,0.6c10.8-1.8,21.4,0.5,29.8,6.6c8.1,5.8,13.5,14.6,15.3,24.6c1.5,8.7,0.1,17.5-4.2,26.2l-0.1,0.2
			c1.9,2,3.2,4.2,3.9,6.7c2.1,7-0.8,14.5-7,18.2c-6.2,3.8-14.2,2.9-19.4-2.1c-0.1-0.1-0.1-0.1-0.1-0.1c0,0-0.1,0-0.2,0.1
			C60.1,86.6,48,87,36.5,81.9c-1.2-0.5-2.4-1.2-3.7-1.9c-0.2-0.1-0.5-0.3-0.7-0.4c0,0-0.1,0.1-0.1,0.1c-5.8,5.9-11.7,11.7-17.6,17.6
			C12.8,99.1,10.9,100,9,100z M23.2,72.5l-2.9,2.9c-4.8,4.8-9.5,9.5-14.3,14.3c-0.8,0.8-0.8,1.7,0,2.7c0.3,0.3,0.5,0.5,0.8,0.8
			l0.3,0.3c1.4,1.4,2.2,1.4,3.6,0c5.6-5.6,11.1-11.2,16.7-16.8L23.2,72.5z M59.8,81.1c0,0.1,0,0.1,0,0.2c-0.1,0.2-0.2,0.5-0.4,0.6
			c0.4-0.1,0.8-0.2,1.2-0.2C60.3,81.5,60.1,81.3,59.8,81.1z M83.7,58.7C83.7,58.7,83.6,58.7,83.7,58.7c-5.8,0-10.6,4.8-10.6,10.6
			c0,2.8,1.1,5.5,3.1,7.5c2,2,4.7,3.1,7.5,3.1c0,0,0,0,0,0c2.8,0,5.5-1.1,7.5-3.1c2-2,3.1-4.7,3.1-7.5l0,0c0-2.9-1.1-5.5-3.2-7.5
			C89.1,59.8,86.5,58.7,83.7,58.7z M20,45.1c-0.4,11.2,3.3,20.2,11.4,27.2c7.3,6.4,17.3,8.1,23.7,7.5L20,45.1z M21,38
			c0,0,0,0.1,0.2,0.2c2.5,2.5,5,5,7.5,7.5l4.8,4.8c9.4,9.4,18.8,18.9,28.2,28.3c0.1,0.1,0.1,0.1,0.2,0.2c2.6-0.6,5.1-1.5,7.4-2.5
			c-3.4-7.6-0.6-14.5,3.1-18.3c3.7-3.8,10.6-6.7,18.4-3.2c0,0,0,0,0-0.1c2.3-4.8,3.5-9.4,3.7-14.1C95,29.6,91.2,20.4,83,13.4
			c-7.7-6.7-17.2-9.1-28.3-7.3c-16,2.7-29.9,15.7-33.6,31.6C21,37.9,21,38,21,38L21,38z M72.6,77.7c0.1,0,0.3,0,0.4,0
			c-0.1-0.1-0.2-0.2-0.3-0.4c0,0,0,0,0,0C72.7,77.5,72.6,77.6,72.6,77.7z M31.4,76.2C31.4,76.2,31.4,76.2,31.4,76.2
			C31.4,76.2,31.4,76.2,31.4,76.2C31.4,76.2,31.4,76.2,31.4,76.2z M23.6,68.5c0.1,0,0.1,0,0.2,0c-0.1-0.1-0.1-0.2-0.2-0.2
			C23.6,68.3,23.6,68.4,23.6,68.5C23.6,68.5,23.6,68.5,23.6,68.5z M91.7,58.4C91.7,58.4,91.7,58.4,91.7,58.4
			C91.8,58.4,91.8,58.4,91.7,58.4C91.8,58.4,91.8,58.4,91.7,58.4C91.7,58.4,91.7,58.4,91.7,58.4z M18.2,39C18.1,39.5,18,40,18,40.4
			c0.1,0,0.2-0.1,0.3-0.1c0.3-0.1,0.5-0.1,0.8-0.1C18.6,39.8,18.4,39.4,18.2,39z"/>
	</g>
</g>
</svg>
