<?xml version="1.0" encoding="utf-8"?>
<!-- Generator: Adobe Illustrator 24.3.0, SVG Export Plug-In . SVG Version: 6.00 Build 0)  -->
<svg version="1.1" id="_x34_2_x5F_WaterPolo_1_" xmlns="http://www.w3.org/2000/svg" xmlns:xlink="http://www.w3.org/1999/xlink"
	 x="0px" y="0px" viewBox="0 0 100 100" style="enable-background:new 0 0 100 100;" xml:space="preserve">
<style type="text/css">
	.st0{fill:#596079;}
</style>
<g id="_x34_2_x5F_WaterPolo">
	<g>
		<path class="st0" d="M13.9,99.2c-2.1-0.5-4.1-1.1-5.7-2.5c-2.8-2.3-4.2-5.2-4.4-8.7c-0.1-1.9,1.1-3.2,2.8-3.3c1.7-0.1,2.9,1.1,3,3
			c0.2,3,2.3,5.3,5.3,5.6c2.8,0.3,5.4-1.6,6.1-4.4c0.1-0.6,0.1-1.1,0.2-1.7c0.2-1.5,1.4-2.6,2.9-2.6c1.5,0,2.6,1,2.9,2.6
			c0.1,0.6,0.1,1.2,0.2,1.7c0.7,2.7,3.3,4.6,6,4.4c3-0.2,5.2-2.5,5.4-5.6c0.1-1.8,1.2-3,2.8-3c1.7,0,2.9,1.2,3,3.1
			c0.2,4.2,4.6,6.9,8.3,5c2.1-1.1,3.1-2.8,3.2-5.2c0.1-1.5,1.1-2.6,2.4-2.9c1.4-0.2,2.7,0.5,3.2,1.9c0.1,0.4,0.2,0.9,0.2,1.3
			c0.3,3,2.5,5.2,5.4,5.5c2.7,0.2,5.3-1.6,6-4.4c0.1-0.6,0.1-1.2,0.2-1.8c0.2-1.4,1.3-2.4,2.7-2.5c1.5,0,2.7,0.9,2.9,2.4
			c0.1,0.6,0.1,1.3,0.3,1.9c0.7,2.8,3.3,4.7,6.1,4.4c3-0.3,5.1-2.6,5.3-5.6c0.1-1.8,1.2-2.9,2.7-3c1.8-0.1,3.1,1.2,3.1,3.1
			c0,5.3-4.1,10.2-9.4,11.2c-0.2,0-0.5,0.1-0.7,0.2c-1,0-1.9,0-2.9,0c-2.8-0.6-5.2-1.7-7-3.7c-1.4,0.9-2.7,1.9-4.1,2.7
			c-1,0.5-2.2,0.7-3.2,1c-1,0-1.9,0-2.9,0c-1.7-0.7-3.4-1.2-5-2c-0.9-0.4-1.5-1.2-2.1-1.7c-1.6,1-3,2-4.5,2.8
			c-0.8,0.4-1.9,0.6-2.8,0.9c-1,0-2,0-3.1,0c-1.9-0.5-3.8-1-5.4-2.3c-0.6-0.5-1.2-1-1.7-1.4c-1.2,0.8-2.2,1.8-3.4,2.4
			c-1.2,0.6-2.6,0.9-3.9,1.4c-1,0-1.9,0-2.9,0c-2.8-0.6-5.3-1.7-7-3.7c-1.5,1-2.9,1.9-4.3,2.7c-0.9,0.5-2,0.7-3.1,1
			C15.8,99.2,14.9,99.2,13.9,99.2z"/>
		<path class="st0" d="M86.1,100h-2.9c-0.1,0-0.1,0-0.2,0c-3-0.6-5.3-1.8-7-3.5c-0.2,0.2-0.5,0.3-0.7,0.5c-1,0.7-1.9,1.3-2.9,1.9
			c-0.8,0.4-1.6,0.6-2.4,0.8c-0.3,0.1-0.7,0.2-1,0.3c-0.1,0-0.2,0-0.2,0h-2.9c-0.1,0-0.2,0-0.3-0.1c-0.5-0.2-1-0.4-1.5-0.6
			c-1.2-0.4-2.4-0.9-3.6-1.5c-0.7-0.3-1.3-0.9-1.8-1.3c0,0-0.1,0-0.1-0.1c-0.3,0.2-0.6,0.4-0.9,0.6c-1.1,0.7-2.1,1.4-3.2,1.9
			c-0.7,0.4-1.4,0.5-2.1,0.7c-0.3,0.1-0.6,0.1-0.8,0.2c-0.1,0-0.1,0-0.2,0h-3.1c-0.1,0-0.1,0-0.2,0c-1.8-0.5-3.9-1.1-5.7-2.4
			c-0.4-0.3-0.9-0.7-1.2-1.1c-0.2,0.1-0.4,0.3-0.6,0.4c-0.8,0.6-1.6,1.2-2.5,1.7c-0.9,0.5-1.9,0.8-2.8,1c-0.4,0.1-0.8,0.2-1.2,0.4
			c-0.1,0-0.2,0-0.2,0h-2.9c-0.1,0-0.1,0-0.2,0c-3-0.6-5.3-1.8-7-3.5c-0.3,0.2-0.5,0.3-0.8,0.5c-1,0.7-2,1.3-3.1,1.9
			c-0.7,0.4-1.5,0.6-2.3,0.8c-0.3,0.1-0.6,0.2-0.9,0.3c-0.1,0-0.1,0-0.2,0h-2.9c-0.1,0-0.1,0-0.2,0c-1.9-0.4-4.1-1.1-6.1-2.6
			c-2.9-2.4-4.5-5.5-4.7-9.3c-0.1-1.1,0.3-2.2,1-2.9C4.6,84.4,5.5,84,6.5,84c2.1,0,3.6,1.4,3.8,3.7c0.2,2.7,2,4.7,4.6,4.9
			c2.4,0.2,4.7-1.4,5.3-3.8c0.1-0.3,0.1-0.6,0.1-0.9c0-0.2,0-0.5,0.1-0.7c0.3-1.9,1.8-3.2,3.6-3.2c0,0,0,0,0,0
			c1.9,0,3.3,1.3,3.6,3.2c0,0.2,0.1,0.4,0.1,0.7c0,0.3,0.1,0.7,0.1,1c0.6,2.4,2.8,4,5.2,3.8c2.6-0.2,4.5-2.2,4.7-4.9
			c0.2-2.2,1.6-3.7,3.6-3.7c2.1,0,3.6,1.5,3.7,3.8c0.1,1.8,1,3.3,2.5,4.2c1.5,0.8,3.2,0.9,4.7,0.1c1.8-0.9,2.7-2.4,2.8-4.5
			c0.1-1.8,1.3-3.3,3-3.6c1.8-0.3,3.4,0.7,4,2.4c0.2,0.4,0.2,0.9,0.2,1.3l0,0.2c0.2,2.6,2.1,4.6,4.7,4.8c2.4,0.2,4.6-1.4,5.2-3.8
			c0.1-0.3,0.1-0.6,0.1-1c0-0.2,0-0.5,0.1-0.7c0.3-1.8,1.7-3.1,3.5-3.1c1.8,0,3.4,1.2,3.7,3c0.1,0.3,0.1,0.6,0.1,0.9
			c0,0.3,0.1,0.7,0.1,1c0.6,2.4,2.9,4,5.3,3.8c2.6-0.3,4.4-2.2,4.6-4.9c0.1-2.2,1.5-3.7,3.5-3.7c1,0,2,0.3,2.7,1
			c0.7,0.7,1.1,1.7,1.1,2.9c0,5.7-4.4,10.9-10.1,11.9c-0.1,0-0.3,0.1-0.4,0.1l-0.2,0.1C86.2,100,86.2,100,86.1,100z M83.3,98.5
			l2.8,0c0.2-0.1,0.4-0.1,0.6-0.1c4.9-0.9,8.8-5.5,8.8-10.4c0-0.7-0.2-1.3-0.7-1.7c-0.4-0.4-1-0.6-1.6-0.6c-1.2,0-1.9,0.9-2,2.3
			c-0.2,3.5-2.6,6-6,6.3c-3.2,0.3-6.1-1.8-6.9-5c-0.1-0.4-0.1-0.8-0.2-1.2c0-0.3,0-0.5-0.1-0.8c-0.2-1.1-1.1-1.8-2.1-1.7
			c-1,0-1.8,0.8-2,1.8c0,0.2-0.1,0.4-0.1,0.6c0,0.4-0.1,0.8-0.2,1.2c-0.8,3.1-3.7,5.2-6.8,5c-3.3-0.3-5.8-2.8-6.1-6.2l0-0.2
			c0-0.3-0.1-0.6-0.1-0.9c-0.3-1-1.3-1.5-2.4-1.3c-1,0.2-1.7,1-1.7,2.1c-0.1,2.7-1.4,4.7-3.7,5.8c-2,1-4.3,0.9-6.1-0.2
			c-1.9-1.1-3.2-3.2-3.3-5.4c-0.1-1.5-0.9-2.3-2.2-2.3c-1.2,0-2,0.9-2.1,2.3c-0.3,3.5-2.8,6.1-6.1,6.4c-3.1,0.2-6-1.9-6.8-4.9
			c-0.1-0.4-0.1-0.8-0.2-1.2c0-0.2,0-0.4-0.1-0.6c-0.2-1.2-1-1.9-2.1-1.9c0,0,0,0,0,0c-1.1,0-1.9,0.7-2.1,1.9c0,0.2,0,0.4-0.1,0.6
			c0,0.4-0.1,0.8-0.2,1.2c-0.8,3.1-3.8,5.3-6.9,5c-3.3-0.3-5.8-2.9-6-6.3c-0.1-1.5-0.9-2.4-2.2-2.3c-0.6,0-1.1,0.2-1.4,0.6
			c-0.4,0.4-0.6,1.1-0.6,1.8c0.2,3.3,1.5,6,4.1,8.2c1.6,1.3,3.6,1.9,5.3,2.3h2.7c0.3-0.1,0.6-0.2,0.9-0.2c0.7-0.2,1.4-0.4,1.9-0.6
			c1-0.5,1.9-1.2,2.9-1.8c0.4-0.3,0.9-0.6,1.3-0.9c0.3-0.2,0.7-0.1,1,0.1c1.5,1.7,3.6,2.8,6.5,3.4h2.7c0.4-0.1,0.7-0.2,1.1-0.3
			c0.9-0.3,1.8-0.5,2.6-0.9c0.8-0.4,1.5-0.9,2.2-1.5c0.4-0.3,0.7-0.5,1.1-0.8c0.3-0.2,0.7-0.2,0.9,0l0.5,0.4c0.4,0.3,0.8,0.7,1.2,1
			c1.5,1.2,3.3,1.7,5,2.1h2.9c0.3-0.1,0.5-0.1,0.8-0.2c0.6-0.2,1.2-0.3,1.7-0.6c1-0.6,2-1.2,3.1-1.9c0.4-0.3,0.9-0.6,1.4-0.9
			c0.3-0.2,0.6-0.2,0.9,0.1c0.2,0.1,0.4,0.3,0.6,0.5c0.4,0.4,0.9,0.8,1.4,1.1c1.1,0.5,2.3,1,3.5,1.4c0.5,0.2,0.9,0.3,1.4,0.5h2.6
			c0.3-0.1,0.6-0.2,0.9-0.3c0.7-0.2,1.4-0.4,2.1-0.7c0.9-0.5,1.8-1.1,2.8-1.8c0.4-0.3,0.8-0.6,1.3-0.9c0.3-0.2,0.7-0.2,1,0.1
			C78.2,96.7,80.4,97.8,83.3,98.5z"/>
	</g>
	<g>
		<path class="st0" d="M50,0.8c12,0,23.9,0,35.9,0c5.8,0,10.4,3.8,11.6,9.5c0.2,0.8,0.2,1.6,0.2,2.4c0,13.2,0,26.5,0,39.7
			c0,0.6-0.1,1.3-0.4,1.9c-0.5,1.1-1.7,1.7-3,1.5c-1.1-0.2-2.1-1.1-2.4-2.2c-0.1-0.5-0.1-1-0.1-1.4c0-13,0-26,0-39
			c0-0.9-0.1-1.8-0.3-2.6c-0.8-2.4-3-3.9-5.7-3.9c-11.4,0-22.8,0-34.2,0c-12.5,0-25,0-37.5,0c-3,0-5.3,1.7-5.9,4.5
			c-0.2,0.7-0.1,1.4-0.1,2.1c0,13,0,26,0,38.9c0,0.4,0,0.9-0.1,1.3c-0.3,1.4-1.5,2.4-2.9,2.4c-1.4-0.1-2.6-1.2-2.7-2.6
			c0-0.3,0-0.5,0-0.8c0-13.3,0-26.5,0-39.8c0-5,2.3-8.6,6.8-10.8c1.6-0.8,3.3-1,5-1C26.1,0.8,38.1,0.8,50,0.8z"/>
		<path class="st0" d="M94.8,56.6c-0.2,0-0.4,0-0.6,0c-1.5-0.2-2.7-1.4-3-2.8c-0.1-0.6-0.1-1.1-0.1-1.6l0-12c0-9,0-18,0-27
			c0-1-0.1-1.8-0.3-2.4c-0.7-2.1-2.6-3.3-5-3.3c-8.4,0-16.7,0-25.1,0l-9.1,0l-10.4,0c-9,0-18.1,0-27.1,0c-2.6,0-4.6,1.5-5.2,3.9
			c-0.1,0.6-0.1,1.2-0.1,1.8v0.1c0,7.7,0,15.4,0,23l0,15.9c0,0.5,0,1-0.1,1.5c-0.3,1.8-1.9,3.1-3.7,3c-1.8-0.1-3.3-1.5-3.5-3.3
			c0-0.3,0-0.6,0-0.8l0-10.7c0-9.7,0-19.4,0-29.1C1.6,7.3,4,3.5,8.8,1.1C10.3,0.4,12.1,0,14.1,0c0,0,0,0,0,0c9.1,0,18.1,0,27.2,0
			l19.1,0c8.5,0,17,0,25.4,0c6.2,0,11.1,4.1,12.3,10.2c0.2,0.9,0.2,1.8,0.2,2.5c0,13.2,0,26.5,0,39.7c0,0.6-0.1,1.4-0.4,2.2
			C97.5,55.8,96.2,56.6,94.8,56.6z M69.9,5.8c5.3,0,10.6,0,15.9,0c3.1,0,5.6,1.7,6.4,4.4c0.3,0.8,0.4,1.7,0.4,2.9c0,9,0,18,0,27
			l0,12c0,0.4,0,0.9,0.1,1.3c0.2,0.8,0.9,1.5,1.7,1.6c0.9,0.1,1.8-0.3,2.1-1.1c0.2-0.4,0.3-1,0.3-1.5c0-13.2,0-26.5,0-39.7
			c0-0.7,0-1.5-0.2-2.2c-1-5.3-5.4-8.9-10.8-8.9c-8.5,0-17,0-25.4,0l-19.1,0c-9.1,0-18.1,0-27.2,0c0,0,0,0,0,0c-1.8,0-3.3,0.3-4.7,1
			C5.3,4.6,3.1,8,3.1,12.6c0,9.7,0,19.4,0,29.1l0,10.7c0,0.2,0,0.5,0,0.7c0.1,1.1,0.9,1.9,2,1.9c1.1,0,2-0.7,2.2-1.7
			c0.1-0.4,0.1-0.8,0.1-1.2l0-15.9c0-7.7,0-15.4,0-23v-0.1c0-0.7,0-1.4,0.2-2.2c0.7-3.1,3.3-5.1,6.7-5.1c9,0,18.1,0,27.1,0l10.4,0
			l9.1,0C63.8,5.8,66.9,5.8,69.9,5.8z"/>
	</g>
	<g>
		<path class="st0" d="M81.8,16.8c-21.2,0-42.4,0-63.6,0c0,0.4,0,0.8,0,1.2c0,13.3,0,26.7,0,40c0,0.5,0,1.1-0.2,1.6
			c-0.4,1.2-1.5,2-2.8,2c-1.3,0-2.4-0.8-2.7-2.1c-0.1-0.5-0.2-1-0.2-1.5c0-14.5,0-29,0-43.4c0-2.6,1-3.6,3.6-3.6c22.7,0,45.4,0,68,0
			c2.5,0,3.5,1,3.5,3.6c0,14.6,0,29.2,0,43.7c0,2.1-1.2,3.4-3,3.3c-1.4,0-2.6-1.1-2.8-2.6c0-0.4,0-0.8,0-1.2c0-13.2,0-26.5,0-39.7
			C81.8,17.6,81.8,17.2,81.8,16.8z"/>
		<path class="st0" d="M15.3,62.3C15.3,62.3,15.3,62.3,15.3,62.3c-1.7,0-3.1-1.1-3.5-2.6c-0.2-0.6-0.2-1.2-0.2-1.7
			c0-13.3,0-26.6,0-40v-3.5c0-3,1.3-4.4,4.4-4.4h68c2.9,0,4.3,1.4,4.3,4.3c0,14.6,0,29.2,0,43.7c0,1.3-0.4,2.4-1.2,3.1
			c-0.7,0.7-1.6,1-2.6,1c-1.8,0-3.3-1.4-3.5-3.3c0-0.4,0-0.7,0-1.1l0-0.2l0-40.2H19v6c0,11.5,0,23,0,34.5c0,0.5,0,1.2-0.2,1.8
			C18.3,61.3,16.9,62.3,15.3,62.3z M16,11.7c-2.1,0-2.8,0.7-2.8,2.8V18c0,13.3,0,26.6,0,40c0,0.4,0,0.9,0.1,1.3c0.2,0.9,1,1.5,2,1.5
			c0.9,0,1.8-0.6,2-1.4c0.1-0.4,0.1-0.9,0.1-1.4c0-11.5,0-23,0-34.5v-6.8c0-0.4,0.3-0.8,0.8-0.8h63.6c0.4,0,0.8,0.3,0.8,0.8V58
			c0,0.3,0,0.6,0,0.9c0.1,1,1,1.8,2,1.9c0.6,0,1.1-0.2,1.5-0.5c0.5-0.4,0.7-1.2,0.7-2c0-14.6,0-29.2,0-43.7c0-2.1-0.7-2.8-2.8-2.8
			H16z"/>
	</g>
	<g>
		<path class="st0" d="M24,72.2c-1.8,1.9-3.9,3.1-6.5,3.7c-6.8,1.4-13.6-4-13.7-11c0-1.8,1.1-3.2,2.8-3.3c1.6-0.1,2.9,1.2,3,3
			c0.2,3.3,2.6,5.6,5.8,5.6c3.1,0,5.5-2.3,5.8-5.5c0.2-2.3,1.8-3.6,3.7-3c1.2,0.3,1.9,1.1,2.1,2.4c0.1,0.6,0.1,1.2,0.2,1.8
			c0.7,2.8,3.3,4.6,6.3,4.3c2.8-0.3,4.9-2.6,5.1-5.6c0.2-2.2,1.9-3.6,3.9-2.9c1.2,0.4,1.9,1.5,1.9,2.9c0.2,4.1,4.3,6.8,8,5.1
			c2.3-1,3.4-2.8,3.5-5.3c0.1-1.6,1.1-2.7,2.6-2.9c1.3-0.2,2.6,0.7,3,2c0.1,0.4,0.1,0.8,0.2,1.2c0.3,2.9,2.4,5.2,5.2,5.4
			c3,0.2,5.5-1.5,6.2-4.3c0.1-0.6,0.1-1.2,0.2-1.8c0.2-1.4,1.4-2.5,2.8-2.5c1.4,0,2.6,1,2.8,2.4c0,0.3,0.1,0.5,0.1,0.8
			c0.3,3.2,2.6,5.5,5.8,5.5c3.1,0,5.6-2.4,5.8-5.6c0.1-2.2,1.8-3.5,3.8-2.9c1.2,0.4,2,1.5,2,2.9c0,6.3-5.7,11.7-12,11.4
			c-3-0.2-5.6-1.3-7.7-3.4c-0.1-0.1-0.2-0.2-0.3-0.3c0,0-0.1-0.1-0.2-0.1c-4.5,4.9-12.3,5.3-17.3,0c-4.9,5.1-12.7,5-17.4,0
			C36.1,77.6,28.3,77,24,72.2z"/>
		<path class="st0" d="M15.3,76.8c-2.7,0-5.4-1-7.7-2.7c-2.9-2.3-4.6-5.7-4.6-9.2c0-2.3,1.4-4,3.5-4.1c2.1-0.1,3.7,1.5,3.8,3.8
			c0.2,2.8,2.3,4.9,5,4.9c0,0,0,0,0,0c2.7,0,4.8-2,5-4.8c0.1-1.4,0.7-2.6,1.7-3.3c0.8-0.6,1.9-0.7,3-0.4c1.5,0.4,2.4,1.5,2.6,3
			c0,0.3,0.1,0.5,0.1,0.8c0,0.3,0.1,0.7,0.1,1c0.6,2.5,2.9,4,5.5,3.7c2.4-0.2,4.2-2.2,4.4-4.9c0.1-1.4,0.7-2.5,1.8-3.2
			c0.9-0.6,2-0.7,3.1-0.3c1.5,0.5,2.4,1.8,2.4,3.6c0.1,1.7,1,3.3,2.4,4.1c1.4,0.9,3,1,4.6,0.3c2-0.9,2.9-2.4,3-4.6
			c0.1-1.9,1.4-3.4,3.2-3.6c1.7-0.2,3.4,0.8,3.9,2.5c0.1,0.4,0.2,0.8,0.2,1.1l0,0.3c0.2,2.6,2.1,4.5,4.5,4.7
			c2.6,0.2,4.8-1.3,5.4-3.7c0.1-0.3,0.1-0.6,0.1-1c0-0.2,0-0.5,0.1-0.7c0.3-1.8,1.8-3.2,3.6-3.2c0,0,0,0,0,0c1.7,0,3.3,1.3,3.6,3
			c0.1,0.3,0.1,0.6,0.1,0.8c0.2,2.8,2.3,4.8,5,4.8c0,0,0,0,0,0c2.7,0,4.8-2.1,5-4.9c0.1-1.4,0.7-2.5,1.7-3.2c0.9-0.6,2-0.8,3.1-0.4
			c1.6,0.5,2.6,1.9,2.6,3.7c0,3.2-1.4,6.4-3.8,8.7c-2.5,2.3-5.7,3.6-9,3.4c-3.2-0.2-5.9-1.3-8.1-3.5c-2.3,2.2-5.4,3.5-8.6,3.5
			c0,0-0.1,0-0.1,0c-3.2,0-6.2-1.2-8.7-3.5c-2.4,2.2-5.4,3.5-8.7,3.5c0,0,0,0,0,0c-3.3,0-6.3-1.2-8.7-3.5c-2.4,2.2-5.5,3.5-8.6,3.5
			c-0.1,0-0.1,0-0.2,0c-3.2,0-6.2-1.3-8.5-3.5c-1.8,1.7-3.9,2.8-6.3,3.3C16.9,76.8,16.1,76.8,15.3,76.8z M6.7,62.3c0,0-0.1,0-0.1,0
			c-1.2,0.1-2.1,1.1-2,2.5c0.1,3.1,1.5,6,4.1,8c2.5,2,5.7,2.8,8.7,2.2c2.4-0.5,4.4-1.6,6.1-3.4c0.1-0.2,0.4-0.2,0.6-0.2
			c0.2,0,0.4,0.1,0.6,0.3c2.1,2.2,5,3.6,8,3.6c3,0,6-1.2,8.3-3.5c0.1-0.2,0.3-0.2,0.6-0.2c0,0,0,0,0,0c0.2,0,0.4,0.1,0.6,0.2
			c2.1,2.3,5,3.5,8.1,3.5c0,0,0,0,0,0c3.1,0,6-1.3,8.1-3.5c0.1-0.2,0.3-0.2,0.6-0.2c0,0,0,0,0,0c0.2,0,0.4,0.1,0.6,0.2
			c2.2,2.3,5.1,3.5,8.1,3.5c0,0,0.1,0,0.1,0c3,0,5.9-1.3,8-3.6c0.2-0.3,0.6-0.3,0.9-0.2c0.1,0,0.2,0.1,0.3,0.2
			c0.1,0.1,0.2,0.2,0.3,0.3l0.1,0.1c2,2,4.4,3,7.2,3.2c2.8,0.2,5.7-0.9,7.8-3c2.1-2,3.4-4.8,3.4-7.6c0-1.1-0.6-1.9-1.5-2.2
			c-0.6-0.2-1.2-0.1-1.7,0.2c-0.6,0.4-1,1.1-1,2c-0.2,3.7-3,6.3-6.5,6.3c0,0,0,0,0,0c-3.5,0-6.2-2.6-6.5-6.2c0-0.2,0-0.5-0.1-0.7
			c-0.2-1-1.1-1.8-2.1-1.8c0,0,0,0,0,0c-1,0-1.9,0.8-2.1,1.9c0,0.2-0.1,0.4-0.1,0.7c0,0.4-0.1,0.8-0.2,1.2c-0.8,3.2-3.7,5.2-7,4.9
			c-3.2-0.3-5.6-2.8-5.9-6.1l0-0.3c0-0.3,0-0.6-0.1-0.8c-0.3-0.9-1.3-1.6-2.2-1.5c-1.1,0.1-1.9,1-1.9,2.2c-0.1,2.8-1.5,4.9-4,6
			c-2,0.9-4.2,0.7-6-0.4c-1.9-1.1-3-3.2-3.1-5.4c0-0.8-0.3-1.8-1.4-2.2c-0.6-0.2-1.3-0.2-1.8,0.2c-0.6,0.4-1,1.1-1.1,2
			c-0.2,3.4-2.6,6-5.8,6.3c-3.4,0.3-6.3-1.7-7.1-4.9c-0.1-0.4-0.1-0.8-0.2-1.2c0-0.2,0-0.4-0.1-0.7c-0.1-0.9-0.6-1.5-1.5-1.8
			c-0.6-0.2-1.2-0.1-1.6,0.2c-0.6,0.4-1,1.2-1,2.1c-0.3,3.7-3,6.2-6.5,6.2c0,0,0,0,0,0c-3.6,0-6.3-2.7-6.5-6.3
			C8.7,63.3,7.8,62.3,6.7,62.3z"/>
	</g>
	<g>
		<path class="st0" d="M76,37.1c-0.1,7.4-6,13-13.4,12.9c-7.1-0.1-12.7-6.1-12.6-13.4c0.1-7,6.2-12.8,13.2-12.7
			C70.4,24.1,76.1,30,76,37.1z M70.2,37c0-4-3.2-7.2-7.2-7.2c-4,0-7.3,3.2-7.3,7.2c0,4,3.3,7.3,7.3,7.3C67,44.2,70.2,41,70.2,37z"/>
		<path class="st0" d="M62.9,50.8c-0.1,0-0.2,0-0.3,0c-7.5-0.2-13.5-6.5-13.4-14.2c0.1-3.6,1.6-7,4.2-9.6c2.7-2.6,6.1-3.9,9.7-3.8
			c7.6,0.2,13.7,6.4,13.6,13.9l0,0c-0.1,3.8-1.6,7.3-4.2,9.8C70,49.4,66.6,50.8,62.9,50.8z M62.9,24.7c-3.1,0-6,1.2-8.3,3.4
			c-2.4,2.3-3.7,5.3-3.8,8.5c-0.1,6.8,5.2,12.5,11.9,12.6c3.3,0.1,6.5-1.1,8.9-3.4c2.4-2.3,3.7-5.4,3.8-8.7
			c0.1-6.7-5.3-12.2-12.1-12.4C63.1,24.7,63,24.7,62.9,24.7z M76,37.1L76,37.1L76,37.1z M63,45c-2.1,0-4.1-0.8-5.6-2.3
			C55.9,41.1,55,39.1,55,37c0-2.1,0.8-4.1,2.4-5.7c1.5-1.5,3.5-2.3,5.6-2.3c0,0,0,0,0.1,0c4.4,0,7.9,3.5,7.9,8
			C71,41.4,67.4,45,63,45C63,45,63,45,63,45z M63,30.5c-1.7,0-3.3,0.7-4.6,1.9c-1.2,1.2-1.9,2.8-1.9,4.6c0,1.7,0.7,3.4,1.9,4.6
			c1.2,1.2,2.8,1.9,4.5,1.9c0,0,0,0,0,0c3.5,0,6.4-2.9,6.4-6.5C69.4,33.4,66.6,30.5,63,30.5C63,30.5,63,30.5,63,30.5z M70.2,37
			L70.2,37L70.2,37z"/>
	</g>
</g>
</svg>
