<?xml version="1.0" encoding="utf-8"?>
<!-- Generator: Adobe Illustrator 24.3.0, SVG Export Plug-In . SVG Version: 6.00 Build 0)  -->
<svg version="1.1" id="_x34__x5F_Tennis_1_" xmlns="http://www.w3.org/2000/svg" xmlns:xlink="http://www.w3.org/1999/xlink"
	 x="0px" y="0px" viewBox="0 0 100 100" style="enable-background:new 0 0 100 100;" xml:space="preserve">
<style type="text/css">
	.st0{fill:#596079;}
</style>
<path id="_x34__x5F_Tennis" class="st0" d="M50,0C22.4,0,0,22.4,0,50s22.4,50,50,50s50-22.4,50-50S77.6,0,50,0z M34.7,92.6
	C22.4,88.2,12.6,78.5,7.8,66.3c13.7-3.5,17.7-16.1,19.6-25.3C31.8,23.5,39.8,16.7,56,16.7c15.8,0,28.6,12.8,28.6,28.6
	c0,7.7-2.1,25.8-21.8,28.6C49.7,75.7,36.3,79.4,34.7,92.6z M50,95.2c-3.7,0-7.2-0.4-10.6-1.3c0.6-8.7,7.5-13.1,24.1-15.4
	c16.2-2.3,25.9-14.8,25.9-33.3c0-18.4-15-33.3-33.3-33.3c-18.4,0-28.4,8.4-33.3,28.1c-2.6,13.1-7.6,19.7-16.4,21.8
	C5.3,58,4.8,54.1,4.8,50C4.8,25.1,25.1,4.8,50,4.8S95.2,25.1,95.2,50C95.2,74.9,74.9,95.2,50,95.2z"/>
</svg>
