<?xml version="1.0" encoding="utf-8"?>
<!-- Generator: Adobe Illustrator 24.3.0, SVG Export Plug-In . SVG Version: 6.00 Build 0)  -->
<svg version="1.1" id="_x35__x5F_Volleyball_1_" xmlns="http://www.w3.org/2000/svg" xmlns:xlink="http://www.w3.org/1999/xlink"
	 x="0px" y="0px" viewBox="0 0 100 100" style="enable-background:new 0 0 100 100;" xml:space="preserve">
<style type="text/css">
	.st0{fill:#596079;}
</style>
<g id="_x35__x5F_Volleyball">
	<path class="st0" d="M0,53.1c0-2.1,0-4.2,0-6.2c0.1-0.9,0.3-1.9,0.4-2.8c1.2-9.8,4.8-18.5,11.2-25.9C24.6,3.1,41.1-2.7,60.7,1.2
		C83,5.7,99.7,26.2,100,49c0.1,10.4-2.5,20-8.4,28.7c-7.9,11.8-18.9,19-32.9,21.6c-1.8,0.3-3.7,0.5-5.6,0.8c-2.1,0-4.2,0-6.2,0
		c-1.2-0.2-2.4-0.3-3.7-0.5c-9.2-1.3-17.5-4.8-24.6-10.7C9,81,3,70.9,0.8,58.7C0.4,56.9,0.3,55,0,53.1z M69.4,43.3
		c-0.1-0.2-0.1-0.4-0.1-0.5c-7-17.8-24.3-29.9-43.4-30.2c-0.4,0-0.9,0.1-1.2,0.4C17.5,17.8,12.2,24.2,8.8,32
		c-0.1,0.3-0.2,0.6-0.3,0.7c3.8,0,7.6-0.3,11.3,0c12.2,1,22.8,5.8,31.7,14.1c0.3,0.3,0.9,0.5,1.3,0.5c2.6-0.3,5.2-0.6,7.8-1.1
		C63.7,45.6,66.6,44.6,69.4,43.3z M67.8,91.5c-0.4-0.4-0.6-0.6-0.9-0.8C54.6,80.3,48.1,67,47.5,50.9c0-0.5-0.3-1.1-0.6-1.4
		c-5.1-4.5-11-7.7-17.5-9.8c-0.2-0.1-0.4-0.1-0.7-0.1c-0.1,0.2-0.1,0.4-0.2,0.6c-1.4,5.8-1.3,11.6-0.3,17.4
		C31.1,73.9,40.1,85.7,55,93c2,1,3.8,1.5,5.9,0.6c0.3-0.1,0.6-0.1,0.9-0.2C63.8,92.7,65.7,92.1,67.8,91.5z M23.6,38.3
		c-5.3-1-10.7-1-16.1-0.2c-0.8,0.1-1.1,0.4-1.2,1.2c-1.7,7.2-1.9,14.4,0.1,21.5c5.1,18.2,17,29.3,35.5,33.4c1.8,0.4,3.7,0.5,5.6,0.8
		C27.6,81,19.7,62.3,23.6,38.3z M52.6,52.5c0,0.2,0,0.4,0,0.5c0.4,5.6,1.7,10.9,3.9,16c0.4,0.9,0.7,2.2,1.5,2.7c0.7,0.4,2,0,3-0.1
		c14.2-2,25.4-9,33.6-20.8c0.3-0.4,0.4-0.9,0.4-1.3c-0.2-2.8-0.4-5.6-0.9-8.3c-0.6-2.9-1.6-5.7-2.5-8.8
		C81.3,44.6,68.4,51.3,52.6,52.5z M33.7,8.1C52.8,12.1,66.2,23,74,40.8c4.1-1.7,12.7-9.6,14.8-13.6C76.5,6.4,51.8,0.7,33.7,8.1z
		 M60.8,76.6c0.2,0.3,0.4,0.6,0.6,0.9c2.9,4.2,6.5,7.7,10.5,10.8c0.6,0.5,1,0.5,1.7,0.1c7.5-4.7,13.3-11.1,17.1-19.1
		c1.4-3,2.5-6.1,3.3-9.6C84.8,69.3,73.9,74.9,60.8,76.6z"/>
</g>
</svg>
