<?xml version="1.0" encoding="utf-8"?>
<!-- Generator: Adobe Illustrator 24.3.0, SVG Export Plug-In . SVG Version: 6.00 Build 0)  -->
<svg version="1.1" id="_x36_9_x5F_GaelicFootball_1_"
	 xmlns="http://www.w3.org/2000/svg" xmlns:xlink="http://www.w3.org/1999/xlink" x="0px" y="0px" viewBox="0 0 100 100"
	 style="enable-background:new 0 0 100 100;" xml:space="preserve">
<style type="text/css">
	.st0{fill:#596079;}
</style>
<g id="_x36_9_x5F_GaelicFootball">
	<g>
		<path class="st0" d="M46.9,0.8c2.1,0,4.1,0,6.2,0c1.7,0.2,3.4,0.4,5,0.7C67.3,3,75.5,6.9,82.5,13.1c8.6,7.6,14,17.1,16,28.5
			c0.3,1.8,0.5,3.6,0.8,5.4c0,2.1,0,4.1,0,6.2c-0.1,0.2-0.1,0.5-0.2,0.7c-0.6,7.6-2.8,14.7-6.7,21.2c-7.8,12.8-19.1,20.7-33.9,23.5
			c-1.8,0.3-3.6,0.5-5.4,0.8c-2.1,0-4.1,0-6.2,0c-0.2-0.1-0.5-0.1-0.7-0.2c-9.9-0.8-18.8-4.2-26.6-10.4C9.8,80.9,3.7,70.8,1.5,58.4
			c-0.3-1.8-0.5-3.5-0.7-5.3c0-2.1,0-4.1,0-6.2C1,45.3,1.1,43.6,1.4,42C3.2,31.7,7.7,22.9,15,15.5C22.3,8,31.2,3.3,41.5,1.5
			C43.3,1.2,45.1,1,46.9,0.8z M78.5,39.9c0-0.5,0-0.9-0.1-1.3c-0.4-2.4-0.7-4.8-1.1-7.2c-0.1-0.6-0.3-0.9-0.9-1
			c-5.7-0.7-11.3-1.6-17-2.1c-12.1-1-24.1-0.1-36.1,2.1c-0.3,0.1-0.7,0.5-0.7,0.8c-0.3,1.4-0.5,2.8-0.7,4.3
			c-0.2,1.4-0.3,2.9-0.5,4.4c0.3,0,0.5,0,0.6,0c1.5-0.1,3.1-0.2,4.6-0.3c1.2-0.1,2.1,0.7,2.1,1.7c0.1,1-0.6,1.9-1.7,2
			c-0.7,0.1-1.3,0.1-2,0.2c-1.3,0.1-2.6,0.2-4,0.3c0,4.2,0,8.3,0,12.5c19.3,1.5,38.5,1.5,57.8,0c0-4.2,0-8.3,0-12.4
			c-0.3-0.1-0.5-0.1-0.7-0.1c-4.8-0.3-9.6-0.6-14.4-0.8c-6.4-0.2-12.9-0.2-19.3-0.2c-1.3,0-2.2-0.8-2.2-1.9c0-1.2,0.8-1.9,2.1-2
			c10.5-0.1,21,0.1,31.4,0.8C76.7,39.7,77.6,39.8,78.5,39.9z M21.6,60.1c-0.1,0.2-0.1,0.2-0.1,0.3c0.4,2.9,0.8,5.8,1.2,8.6
			c0,0.2,0.4,0.5,0.6,0.5c3.3,0.5,6.5,1.1,9.8,1.5c8,0.9,16,1.2,24.1,0.8c6.5-0.3,12.9-1.1,19.3-2.3c0.6-0.1,0.8-0.3,0.9-0.9
			c0.2-1.4,0.5-2.8,0.7-4.2c0.2-1.4,0.3-2.9,0.5-4.4C59.4,61.6,40.5,61.6,21.6,60.1z M38.2,6.2c0,0.1,0,0.2,0,0.3
			c1.6,5.7,3.1,11.4,4.7,17.1c0.2,0.7,0.6,0.6,1.1,0.6c4.1,0,8.1,0,12.2,0c0.7,0,1-0.1,1.2-0.8c0.9-3.4,1.8-6.7,2.7-10.1
			c0.6-2.3,1.3-4.7,1.9-7.1C53.9,4.1,46,4.1,38.2,6.2z M38.1,93.8c8,2.1,15.9,2.1,23.9,0c-1.6-5.9-3.2-11.6-4.8-17.4
			c-0.2-0.6-0.4-0.6-0.9-0.6c-4.2,0-8.4,0-12.6,0c-0.6,0-0.8,0.2-0.9,0.7c-0.3,1.2-0.7,2.4-1,3.6C40.6,84.6,39.3,89.2,38.1,93.8z
			 M61,24.3c0.1,0.1,0.1,0.1,0.2,0.1c5.5,0.8,11.1,1.5,16.6,2.3c0.2,0,0.5-0.1,0.7-0.2c2-1.9,4.1-3.9,6.1-5.9
			c-5.3-6.1-11.5-10.4-19-13.2C64,13.1,62.5,18.7,61,24.3z M60.9,75.6c1.6,5.7,3.1,11.3,4.7,17c7.4-2.8,13.7-7.1,18.9-13.2
			c-2-2-4-3.9-6-5.8c-0.2-0.2-0.7-0.3-1-0.3c-3.2,0.5-6.3,1-9.5,1.4C65.7,75.1,63.4,75.4,60.9,75.6z M34.4,7.4
			c-7.5,2.8-13.7,7.1-18.9,13.2c2,2,4,3.9,6,5.8c0.2,0.2,0.7,0.3,1,0.2c3.7-0.5,7.4-1.1,11.1-1.6c1.8-0.3,3.6-0.4,5.5-0.6
			C37.5,18.7,36,13.1,34.4,7.4z M39,75.7c-0.1-0.1-0.2-0.1-0.2-0.1c-5.5-0.8-11.1-1.5-16.6-2.3c-0.2,0-0.5,0.1-0.7,0.2
			c-2,1.9-4.1,3.9-6.1,5.9c5.3,6.1,11.5,10.4,19,13.2C36,86.9,37.5,81.3,39,75.7z M6,39C4.2,46.4,4.2,53.6,6,61
			c3.8-1.2,7.6-2.3,11.2-3.5c0-5.1,0-10,0-15C13.5,41.4,9.8,40.2,6,39z M94,39c-3.6,1.1-7.1,2.2-10.5,3.3c-0.6,0.2-0.8,0.4-0.8,1.1
			c0.1,3.4,0.2,6.7,0.2,10.1c0,1.3-0.1,2.6-0.2,4c3.8,1.2,7.5,2.3,11.4,3.5C95.8,53.6,95.8,46.4,94,39z M82.4,38.6
			c3.5-1.1,7-2.2,10.5-3.3c-1.5-4.3-3.5-8.2-6-11.7c-1.9,1.9-3.8,3.7-5.7,5.5c-0.2,0.2-0.3,0.5-0.2,0.7
			C81.4,32.7,81.9,35.6,82.4,38.6z M92.9,64.7c-3.6-1.1-7.1-2.2-10.6-3.3c-0.3,2.4-0.5,4.7-1.1,6.9c-0.5,1.8,0,2.9,1.3,4
			c1.5,1.3,2.9,2.7,4.3,4.1C89.5,72.8,91.5,68.9,92.9,64.7z M13,23.7c-2.5,3.5-4.6,7.4-6,11.6c3.6,1.1,7.1,2.2,10.5,3.2
			c0.5-3,0.9-5.9,1.4-8.7c0-0.2,0-0.5-0.2-0.6C16.9,27.4,15,25.6,13,23.7z M17.6,61.4c-3.5,1.1-7,2.2-10.5,3.3
			c1.5,4.3,3.5,8.1,6,11.6c1.9-1.9,3.8-3.7,5.7-5.5c0.2-0.1,0.3-0.5,0.2-0.7C18.5,67.3,18.1,64.4,17.6,61.4z"/>
		<path class="st0" d="M53.1,100h-6.2c-0.1,0-0.1,0-0.2,0c-0.1,0-0.2,0-0.3-0.1c-0.1,0-0.2-0.1-0.4-0.1C36,99,26.9,95.5,19.1,89.3
			C9.2,81.3,3,71,0.8,58.5c-0.2-1.2-0.4-2.5-0.5-3.7c-0.1-0.6-0.1-1.1-0.2-1.7c0,0,0-0.1,0-0.1v-6.2c0,0,0-0.1,0-0.1
			c0.1-0.5,0.1-1,0.2-1.6c0.1-1.1,0.3-2.3,0.5-3.4C2.4,31.5,7.1,22.4,14.4,15C21.9,7.4,31,2.6,41.4,0.8c1.2-0.2,2.5-0.4,3.7-0.5
			c0.6-0.1,1.1-0.1,1.7-0.2c0,0,0.1,0,0.1,0h6.2c0,0,0.1,0,0.1,0c0.5,0.1,1.1,0.1,1.6,0.2c1.1,0.1,2.3,0.3,3.5,0.5
			C67.6,2.3,76,6.3,83,12.5c8.8,7.8,14.2,17.5,16.3,28.9c0.2,1.2,0.4,2.5,0.5,3.7c0.1,0.6,0.1,1.1,0.2,1.7c0,0,0,0.1,0,0.1v6.2
			c0,0.1,0,0.1,0,0.2c0,0.1,0,0.2-0.1,0.3c0,0.1-0.1,0.2-0.1,0.4C99.2,61.7,96.9,69,93,75.4c-7.9,13-19.5,21-34.4,23.8
			c-1.2,0.2-2.5,0.4-3.7,0.5c-0.6,0.1-1.1,0.1-1.7,0.2C53.1,100,53.1,100,53.1,100z M47,98.5h6c0.6-0.1,1.1-0.1,1.7-0.2
			c1.2-0.1,2.4-0.3,3.6-0.5C72.8,95,84,87.2,91.7,74.6c3.8-6.2,6-13.3,6.6-20.9c0-0.2,0.1-0.5,0.1-0.6c0,0,0-0.1,0-0.1v-6
			c-0.1-0.6-0.1-1.1-0.2-1.7c-0.2-1.2-0.3-2.5-0.5-3.7c-2-11.1-7.3-20.5-15.8-28c-6.8-6-14.9-9.9-24-11.4c-1.1-0.2-2.3-0.3-3.4-0.5
			c-0.5-0.1-1-0.1-1.6-0.2H47c-0.6,0.1-1.1,0.1-1.7,0.2c-1.2,0.2-2.5,0.3-3.7,0.5C31.5,4.1,22.7,8.7,15.5,16
			C8.4,23.3,3.9,32,2.2,42.1c-0.2,1.1-0.3,2.2-0.5,3.3c-0.1,0.5-0.1,1-0.2,1.5V53c0.1,0.5,0.1,1.1,0.2,1.6c0.1,1.2,0.3,2.4,0.5,3.6
			c2.2,12.1,8.2,22.1,17.8,29.8c7.6,6,16.4,9.5,26.2,10.2c0.2,0,0.5,0.1,0.6,0.1C46.9,98.4,47,98.5,47,98.5z M50,96.2
			c-4,0-8-0.5-12.1-1.6c-0.2-0.1-0.4-0.2-0.5-0.4c-0.1-0.2-0.1-0.4-0.1-0.6l3.7-13.7c0.1-0.4,0.2-0.8,0.3-1.2
			c0.2-0.8,0.5-1.6,0.7-2.4c0.2-0.9,0.7-1.3,1.7-1.3c4.2,0,8.3,0,12.6,0c0.4,0,1.3,0,1.6,1.2c1.2,4.5,2.4,8.9,3.7,13.4l1.1,4
			c0.1,0.2,0,0.4-0.1,0.6c-0.1,0.2-0.3,0.3-0.5,0.4C58,95.6,54,96.2,50,96.2z M39,93.2c7.4,1.9,14.6,1.9,22,0L60.1,90
			c-1.2-4.5-2.5-9-3.7-13.5c0,0,0,0,0,0c0,0-0.1,0-0.1,0c-4.2,0-8.4,0-12.6,0c-0.1,0-0.1,0-0.1,0c0,0,0,0.1,0,0.1
			c-0.2,0.8-0.4,1.6-0.7,2.5c-0.1,0.4-0.2,0.8-0.3,1.2L39,93.2z M43.5,76.6L43.5,76.6L43.5,76.6z M65.6,93.4c-0.1,0-0.2,0-0.3-0.1
			c-0.2-0.1-0.3-0.3-0.4-0.5l-4.7-17c-0.1-0.2,0-0.4,0.1-0.6c0.1-0.2,0.3-0.3,0.6-0.3c0.8-0.1,1.5-0.2,2.2-0.2
			c1.7-0.2,3.3-0.3,4.9-0.6c1.8-0.2,3.5-0.5,5.3-0.8c1.4-0.2,2.8-0.4,4.2-0.6c0.5-0.1,1.2,0,1.6,0.5c1.5,1.5,3.1,2.9,4.6,4.4
			l1.4,1.4c0.3,0.3,0.3,0.7,0,1.1c-5.4,6.2-11.7,10.6-19.2,13.4C65.8,93.4,65.7,93.4,65.6,93.4z M61.9,76.3l4.2,15.3
			c6.8-2.7,12.5-6.7,17.4-12.2l-0.9-0.8c-1.5-1.5-3-3-4.6-4.4c0,0-0.2-0.1-0.4-0.1c-1.4,0.2-2.8,0.4-4.2,0.6
			c-1.8,0.3-3.6,0.6-5.3,0.8c-1.6,0.2-3.2,0.4-4.9,0.6C62.8,76.2,62.4,76.2,61.9,76.3z M34.4,93.4c-0.1,0-0.2,0-0.3,0
			c-7.5-2.8-13.8-7.2-19.3-13.4c-0.3-0.3-0.2-0.8,0-1.1l1.3-1.3c1.6-1.5,3.2-3.1,4.8-4.6c0.3-0.3,0.9-0.5,1.3-0.4
			c5.1,0.7,10.3,1.4,15.4,2.1l1.2,0.2c0.2,0,0.3,0.1,0.4,0.2l0.1,0.1c0.3,0.2,0.4,0.5,0.3,0.9l-4.6,16.9c-0.1,0.2-0.2,0.4-0.4,0.5
			C34.6,93.3,34.5,93.4,34.4,93.4z M16.5,79.4c5,5.5,10.7,9.5,17.4,12.2l4.2-15.3l-0.6-0.1c-5.1-0.7-10.3-1.4-15.4-2.1
			c0,0-0.1,0-0.1,0c-1.6,1.5-3.1,3-4.7,4.5L16.5,79.4z M86.9,77.1c-0.2,0-0.4-0.1-0.5-0.2c-0.4-0.4-0.9-0.9-1.3-1.3
			c-1-1-1.9-1.9-3-2.8c-1.6-1.4-2.1-2.8-1.5-4.7c0.4-1.5,0.6-3,0.8-4.7c0.1-0.7,0.2-1.4,0.3-2.1c0-0.2,0.2-0.4,0.4-0.5
			c0.2-0.1,0.4-0.2,0.6-0.1l10.6,3.3c0.2,0.1,0.4,0.2,0.5,0.4c0.1,0.2,0.1,0.4,0,0.6c-1.5,4.3-3.5,8.2-6.1,11.9
			C87.4,77,87.2,77.1,86.9,77.1C86.9,77.1,86.9,77.1,86.9,77.1z M83,62.4c-0.1,0.4-0.1,0.8-0.2,1.2c-0.2,1.6-0.4,3.3-0.8,4.9
			c-0.4,1.4-0.1,2.2,1.1,3.2c1.1,0.9,2.1,1.9,3,2.9c0.2,0.2,0.4,0.4,0.7,0.6c2.2-3.1,3.8-6.4,5.2-10L83,62.4z M13.1,77.1
			C13,77.1,13,77.1,13.1,77.1c-0.3,0-0.5-0.1-0.6-0.3c-2.6-3.6-4.6-7.5-6.1-11.8c-0.1-0.2-0.1-0.4,0-0.6s0.3-0.3,0.5-0.4l10.5-3.3
			c0.2-0.1,0.4,0,0.6,0.1c0.2,0.1,0.3,0.3,0.4,0.5l0.3,1.7c0.4,2.4,0.8,4.7,1.1,7c0.1,0.5-0.1,1-0.4,1.3c-1.5,1.4-3,2.9-4.5,4.3
			l-1.2,1.2C13.4,77,13.3,77.1,13.1,77.1z M8.1,65.2c1.3,3.6,3,6.9,5.1,10l0.6-0.6c1.5-1.4,3-2.9,4.5-4.3c0,0,0,0,0,0
			c-0.4-2.3-0.7-4.6-1.1-6.9L17,62.4L8.1,65.2z M50,72.9c-5.6,0-11.3-0.3-16.9-1c-2.5-0.3-5.1-0.7-7.6-1.1c-0.7-0.1-1.5-0.3-2.2-0.4
			c-0.5-0.1-1.2-0.5-1.3-1.2c-0.4-2.5-0.7-5-1.1-7.5l-0.2-1.2c0-0.3,0.1-0.4,0.1-0.6l0.1-0.1c0.1-0.3,0.4-0.5,0.8-0.5
			c18.7,1.4,37.8,1.4,56.8,0c0.2,0,0.5,0.1,0.6,0.2c0.2,0.2,0.2,0.4,0.2,0.6c-0.1,0.5-0.1,1-0.2,1.4c-0.1,1-0.2,2-0.4,3
			c-0.1,0.7-0.2,1.4-0.3,2c-0.1,0.7-0.2,1.4-0.3,2.1c-0.1,0.9-0.6,1.4-1.5,1.6c-6.2,1.2-12.7,1.9-19.4,2.3
			C54.9,72.8,52.4,72.9,50,72.9z M23.5,68.8C23.5,68.8,23.5,68.8,23.5,68.8c0.8,0.2,1.5,0.3,2.3,0.4c2.5,0.4,5,0.8,7.5,1.1
			c8,1,16.1,1.2,23.9,0.8c6.6-0.3,13-1.1,19.2-2.3c0.1,0,0.2,0,0.2-0.1c0,0,0-0.1,0-0.2c0.1-0.7,0.2-1.5,0.4-2.2
			c0.1-0.7,0.2-1.3,0.3-2c0.1-1,0.2-2,0.4-3c0-0.2,0-0.3,0.1-0.5c-18.5,1.3-37.1,1.3-55.3,0l0.1,0.5C22.8,63.9,23.1,66.4,23.5,68.8z
			 M6,61.7c-0.1,0-0.3,0-0.4-0.1c-0.2-0.1-0.3-0.3-0.4-0.5c-1.8-7.5-1.8-14.8,0-22.3c0.1-0.2,0.2-0.4,0.4-0.5
			c0.2-0.1,0.4-0.1,0.6-0.1l11.2,3.5c0.3,0.1,0.5,0.4,0.5,0.7v15c0,0.3-0.2,0.6-0.5,0.7L6.2,61.7C6.1,61.7,6,61.7,6,61.7z M6.5,40
			C5,46.7,5,53.3,6.5,60l9.9-3.1V43.1L6.5,40z M94,61.7c-0.1,0-0.2,0-0.2,0l-11.4-3.5c-0.3-0.1-0.6-0.4-0.5-0.8c0-0.4,0-0.9,0.1-1.3
			c0.1-0.9,0.1-1.8,0.1-2.7c0-3.4-0.1-6.8-0.2-10.1c0-1,0.4-1.6,1.4-1.9c2.6-0.8,5.2-1.6,7.8-2.4l2.7-0.8c0.2-0.1,0.4,0,0.6,0.1
			c0.2,0.1,0.3,0.3,0.4,0.5c1.8,7.5,1.8,14.8,0,22.3c-0.1,0.2-0.2,0.4-0.4,0.5C94.3,61.7,94.2,61.7,94,61.7z M83.5,56.9l10,3.1
			c1.5-6.7,1.5-13.3,0-20l-1.9,0.6c-2.6,0.8-5.2,1.6-7.8,2.4c-0.2,0.1-0.2,0.1-0.3,0.1c0,0,0,0.1,0,0.3c0.1,3.3,0.2,6.7,0.2,10.1
			c0,0.9-0.1,1.9-0.1,2.8C83.5,56.5,83.5,56.7,83.5,56.9z M50.1,58.1c-9.7,0-19.4-0.4-29-1.1c-0.4,0-0.7-0.4-0.7-0.8V43.8
			c0-0.4,0.3-0.7,0.7-0.8l4.6-0.3c0.5,0,0.9-0.1,1.4-0.1c0.7-0.1,1.1-0.6,1.1-1.2c-0.1-0.7-0.6-1.1-1.3-1c-1,0.1-2,0.1-3,0.2
			l-1.6,0.1c-0.1,0-0.2,0-0.4,0l-0.3,0c-0.2,0-0.4-0.1-0.6-0.3c-0.1-0.2-0.2-0.4-0.2-0.6c0.1-0.5,0.1-0.9,0.2-1.4
			c0.1-1,0.2-2,0.4-3.1c0.2-1.6,0.5-3,0.7-4.3c0.1-0.5,0.7-1.2,1.3-1.4c12.4-2.4,24.6-3.1,36.3-2.2c3.8,0.3,7.6,0.8,11.2,1.3
			c1.9,0.3,3.8,0.5,5.8,0.8c1.2,0.2,1.5,1,1.6,1.6c0.2,1.5,0.4,3,0.7,4.5c0.1,0.9,0.3,1.8,0.4,2.7c0,0.3,0.1,0.6,0.1,0.9
			c0,0.1,0,0.3,0,0.5c0,0.2-0.1,0.4-0.2,0.6s-0.4,0.2-0.6,0.2l-0.9-0.1c-0.6,0-1.2-0.1-1.7-0.1c-10.2-0.7-20.8-1-31.4-0.8
			c-0.5,0-0.9,0.1-1.1,0.4c-0.2,0.2-0.3,0.5-0.3,0.8c0,1,1.1,1.1,1.4,1.1c2,0,4,0,6,0c4.4,0,8.9,0.1,13.4,0.2
			c3.4,0.1,6.8,0.3,10.1,0.5c1.4,0.1,2.9,0.2,4.3,0.3c0.2,0,0.3,0,0.5,0.1c0.1,0,0.2,0,0.3,0.1c0.4,0.1,0.6,0.4,0.6,0.8v12.4
			c0,0.4-0.3,0.7-0.7,0.8C69.4,57.8,59.7,58.1,50.1,58.1z M21.9,55.5c18.8,1.4,37.7,1.4,56.3,0V44.5c-1.4-0.1-2.8-0.2-4.3-0.3
			c-3.3-0.2-6.7-0.4-10.1-0.5c-4.4-0.1-9-0.2-13.3-0.2c-2,0-4,0-6,0c-1.7,0-2.9-1.1-3-2.6c0-0.7,0.2-1.4,0.7-1.9
			c0.5-0.5,1.3-0.8,2.2-0.9c10.6-0.1,21.2,0.1,31.5,0.8c0.6,0,1.1,0.1,1.7,0.1l0.1,0c0-0.1,0-0.3,0-0.4c-0.1-0.9-0.3-1.8-0.4-2.7
			c-0.2-1.5-0.5-3-0.7-4.5c0-0.2-0.1-0.2-0.1-0.3c0,0-0.1,0-0.2,0c-1.9-0.2-3.8-0.5-5.8-0.8c-3.7-0.5-7.4-1-11.2-1.3
			c-11.6-0.9-23.6-0.2-35.8,2.1c0,0-0.1,0.1-0.1,0.2c-0.3,1.2-0.5,2.6-0.7,4.2c-0.1,1-0.2,2-0.4,3c0,0.2,0,0.3-0.1,0.5l1.3-0.1
			c1-0.1,2-0.1,3.1-0.2c1.5-0.1,2.8,1,3,2.4c0.1,1.5-0.9,2.7-2.4,2.9c-0.5,0.1-1,0.1-1.5,0.1l-3.8,0.3V55.5z M82.4,39.4
			c-0.1,0-0.3,0-0.4-0.1c-0.2-0.1-0.3-0.3-0.4-0.5L81.4,37c-0.4-2.4-0.8-4.7-1.1-7c-0.1-0.5,0.1-1,0.4-1.3c1.4-1.4,2.9-2.8,4.3-4.2
			l1.4-1.3c0.2-0.2,0.4-0.2,0.6-0.2c0.2,0,0.4,0.1,0.6,0.3c2.6,3.5,4.6,7.5,6.1,11.9c0.1,0.2,0.1,0.4,0,0.6
			c-0.1,0.2-0.3,0.3-0.5,0.4l-10.5,3.2C82.6,39.3,82.5,39.4,82.4,39.4z M82.2,37.9l0.2,0.7L82.2,37.9z M81.8,29.7
			C81.8,29.7,81.8,29.8,81.8,29.7c0.3,2.3,0.7,4.6,1.1,7l0.1,0.8l8.9-2.8c-1.3-3.6-3.1-7-5.1-10l-0.7,0.7
			C84.6,26.9,83.2,28.3,81.8,29.7C81.8,29.7,81.8,29.7,81.8,29.7z M17.6,39.4c-0.1,0-0.2,0-0.2,0L6.8,36.1c-0.2-0.1-0.4-0.2-0.5-0.4
			c-0.1-0.2-0.1-0.4,0-0.6C7.7,31,9.8,27,12.4,23.2c0.1-0.2,0.3-0.3,0.6-0.3c0.2,0,0.4,0.1,0.6,0.2l1.1,1.1c1.6,1.5,3.1,3,4.6,4.5
			c0.4,0.3,0.5,0.9,0.4,1.3c-0.4,2.4-0.7,4.7-1.1,7.2l-0.3,1.6c0,0.2-0.2,0.4-0.4,0.5C17.9,39.3,17.7,39.4,17.6,39.4z M8.1,34.8
			l8.9,2.8l0.1-0.7c0.4-2.4,0.8-4.8,1.1-7.1c-1.5-1.5-3-2.9-4.6-4.4l-0.5-0.5C11,28,9.3,31.4,8.1,34.8z M18.2,29.7
			C18.2,29.7,18.2,29.7,18.2,29.7C18.2,29.7,18.2,29.7,18.2,29.7z M77.9,27.5c-0.1,0-0.1,0-0.2,0c-5-0.7-9.9-1.3-14.9-2L61,25.2
			c-0.2,0-0.3-0.1-0.4-0.2L60.5,25c-0.3-0.2-0.4-0.5-0.3-0.9l4.6-16.9c0.1-0.2,0.2-0.4,0.4-0.5c0.2-0.1,0.4-0.1,0.6,0
			c7.5,2.8,13.8,7.2,19.3,13.4c0.3,0.3,0.2,0.8,0,1.1l-1.3,1.2C82.2,24,80.6,25.5,79,27C78.7,27.3,78.3,27.5,77.9,27.5z M61.9,23.8
			l1.1,0.1c5,0.7,9.9,1.4,14.9,2l0,0c0,0,0.1,0,0.1,0c1.6-1.5,3.2-3.1,4.8-4.6l0.7-0.7C78.5,15,72.8,11,66.1,8.4L61.9,23.8z
			 M61.2,23.7L61.2,23.7C61.2,23.7,61.2,23.7,61.2,23.7z M22.3,27.4c-0.5,0-1-0.1-1.3-0.5c-1.6-1.5-3.1-2.9-4.7-4.5l-1.3-1.3
			c-0.3-0.3-0.3-0.7,0-1.1c5.3-6.2,11.6-10.6,19.3-13.4c0.2-0.1,0.4-0.1,0.6,0c0.2,0.1,0.3,0.3,0.4,0.5l4.7,17
			c0.1,0.2,0,0.5-0.1,0.6c-0.1,0.2-0.3,0.3-0.6,0.3c-0.6,0.1-1.2,0.1-1.8,0.2c-1.3,0.1-2.5,0.2-3.7,0.4c-2,0.3-4,0.6-6,0.9
			c-1.7,0.3-3.4,0.5-5.1,0.8C22.5,27.4,22.4,27.4,22.3,27.4z M16.5,20.6l0.8,0.8c1.6,1.5,3.1,3,4.6,4.5c0,0,0.2,0.1,0.4,0
			c1.7-0.2,3.4-0.5,5.1-0.8c2-0.3,4-0.6,6-0.9c1.3-0.2,2.5-0.3,3.8-0.4c0.3,0,0.6-0.1,0.8-0.1L33.9,8.4
			C27.1,11.1,21.4,15.1,16.5,20.6z M56.1,25C56.1,25,56.1,25,56.1,25c-3.5,0-7.1,0-10.5,0l-1.8,0c-0.4,0-1.4,0-1.7-1.2
			c-1.1-4.2-2.3-8.4-3.5-12.7l-1.2-4.5c-0.1-0.2,0-0.3,0-0.4l0-0.1c0-0.3,0.3-0.6,0.6-0.7c7.9-2.1,16.1-2.1,24.2,0
			c0.2,0.1,0.4,0.2,0.5,0.4c0.1,0.2,0.1,0.4,0.1,0.6L60,16.2c-0.7,2.4-1.4,4.9-2,7.4C57.7,24.8,56.9,25,56.1,25z M43.6,23.5
			L43.6,23.5L43.6,23.5z M50.2,23.4c2,0,3.9,0,5.9,0c0.3,0,0.3,0,0.4,0c0,0,0-0.1,0.1-0.2c0.6-2.5,1.3-5,2-7.4l2.5-9
			c-7.5-1.8-14.7-1.8-22,0l1.1,3.9c1.2,4.2,2.3,8.4,3.5,12.7c0,0,0,0,0,0c0.1,0,0.1,0,0.2,0l1.8,0C47.1,23.4,48.7,23.4,50.2,23.4z"
			/>
	</g>
	<g>
		<path class="st0" d="M35.6,42.9c-1.1,0-2-0.8-2-1.9c0-1,0.8-1.9,1.9-1.9c1,0,2,0.9,2,1.9C37.5,42,36.6,42.9,35.6,42.9z"/>
		<path class="st0" d="M35.6,43.7c-0.7,0-1.4-0.3-1.9-0.8c-0.5-0.5-0.8-1.2-0.8-1.9c0-1.4,1.2-2.7,2.6-2.7c0.7,0,1.4,0.3,1.9,0.8
			c0.5,0.5,0.8,1.2,0.8,1.9C38.3,42.4,37.1,43.6,35.6,43.7L35.6,43.7C35.6,43.7,35.6,43.7,35.6,43.7z M35.6,39.8
			C35.6,39.8,35.5,39.8,35.6,39.8c-0.6,0-1.1,0.5-1.1,1.2c0,0.3,0.1,0.6,0.3,0.8c0.2,0.2,0.5,0.3,0.8,0.3c0,0,0,0,0,0
			c0.6,0,1.1-0.5,1.1-1.1c0-0.3-0.1-0.6-0.4-0.8C36.1,40,35.8,39.8,35.6,39.8z"/>
	</g>
</g>
</svg>
