<?xml version="1.0" encoding="utf-8"?>
<!-- Generator: Adobe Illustrator 24.3.0, SVG Export Plug-In . SVG Version: 6.00 Build 0)  -->
<svg version="1.1" id="_x36__x5F_AmericanFootball" xmlns="http://www.w3.org/2000/svg" xmlns:xlink="http://www.w3.org/1999/xlink"
	 x="0px" y="0px" viewBox="0 0 100 100" style="enable-background:new 0 0 100 100;" xml:space="preserve">
<style type="text/css">
	.st0{fill:#596079;stroke:#596079;stroke-width:3;stroke-linecap:round;stroke-linejoin:round;stroke-miterlimit:10;}
</style>
<g id="_x36__x5F_AmericanFootball_1_">
	<path class="st0" d="M0,78.9c0.1-1.4,0.3-2.9,0.4-4.3c1.5-17.4,6.9-33.2,18.2-46.8C27.9,16.6,39.6,9,53.4,4.5
		C64.1,1,75.2-0.3,86.4,0c7.3,0.2,13.3,6.1,13.5,13.5c0.4,14.9-1.9,29.4-8.4,43c-9.1,18.8-23.6,31.5-43.2,38.4
		c-8.4,3-17.2,4.5-26.1,4.9c-0.4,0-0.8,0.1-1.1,0.2c-2.7,0-5.5,0-8.2,0c-0.2-0.1-0.4-0.1-0.7-0.2c-6-1-9.9-4.5-11.7-10.3
		c-0.2-0.7-0.4-1.5-0.5-2.3C0,84.5,0,81.7,0,78.9z M57.5,6.3c1.2,1.2,2.2,2.1,3.2,3.1c0.8,0.8,0.9,1.7,0.2,2.3
		c-0.6,0.6-1.5,0.6-2.3-0.2c-1.2-1.2-2.4-2.4-3.6-3.6c-0.4-0.5-0.8-0.6-1.4-0.3c-22.7,7.9-38,23.1-46,45.8c-0.3,0.8-0.1,1.3,0.5,1.9
		c12.3,12.2,24.5,24.5,36.7,36.7c0.6,0.6,1.1,0.7,1.9,0.4c22.5-8,37.7-23.2,45.6-45.7c0.3-0.8,0.1-1.2-0.4-1.8
		c-9.4-9.3-18.7-18.7-28.1-28.1c-1.1-1.1-1.2-1.9-0.6-2.6c0.7-0.8,1.5-0.6,2.7,0.5c9,9,17.9,17.9,26.9,26.9c0.3,0.3,0.5,0.5,0.9,0.9
		c0.4-1.9,0.8-3.5,1.2-5.2c0.2-0.6,0-0.9-0.4-1.4c-3-2.9-5.9-5.9-8.9-8.9c-7.2-7.2-14.3-14.3-21.5-21.5c-0.3-0.3-0.7-0.6-1-0.5
		C61.3,5.4,59.5,5.8,57.5,6.3z M67.3,4.2c9.5,9.5,19,19,28.4,28.5c0-0.1,0.1-0.2,0.1-0.4c0.9-5.9,1.3-11.8,1.2-17.7
		C97,7.9,92.2,3,85.6,3c-3.9,0-7.8,0.2-11.7,0.4C71.7,3.5,69.5,3.9,67.3,4.2z M32.6,95.8c-9.5-9.5-18.9-18.9-28.4-28.4
		c0,0-0.1,0.2-0.1,0.4c-0.9,5.8-1.2,11.7-1.2,17.6C3,92.2,7.8,97.1,14.5,97c4.5,0,8.9-0.3,13.3-0.6C29.5,96.3,31.1,96,32.6,95.8z
		 M42.1,93.8c-12-12-24-24-35.9-35.9c-0.4,1.6-0.8,3.3-1.2,5.1c-0.1,0.3,0.1,0.8,0.3,1c0.8,0.9,1.7,1.8,2.6,2.6
		c9.3,9.3,18.6,18.6,27.9,27.9c0.5,0.5,0.9,0.6,1.5,0.5C39,94.5,40.6,94.1,42.1,93.8z"/>
	<path class="st0" d="M36.4,61.5c-1.1-1-2.1-2-3.1-3c-0.9-0.9-0.9-1.7-0.2-2.4c0.6-0.6,1.5-0.5,2.3,0.3c1,1,1.9,2,2.9,3
		c1.3-1.3,2.5-2.5,3.7-3.8c-1-1-2.1-2-3.1-3c-0.8-0.8-0.7-2,0.3-2.4c0.7-0.3,1.3-0.1,1.8,0.4c1,1,2,2.1,3,3.1
		c1.3-1.3,2.5-2.5,3.9-3.8c-1.1-1-2.2-2-3.2-3.1c-0.3-0.4-0.5-1.1-0.4-1.6c0.1-0.4,0.7-0.9,1.1-0.9c0.5-0.1,1.1,0.2,1.4,0.5
		c1.1,1,2,2,2.9,3c1.3-1.3,2.5-2.5,3.8-3.8c-0.8-0.8-1.8-1.8-2.8-2.7c-0.9-0.9-1-1.8-0.3-2.4c0.7-0.7,1.5-0.5,2.4,0.4
		c0.9,0.9,1.9,1.9,2.7,2.8c1.3-1.3,2.5-2.5,3.8-3.8c-0.9-0.9-2-1.9-2.9-2.8c-0.8-0.8-0.9-1.7-0.3-2.3c0.7-0.7,1.5-0.6,2.4,0.3
		c1,1,1.9,2,2.9,3.1c1.7-1.7,3.2-3.2,4.7-4.7c0.8-0.8,1.9-0.7,2.4,0.1c0.4,0.7,0.2,1.4-0.3,1.9c-1.3,1.3-2.6,2.6-3.9,3.9
		c-0.2,0.2-0.4,0.5-0.8,0.8c1,1,2.1,2,3,2.9c0.9,0.9,0.9,1.7,0.2,2.4c-0.6,0.6-1.5,0.5-2.3-0.3c-1-1-1.9-2-2.9-3
		c-1.3,1.3-2.5,2.5-3.8,3.8c0.8,0.8,1.7,1.7,2.6,2.5c0.3,0.3,0.5,0.5,0.7,0.8c0.5,0.7,0.4,1.4-0.2,1.9c-0.6,0.6-1.3,0.5-1.9,0
		c-0.9-0.8-1.7-1.6-2.5-2.5c-0.3-0.3-0.4-0.6-0.6-0.9c-1.4,1.4-2.6,2.6-3.9,3.9c1.1,1,2.2,2,3.2,3.1C56,54,56,55,55.1,55.5
		c-0.7,0.4-1.4,0.3-1.9-0.3c-1-1-2-2.1-3-3.1c-1.3,1.3-2.5,2.5-3.8,3.8c0.9,0.8,1.8,1.8,2.8,2.7c0.9,0.9,1,1.8,0.3,2.4
		c-0.7,0.6-1.5,0.5-2.4-0.3c-1-1-1.9-1.9-2.8-2.9c-1.3,1.3-2.4,2.5-3.8,3.8c0.8,0.8,1.8,1.7,2.7,2.7c0.3,0.3,0.5,0.5,0.7,0.8
		c0.4,0.7,0.3,1.3-0.4,1.8c-0.6,0.5-1.3,0.5-1.9-0.1c-0.9-0.8-1.7-1.6-2.5-2.5c-0.3-0.3-0.4-0.6-0.7-1.1c-1.8,1.8-3.3,3.3-4.8,4.9
		c-0.5,0.5-1.2,0.7-1.9,0.3c-0.6-0.4-0.8-1-0.6-1.7c0.1-0.3,0.4-0.6,0.6-0.9C33.4,64.6,34.8,63.1,36.4,61.5z"/>
</g>
</svg>
