<?xml version="1.0" encoding="utf-8"?>
<!-- Generator: Adobe Illustrator 24.3.0, SVG Export Plug-In . SVG Version: 6.00 Build 0)  -->
<svg version="1.1" id="_x37_0_x5F_Hurling_1_" xmlns="http://www.w3.org/2000/svg" xmlns:xlink="http://www.w3.org/1999/xlink"
	 x="0px" y="0px" viewBox="0 0 100 100" style="enable-background:new 0 0 100 100;" xml:space="preserve">
<style type="text/css">
	.st0{fill:#596079;}
</style>
<g id="_x37_0_x5F_Hurling">
	<path class="st0" d="M0.8,76.5c0.2-0.6,0.3-1.2,0.5-1.7c1.7-4.9,5.3-7.6,10.3-8.2c6.4-0.7,12-3.1,17.3-6.6
		c6.1-4.1,11.5-9,16.7-14.1c8-7.8,15.9-15.6,23.9-23.4c0.5-0.5,1.3-0.9,1.9-0.9c0.6,0,1.2,0.6,1.6,1.1c0.5,0.7,0.2,1.5-0.4,2.1
		c-0.9,1-1.9,1.9-2.8,2.8c1.1,1.1,2.2,2.1,3.4,3.3c0.3-0.4,0.6-0.8,0.9-1.1c5-5.2,10-10.4,14.9-15.6c0.9-0.9,1.7-1.2,2.9-0.7
		c0.5,0.2,1,0.3,1.6,0.5c0.6,0.1,1.2,0.2,1.6-0.4c0.5-0.7,0.6-1.5,0.1-2.1C94,10.2,92.8,9.1,91.6,8c-0.7-0.6-1.7-0.3-2.4,0.4
		c-1.4,1.4-2.8,2.7-4.2,4.1c-0.6,0.6-1.4,0.9-2.2,0.6c-1.2-0.4-1.7-2-0.8-3c1.7-1.7,3.3-3.5,5.2-5c2.1-1.8,5.2-1.6,7.2,0.2
		c1.2,1.1,2.4,2.2,3.4,3.4c0.6,0.8,1,1.8,1.4,2.8c0,0.6,0,1.3,0,1.9c-0.1,0.1-0.1,0.3-0.2,0.4c-1,3.2-3.4,4.7-6.6,3.8
		c-0.9-0.2-1.4-0.1-2.1,0.6C75.8,33.5,61.1,48.7,46.5,63.9c-3.1,3.2-5.4,6.9-7.3,10.8c-2,4.2-4.1,8.5-6.2,12.7
		c-1.6,3.3-3.9,6.1-7.4,7.6c-3.9,1.7-7.9,1.3-11.7-0.3C8.1,92.2,3.8,88.1,1.5,82.1c-0.3-0.8-0.5-1.7-0.7-2.6
		C0.8,78.5,0.8,77.5,0.8,76.5z M40.2,56.2c-2.5,1.9-5,4-7.7,5.9c-6.2,4.4-12.9,7.6-20.6,8.3c-3.8,0.3-6.6,3-7.2,6.5
		c-0.4,2.1,0.2,4.1,1.2,5.9c2,3.6,4.9,6.3,8.7,8.1c6.5,3.1,11.8,1.3,15-5.1c1.7-3.4,3.4-6.9,5-10.3c2-4.1,4-8.1,6.9-11.6
		c1-1.2,2-2.3,3-3.4C43.1,59,41.7,57.6,40.2,56.2z M66.7,30.4c-7.8,7.6-15.6,15.3-23.3,22.8c1.4,1.4,2.7,2.7,4.1,4.1
		c7.5-7.8,15.1-15.7,22.6-23.6C68.9,32.6,67.9,31.6,66.7,30.4z M26,46.8c-6.5-0.1-11.5-5.3-11.4-11.8c0.1-6.1,5.4-11.2,11.6-11.2
		c6.5,0.1,11.6,5.3,11.5,11.8C37.6,41.8,32.3,46.9,26,46.8z M18.5,36.5c0.7,3.1,2.4,5.2,5.2,6.1c3,1,5.8,0.3,8-2
		c1.6-1.7,2.3-3.7,2.1-6.2c-1.8,1.6-3.6,2.2-5.7,2.3c-1.9,0.1-3.9-0.1-5.8-0.1C21.1,36.5,19.9,36.5,18.5,36.5z M19,32.8
		c2.1,0,4.2,0,6.3,0c1.3,0,2.6-0.1,3.9-0.2c1-0.1,1.8-0.7,2.3-1.6c0.3-0.6,0.3-1-0.3-1.4c-1.5-1.2-3.1-1.8-5-1.9
		C23,27.6,19.8,29.8,19,32.8z M75.4,17.4c0,1,0.9,1.9,1.9,1.9c1,0,2-0.9,2-1.9c0-1-0.8-1.9-1.9-1.9C76.2,15.4,75.4,16.3,75.4,17.4z"
		/>
	<path class="st0" d="M20.3,96.9c-2.2,0-4.4-0.5-6.7-1.5C7.3,92.7,3,88.3,0.8,82.4c-0.2-0.6-0.4-1.2-0.5-1.8C0.2,80.3,0.1,80,0,79.7
		c0-0.1,0-0.1,0-0.2v-3.1c0-0.1,0-0.1,0-0.2c0.1-0.2,0.1-0.4,0.1-0.5c0.1-0.4,0.2-0.8,0.4-1.2c1.7-5.1,5.5-8.1,10.9-8.7
		c5.7-0.6,11.3-2.7,16.9-6.5c6.2-4.1,11.6-9.2,16.6-14l2.3-2.2c7.1-6.9,14.4-14.1,21.6-21.1c0.5-0.5,1.5-1.2,2.4-1.1
		c1,0,1.8,0.9,2.2,1.5c0.6,0.9,0.5,2.1-0.5,3.1c-0.7,0.7-1.3,1.4-2,2l-0.3,0.3l2.2,2.2c0.1-0.2,0.3-0.3,0.4-0.5
		c1.7-1.8,3.5-3.6,5.2-5.4c3.3-3.4,6.5-6.8,9.7-10.2c1.2-1.2,2.4-1.5,3.8-0.9c0.4,0.2,1,0.3,1.4,0.4c0.7,0.2,0.7,0.1,0.8-0.1
		c0.1-0.2,0.5-0.8,0.2-1.1c-1.1-1.3-2.3-2.4-3.4-3.4c-0.4-0.3-1,0-1.4,0.4c-1.4,1.4-2.8,2.7-4.2,4.1c-0.9,0.9-1.9,1.1-3,0.7
		c-0.9-0.3-1.5-1-1.7-1.9c-0.2-0.9,0-1.7,0.6-2.4c1.8-1.9,3.4-3.5,5.2-5.1c2.3-2,5.9-1.9,8.3,0.2c1.1,1,2.4,2.1,3.5,3.5
		c0.5,0.6,0.8,1.4,1.1,2.1c0.1,0.3,0.2,0.6,0.4,0.9c0.1,0.1,0.1,0.2,0.1,0.3v1.9c0,0.1,0,0.2-0.1,0.3l-0.1,0.2
		c0,0.1-0.1,0.1-0.1,0.2c-1.1,3.7-3.9,5.3-7.6,4.4c-0.6-0.2-0.9-0.1-1.3,0.4C76.8,33.5,62.7,48.2,47.1,64.5
		c-2.7,2.8-5.1,6.3-7.2,10.7c-0.7,1.4-1.3,2.7-2,4.1c-1.4,2.9-2.8,5.7-4.2,8.6c-1.9,3.9-4.5,6.5-7.8,8
		C24.1,96.5,22.3,96.9,20.3,96.9z M1.5,79.4c0.1,0.2,0.1,0.5,0.2,0.7c0.1,0.6,0.3,1.1,0.5,1.7c2.1,5.5,6.1,9.6,12,12.2
		c4,1.7,7.6,1.8,11.1,0.3c3-1.3,5.2-3.6,7-7.2c1.4-2.8,2.8-5.7,4.2-8.5c0.7-1.4,1.3-2.7,2-4.1c2.2-4.5,4.6-8.1,7.4-11
		c15.6-16.3,29.7-30.9,43.8-45.7c0.8-0.9,1.6-1.1,2.8-0.8c2.8,0.7,4.8-0.4,5.7-3.3c0-0.1,0.1-0.3,0.2-0.4v-1.6
		c-0.1-0.3-0.2-0.5-0.3-0.8c-0.3-0.6-0.5-1.2-0.9-1.7c-1-1.3-2.2-2.4-3.3-3.3c-1.8-1.6-4.5-1.7-6.2-0.2c-1.7,1.5-3.3,3.1-5.1,5
		c-0.2,0.2-0.3,0.6-0.2,0.9c0.1,0.4,0.4,0.7,0.7,0.8c0.3,0.1,0.8,0.2,1.4-0.4c1.4-1.4,2.8-2.8,4.2-4.1c1.1-1.1,2.5-1.3,3.5-0.5
		c1.2,1.1,2.5,2.3,3.6,3.6c0.7,0.8,0.7,1.9-0.1,3c-0.8,1.1-2,0.8-2.5,0.7c-0.5-0.1-1.1-0.3-1.7-0.5c-0.8-0.3-1.3-0.2-2,0.6
		c-3.2,3.4-6.5,6.8-9.7,10.2c-1.7,1.8-3.5,3.6-5.2,5.4c-0.2,0.2-0.4,0.5-0.6,0.7c-0.1,0.1-0.2,0.2-0.3,0.4c-0.1,0.2-0.3,0.3-0.6,0.3
		c-0.2,0-0.4-0.1-0.6-0.2l-3.4-3.3c-0.1-0.1-0.2-0.3-0.2-0.5c0-0.2,0.1-0.4,0.2-0.5l0.8-0.8c0.7-0.6,1.3-1.3,2-2
		c0.3-0.3,0.6-0.7,0.3-1.1c-0.3-0.4-0.8-0.8-1-0.8c-0.3,0-0.9,0.3-1.3,0.7c-7.2,7-14.5,14.2-21.6,21.1L46,46.4
		c-5,4.9-10.5,10-16.8,14.2c-5.9,3.9-11.6,6.1-17.6,6.8C6.8,67.9,3.5,70.4,2,75c-0.1,0.4-0.2,0.8-0.3,1.1c0,0.2-0.1,0.3-0.1,0.5
		V79.4z M20.4,93.1c-1.9,0-4-0.5-6.2-1.6c-3.9-1.9-7-4.7-9-8.4C4,80.9,3.6,78.8,4,76.7c0.7-3.9,3.8-6.7,7.9-7.1
		c6.8-0.6,13.3-3.2,20.3-8.2c1.8-1.3,3.6-2.7,5.3-4c0.8-0.6,1.6-1.2,2.4-1.8c0.3-0.2,0.7-0.2,1,0.1l4.3,4.3c0.3,0.3,0.3,0.7,0,1.1
		c-0.3,0.3-0.6,0.7-0.9,1c-0.7,0.8-1.4,1.5-2.1,2.3c-2.8,3.4-4.8,7.3-6.8,11.4l-1.2,2.5c-1.2,2.6-2.5,5.2-3.8,7.8
		C28,90.7,24.6,93.1,20.4,93.1z M40.2,57.2c-0.6,0.5-1.2,0.9-1.8,1.4c-1.7,1.4-3.5,2.8-5.4,4.1c-7.2,5.1-13.9,7.8-21,8.5
		C8.6,71.5,6,73.8,5.5,77c-0.3,1.7,0.1,3.5,1.1,5.4c1.9,3.4,4.7,6.1,8.3,7.8c6.1,2.9,11,1.3,14-4.8c1.3-2.6,2.6-5.2,3.8-7.8l1.2-2.5
		c2-4.2,4-8.2,7-11.7c0.7-0.8,1.4-1.6,2.1-2.4c0.1-0.2,0.3-0.3,0.4-0.5L40.2,57.2z M47.5,58.2c-0.2,0-0.4-0.1-0.5-0.2l-4.1-4.1
		c-0.1-0.1-0.2-0.3-0.2-0.5c0-0.2,0.1-0.4,0.2-0.5l23.3-22.8c0.3-0.3,0.8-0.3,1.1,0l3.4,3.4c0.3,0.3,0.3,0.8,0,1.1L48,57.9
		C47.9,58.1,47.7,58.2,47.5,58.2C47.5,58.2,47.5,58.2,47.5,58.2z M44.5,53.3l3,3L69,33.8l-2.3-2.3L44.5,53.3z M26.2,47.6
		c-0.1,0-0.1,0-0.2,0c-3.3,0-6.4-1.4-8.7-3.7c-2.3-2.4-3.5-5.5-3.5-8.9c0.1-6.5,5.7-11.9,12.3-11.9c0,0,0.1,0,0.1,0
		c3.3,0,6.4,1.4,8.7,3.7c2.3,2.4,3.5,5.5,3.5,8.9C38.4,42.2,32.8,47.6,26.2,47.6z M26.1,24.6c-5.7,0-10.6,4.7-10.7,10.4
		c0,3,1,5.7,3,7.8c2,2.1,4.7,3.2,7.6,3.3c0,0,0,0,0,0c5.8,0.1,10.8-4.7,10.9-10.5c0-2.9-1-5.7-3.1-7.8c-2-2.1-4.7-3.2-7.6-3.2
		C26.2,24.6,26.1,24.6,26.1,24.6z M26.3,43.8c-0.9,0-1.9-0.2-2.8-0.5c-3.1-1-4.9-3.2-5.7-6.7c-0.1-0.2,0-0.5,0.1-0.7
		c0.1-0.2,0.4-0.3,0.6-0.3l1.3,0c0.9,0,1.7,0,2.5,0c0.7,0,1.4,0,2.1,0.1c1.2,0,2.5,0.1,3.8,0c2.1-0.1,3.7-0.7,5.2-2.1
		c0.2-0.2,0.5-0.3,0.8-0.1c0.3,0.1,0.5,0.4,0.5,0.7c0.2,2.8-0.5,5-2.3,6.8C30.6,42.9,28.5,43.8,26.3,43.8z M19.5,37.2
		c0.8,2.4,2.2,3.9,4.5,4.6c2.8,0.9,5.2,0.3,7.2-1.8c1.1-1.2,1.7-2.5,1.8-4.2c-1.4,0.9-3.1,1.4-4.9,1.5c-1.3,0-2.6,0-3.9,0
		c-0.7,0-1.4,0-2,0c-0.8,0-1.6,0-2.4,0L19.5,37.2z M22.8,33.6c-0.6,0-1.2,0-1.8,0l-1.9,0c-0.2,0-0.5-0.1-0.6-0.3
		c-0.1-0.2-0.2-0.4-0.1-0.7c0.8-3.2,4.3-5.7,7.9-5.7c2,0,3.9,0.7,5.5,2c0.8,0.6,0.9,1.4,0.5,2.3c-0.6,1.1-1.6,1.9-2.8,2
		c-1.4,0.2-2.8,0.2-4,0.2C24.5,33.5,23.6,33.6,22.8,33.6z M20.2,32l0.8,0c1.5,0,2.9,0,4.4,0c1.1,0,2.5-0.1,3.8-0.2
		c0.7-0.1,1.3-0.5,1.7-1.2c0.1-0.2,0.1-0.3,0.1-0.3l0,0c0,0,0-0.1-0.2-0.2c-1.4-1.1-2.9-1.7-4.5-1.7C23.7,28.4,21.2,29.9,20.2,32z
		 M77.3,20.1C77.3,20.1,77.3,20.1,77.3,20.1c-1.5,0-2.7-1.2-2.7-2.7l0,0c0-0.7,0.3-1.4,0.8-1.9c0.5-0.5,1.2-0.8,1.9-0.8
		c1.4,0,2.6,1.2,2.6,2.7c0,0.7-0.3,1.4-0.8,1.9C78.7,19.8,78,20.1,77.3,20.1z M76.2,17.4c0,0.6,0.5,1.1,1.1,1.1
		c0.3,0,0.6-0.1,0.8-0.3c0.2-0.2,0.4-0.5,0.4-0.8c0-0.6-0.5-1.1-1.1-1.1c-0.3,0-0.6,0.1-0.8,0.3C76.3,16.8,76.2,17.1,76.2,17.4
		L76.2,17.4z"/>
</g>
</svg>
