<?xml version="1.0" encoding="utf-8"?>
<!-- Generator: Adobe Illustrator 24.3.0, SVG Export Plug-In . SVG Version: 6.00 Build 0)  -->
<svg version="1.1" id="_x37_2_x5F_Surfing_1_" xmlns="http://www.w3.org/2000/svg" xmlns:xlink="http://www.w3.org/1999/xlink"
	 x="0px" y="0px" viewBox="0 0 100 100" style="enable-background:new 0 0 100 100;" xml:space="preserve">
<style type="text/css">
	.st0{fill:#596079;}
</style>
<g id="_x37_2_x5F_Surfing">
	<g>
		<path class="st0" d="M14.7,98.9c-2-0.7-2.6-2.3-2.6-4.2c0-1.6,0.2-3.3,0.4-4.9c0-0.2,0-0.3,0-0.5c0.1-1.6-0.1-1.8-1.8-1.7
			c-1.3,0.1-2.5,0.3-3.8,0.3c-0.9,0-1.9,0-2.8-0.1c-1.9-0.3-3.1-1.6-2.9-3.5c0.2-1.7,0.7-3.5,1.4-5.1c2.4-5.6,5.8-10.6,9.3-15.6
			C22.4,48.8,34,35,46.7,22.2c3.6-3.7,7.7-6.9,11.9-9.8c1-0.7,1.8-0.6,2.3,0.1c0.5,0.7,0.3,1.5-0.7,2.2c-7.1,4.8-13.1,10.7-18.8,17
			C34,39.9,26.8,48.4,20.2,57.2c-0.2,0.2-0.4,0.5-0.6,0.9c1,0.2,1.9,0.5,2.8,0.7c4.7,1.1,9.4,2.2,14.1,3.2c0.9,0.2,1.4,0.7,1.6,1.6
			c1.2,5.5,2.5,10.9,3.7,16.3c0,0.1,0.1,0.3,0.1,0.6c0.3-0.2,0.6-0.4,0.9-0.6c4.4-3.5,8.8-7,13.2-10.5c0.1-0.1,0.3-0.3,0.4-0.4
			c0.8-0.6,1.7-0.6,2.2,0.1c0.5,0.7,0.4,1.5-0.3,2.1c-1.2,1.1-2.5,2.1-3.7,3.1C46.8,80.5,39,86.6,30.6,91.9
			c-3.3,2.1-6.9,3.9-10.4,5.8c-1.1,0.6-2.4,0.8-3.6,1.2C15.9,98.9,15.3,98.9,14.7,98.9z M10.3,71.3c4.7,1.1,9.3,2.1,13.8,3.1
			c0.8,0.2,1.3,0.6,1.5,1.5c0.4,2,0.9,3.9,1.3,5.9c0.6,2.6,1.2,5.2,1.8,8c1.3-0.9,2.6-1.7,3.7-2.5c0.2-0.1,0.2-0.6,0.2-0.8
			c-1.1-5-2.3-10-3.4-15c-0.1-0.3-0.4-0.6-0.7-0.7c-1.3-0.3-2.5-0.6-3.8-0.9c-0.9-0.2-1.4-1-1.2-1.8c0.2-0.8,0.9-1.2,1.9-1
			c1.6,0.4,3.2,0.7,4.8,1.1c0.9,0.2,1.4,0.7,1.6,1.6c0.8,3.4,1.5,6.9,2.3,10.3c0.4,1.7,0.8,3.4,1.2,5.1c1.2-0.9,2.3-1.7,3.4-2.4
			c0.5-0.3,0.6-0.7,0.4-1.3c-1.3-5.4-2.5-10.8-3.7-16.2c-0.1-0.5-0.3-0.8-0.9-0.9c-5.5-1.2-10.9-2.5-16.4-3.7
			c-0.2-0.1-0.7-0.1-0.8,0.1c-0.9,1.2-1.8,2.5-2.8,3.8c1.7,0.4,3.3,0.8,4.9,1.2c0.8,0.2,1.3,0.9,1.1,1.6c-0.2,0.8-0.8,1.2-1.7,1.1
			c-0.3,0-0.5-0.1-0.7-0.1c-1.5-0.3-3.1-0.7-4.6-1c-0.3-0.1-0.7,0-0.9,0.2C11.9,68.7,11.1,69.9,10.3,71.3z M26.1,91.3
			c-1-4.6-2.1-9.1-3.1-13.6c-0.1-0.3-0.5-0.7-0.8-0.8c-2.7-0.7-5.5-1.3-8.3-1.9c-1.8-0.4-3.5-0.8-5.3-1.2c-0.5,0.8-1,1.5-1.3,2.3
			c-1.1,2.4-2.2,4.7-3.1,7.1c-0.6,1.5-0.2,1.8,1.4,1.8c1.5-0.1,3-0.3,4.6-0.4c4-0.3,5.4,1.2,5.1,5.1c-0.1,1.6-0.3,3.2-0.4,4.8
			c0,1.3,0.2,1.5,1.5,1.2C20,95,23,93.1,26.1,91.3z"/>
		<path class="st0" d="M16.6,100h-1.9c-0.1,0-0.3,0-0.4-0.1c-1.6-0.6-3.4-1.9-3.4-5.3c0-1.2,0.1-2.4,0.2-3.5c0-0.5,0.1-1,0.1-1.5
			l0-0.1c0-0.1,0-0.2,0-0.3c0-0.2,0-0.4,0-0.5c-0.1,0-0.3,0-0.5,0c-0.5,0-1.1,0.1-1.6,0.1C8.4,88.9,7.7,89,6.9,89
			c-0.8,0-2,0.1-3.1-0.1c-2.6-0.4-4.2-2.4-3.8-4.8c0.2-1.8,0.8-3.7,1.5-5.4c2.6-5.8,6.1-11,9.5-15.8c10.5-14.8,22.2-28.8,34.8-41.6
			c3.4-3.5,7.4-6.7,12.1-9.9c1-0.7,1.8-0.7,2.4-0.6c0.6,0.1,1.2,0.5,1.6,1.1c0.4,0.6,0.5,1.2,0.4,1.9c-0.1,0.5-0.4,1.2-1.4,1.9
			c-7.7,5.2-14,11.7-18.6,16.9c-7.9,8.7-14.7,16.8-20.8,24.9c0.4,0.1,0.8,0.2,1.1,0.3l2.5,0.6c3.9,0.9,7.7,1.8,11.6,2.6
			c1.3,0.3,2.1,1.1,2.4,2.4c0.9,4.1,1.9,8.2,2.8,12.3l0.7,2.9c3.5-2.8,7-5.6,10.6-8.4l2.2-1.8c0.1-0.1,0.2-0.2,0.3-0.2
			c1.3-1,2.9-0.9,3.8,0.3c0.9,1.2,0.7,2.6-0.5,3.7c-1.2,1.1-2.5,2.1-3.8,3.1c-6.9,5.6-15.1,12.1-24,17.8c-3,1.9-6.2,3.5-9.2,5.2
			l-1.3,0.7c-0.9,0.5-1.8,0.7-2.7,1c-0.4,0.1-0.7,0.2-1.1,0.3C16.8,100,16.7,100,16.6,100z M14.9,97.7h1.5c0.3-0.1,0.7-0.2,1-0.3
			c0.8-0.2,1.6-0.4,2.2-0.8l1.3-0.7c3-1.6,6.2-3.2,9.1-5.1c8.8-5.5,17-12,23.8-17.6c1.2-1,2.5-2,3.7-3.1c0.4-0.3,0.3-0.4,0.2-0.5
			c-0.1-0.1-0.3-0.1-0.6,0.1C57,69.9,57,69.9,56.9,70c-0.1,0.1-0.1,0.1-0.2,0.2l-2.1,1.7c-3.7,3-7.4,5.9-11.1,8.9
			c-0.2,0.2-0.4,0.3-0.6,0.5l-0.3,0.2c-0.3,0.2-0.7,0.3-1.1,0.1c-0.4-0.1-0.6-0.4-0.7-0.8l-0.1-0.2c0-0.1-0.1-0.2-0.1-0.4l-0.9-4
			c-0.9-4.1-1.9-8.2-2.8-12.3c-0.1-0.5-0.2-0.6-0.7-0.7c-3.9-0.9-7.7-1.7-11.6-2.6l-2.5-0.6c-0.6-0.1-1.2-0.3-1.9-0.4l-1-0.2
			c-0.4-0.1-0.7-0.4-0.8-0.7c-0.1-0.4-0.1-0.8,0.1-1.1l0.2-0.3c0.2-0.2,0.3-0.4,0.4-0.6c6.3-8.3,13.3-16.7,21.3-25.6
			c4.7-5.2,11.2-11.9,19.1-17.2c0.3-0.2,0.4-0.4,0.4-0.4c0,0,0-0.1-0.1-0.2c0,0-0.1-0.1-0.1-0.1c-0.1,0-0.3,0-0.6,0.3
			c-4.6,3.1-8.4,6.3-11.8,9.6C34.9,35.6,23.3,49.5,12.9,64.2C9.6,68.9,6.1,74,3.7,79.6c-0.7,1.5-1.1,3.2-1.4,4.8
			c-0.2,1.8,1.4,2.1,1.9,2.2c0.9,0.1,1.9,0.1,2.6,0.1c0.7,0,1.3-0.1,2.1-0.2c0.6-0.1,1.1-0.1,1.7-0.2c1-0.1,1.8-0.1,2.4,0.5
			c0.7,0.6,0.6,1.6,0.6,2.4c0,0.1,0,0.3,0,0.4l0,0.1c0,0.5-0.1,1-0.1,1.5c-0.1,1.2-0.2,2.2-0.2,3.3C13.2,96.7,14.1,97.4,14.9,97.7z
			 M15.6,97.1c-0.4,0-0.8-0.1-1.2-0.4c-0.7-0.6-0.7-1.6-0.7-2.1c0-1,0.1-2,0.2-3c0.1-0.6,0.1-1.2,0.2-1.9c0.1-1.6-0.1-2.7-0.6-3.2
			c-0.5-0.5-1.6-0.8-3.3-0.6c-0.6,0-1.2,0.1-1.9,0.2c-0.9,0.1-1.8,0.2-2.7,0.2c-0.7,0-1.9,0.1-2.5-0.8c-0.6-0.9-0.2-2,0-2.5
			c0.8-2,1.7-4,2.6-6l0.6-1.2c0.3-0.6,0.6-1.1,0.9-1.7c0.1-0.2,0.3-0.5,0.4-0.7c0.3-0.4,0.8-0.6,1.2-0.5l1.6,0.4
			c1.2,0.3,2.4,0.5,3.6,0.8l1.4,0.3c2.3,0.5,4.6,1,6.9,1.6c0.8,0.2,1.5,0.9,1.7,1.7c0.9,3.6,1.7,7.2,2.5,10.9l0.6,2.7
			c0.1,0.5-0.1,1-0.6,1.3c-0.4,0.2-0.8,0.5-1.2,0.7c-2.7,1.6-5.5,3.2-8.7,3.9C16.4,97.1,16,97.1,15.6,97.1z M11,83.5
			c1.9,0,3.2,0.4,4.1,1.3c1.1,1.1,1.5,2.6,1.3,5c0,0.6-0.1,1.3-0.2,1.9c-0.1,1-0.2,1.9-0.2,2.9c0,0,0,0.1,0,0.1c0,0,0.1,0,0.1,0
			c2.9-0.7,5.4-2.1,8.1-3.7c0.2-0.1,0.3-0.2,0.5-0.3l-0.4-1.9c-0.8-3.7-1.6-7.2-2.5-10.8c0,0-0.1-0.1-0.1-0.1
			c-2.2-0.5-4.5-1.1-6.8-1.6l-1.4-0.3c-1.2-0.3-2.4-0.5-3.6-0.8l-0.8-0.2c0,0,0,0,0,0.1c-0.3,0.5-0.6,1-0.8,1.4l-0.6,1.2
			c-0.9,1.9-1.8,3.9-2.5,5.8c0,0.1-0.1,0.2-0.1,0.2c0.1,0,0.2,0,0.3,0c0.9,0,1.7-0.1,2.6-0.2c0.6-0.1,1.3-0.1,1.9-0.2
			C10.4,83.5,10.7,83.5,11,83.5z M28.7,90.9c-0.1,0-0.3,0-0.4-0.1c-0.3-0.1-0.6-0.4-0.7-0.8l-2.2-9.7c-0.3-1.4-0.6-2.8-0.9-4.2
			c-0.1-0.4-0.2-0.5-0.6-0.6c-3.3-0.8-6.7-1.5-10.1-2.3L10,72.4c-0.4-0.1-0.7-0.3-0.8-0.7c-0.1-0.3-0.1-0.7,0.1-1.1l0.6-1
			c0.6-1,1.2-1.9,1.8-2.7c0.5-0.7,1.5-0.8,2-0.7c1.1,0.2,2.3,0.5,3.4,0.7l1.4,0.3c0.2,0,0.3,0.1,0.5,0.1c0.4,0.1,0.4-0.1,0.5-0.2
			c0-0.1,0-0.2-0.3-0.3c-1.1-0.3-2.2-0.5-3.3-0.8l-1.6-0.4c-0.4-0.1-0.7-0.4-0.8-0.7c-0.1-0.4-0.1-0.8,0.1-1.1l0.7-0.9
			c0.7-1,1.4-2,2.1-2.9c0.6-0.7,1.6-0.6,1.9-0.5c2.3,0.5,4.6,1,6.9,1.6c3.1,0.7,6.3,1.4,9.4,2.1c1,0.2,1.5,0.8,1.8,1.8
			c1.4,6.2,2.6,11.3,3.7,16.2c0.2,0.7,0.2,1.7-0.9,2.5c-0.8,0.5-1.5,1-2.3,1.6c-0.3,0.3-0.7,0.5-1.1,0.8c-0.3,0.2-0.7,0.3-1.1,0.1
			c-0.4-0.1-0.6-0.4-0.7-0.8l-0.4-1.6c-0.3-1.2-0.5-2.4-0.8-3.5l-0.5-2c-0.6-2.8-1.3-5.5-1.9-8.3c-0.1-0.6-0.3-0.7-0.7-0.8
			c-1-0.2-1.9-0.4-2.9-0.6c-0.6-0.1-1.3-0.3-2-0.4c-0.4-0.1-0.5,0.1-0.5,0.2c0,0.1,0,0.1,0,0.1c0,0,0.1,0.1,0.4,0.2
			c0.5,0.1,1,0.3,1.6,0.4c0.7,0.2,1.5,0.3,2.3,0.6c0.6,0.2,1.3,0.8,1.5,1.5c1.1,4.5,2.1,9.2,3.4,15c0.1,0.5,0.1,1.5-0.6,2
			c-0.9,0.7-1.8,1.3-2.8,1.9l-0.9,0.6C29.2,90.8,28.9,90.9,28.7,90.9z M12.1,70.5l2.1,0.5c3.4,0.8,6.7,1.5,10.1,2.3
			c1.3,0.3,2.1,1.1,2.4,2.4c0.3,1.4,0.6,2.8,0.9,4.1l1.8,8.1c0.7-0.5,1.4-0.9,2-1.3c-1.2-5.6-2.3-10.3-3.3-14.7
			c-0.7-0.2-1.4-0.3-2.1-0.5c-0.5-0.1-1.1-0.2-1.6-0.4c-0.8-0.2-1.4-0.6-1.8-1.3c-0.3-0.6-0.4-1.2-0.2-1.9c0.4-1.4,1.7-2.2,3.2-1.8
			c0.7,0.1,1.3,0.3,2,0.4c0.9,0.2,1.9,0.4,2.8,0.6c1.3,0.3,2.2,1.1,2.5,2.5c0.6,2.8,1.2,5.5,1.9,8.3l0.5,2c0.3,1.1,0.5,2.3,0.8,3.4
			c0.7-0.5,1.3-1,2-1.4c0,0,0,0,0-0.1c-1.1-4.8-2.3-10-3.7-16.2c0,0,0,0,0-0.1c0,0,0,0,0,0c-3.1-0.7-6.3-1.4-9.4-2.1
			c-2.3-0.5-4.5-1-6.8-1.5c-0.5,0.6-1,1.3-1.5,2c1.1,0.3,2.2,0.5,3.2,0.8c1.4,0.4,2.2,1.6,1.9,3c-0.3,1.4-1.5,2.2-3,2
			c-0.2,0-0.5-0.1-0.7-0.1l-1.4-0.3c-1.1-0.2-2.1-0.5-3.2-0.7C13,69.1,12.6,69.8,12.1,70.5z M34.4,65.6L34.4,65.6L34.4,65.6z"/>
	</g>
	<g>
		<path class="st0" d="M98.9,13.1c-0.3,1.7-0.5,3.4-0.9,5.2C96.3,26,93,32.9,88.8,39.5C84,47.1,77.9,53.7,71.2,59.7
			c-2.8,2.5-5.5,5-8.3,7.4c-0.7,0.6-1.6,0.6-2.1,0c-0.5-0.6-0.5-1.5,0.2-2.1c0.2-0.2,0.4-0.4,0.6-0.6c3.6-3.3,7.4-6.6,10.9-10
			C80.5,47,87,38.6,91.5,28.6c2.3-5.1,4-10.4,4.4-16c0.1-2-0.2-4-0.4-6c-0.1-1.1-0.9-1.8-2.1-2.1c-3.1-0.8-6.1-0.5-9.2,0
			c-6.3,1-12.2,3.4-17.8,6.5c-0.3,0.2-0.7,0.4-1,0.5c-0.8,0.4-1.6,0.2-2-0.6C63,10.2,63.2,9.4,64,9c1.6-0.9,3.1-1.7,4.7-2.5
			c5.8-2.8,11.8-4.8,18.2-5.3c1.9-0.1,3.8-0.1,5.7,0.2c4,0.6,5.5,2.3,6,6.3c0,0.3,0.1,0.7,0.2,1C98.9,10.2,98.9,11.7,98.9,13.1z"/>
		<path class="st0" d="M61.8,68.7c-0.7,0-1.3-0.3-1.9-0.8c-1-1.1-0.9-2.6,0.3-3.7c0.1-0.1,0.3-0.3,0.4-0.4l0.2-0.2
			c1.1-1,2.3-2,3.4-3.1c2.5-2.2,5.1-4.6,7.5-6.9c8.4-7.9,14.5-16.3,18.7-25.5c2.6-5.8,4-10.8,4.3-15.6c0.1-1.6-0.1-3.3-0.3-4.9
			l-0.1-0.9c0-0.3-0.1-0.8-1.2-1.1c-3-0.8-5.9-0.5-8.7,0c-5.6,0.9-11.3,3-17.4,6.4l-0.3,0.2c-0.3,0.1-0.5,0.3-0.8,0.4
			c-1.4,0.6-2.8,0.2-3.5-1c-0.7-1.3-0.3-2.8,1.1-3.5c1.5-0.8,3.1-1.7,4.8-2.5C74.9,2.3,81,0.5,86.8,0.1c2.1-0.2,4.1-0.1,6,0.2
			c4.5,0.7,6.4,2.7,7,7.3c0,0.2,0.1,0.4,0.1,0.6l0.1,0.3c0,0.1,0,0.1,0,0.2v4.4c0,0.1,0,0.1,0,0.2c-0.1,0.5-0.2,1.1-0.3,1.6
			c-0.2,1.2-0.4,2.4-0.6,3.6c-1.5,7.1-4.6,14.2-9.3,21.6C85.3,47.1,79.5,53.7,72,60.5c-2.8,2.5-5.5,5-8.3,7.5
			C63.1,68.5,62.4,68.7,61.8,68.7z M89.2,2.8c1.5,0,3,0.1,4.5,0.5c1.7,0.4,2.7,1.5,2.9,3.1l0.1,0.9c0.2,1.7,0.4,3.5,0.3,5.3
			c-0.3,5.1-1.7,10.3-4.5,16.4C88.3,38.6,82,47.1,73.4,55.3c-2.5,2.3-5.1,4.7-7.6,6.9c-1.1,1-2.3,2-3.4,3.1l-0.3,0.2
			c-0.1,0.1-0.2,0.2-0.3,0.3c-0.1,0.1-0.3,0.3-0.2,0.5c0,0,0.2,0.2,0.5-0.1c2.8-2.5,5.6-4.9,8.3-7.4c7.4-6.6,13.1-13.2,17.4-19.9
			c4.6-7.2,7.5-14,9-20.9c0.2-1.1,0.4-2.3,0.6-3.5c0.1-0.5,0.2-1,0.2-1.6V8.9l0-0.2c-0.1-0.3-0.1-0.5-0.1-0.8
			c-0.5-3.6-1.6-4.8-5.1-5.3c-1.7-0.3-3.5-0.3-5.4-0.2c-5.6,0.4-11.4,2.1-17.8,5.2C67.6,8.3,66,9.2,64.6,10
			c-0.3,0.2-0.2,0.3-0.2,0.4c0,0.1,0.1,0.2,0.5,0.1c0.2-0.1,0.4-0.2,0.6-0.3c0.1-0.1,0.2-0.1,0.3-0.2C72.2,6.4,78.2,4.3,84,3.3
			C85.7,3,87.4,2.8,89.2,2.8z M98.9,13.1L98.9,13.1L98.9,13.1z"/>
	</g>
	<g>
		<path class="st0" d="M80.2,21.3c-0.3,0.5-0.5,1-0.8,1.3c-1.1,1.2-2.2,2.3-3.4,3.4C66,36,56,46,45.9,56c-1.1,1.1-1.9,1.3-2.6,0.5
			c-0.7-0.7-0.5-1.4,0.6-2.5c11-11,22-22,33.1-33.1c0.3-0.3,0.5-0.6,0.8-0.8c0.4-0.1,1-0.2,1.4-0.1C79.6,20.3,79.9,20.8,80.2,21.3z"
			/>
		<path class="st0" d="M44.3,58.2C44.3,58.2,44.3,58.2,44.3,58.2c-0.7,0-1.3-0.3-1.8-0.8c-1.1-1.2-0.9-2.6,0.6-4.1l33.1-33.1
			c0.1-0.1,0.1-0.1,0.2-0.2c0.2-0.3,0.6-0.7,1.1-0.8c0.5-0.2,1.4-0.4,2.2,0c0.6,0.2,0.9,0.7,1.2,1.1c0.1,0.1,0.2,0.2,0.2,0.3
			c0.3,0.4,0.3,0.9,0.1,1.3c-0.1,0.2-0.2,0.3-0.3,0.5c-0.2,0.3-0.4,0.7-0.7,1c-0.8,0.9-1.7,1.7-2.5,2.6l-0.8,0.8L46.8,56.9
			C46.2,57.4,45.3,58.2,44.3,58.2z M44.1,55.7c0,0,0,0,0.1,0.1c0.1,0.1,0.1,0.1,0.1,0.1c0,0,0.3-0.1,0.8-0.6l30.9-30.9
			c0.8-0.8,1.7-1.7,2.5-2.5c0.1-0.1,0.2-0.2,0.3-0.4c0-0.1-0.1-0.1-0.1-0.1c-0.1,0-0.3,0-0.5,0.1c-0.1,0-0.1,0.1-0.2,0.2
			c-0.1,0.1-0.2,0.2-0.3,0.3L44.7,54.8C44.2,55.4,44.1,55.6,44.1,55.7z M78.7,21.2L78.7,21.2L78.7,21.2z"/>
	</g>
</g>
</svg>
