<?xml version="1.0" encoding="utf-8"?>
<!-- Generator: Adobe Illustrator 24.3.0, SVG Export Plug-In . SVG Version: 6.00 Build 0)  -->
<svg version="1.1" id="_x38_7_x5F_Speedway_1_" xmlns="http://www.w3.org/2000/svg" xmlns:xlink="http://www.w3.org/1999/xlink"
	 x="0px" y="0px" viewBox="0 0 100 100" style="enable-background:new 0 0 100 100;" xml:space="preserve">
<style type="text/css">
	.st0{fill:#596079;}
</style>
<g id="_x38_7_x5F_Speedway">
	<path class="st0" d="M100,70.2c-0.2,0.6-0.4,1.2-0.6,1.8c-2.1,7.4-8.6,12.3-16.3,12.3c-7.5,0-14.2-5.1-16.2-12.3
		c-2-7.3,1.1-14.9,7.6-18.9c0.5-0.3,1-0.6,1.7-1c-0.3-0.9-0.6-1.8-1-2.7c-0.3-0.6-0.8-1-1.2-1.6c-0.5,0.4-1.1,0.7-1.4,1.1
		c-4,5.4-8.1,10.7-12,16.1c-1.8,2.4-3.9,3.6-6.9,3.5c-2.6-0.1-5.2-0.1-7.8,0c-2.3,0-4.1-0.9-5.6-2.7c-0.4-0.5-1.3-0.8-1.9-0.7
		c-1.5,0.2-3,0.6-4.6,0.9c-0.1,1.6-0.2,3.1-0.4,4.5c-1.5,7.9-8.1,13.4-16.1,13.6c-7.9,0.2-14.8-5-16.8-12.7c-0.1-0.5-0.3-1-0.5-1.4
		c0-1.7,0-3.4,0-5.1c0.1-0.4,0.3-0.8,0.4-1.3c2.2-9,10.5-14.4,19.6-12.8c0.4,0.1,0.9,0.1,1.5,0.2c0.6-1.3,1.3-2.6,1.7-3.9
		c0.1-0.5-0.3-1.3-0.7-1.7c-4.2-3.4-8.9-5.8-14-7.5c-5.1-1.7-7.4-5.9-6-11c0.4-1.4,1.5-1.9,3.3-1.3c5,1.7,10,3.4,14.9,5.1
		c2.8,0.9,5.6,1.7,8.3,2.9c5.1,2.2,10.4,2.6,15.9,2.3c0.5,0,1.3-0.3,1.6-0.8c3.6-5,8.7-6.5,14.5-6.4c1.1,0,2.2,0.2,3.3,0.3
		c1.8,0.2,2.9-1.2,2.3-3c0-0.1-0.1-0.2-0.1-0.4c-2.4-6.1-1.1-5.6-7.7-6.3c-0.4,0-0.9,0-1.1-0.2c-0.6-0.6-1.6-1.5-1.5-2.1
		c0.2-0.7,1.3-1.8,2-1.8c2.1,0,4.2,0.3,6.2,0.7c2.2,0.4,3.6,1.9,4.5,4c0.5,1.1,0.9,2.2,1.2,3.3c0.5,1.7,1.2,3,3.2,3.7
		c1.2,0.4,2.3,1.9,2.9,3.2c1.7,3.6,3.1,7.4,4.7,11.2c1.5,0,3.1,0,4.7,0c1.4,0,2.4,0.6,2.4,2c0,1.5-1,2.2-2.4,2.2c-1.7,0-3.4,0-5.1,0
		c-1.4,0-2,0.5-1.3,1.9c0.4,1,0.8,2.1,1.2,3.2c1.7,0,3.5-0.2,5.2,0c7.3,1.1,12.5,5.9,14.3,13.1c0.1,0.4,0.2,0.7,0.4,1.1
		C100,66.8,100,68.5,100,70.2z M43,60.3c0.1,3.5,0.8,4.2,4,4.2c2.3,0,4.6-0.1,6.8,0c1.5,0.1,2.4-0.5,3.3-1.7
		c3.8-5.2,7.6-10.4,11.5-15.5c0.3-0.4,0.6-0.9,1-1.6c-5.2,0-10.1,0-14.9,0c-3.1,0-5.7-1.1-7.3-3.7c-0.9-1.5-2-1.8-3.5-1.7
		c-5.4,0.4-10.6-0.3-15.7-2.3c-4.2-1.6-8.5-3-12.7-4.4c-2.9-1-5.7-1.9-8.8-3c-0.2,2.1,0.9,3,2.5,3.5c7.7,2.4,14.5,6.3,20.2,12.2
		c1.5,1.6,3.4,2.3,5.6,2.3c4.3,0,8.6,0,12.9,0c1.5,0,2.9,0.2,2.9,2.1c0,1.8-1.4,2.1-2.9,2.1c-2.3,0-4.6,0-7,0
		c0.4,3.4,0.4,3.4,3.4,3.4c2.9,0,5.7,0,8.6,0c1.4,0,2.4,0.6,2.4,2c0.1,1.5-1,2.2-2.4,2.2c-0.7,0-1.3,0-2,0
		C48.3,60.3,45.7,60.3,43,60.3z M4.2,67.4c-0.1,7.1,5.6,12.9,12.6,12.9c6.9,0,12.7-5.7,12.8-12.6C29.6,60.7,24,55,17,54.9
		C10,54.9,4.3,60.4,4.2,67.4z M95.8,67.7c0.1-7-5.5-12.7-12.5-12.8c-7.1-0.1-12.9,5.6-12.9,12.6c0,6.9,5.7,12.7,12.6,12.7
		C90,80.3,95.7,74.7,95.8,67.7z M68.2,41.6c-1.1-2.7-2.1-5.1-3.1-7.5c-0.1-0.2-0.5-0.5-0.7-0.5c-4.5-0.7-9-0.7-12.8,2.3
		c-2,1.6-1.9,3.4,0.2,4.8c0.6,0.4,1.4,0.8,2.1,0.8C58.5,41.6,63.2,41.6,68.2,41.6z M25.4,53.1c3.2,2.1,5.6,4.7,7,8.1
		c0.2,0.4,0.8,0.8,1.1,0.7c1.6-0.3,3.3-0.7,5-1.1c-0.7-2.5-1.2-4.9-1.9-7.1c-0.1-0.4-0.8-1-1.2-0.9c-3.2,0.1-6-0.9-8.6-3
		C26.3,50.9,25.9,51.9,25.4,53.1z M76.5,42.3c-1.7-3.9-3.2-7.5-4.8-11c-0.2-0.3-1.4-0.6-1.8-0.3c-0.5,0.2-1,1.3-0.8,1.7
		c1.3,3.5,2.8,7,4.3,10.4c0.2,0.4,1.2,0.8,1.8,0.7C75.7,43.6,76,42.8,76.5,42.3z"/>
	<path class="st0" d="M16.9,76.1c-4.7,0-8.6-3.9-8.6-8.6c0-4.6,3.9-8.4,8.5-8.4c4.7,0,8.6,3.9,8.5,8.6
		C25.3,72.3,21.5,76.1,16.9,76.1z M21.2,67.5c0-2.4-2-4.3-4.4-4.3c-2.4,0-4.3,2-4.3,4.4c0,2.4,2,4.3,4.4,4.3
		C19.3,71.9,21.2,70,21.2,67.5z"/>
	<path class="st0" d="M83.1,76.1c-4.6,0-8.5-3.8-8.5-8.4c0-4.7,3.8-8.6,8.5-8.6c4.7,0,8.6,3.9,8.5,8.6
		C91.6,72.3,87.8,76.1,83.1,76.1z M83.1,71.9c2.4,0,4.3-1.9,4.3-4.3c0-2.4-2-4.3-4.3-4.4c-2.4,0-4.3,1.9-4.3,4.3
		C78.8,70,80.7,71.9,83.1,71.9z"/>
</g>
</svg>
