<?xml version="1.0" encoding="utf-8"?>
<!-- Generator: Adobe Illustrator 24.3.0, SVG Export Plug-In . SVG Version: 6.00 Build 0)  -->
<svg version="1.1" id="_x38_8_x5F_Squash" xmlns="http://www.w3.org/2000/svg" xmlns:xlink="http://www.w3.org/1999/xlink" x="0px"
	 y="0px" viewBox="0 0 100 100" style="enable-background:new 0 0 100 100;" xml:space="preserve">
<style type="text/css">
	.st0{fill:#596079;}
</style>
<g>
	<path class="st0" d="M94.2,37c7.4-7.9,7.8-19.1,0.9-27.9c-7.3-9.3-19.9-12-28-6c-10.8,7.9-16.7,16.3-18.7,26.2
		C46.1,41,41,52,33.3,61.9c-1.8,2.3-3.4,3.6-6.3,3.2c-1.2-0.2-2.9,0.1-3.9,1c-6.1,5.9-12.2,12-18,18L0.2,89C0.1,89.2,0,89.4,0,89.6
		c0,0.2,0.1,0.4,0.2,0.5l10.1,9.6c0.1,0.1,0.3,0.2,0.5,0.2c0.2,0,0.4-0.1,0.5-0.2c1.9-1.9,3.8-3.8,5.6-5.7c5-5,10.1-10.1,15.2-15.1
		c2.1-2,3-4.1,3-7c0-1.4,0.9-3.2,1.9-4.1c9.4-8,19.3-13,29.4-15C77.1,50.9,85.9,45.9,94.2,37z M89.7,32l-4.1-4.2l7.5-7.4
		C94.6,24,93.1,29,89.7,32z M81,32.6l3.9,4.4l-3.4,3l-4.1-4.4l0,0L81,32.6z M80.4,22L78,19.5l9.4-9.5l2.4,2.8L80.4,22z M72.7,40.4
		l3,3.4l-8.9,2.5L72.7,40.4z M64.4,22.6l-4-4.2l3-3.5l4.3,4.2L64.4,22.6z M57.1,39.7c1.6-2.1,3.4-4,5.4-6c0.6-0.6,1.2-1.2,1.8-1.9
		l4,4.2c-0.6,0.6-1.3,1.2-1.9,1.8c-2,1.8-3.9,3.6-5.8,5.4c-0.7,0.6-1.4,1-1.9,0.9c-0.4-0.1-0.8-0.3-1-0.8
		C57,42.2,56.7,40.2,57.1,39.7z M72.5,14.7l-4.2-4.4c2.9-3.3,7.3-4.5,11.7-3.2L72.5,14.7z M76.3,27.6l-4.1,2.8l-2.4-3.1l3.1-3.2
		L76.3,27.6z M59.1,27.5L54.3,32l2.2-7.8L59.1,27.5z M52.6,50.9L46.2,54l3.3-6.7L52.6,50.9z M28.9,71.5c-0.1,0.3-0.2,0.5-0.3,0.8
		c-0.3,0.9-0.5,1.7-1,2.2c-4.3,4.4-8.6,8.7-13.2,13.3c-1.3,1.3-2.6,2.6-3.9,3.9L9,89.2c1.1-1.1,2.3-2.3,3.4-3.4
		c4.5-4.5,9.1-9.2,13.8-13.8c0.3-0.3,1-0.4,1.7-0.6c0.2,0,0.5-0.1,0.7-0.1L28.9,71.5z"/>
	<path class="st0" d="M87.5,54.9c-2.9-0.1-5.6,1-7.6,3c-2,2-3.1,4.6-3.1,7.4c0,5.7,4.6,10.4,10.3,10.5c0.1,0,0.1,0,0.2,0
		c2.8,0,5.5-1.1,7.5-3c2-2,3.1-4.6,3.1-7.4C97.9,59.7,93.2,55,87.5,54.9z M84.4,62.4c0.8-0.8,1.8-1.2,2.9-1.2c0,0,0,0,0,0
		c2.3,0,4.1,1.9,4.1,4.2c0,2.3-1.8,4.1-4.2,4.1c0,0,0,0,0,0c-1.1,0-2.2-0.4-3-1.2c-0.8-0.8-1.2-1.8-1.1-2.9
		C83.1,64.2,83.6,63.2,84.4,62.4z"/>
</g>
</svg>
