<?xml version="1.0" encoding="utf-8"?>
<!-- Generator: Adobe Illustrator 24.3.0, SVG Export Plug-In . SVG Version: 6.00 Build 0)  -->
<svg version="1.1" id="_x38_9_x5F_Politics" xmlns="http://www.w3.org/2000/svg" xmlns:xlink="http://www.w3.org/1999/xlink"
	 x="0px" y="0px" viewBox="0 0 100 100" style="enable-background:new 0 0 100 100;" xml:space="preserve">
<style type="text/css">
	.st0{fill:#596079;}
</style>
<path class="st0" d="M98.1,96.4c0-0.6,0-1.3,0-2c0-0.6,0-1.1,0-1.7c-0.1-3.7-3-6.5-6.7-6.6c-0.5,0-0.9,0-1.4,0c0-0.4,0-0.9,0-1.3
	c-0.1-1.7-1.2-2.8-2.9-2.8c-1,0-1.9,0-2.9,0l-2.3,0v-19c0.5,0,0.9,0,1.3,0c3.8-0.1,6.8-3.1,6.8-6.9c0-3.8-3-6.9-6.8-7
	c-0.5,0-1,0-1.5,0h0c-0.5-5.6-2.4-10.8-5.7-15.4c-4.6-6.4-10.9-10.7-18.6-12.5c-0.3-0.1-0.5-0.2-0.5-0.2c-0.7-1.8-1.9-3.2-3.6-4
	c0,0,0,0-0.1,0c0-0.9,0-1.9,0-2.9l0-0.3l2.6,0c2.2,0,4.4,0,6.6,0c0,0,0,0,0,0c1.7,0,2.5-0.9,2.8-1.7c0.5-1.2,0.3-2.3-0.7-3.3
	c-0.6-0.6-1.1-1.1-1.8-1.7l-0.2-0.2l0.2-0.2C63,6.2,63.5,5.6,64,5.1c1.1-1.1,1.4-2.3,0.9-3.4C64.1,0,62.5,0,61.9,0
	c-2.6,0-5.2,0-7.8,0l-3.5,0c-2.4,0-3.5,1-3.5,3.5l0,2.2c0,3.7,0,7.3,0,11c0,0.4,0,0.4-0.3,0.5c-1.6,0.8-2.7,2-3.3,3.6
	c-0.1,0.3-0.2,0.4-0.7,0.5c-12.5,3.3-20.5,11.3-23.7,23.8c-0.3,1.1-0.4,2.2-0.6,3.2c0,0.3-0.1,0.6-0.1,0.8l0,0c-0.5,0-1,0-1.5,0
	c-3.8,0.1-6.9,3.2-6.8,7c0,3.8,3,6.8,6.8,6.9c0.5,0,0.9,0,1.4,0v19l-1,0c-1.4,0-2.7,0-4.1,0c-2,0-3.1,1.1-3.1,3.1c0,0.3,0,0.6,0,1
	c-0.5,0-1,0-1.4,0c-3.6,0.1-6.6,3-6.7,6.6c0,0.6,0,1.1,0,1.7c0,0.7,0,1.3,0,2c-0.1,1.6,0.5,2.8,1.8,3.5C3.9,100,4,100,4.1,100h91.8
	c0.1,0,0.3,0,0.4-0.1C97.6,99.2,98.2,98,98.1,96.4z M55.7,8.2h-2.8V5.7h2.9C55.3,6.7,55.3,7.3,55.7,8.2z M24.3,49.2
	c0.8-10.7,10.2-22.3,24.5-23c15.4-0.7,25.8,11.2,27,23H24.3z M75.9,63.1V82h-2.5V63.1H75.9z M67.7,63.1V82h-2.4V63.1H67.7z
	 M59.4,63.2V82H57V63.2H59.4z M82.1,57.5H82c-8.9,0-17.8,0-26.7,0H50l-32,0l-0.2,0c-0.3,0-0.6,0-0.9,0c-0.7-0.1-1.1-0.6-1.1-1.3
	c0-0.7,0.4-1.1,1.2-1.3c0.2,0,0.4,0,0.7,0h0.1c21.5,0,43,0,64.5,0c1.9,0,1.9,0.8,1.9,1.2c0,0.7-0.4,1.2-1.1,1.3
	C82.8,57.5,82.5,57.5,82.1,57.5z M51.2,63.1V82h-2.4V63.1H51.2z M43,63.1V82h-2.4V63.1H43z M34.8,63.1V82h-2.4V63.1H34.8z
	 M26.6,63.1V82h-2.4V63.1H26.6z M7.6,92.9C7.7,92,8.6,91.8,9,91.8c0.7,0,1.4,0,2.1,0c0.5,0,1,0,1.6,0c2,0,3.1-1.1,3.1-3.1
	c0-0.3,0-0.6,0-0.9h68.3c0,0.3,0,0.7,0,1c0.1,1.9,1.1,3,3,3c0.6,0,1.3,0,1.9,0c0.5,0,1.1,0,1.6,0c1.3,0,1.7,0.4,1.7,1.7
	c0,0.3,0,0.6,0,0.8H7.6C7.6,93.8,7.6,93.3,7.6,92.9z"/>
</svg>
