<?xml version="1.0" encoding="utf-8"?>
<!-- Generator: Adobe Illustrator 24.3.0, SVG Export Plug-In . SVG Version: 6.00 Build 0)  -->
<svg version="1.1" id="_x39_2_x5F_Oscar" xmlns="http://www.w3.org/2000/svg" xmlns:xlink="http://www.w3.org/1999/xlink" x="0px"
	 y="0px" viewBox="0 0 100 100" style="enable-background:new 0 0 100 100;" xml:space="preserve">
<style type="text/css">
	.st0{fill:#596079;}
</style>
<g>
	<path class="st0" d="M78.4,96.9c-0.3-4.1-3.2-7.7-7.1-8.9c-0.6-0.2-0.6-0.3-0.6-0.9c0-2.9,0-5.9,0-8.8l0-1.7c0-2.2-0.8-3-2.9-3
		l-0.8,0c-1.7,0-3.4,0-5.1,0c-0.4,0-0.4,0-0.5-0.3c-0.5-1.7-1.5-3.2-3-4.4c-0.2-0.1-0.3-0.5-0.3-0.8c-0.4-3.7,0.3-6.9,2.3-9.6
		c0.1-0.1,0.3-0.4,0.3-0.6c0.1-0.2,0.1-0.4,0.2-0.6c0.2-0.5,0.4-1.1,0.4-1.7c0-0.9,0-1.7,0-2.6c0.1-3.3,0.1-6.7-0.1-10
		c-0.2-3,0.6-4.9,2.6-6.3c0.1-0.1,0.3-0.2,0.4-0.4c0.1-0.2,0.2-0.3,0.2-0.5c0.2-0.5,0.5-0.9,0.5-1.5c0.1-3.7,0.1-7.7,0-12.7
		c0-4.1-3.1-7.1-7.2-7.2c-0.3,0-0.7,0-1.1,0h-0.1c0-0.1,0-0.2,0-0.3c0-0.4,0-0.7,0.1-0.9c1.1-2,0.9-4.2,0.8-6.1
		c-0.2-3.1-2.3-5.7-5.3-6.7c-3-0.9-6.3,0.1-8.1,2.6c-2.5,3.3-1.8,6.9-1,9.7c0.1,0.4,0.2,0.9,0.3,1.4c0,0.1,0,0.2,0.1,0.3l-0.8,0
		c-4.6,0-7.6,3-7.6,7.6c0,0.9,0,1.9,0,2.8c0,2,0.1,4.1-0.1,6.1c-0.3,3.5,0.7,6,3.3,7.8c0.1,0.1,0.1,0.3,0.2,0.4
		c0.2,0.3,0.3,0.6,0.3,0.8c0,5.3,0,10.3,0,15.2c0,1,0.1,2.2,0.9,3.3c2,2.8,2.8,6,2.4,9.5c0,0.1,0,0.1,0,0.1c0,0.1-0.1,0.2-0.1,0.3
		c-0.1,0.2-0.2,0.5-0.3,0.6c-1.5,1.3-2.4,2.7-2.9,4.3c-0.1,0.4-0.2,0.4-0.6,0.4c-1.4,0-2.8,0-4.1,0l-1.5,0c-2.4,0-3.1,0.7-3.1,3.2
		l0,2.5c0,2.6,0,5.3,0,7.9c0,0.6-0.1,0.7-0.6,0.9c-3.9,1.1-6.8,4.7-7.1,8.9c-0.1,1.5,0.4,2.5,1.6,3c0.1,0,0.1,0,0.2,0h18.4
		c0.1,0,0.2,0,0.2-0.1l0.1-0.1c0.1,0,0.1-0.1,0.2-0.1c1-0.6,1.4-1.5,1.2-2.6c-0.2-1.1-1.2-1.8-2.4-1.8c-2.7,0-5.3,0-8,0l-6.3,0
		c0-0.1,0-0.1,0.1-0.2c1.1-1.9,2.6-2.9,4.7-2.9c13,0,26,0,36.9,0c2.1,0,3.9,1.2,4.7,3.1H59.4c-1.6,0-2.5,0.5-2.9,1.6
		c-0.5,1.4,0.4,2.3,1.4,3c0.1,0,0.1,0.1,0.2,0.1h18.4c0.1,0,0.1,0,0.2,0C77.9,99.4,78.5,98.4,78.4,96.9z M39.7,24.9c0-1,0-2.1,0-3.1
		c0-2,0.9-2.9,2.9-2.9c0.2,0,0.4,0,0.6,0c0.4,0,0.8,0,1.2,0c2.2-0.1,3.6-1.6,3.6-3.8c0-1.7,0-3.2-0.7-4.8c-0.5-1.1-0.3-2.6,0-3.9
		c0.3-1.4,1.8-2,3-1.9c1.4,0.2,2.5,1.3,2.6,2.7c0.1,1.7-0.1,3-0.6,4.3c-0.7,1.7-0.6,3.6,0.1,5.4c0.5,1.2,1.7,1.9,3.3,2
		c0.3,0,0.7,0,1,0c0.4,0,0.9,0,1.3,0c1.3,0.1,2.3,1.1,2.3,2.4l0,1.3c0,3.4,0.1,7-0.1,10.4c0,0.4-0.4,0.9-0.8,1.4
		c-0.1,0.2-0.3,0.3-0.4,0.5l-2.3-2.3c-1.6-1.6-3.1-3.1-4.6-4.6c-0.8-0.8-1.4-1.1-2.1-1.1c-0.7,0-1.3,0.4-2.1,1.1
		c-1.2,1.2-2.3,2.3-3.5,3.5l-2.9,2.9c-0.1,0.1-0.3,0.3-0.4,0.4c-1.1-0.8-1.5-1.7-1.5-2.9C39.8,29.6,39.7,27.2,39.7,24.9z M45.1,72.2
		c1.1-0.5,1.6-1.4,1.6-2.7c0-1,0-2,0-3c0-1.3,0-2.5,0-3.8c0-0.5-0.1-0.9-0.3-1.3c-0.1-0.2-0.1-0.3-0.1-0.5c0-0.1-0.1-0.2-0.2-0.3
		c-2.1-3-3-6.3-2.7-10.6c0.2-2.3,0.1-4.6,0.1-6.8c0-1.1,0-2.3,0-3.4c0-0.4,0.1-0.7,0.2-0.8c1.7-1.7,3.3-3.4,5.1-5.1l1.3-1.3
		c0.1,0.1,0.2,0.2,0.3,0.3l1.2,1.2c1.5,1.5,3.1,3.1,4.6,4.7c0.3,0.3,0.5,0.7,0.5,1.1c0,5.6,0,11.1,0,15.3c0,0.3-0.1,0.5-0.2,0.8
		c0,0.1-0.1,0.2-0.1,0.4c0,0.1-0.1,0.1-0.1,0.2c-3.1,3.9-3,8.4-2.8,12.8l0,0.7c0,0.9,0.5,1.7,1.4,2.2c0.8,0.5,1.3,0.8,1.6,1.5H43.6
		C44,73,44.5,72.5,45.1,72.2z M65.9,78.4v9.2H34.1v-9.2H65.9z"/>
	<path class="st0" d="M50,95.4C50,95.4,50,95.4,50,95.4c-0.7,0-1.3,0.3-1.7,0.7c-0.5,0.5-0.7,1.1-0.6,1.7c0.1,0.7,0.4,1.3,1,1.7
		c0.1,0.1,0.2,0.2,0.4,0.3l0.2,0.1c0.1,0,0.1,0.1,0.2,0.1h1.2c0.1,0,0.2,0,0.2-0.1l0.2-0.1c0.1-0.1,0.3-0.2,0.4-0.3
		c0.6-0.4,0.9-1,1-1.7c0.1-0.6-0.2-1.3-0.6-1.8C51.3,95.6,50.7,95.4,50,95.4z"/>
</g>
</svg>
