<?xml version="1.0" encoding="utf-8"?>
<!-- Generator: Adobe Illustrator 24.3.0, SVG Export Plug-In . SVG Version: 6.00 Build 0)  -->
<svg version="1.1" id="_x39_5_x5F_RugbySevens" xmlns="http://www.w3.org/2000/svg" xmlns:xlink="http://www.w3.org/1999/xlink"
	 x="0px" y="0px" viewBox="0 0 100 100" style="enable-background:new 0 0 100 100;" xml:space="preserve">
<style type="text/css">
	.st0{fill:#596079;}
</style>
<g>
	<path class="st0" d="M90.5,9.5C74.3-6.7,43-1.7,20.7,20.7C-1.7,43-6.7,74.3,9.5,90.5c6.3,6.3,14.9,9.5,24.8,9.5
		c2.7,0,5.5-0.2,8.4-0.7c13-2.2,26-9.3,36.7-20c10.7-10.7,17.8-23.7,20-36.7C101.6,29.2,98.4,17.4,90.5,9.5z M74.6,74.6
		C54.9,94.4,27.7,99.4,14.1,85.8C0.5,72.2,5.5,45.1,25.3,25.3C37.6,13,52.6,6.4,65.6,6.4c7.9,0,15.1,2.5,20.2,7.6
		C99.4,27.7,94.4,54.9,74.6,74.6z"/>
	<polygon class="st0" points="24.4,45.8 32.8,45.8 32.8,40.4 37.7,40.4 26.5,66.5 35.6,66.5 46.9,40.4 46.9,33 24.4,33 	"/>
	<polygon class="st0" points="49.1,44.8 55.2,44.8 58.3,33 52.2,33 	"/>
	<path class="st0" d="M69.4,53.5c-0.4,0-0.8-0.1-1-0.1c-0.2,0-0.6-0.1-1-0.3c-0.4-0.1-0.7-0.3-0.9-0.6c-0.2-0.3-0.3-0.6-0.3-1.1
		c0-0.4,0.1-0.8,0.3-1c0.2-0.3,0.5-0.4,0.9-0.4c0.6,0,1.1,0.2,1.6,0.7c0.5,0.5,0.9,1.1,1,1.9H74v-7.2h-4.1v1.3
		c-0.1-0.1-0.3-0.3-0.7-0.5c-0.3-0.3-0.6-0.5-0.7-0.5c-0.1-0.1-0.4-0.2-0.7-0.4c-0.3-0.2-0.6-0.3-0.9-0.3c-0.3-0.1-0.7-0.1-1.1-0.1
		c-1.7,0-3,0.7-4.1,2c-1.1,1.3-1.7,2.9-1.7,4.8c0,1.8,0.5,3.3,1.5,4.4c1,1.1,2.5,1.8,4.4,2.2c0.5,0.1,0.9,0.2,1.2,0.3
		c0.3,0.1,0.7,0.2,1.1,0.4c0.4,0.2,0.7,0.4,0.9,0.6c0.2,0.3,0.3,0.6,0.3,0.9c0,1.1-0.5,1.7-1.5,1.7c-0.7,0-1.4-0.3-1.9-0.8
		c-0.5-0.5-1-1.3-1.3-2.2h-4.3v7.4h4.3v-1.8c1.4,1.4,2.9,2.2,4.6,2.2c1.7,0,3.2-0.6,4.3-1.8c1.1-1.2,1.7-2.8,1.7-4.7
		c0-2.1-0.6-3.7-1.8-4.9C72.5,54.2,71.1,53.6,69.4,53.5z"/>
</g>
</svg>
