<?xml version="1.0" encoding="utf-8"?>
<!-- Generator: Adobe Illustrator 24.3.0, SVG Export Plug-In . SVG Version: 6.00 Build 0)  -->
<svg version="1.1" id="_x39__x5F_Badminton" xmlns="http://www.w3.org/2000/svg" xmlns:xlink="http://www.w3.org/1999/xlink"
	 x="0px" y="0px" viewBox="0 0 100 100" style="enable-background:new 0 0 100 100;" xml:space="preserve">
<style type="text/css">
	.st0{fill:#596079;}
</style>
<g id="_x39__x5F_Badminton_1_">
	<path class="st0" d="M16.3,100.1c-4.4,0-8.5-1.7-11.6-4.8c-6.4-6.4-6.4-16.8,0-23.1l4.7-4.7L40.5,1.5c0.6-1.2,2-1.9,3.2-1.5
		c1.2,0.4,2,1.6,1.7,2.9c0,0.6,0.6,5.1,11.1,10c0.1,0.1,0.3,0.1,0.4,0.2c0,0,0,0,0,0l0,0c0,0,0.1,0,0.1,0.1c0.4,0.3,0.8,0.8,0.9,1.2
		c0.2,0.5,4.6,12.3,12.5,13c0.6,0,1.1,0.3,1.6,0.7c0,0,0,0,0,0v0c0,0,0.1,0.1,0.1,0.1c0.3,0.4,0.5,0.8,0.6,1.2
		c0.1,0.5,2.3,9.3,12.8,12.6c0.5,0.2,1,0.5,1.3,1c0,0,0,0.1,0.1,0.1c0.1,0.1,0.2,0.3,0.2,0.5c1.3,2.9,5.7,11,10.2,11c0,0,0,0,0,0
		c1.2,0,2.3,0.8,2.5,2c0.3,1.2-0.3,2.4-1.4,2.9L32.4,91c-0.1,0-0.2,0.1-0.3,0.1l-4.2,4.2C24.8,98.4,20.7,100.1,16.3,100.1z
		 M11.4,72.9l-2.9,2.9c-4.4,4.4-4.4,11.4,0,15.8c2.1,2.1,4.9,3.3,7.9,3.3c3,0,5.8-1.2,7.9-3.3l0,0l2.9-2.9L11.4,72.9z M31.3,85
		l0.5,0.5l10-4.7c0,0,0,0,0-0.1c0-0.2,0.4-1.4,0.4-3.4L31.3,85z M25.1,78.9l2.4,2.4l13.8-9.6c-0.6-1.9-1.6-3.9-3.2-5.9L25.1,78.9z
		 M47.2,73.9c0.2,1.6,0.2,3,0.2,4.2l43.6-20.7c-3.3-2.5-5.7-6.3-7.2-9L47.2,73.9z M18.6,72.3l2.9,2.9l13.1-13.1
		c-2.2-1.7-4.4-2.8-6.4-3.4L18.6,72.3z M41.9,62.1c1.8,2.2,3.1,4.4,3.9,6.5l33.7-23.4c-5.6-3-8.6-7.3-10.2-10.5L41.9,62.1z
		 M14.7,68.4l0.1,0.1l7.5-10.7c-1.3,0-2.3,0.2-2.8,0.3L14.7,68.4z M31.2,54.3c2.3,0.9,4.7,2.2,7,4.1l27-27.1
		c-5-2.3-8.4-7.3-10.3-10.9L31.2,54.3z M22.7,52.7c1,0,2,0.1,3.2,0.2l25.8-36.7c-4.5-2.5-7.3-4.9-8.9-7.1L22.1,52.7
		C22.3,52.7,22.5,52.7,22.7,52.7z M45.4,3L45.4,3L45.4,3z"/>
</g>
</svg>
