<?xml version="1.0" encoding="utf-8"?>
<!-- Generator: Adobe Illustrator 24.3.0, SVG Export Plug-In . SVG Version: 6.00 Build 0)  -->
<svg version="1.1" id="圖層_1" xmlns="http://www.w3.org/2000/svg" xmlns:xlink="http://www.w3.org/1999/xlink" x="0px" y="0px"
	 viewBox="0 0 142.6 142.7" style="enable-background:new 0 0 142.6 142.7;" xml:space="preserve">
<style type="text/css">
	.st0{fill:url(#SVGID_1_);}
</style>
<linearGradient id="SVGID_1_" gradientUnits="userSpaceOnUse" x1="71.4829" y1="5.3431" x2="71.4829" y2="144.5192">
	<stop  offset="1.017608e-06" style="stop-color:#D7DAEE"/>
	<stop  offset="1" style="stop-color:#A0A8C2"/>
</linearGradient>
<path class="st0" d="M71.5,0C32,0,0,32,0,71.6c0,7.1,1,14,3.1,20.7c1.3-1.8,2.6-3.7,3.8-5.6c5-7.3,9.8-14.7,14.7-22.2l3.5-5.6
	c1.2-1.8,2.4-3.8,3.4-5.6c2.4-3.8,4.6-7.6,6.7-11.4c1-2,2.1-3.8,3.3-5.8c1.2-2,2.1-3.8,3.1-5.8c1-2,2.1-3.9,3-5.8l2.9-5.9l0.3-0.4
	c1.6-3.1,5.4-4.5,8.7-3c2.4,1.3,3.8,3.8,3.7,6.6l0,0c0,3.4-0.7,6.9-0.9,10.4c-0.3,3.4-0.4,6.9-0.7,10.5c-0.3,6.9-0.4,14-0.4,21
	s0.4,13.9,1,20.6c0.4,3.3,0.9,6.6,1.6,9.8c0.5,2.9,1.4,5.8,2.8,8.4c0.4,0.8,0.9,1.6,1.6,2.2c0.4,0.3,0.1,0.1,0.4,0.1s0.1,0,0.3,0
	l0.3-0.1h0.1l0,0l0.4-0.1l0,0c0.1-0.1,0.4-0.3,0.5-0.4c1-0.8,2-1.7,2.9-2.8c2.1-2.5,4.1-5,5.8-7.7c1.8-2.8,3.5-5.8,5.2-8.8
	c3.4-6,6.6-12.2,9.6-18.5c1.4-3.1,3-6.3,4.5-9.6c1.4-3.1,2.9-6.4,4.2-9.6c1.3-3.3,5.1-4.9,8.4-3.5c2.1,0.8,3.5,2.6,3.9,4.9l0,0
	c0,0.8,0.1,1.8,0.3,2.9l0.4,3c0.3,2,0.5,3.9,0.9,5.9c0.7,3.9,1.4,7.9,2.5,11.7c1,3.8,2.4,7.6,3.9,11.3c1.6,3.7,3.5,7.1,6,10.2l0,0
	c0.5,0.8,0.4,1.8-0.3,2.4c-0.7,0.5-1.6,0.5-2.1,0c-3.3-2.9-6.2-6.2-8.7-9.7c-2.5-3.5-4.6-7.3-6.6-11.1c-1.3-2.6-2.4-5.2-3.5-7.9
	c-0.8,1.6-1.4,3.1-2.2,4.6c-3.1,6.4-6.3,12.8-10,19.3c-1.8,3.4-3.7,6.6-5.8,9.7c-2.1,3.3-4.5,6.4-6.9,9.3c-1.4,1.7-3.1,3.1-4.9,4.6
	c-0.5,0.4-1,0.8-1.7,1l-1.2,0.7l-0.7,0.3h-0.1l-0.4,0.1h-0.3l-0.5,0.1c-0.4,0.1-0.7,0.3-1,0.3c-0.8,0.1-1.6,0.3-2.4,0.4
	c-1.7,0.1-3.5-0.1-5.1-0.7c-1.6-0.5-3-1.4-4.3-2.5c-2-1.7-3.7-3.8-4.9-6.2c-1.8-3.7-3.1-7.6-3.9-11.7c-0.8-3.7-1.3-7.5-1.7-11.1
	c-0.8-7.3-1-14.6-1.2-21.9c0-3.4,0-6.9,0-10.4c-1.3,2.5-2.6,5-3.9,7.3c-1,2-2.1,3.9-3.3,5.9l-3.3,5.9c-4.5,7.9-9,15.6-13.9,23.3
	c-3,5-6.2,10-9.3,14.8c21.6,33,66,42.2,99,20.6s42.2-66,20.6-99C118,12.2,95.6,0,71.5,0z"/>
</svg>
