<?xml version="1.0" encoding="utf-8"?>
<!-- Generator: Adobe Illustrator 24.3.0, SVG Export Plug-In . SVG Version: 6.00 Build 0)  -->
<svg version="1.1" id="圖層_1" xmlns="http://www.w3.org/2000/svg" xmlns:xlink="http://www.w3.org/1999/xlink" x="0px" y="0px"
	 viewBox="0 0 681 976.4" style="enable-background:new 0 0 681 976.4;" xml:space="preserve">
<style type="text/css">
	.st0{fill:#FFFFFF;}
</style>
<path class="st0" d="M340.5,295.4C152.4,295.4,0,447.9,0,635.9C0,824,152.4,976.4,340.5,976.4C528.6,976.4,681,824,681,635.9
	C681,447.9,528.6,295.4,340.5,295.4z M340.5,940.7c-168.3,0-304.8-136.4-304.8-304.7c0-168.3,136.4-304.8,304.7-304.8
	c168.3,0,304.8,136.4,304.8,304.7v0.1C645.2,804.3,508.8,940.7,340.5,940.7z"/>
<path class="st0" d="M151.7,309.8c50-30.9,107.3-48.2,166-50.2c-6.6-21.7-30.2-113.2,12.5-201.9c-80.8,61.1-66.8,154.8-66.8,154.8
	S212.6,80.6,146.7,0c-8.9,103.8,23.6,241.3,23.6,241.3S129,156,27.7,151.3C111.7,199.5,144.3,286.5,151.7,309.8z"/>
<path class="st0" d="M443.7,517.4c114.3-7.1,54-144-58.6-137C279.4,387,326.9,524.6,443.7,517.4z"/>
<path class="st0" d="M190.1,572.1C179.4,562,163.5,557,142.4,557H80v183.6h29.6v-71.3h32.9c20.6,0,36.4-5,47.3-14.9
	c10.9-10,16.4-23.6,16.4-41C206.1,595.9,200.8,582.1,190.1,572.1z M139.2,645.1h-29.7v-63.7h29.7c12.8,0,22.2,2.7,28,8.2
	c5.8,5.5,8.7,13.4,8.7,23.8C176,634.5,163.7,645.1,139.2,645.1z"/>
<polygon class="st0" points="257,557 227.4,557 227.4,740.6 320.5,740.6 320.5,717.4 257,717.4 "/>
<path class="st0" d="M400.6,559.8L333,740.6h31.7l14-39.8h77.5l14,39.8H502l-67.4-180.7H400.6z M387.1,677.9l30.4-85.8l30.4,85.8
	H387.1z"/>
<polygon class="st0" points="587.4,557 545.2,642 503.1,557 468.7,557 530.1,673.7 530.1,740.6 560,740.6 560,673.7 621.1,557 "/>
</svg>
