<?xml version="1.0" encoding="utf-8"?>
<!-- Generator: Adobe Illustrator 24.3.0, SVG Export Plug-In . SVG Version: 6.00 Build 0)  -->
<svg version="1.1" id="圖層_1" xmlns="http://www.w3.org/2000/svg" xmlns:xlink="http://www.w3.org/1999/xlink" x="0px" y="0px"
	 viewBox="0 0 360 172.9" style="enable-background:new 0 0 360 172.9;" xml:space="preserve">
<style type="text/css">
	.st0{fill:url(#SVGID_1_);}
	.st1{fill:url(#SVGID_2_);}
	.st2{fill:url(#SVGID_3_);}
	.st3{fill:url(#SVGID_4_);}
	.st4{fill:url(#SVGID_5_);}
	.st5{fill:url(#SVGID_6_);}
	.st6{fill:url(#SVGID_7_);}
</style>
<g>
	<linearGradient id="SVGID_1_" gradientUnits="userSpaceOnUse" x1="52.3391" y1="8.889" x2="52.3391" y2="158.919">
		<stop  offset="1.017608e-06" style="stop-color:#D7DAEE"/>
		<stop  offset="1" style="stop-color:#A0A8C2"/>
	</linearGradient>
	<path class="st0" d="M92.3,122.9v-15.1H32.6c-11.8,0-20.2-4.9-20.2-4.9c3.8,16.7,26,20,26,20H92.3z"/>
	<linearGradient id="SVGID_2_" gradientUnits="userSpaceOnUse" x1="47.4502" y1="8.889" x2="47.4502" y2="158.919">
		<stop  offset="1.017608e-06" style="stop-color:#D7DAEE"/>
		<stop  offset="1" style="stop-color:#A0A8C2"/>
	</linearGradient>
	<path class="st1" d="M24.6,124c3.8,16.7,26,20,26,20h19.8v-15.1H44.8C33,128.9,24.6,124,24.6,124z"/>
	<linearGradient id="SVGID_3_" gradientUnits="userSpaceOnUse" x1="53.2279" y1="8.889" x2="53.2279" y2="158.919">
		<stop  offset="1.017608e-06" style="stop-color:#D7DAEE"/>
		<stop  offset="1" style="stop-color:#A0A8C2"/>
	</linearGradient>
	<path class="st2" d="M36.1,145.1c2.8,16.7,19.4,20,19.4,20h14.8V150H51.2C42.4,150,36.1,145.1,36.1,145.1z"/>
	<linearGradient id="SVGID_4_" gradientUnits="userSpaceOnUse" x1="307.6721" y1="8.889" x2="307.6721" y2="158.919">
		<stop  offset="1.017608e-06" style="stop-color:#D7DAEE"/>
		<stop  offset="1" style="stop-color:#A0A8C2"/>
	</linearGradient>
	<path class="st3" d="M267.7,107.8v15.1h54c0,0,22.2-3.3,26-20c0,0-8.4,4.9-20.2,4.9H267.7z"/>
	<linearGradient id="SVGID_5_" gradientUnits="userSpaceOnUse" x1="312.5614" y1="8.889" x2="312.5614" y2="158.919">
		<stop  offset="1.017608e-06" style="stop-color:#D7DAEE"/>
		<stop  offset="1" style="stop-color:#A0A8C2"/>
	</linearGradient>
	<path class="st4" d="M289.7,128.9V144h19.8c0,0,22.2-3.3,26-20c0,0-8.4,4.9-20.2,4.9H289.7z"/>
	<linearGradient id="SVGID_6_" gradientUnits="userSpaceOnUse" x1="306.7832" y1="8.889" x2="306.7832" y2="158.919">
		<stop  offset="1.017608e-06" style="stop-color:#D7DAEE"/>
		<stop  offset="1" style="stop-color:#A0A8C2"/>
	</linearGradient>
	<path class="st5" d="M289.7,150v15.1h14.8c0,0,16.6-3.3,19.4-20c0,0-6.3,4.9-15.1,4.9H289.7z"/>
	<linearGradient id="SVGID_7_" gradientUnits="userSpaceOnUse" x1="179.9998" y1="8.889" x2="179.9998" y2="158.919">
		<stop  offset="1.017608e-06" style="stop-color:#D7DAEE"/>
		<stop  offset="1" style="stop-color:#A0A8C2"/>
	</linearGradient>
	<path class="st6" d="M339.8,85.1l-74.4,0.6c-2.7,0-5.4,0.4-8,1.2l-4.3,1.3c3.3-12.9,3.6-58.9,3.6-58.9c-58.2,1.1-76-29.3-76-29.3
		c-27.1,33.8-75.8,28.7-75.8,28.7c-2.7,21.8,2.4,59.6,2.4,59.6l-5.4-1.5c-2.2-0.6-4.4-0.9-6.7-0.9h-67c-19.8,0-28.2-6-28.2-6
		c4,17.3,25.1,21.3,25.1,21.3h70.7c5.6,0,21.1,4.9,21.1,26c0,21.1-18.2,23.8-18.2,23.8h-5.6v-22h-16v36.4H102
		c15.8,0,28.7-24.4,28.7-24.4s23.2,32,49.3,32c24.2,0,49.8-32.7,49.8-32.7c8,22.4,29.3,24.9,29.3,24.9h24.2v-36.4h-16.4v22
		c0,0-21.8,1.3-23.1-24.4c-1.3-25.8,23.6-25.8,23.6-25.8h65.3c22.2,0,27.3-20.7,27.3-20.7C353.3,85.1,339.8,85.1,339.8,85.1z
		 M179.3,159.6c-7.7-2.6-14.4-6.1-20.3-10.2c5.3-5,16.6-12.3,37.3-9.8c0,0-4.7-6.4-11.1-5.6c0,0,38.2-9.6,38.2-39.3
		c0,0-0.9-8.7-2.9-11.3c0,0,10.2,1.3,13.3-1.1c0,0-16.2-4.9-18.2-12.4h4.4c0,0-10.2-15.1-28.4-15.1c0,0-5.1-0.7-8.7,0.9
		c0,0,2.2-7.1,12.9-7.1s22.9,4.7,26,4.7c3.1,0,8.7-0.1,8.7-6.4c0,0-4.9,4.7-11.1,2.7c-6.2-2-13.8-5.1-25.8-5.1s-17.3,6.4-17.3,10
		l-1.1-3.8c0,0-4.9,2-4.9,4.2l-0.4-4c0,0-5.2,1.8-5.7,4.2c0.3-2.3,2.9-11.8,27.3-12.2c0,0-36.1-4.4-36.1,14.9c0,0,0.1,5.1,2.3,9.1
		c0,0-5.3,5.6-9.6,6.4l3.8,0.7c0,0-5.1,14.4-8.2,14.4c-3.1,0-4.7-1.8-3.6-3.6c0,0-8.7,5.1-4,17.3l2.9-0.7c0,0,5.6,10,21.8,6.4
		c0,0-7.1-1.6-7.1-7.8s6.7-6.4,15.8-6.7v-1.8h9.8c0,0-3.1-8.7,4.9-8.7c0,0,0-3.6-1.1-3.6c0,0,1.3-2.7,5.3-2.7s12,6,12,15.6
		c0,9.6-2.9,13.3-15.3,18c-10.2,3.8-33.6,11.1-46.3,18.7c-25.3-36-22.5-86-22.5-86c43.8-4,63.8-23.6,63.8-23.6s26.7,21.8,63.8,22
		C243.8,41.3,247.6,142.9,179.3,159.6z M164.1,54.9c0,0.1,0,0.3,0,0.4C164.1,55.3,164.1,55.2,164.1,54.9z"/>
</g>
</svg>
