<?xml version="1.0" encoding="utf-8"?>
<!-- Generator: Adobe Illustrator 24.3.0, SVG Export Plug-In . SVG Version: 6.00 Build 0)  -->
<svg version="1.1" id="圖層_1" xmlns="http://www.w3.org/2000/svg" xmlns:xlink="http://www.w3.org/1999/xlink" x="0px" y="0px"
	 viewBox="0 0 215.8 216" style="enable-background:new 0 0 215.8 216;" xml:space="preserve">
<style type="text/css">
	.st0{fill:url(#SVGID_1_);}
</style>
<linearGradient id="SVGID_1_" gradientUnits="userSpaceOnUse" x1="-1.588595e-04" y1="108.0062" x2="215.8384" y2="108.0062">
	<stop  offset="0" style="stop-color:#D7DAEE"/>
	<stop  offset="1.017610e-06" style="stop-color:#D7DAEE"/>
	<stop  offset="1" style="stop-color:#A0A8C2"/>
</linearGradient>
<path class="st0" d="M106.9,0C47.7,0.3-0.1,48.8,0,108.2C0.2,168.3,48.7,216.3,108.9,216c58.8-0.3,107.2-49.2,106.9-107.8
	C215.6,47.6,167.3-0.3,106.9,0z M165,181.4c-29,22.5-61.2,25.6-95.2,11.8c-4.6-1.9-6.3-4.3-6.3-9.6c0.3-36.3,0.2-72.7,0.2-109
	c0-2,0-3.9,0-6.3c24.1,0,47.5-0.7,70.7,0.2c17.9,0.7,29.3,13.8,29.8,31.5c0.6,18.6-9.9,32.4-28.2,34.7c-10.6,1.4-21.5,0.2-32.6,0.2
	v-26.3c3.7,0,7.5,0,11.2,0c4.8,0,9.7,0.2,14.5-0.1c4.1-0.3,6.9-2.6,7.2-6.9c0.3-4.3-2-6.9-6.2-7.8c-1.4-0.3-3-0.2-4.5-0.2
	c-12.3,0-24.6,0-37.1,0v56.9c5.2,0,10.2,0,15.1,0c10.3-0.1,20.7,0.1,31-0.3c22.4-1,37.6-12.4,42.8-31.7c6.2-23.1-1.2-45-19.4-57
	c-8.6-5.7-17.9-8.8-28.2-8.9c-25.7-0.1-51.3-0.1-77-0.1c-1,0-1.9,0.3-3.3,0.5v126.3l-1.4,0.9c-5-5.6-10.5-10.8-15-16.7
	c-23.4-31.1-24.8-73.1-3.8-106c20.6-32.4,59.8-48.9,97.5-41.1c37.8,7.9,67.3,38.1,73,76.4C205.2,128.8,193.7,159.1,165,181.4z"/>
</svg>
