<?xml version="1.0" encoding="utf-8"?>
<!-- Generator: Adobe Illustrator 24.3.0, SVG Export Plug-In . SVG Version: 6.00 Build 0)  -->
<svg version="1.1" id="圖層_1" xmlns="http://www.w3.org/2000/svg" xmlns:xlink="http://www.w3.org/1999/xlink" x="0px" y="0px"
	 viewBox="0 0 515 198.9" style="enable-background:new 0 0 515 198.9;" xml:space="preserve">
<style type="text/css">
	.st0{fill:#FFFFFF;}
	.st1{clip-path:url(#SVGID_2_);fill:#FFFFFF;}
	.st2{clip-path:url(#SVGID_4_);fill:#FFFFFF;}
	.st3{clip-path:url(#SVGID_6_);fill:#FFFFFF;}
</style>
<path class="st0" d="M82.5,8.3h63l1.5,21.4h-3.8c-1.5-8.7-1.7-10.5-4.8-14c-3.2-3.5-9.6-3.2-14.7-3.2h-16.1c-1.1,0-2.1,0.3-3,1.1
	c-0.8,0.9-1.1,2.1-1.1,3.2v27.1h7.1c3.5,0.1,6.9-1.4,9.2-4.1c2.7-3.6,4.1-8,3.8-12.5h3.9v38.2h-3.9c-0.1-6.3-1.5-10.8-3.9-13.5
	c-2.4-2.7-6-4.2-9.8-4.1h-6.5v30.7c0,1.1,0.5,2.1,1.2,2.7c1.2,0.8,2.6,1.1,3.9,0.9h12.8c13.8,0,21.8-4.5,23.9-22.3h4.1l-1.4,26.5
	H82.2v-4.2h3.5c1.7,0.2,3.3-0.3,4.7-1.2c0.9-0.9,1.4-2.1,1.4-3.3V16.6c0.2-1.2-0.3-2.4-1.2-3.2c-1.1-0.8-2.4-1.2-3.6-1.1h-4.7
	L82.5,8.3z M144.5,34.2h28.6v3.8c-2.3-0.2-4.5,0.2-6.6,0.9c-0.9,0.5-1.5,1.4-1.4,2.4c0,0.8,0.2,1.7,0.6,2.4l13.8,30.8l12.6-29.9
	c0.2-0.5,0.3-1.1,0.3-1.5c0-2.7-2.7-4.4-8-5.1v-3.8h21.7v3.8c-1.8,0.2-3.6,0.8-5.3,1.8c-1.4,1.1-2.4,2.4-3,3.9L178.8,88h-3L155,42.3
	c-0.6-1.4-1.5-2.6-2.7-3.5c-2.6-0.8-5.1-1.1-7.8-1.1V34.2z M226,32.5c6.8-0.1,13.2,2.7,17.8,7.7c5,5.4,7.5,12.6,7.2,20
	c0.2,5.1-0.9,10.1-3.2,14.6c-2.1,3.9-5.3,7.2-9.2,9.6c-3.9,2.3-8.3,3.5-12.8,3.5c-6.6,0.2-12.9-2.7-17.2-7.7
	c-9.5-11.7-9.5-28.3,0-40C212.9,35.2,219.4,32.5,226,32.5 M226,36.6c-4.2,0-8,2.1-10.2,5.7c-2.7,3.8-4.1,9.8-4.1,17.9
	c0,8.1,1.4,14.1,4.1,18.2c2.3,3.6,6,5.7,10.2,5.7s8.3-2.1,10.5-5.7c2.7-3.8,4.1-10.1,4.1-18.7c0-8.1-1.4-13.8-4.1-17.4
	C234.3,38.5,230.2,36.4,226,36.6 M268.3,7.2v71.5c0,0.9,0.3,1.8,0.9,2.4c0.9,0.8,2.1,1.2,3.5,1.1h3.3v4.2h-25.3v-4.1h3.2
	c1.4,0.2,2.7-0.3,3.8-1.2c0.9-0.9,1.4-2.3,1.2-3.5V18.4c0.2-1.5-0.5-3-1.5-4.1c-1.4-1.2-3.2-1.8-5.1-1.8h-4.7V8.3L268.3,7.2z
	 M294.8,33.3v34.6c-0.1,3.6,0.9,7.1,3.2,9.8c2.1,2.3,5.1,3.6,8.3,3.5c4.1,0,8-1.8,10.7-5.1c3-3.5,4.5-8,4.4-12.6V43.8
	c0.1-1.7-0.6-3.2-2-4.2c-2.3-1.2-4.8-1.8-7.4-1.7V34l18.4-0.9V76c-0.1,1.7,0.5,3.3,1.7,4.5c1.4,1.1,3,1.7,4.7,1.7h3.3v3.6l-17.6,0.5
	L321.2,76c-2.7,3.3-5.9,6-9.3,8.3c-2.9,1.8-6.2,2.7-9.6,2.7c-4.4,0.2-8.7-1.5-11.9-4.7c-3.2-3.2-4.8-8.4-4.8-15.9V43.6
	c0.2-1.8-0.8-3.6-2.4-4.7c-2.1-0.9-4.5-1.4-6.9-1.2v-3.9L294.8,33.3z M350.4,12.8h3.8v21.4h31.7v5.1h-31.7v33.5
	c-0.2,2.4,0.6,4.8,2.1,6.6c1.4,1.5,3.2,2.4,5.3,2.4c2.6,0,5-1.4,6.5-3.5c2.1-3.5,3.2-7.5,3.2-11.7h3.8c-0.2,6.9-1.8,12-4.7,15.5
	c-2.9,3.3-7.1,5.1-11.4,5.1c-3.8,0.2-7.4-1.1-10.1-3.5c-2.6-2.4-3.8-5.9-3.6-9.3V39.6h-9v-3.9c3.6-0.5,7.1-2.4,9.3-5.1
	C348.8,25,350.6,19,350.4,12.8 M374.8,34.2l20.8-0.6v45c-0.2,0.9,0.3,2,0.9,2.6c0.9,0.8,2.1,1.2,3.2,1.1h3.8v4.2H378v-4.2h3.3
	c1.4,0.2,2.6-0.3,3.6-1.2c0.8-0.9,1.2-2.3,1.2-3.5V45.6c0.2-1.8-0.6-3.5-1.8-4.7c-1.5-1.2-3.5-1.8-5.3-1.7h-4.4v-5.1H374.8z
	 M389.2,9.5c1.7,0,3.3,0.8,4.4,2c1.2,1.2,2,2.9,2,4.5c0,1.7-0.6,3.2-1.8,4.4c-2.4,2.4-6.5,2.4-8.9-0.1c-2.4-2.4-2.4-6.5,0.2-8.9
	C386.2,10.1,387.7,9.5,389.2,9.5 M429.7,32.5c6.8-0.1,13.2,2.7,17.8,7.7c5,5.4,7.5,12.6,7.2,20c0.2,5.1-0.9,10.1-3.2,14.6
	c-2.1,3.9-5.3,7.2-9.2,9.6c-3.9,2.3-8.3,3.5-12.8,3.5c-6.6,0.2-12.9-2.7-17.1-7.7c-9.5-11.7-9.5-28.3,0-40
	C416.8,35.2,423.1,32.5,429.7,32.5 M429.7,36.6c-4.2,0-8,2.1-10.2,5.7c-2.7,3.8-4.1,9.8-4.1,17.9c0,8.1,1.4,14.1,4.1,18.2
	c2.3,3.6,6,5.7,10.2,5.7s8.3-2.1,10.5-5.7c2.7-3.8,4.1-10.1,4.1-18.7c0-8.1-1.4-13.8-4.1-17.4C438,38.5,434.1,36.4,429.7,36.6
	 M453.5,34.2l17.3-1.1c0.8,3.8,1.4,7.7,1.5,11.4c2-3.5,4.8-6.5,8.3-8.6c3.3-2,7.1-2.9,10.8-2.9c3-0.1,6,0.6,8.7,2.1
	c2.6,1.5,4.5,3.8,5.6,6.5c1.5,3,2.1,6.5,2.1,9.9V77c-0.2,1.5,0.3,2.9,1.4,4.1c1.2,0.9,2.7,1.4,4.4,1.2h1.5v4.2h-23.2v-4.2h0.5
	c1.8,0.2,3.6-0.3,5.1-1.2c1.1-0.9,1.5-2.1,1.5-3.5V55.2c0.1-3.8-0.6-7.5-2.4-10.8c-2-3.3-5.6-5.3-9.5-5c-4.1,0-8,1.8-10.5,5.1
	c-3,3.8-4.4,8.4-4.2,13.2v19.4c-0.2,1.5,0.3,3,1.4,4.1c1.2,0.9,2.9,1.4,4.4,1.2h1.5v4.2h-23.3v-4.2h1.5c1.5,0.2,3-0.3,4.2-1.1
	c0.9-0.6,1.4-1.7,1.4-2.7V45c0.2-1.8-0.6-3.8-1.8-5.1c-1.5-1.2-3.3-1.8-5.3-1.7h-2.7V34.2z"/>
<path class="st0" d="M61.5,87h-1.2v-1.8h0.5c0.5,0,0.8,0,1.2,0.2c0.3,0.2,0.5,0.5,0.5,0.8C62.6,86.5,62.1,87,61.5,87 M63.6,85.9
	c0-0.6-0.3-1.1-0.8-1.5c-0.6-0.3-1.2-0.5-1.8-0.5h-2v6h1.2v-2.3h1.1l1.2,2.3h1.4l-1.4-2.4C63.2,87.6,63.8,86.8,63.6,85.9 M61.4,91.9
	c-2.6,0-4.7-2.1-4.7-4.7s2.1-4.7,4.7-4.7c2.6,0,4.7,2.1,4.7,4.7S63.9,91.9,61.4,91.9 M61.4,81.5c-3.2,0-5.9,2.6-5.9,5.9
	c0,3.3,2.6,5.9,5.9,5.9c3.2,0,5.9-2.6,5.9-5.9C67.2,84.1,64.5,81.5,61.4,81.5"/>
<g>
	<defs>
		<path id="SVGID_1_" d="M22,0C14.6,0,7.1,1.8,0.2,5.6C8.7,25,14.9,48.3,66.5,44.1C64.5,15.9,44,0.1,22.2,0H22z"/>
	</defs>
	<use xlink:href="#SVGID_1_"  style="overflow:visible;fill:#FFFFFF;"/>
	<clipPath id="SVGID_2_">
		<use xlink:href="#SVGID_1_"  style="overflow:visible;"/>
	</clipPath>
	
		<rect x="5.8" y="-11.4" transform="matrix(0.1064 -0.9943 0.9943 0.1064 5.7625 54.7121)" class="st1" width="55.1" height="71.1"/>
</g>
<g>
	<defs>
		<path id="SVGID_3_" d="M0.2,86.7c27.8,14.9,63.6-0.8,66.3-38.5c-4.1-0.3-8-0.5-11.6-0.5C13.9,47.6,8,68.8,0.2,86.7"/>
	</defs>
	<use xlink:href="#SVGID_3_"  style="overflow:visible;fill:#FFFFFF;"/>
	<clipPath id="SVGID_4_">
		<use xlink:href="#SVGID_3_"  style="overflow:visible;"/>
	</clipPath>
	<rect x="3" y="38.8" transform="matrix(0.1064 -0.9943 0.9943 0.1064 -44.402 99.7949)" class="st2" width="60.7" height="71.7"/>
</g>
<g>
	<defs>
		<path id="SVGID_5_" d="M9.3,67.4c1.1,0,2.3,0.1,3.3,0.1c14.9,0,28.9-7.4,37-19.9C26.9,48.9,16.1,57.2,9.3,67.4 M0,5.7
			c7.7,17.4,13.5,37.8,51.6,39c4.7-8.3,6.5-17.8,5.3-27.2C48.2,6.2,35,0.1,21.6,0.1C14.3,0.1,6.8,1.9,0,5.7"/>
	</defs>
	<use xlink:href="#SVGID_5_"  style="overflow:visible;fill:#FFFFFF;"/>
	<clipPath id="SVGID_6_">
		<use xlink:href="#SVGID_5_"  style="overflow:visible;"/>
	</clipPath>
	<rect x="0" y="0.1" class="st3" width="58.1" height="67.4"/>
</g>
<path class="st0" d="M168.5,104.9l4.7-8.3h3.8l2.1,32.9h-3.6c-2.9-9.5-6-16.2-9.9-20.6c-4.1-5-10.1-8-16.5-8.1
	c-4.7-0.2-9.3,1.4-13.1,4.1c-4.1,3.2-7.1,7.4-8.7,12.2c-2.4,6.6-3.3,13.7-3,20.8c-0.3,6.9,0.8,13.7,3,20.3c1.5,4.7,4.5,8.9,8.4,11.9
	c3.6,2.6,8.1,3.9,12.5,3.8c5.6,0.3,11-1.7,15-5.4c3.6-3.8,5.6-8.9,5.3-14v-7.8c0-1.2-0.5-2.3-1.4-2.9c-1.4-0.8-3-1.2-4.7-1.1h-7.1
	v-3.9h32.5v3.9h-2.6c-1.5-0.2-3.2,0.3-4.5,1.1c-0.9,0.8-1.4,2-1.4,3.2v31.3h-3.6c-1.4-5-2.7-9.6-4.2-14c-2.4,4.2-5.9,7.7-9.9,10.2
	c-3.9,2.3-8.4,3.5-13.1,3.5c-6.8,0-13.5-1.8-19.3-5.4c-18.5-11.7-24.7-35.8-14-54.9c3.3-6.3,8.1-11.7,14.1-15.5
	c5.4-3.6,11.7-5.6,18.2-5.7c3.5,0,6.8,0.6,9.9,1.8C161.5,99.9,165.1,102.1,168.5,104.9"/>
<path class="st0" d="M243.4,172.4c-2.1,0-4.1-0.2-5.9-0.5c-1.2-0.3-2.3-1.1-2.9-2.1c-0.9-1.5-1.4-3.3-1.2-5v-28.6
	c0-3.9-1.8-7.5-5-9.9c-4.2-3-9.2-4.4-14.3-4.1c-5.9-0.3-11.6,1.4-16.4,4.7c-4.1,3-6.2,6.5-6.2,10.1c-0.2,1.8,0.6,3.5,1.8,4.8
	c1.2,1.4,2.9,2,4.7,2c1.5,0,3-0.6,4.2-1.7c1.1-1.1,1.7-2.6,1.7-4.1c-0.2-1.4-0.8-2.9-1.7-3.9c-0.8-0.6-1.2-1.5-1.4-2.6
	c0-1.1,0.9-2,2.6-3c2.6-1.4,5.6-2.1,8.4-2c3.2-0.2,6.2,0.9,8.6,3c2.3,1.8,3.5,4.4,3.5,7.2v8c-8.9,0.8-17.5,3.2-25.4,7.2
	c-6.5,3.6-9.6,8.1-9.6,13.5c0,3.5,1.5,6.8,4.2,8.9c3.5,2.6,7.8,3.8,12.2,3.5c3.3,0.1,6.6-0.5,9.6-1.8c3.5-2,6.6-4.5,9.3-7.5
	c1.4,3.5,2,5,3.8,6.3c1.8,1.4,6.8,1.5,9.3,1.5c3.3,0,6.9,0.5,6.9-2.6L243.4,172.4z M219.3,168.8c-3,3.2-7.1,5-11.4,5
	c-2.3,0-4.5-0.8-6-2.4c-1.7-2-2.6-4.4-2.4-6.8c-0.2-3.6,1.4-7.2,4.4-9.5c3.9-2.9,10.5-5,20-6.3l0.3,7.5
	C224.3,161,222.5,165.5,219.3,168.8"/>
<path class="st0" d="M241.4,124.3l14.9-0.9c0.8,3.6,1.4,7.4,1.7,11.1c2.3-3.5,5.1-6.3,8.4-8.6c2.9-1.7,6-2.6,9.3-2.6
	c3.2-0.2,6.3,0.9,8.9,2.9c2.7,2.4,4.5,5.7,5.4,9.2c2.1-3.6,5-6.6,8.3-9c3-2,6.5-3,9.9-3c4.1-0.3,8,1.2,10.7,4.2
	c3.2,4.1,4.8,9.2,4.7,14.4v25.9c-0.1,1.2,0.3,2.4,1.2,3.2c1.4,0.9,3,1.4,4.7,1.4h2.4v4.2h-26.3v-4.2h2.6c1.7,0.2,3.3-0.3,4.7-1.1
	c0.9-0.9,1.5-2.1,1.4-3.3v-25.9c0.1-3.3-0.8-6.5-2.9-9c-2-2.1-4.7-3.3-7.5-3.2c-2.3,0-4.5,0.6-6.3,1.8c-2,1.4-3.5,3.2-4.5,5.3
	c-1.4,2.6-2.3,5.4-2.4,8.4V168c-0.2,1.2,0.3,2.6,1.2,3.5c1.1,0.8,2.4,1.2,3.8,1.1h3.6v4.2h-26.8v-4.2h3.2c1.5,0.1,3-0.3,4.2-1.1
	c0.9-0.6,1.4-1.8,1.4-2.9v-24.1c0.3-3.9-0.6-7.8-2.7-11.1c-1.7-2.3-4.5-3.6-7.2-3.5c-3.5-0.2-6.9,1.4-9,4.1c-3,3.8-4.7,8.4-4.5,13.2
	v20.9c-0.2,1.2,0.3,2.4,1.1,3.3c1.4,0.9,3,1.4,4.7,1.2h2.7v4.2h-26.3v-4.2h3.9c1.2,0.2,2.4-0.3,3.5-1.1c0.8-0.8,1.2-1.8,1.2-2.9
	v-34.3c0.2-1.5-0.5-3-1.5-4.2c-1.7-1.2-3.8-1.8-5.9-1.8v-4.2H241.4z"/>
<path class="st0" d="M333.2,124.3l18.7-0.6v45c-0.1,0.9,0.2,2,0.9,2.6c0.9,0.8,2.1,1.2,3.2,1.1h5.9v4.2h-31.9v-4.2h7.7
	c1.4,0.2,2.6-0.3,3.6-1.2c0.8-0.9,1.2-2.3,1.2-3.5v-32.9c0.2-1.8-0.6-3.5-1.8-4.7c-1.5-1.2-3.5-1.8-5.3-1.7h-2.1V124.3z"/>
<path class="st0" d="M345.7,99.6c1.7,0,3.3,0.8,4.4,2c1.2,1.2,2,2.7,2,4.5c0,1.7-0.6,3.2-1.8,4.4c-2.4,2.4-6.5,2.4-8.9-0.2
	c-2.4-2.4-2.4-6.5,0.1-8.9C342.5,100.2,344,99.6,345.7,99.6"/>
<path class="st0" d="M360.4,124.3l17.3-1.1c0.8,3.8,1.4,7.7,1.5,11.4c2-3.5,4.8-6.5,8.3-8.6c3.3-2,7.1-2.9,10.8-2.9
	c3-0.2,6,0.6,8.7,2.1c2.6,1.5,4.5,3.8,5.6,6.5c1.5,3.2,2.1,6.5,2.1,9.9v25.4c-0.2,1.5,0.3,2.9,1.4,4.1c1.2,0.9,2.7,1.4,4.4,1.2h1.5
	v4.2h-23.3v-4.2h0.5c1.8,0.2,3.6-0.3,5.1-1.2c1.1-0.9,1.5-2.1,1.5-3.5v-22.4c0.2-3.8-0.6-7.5-2.4-10.8c-2-3.3-5.6-5.3-9.5-5
	c-4.1,0-8,1.8-10.5,5.1c-3,3.8-4.4,8.4-4.2,13.2v19.4c-0.1,1.5,0.3,3,1.4,4.1c1.2,0.9,2.9,1.4,4.4,1.2h1.5v4.2h-25.4v-4.2h3.6
	c1.5,0.1,3-0.3,4.2-1.1c0.9-0.6,1.5-1.7,1.4-2.9v-33.7c0.1-1.8-0.6-3.8-1.8-5.1c-1.5-1.2-3.3-1.8-5.3-1.7h-2.7L360.4,124.3z"/>
<path class="st0" d="M485.3,120c-0.6-0.7-1.4-1.2-2.2-1.5c-1.2-0.7-2.6-0.9-4.1-0.7c-3.5,0-13.7,5.6-17.4,9.3
	c-2.1-1.4-4.4-2.6-6.9-3.3c-2.4-0.8-5-1.1-7.5-1.1c-5.6-0.3-11.1,1.5-15.5,5.1c-3.9,3.2-6,7.8-6,12.8c0,3,0.8,6,2.4,8.6
	c1.8,2.7,4.2,4.8,7.1,6.3c-3,0.8-5.7,2.4-7.8,4.5c-1.7,1.7-2.4,3.9-2.4,6.2c-0.2,2.4,0.9,4.8,2.7,6.5c2.4,2,5.3,3.3,8.3,3.9
	c-3.5,0.5-6.9,1.8-9.8,4.1c-1.8,1.5-2.9,3.6-2.9,6c0.2,3.3,2,6.2,4.7,7.8c3.8,2.9,9.8,4.4,17.8,4.4c9.6,0,17-2.1,21.8-6.5
	c3.5-2.9,5.3-6.9,5.3-11.3c0.2-3.8-1.7-7.4-4.7-9.6c-3.2-2.3-8.1-3.5-15-3.5l-13.8,0.3c-2.3,0.1-4.4-0.3-6.5-1.2
	c-1.1-0.8-1.7-2-1.7-3.3c0-1.7,0.8-3.2,2.1-4.1c2.7-1.2,5.7-1.7,8.6-1.4h6c3.6-0.2,7.2-1.1,10.4-2.9c3.2-1.5,5.9-3.8,7.8-6.6
	c1.7-2.6,2.4-5.6,2.4-8.6c0-1.8-0.3-3.6-0.9-5.3c-0.9-2.1-2-3.9-3.3-5.7c2.7-2.3,5.9-4.1,9.2-5.3c0.8,0,1.2,0.6,1.5,1.7
	c0.4,1.4,1.1,2.5,1.9,3.1c2.4,2.5,6.4,2.4,8.8,0.1c1.2-1.2,1.8-2.7,1.8-4.4C487.2,122.8,486.5,121.2,485.3,120 M450.2,176.6
	c3.2-0.1,6.5,0.2,9.6,1.2c2,0.5,3.6,1.5,4.8,3c0.9,1.2,1.5,2.7,1.5,4.2c0,2.6-1.5,5-4.8,7.1c-4.4,2.4-9.5,3.5-14.4,3.2
	c-4.2,0.3-8.6-0.8-12.3-2.9c-2.1-1.4-3.3-3.6-3.3-6c0.2-3,1.8-5.6,4.4-6.9C438.5,177.5,443.5,176.6,450.2,176.6 M455,151
	c-0.3,0.5-0.8,0.8-1.2,1.2c-4.5,3.9-11.3,3.3-15.2-1.2c-2.3-3.2-3.5-7.1-3.2-11c-0.3-3.8,0.9-7.4,3.2-10.2c2.1-2.4,5.1-3.6,8.3-3.6
	s6.2,1.4,8,3.6c2.4,3,3.5,6.6,3.3,10.4C458.5,144.1,457.3,147.9,455,151"/>
</svg>
