<?xml version="1.0" encoding="utf-8"?>
<!-- Generator: Adobe Illustrator 27.0.0, SVG Export Plug-In . SVG Version: 6.00 Build 0)  -->
<svg version="1.1" id="圖層_1" xmlns="http://www.w3.org/2000/svg" xmlns:xlink="http://www.w3.org/1999/xlink" x="0px" y="0px"
	 viewBox="0 0 249.2 126.2" style="enable-background:new 0 0 249.2 126.2;" xml:space="preserve">
<style type="text/css">
	.st0{fill:url(#SVGID_1_);}
	.st1{fill:url(#SVGID_00000139281768992006389370000014118446486641938332_);}
	.st2{fill:url(#SVGID_00000075881445320220906530000014558511351531999678_);}
</style>
<g>
	<linearGradient id="SVGID_1_" gradientUnits="userSpaceOnUse" x1="-0.4" y1="51.3573" x2="95.3718" y2="51.3573">
		<stop  offset="1.017608e-06" style="stop-color:#D7DAEE"/>
		<stop  offset="1" style="stop-color:#A0A8C2"/>
	</linearGradient>
	<path class="st0" d="M-0.4,71.3C0.4,58,12.6,46.4,26,51.9c2.3,1,3.5,2.3,3.1,4.1c-1,4.4-6.6-1.8-9.4-1.3
		C0.3,53.5,0.9,81.3,14.8,88.6c13.8,9.7,28.8,12.7,45,6.3c12.8-4.6,25.5-21.6,14-33.8c-9.1-9.4-21.9-13.8-30.8-23.6
		C27.1,21.1,46.7,0.7,66.1,0.5c11.4-2.6,36.9,5.6,27,20.4c-2.6,3.3-14.5,4.9-13.7-1.2c2-4,8.2,3.1,10.4-1.6c0-17-30.8-16.1-40.7-7.9
		c-20.3,19.1,17,31.9,27.7,43.5C111.9,100.3,1.9,127.3-0.4,71.3z"/>
	
		<linearGradient id="SVGID_00000055693133478168621700000003276334389375495070_" gradientUnits="userSpaceOnUse" x1="88.0426" y1="85.2344" x2="220.9812" y2="85.2344">
		<stop  offset="1.017608e-06" style="stop-color:#D7DAEE"/>
		<stop  offset="1" style="stop-color:#A0A8C2"/>
	</linearGradient>
	<path style="fill:url(#SVGID_00000055693133478168621700000003276334389375495070_);" d="M220.8,54.3c-3-2.5-16.3,19.1-21.4,22.2
		c0.7-10,5.8-20.1,3.8-30.6c-0.7-4.3-6.1,0.5-5.4,3.3c0.3,8.9-2.6,16.8-8.1,23.7c-17.3,16.1-9.7-10.4-3.1-17.8
		c-4.9-16.1-29,49.2-46.6,19.9c5.1-6.4,10.7-12,17-17c1.5-1.2,2.1-3.1,1.2-4.3c-3.6-3-17,14.5-20.4,17.8c-3-4.6-2.8-22.9-5.9-21.9
		c-5.9,1.6-4.3,8.2-3.5,12.7c-2.3,7.4-10,12.8-14.7,19.3c-6.3,8.2-21.2,10-18.8-4c9.1-0.2,18.3-5.9,21.1-14.8
		c2.5-7.6-5.8-9.2-10.9-5.9c-8.6,5.3-13.8,13-16.3,22.7c-3.1,9.4,5.4,19.1,15.5,14c11.2-5.3,17.8-16.1,25.7-25
		c0.7,3,4.4,6.4,2.8,9.4c-2.1,5.3-12.2,12.7-7.9,18.1c3.5,3.5,8.2-13.3,11-16c11.5,16.5,27.3,2.5,36.4-8.6
		c0.2,15.6,13.8,12.4,21.6,3.3c-3.8,16.5-24.9,20.3-34.9,32.6c-6.6,4.8-10.7,20.9,2.1,18.4c18.6-7.1,26.4-27.7,36.6-43
		C202.3,78.4,223.2,59.9,220.8,54.3L220.8,54.3z M106.5,60.9c1-0.5,2.6-0.2,3.8-0.2c1.2,7.1-8.4,13.2-14.2,12.8
		C98.2,68.2,101.4,63.7,106.5,60.9z M180.6,102.8c-2.5,4.1-20.1,25.9-21.4,13.7c4.9-11.9,18.8-17.8,28.2-25.9
		c0.2,0.2,0.3,0.3,0.7,0.3C185.5,94.9,183.2,99,180.6,102.8L180.6,102.8z"/>
	
		<linearGradient id="SVGID_00000094592546477226182660000003866761158994126728_" gradientUnits="userSpaceOnUse" x1="225.0611" y1="37.8717" x2="249.6" y2="37.8717">
		<stop  offset="1.017608e-06" style="stop-color:#D7DAEE"/>
		<stop  offset="1" style="stop-color:#A0A8C2"/>
	</linearGradient>
	<path style="fill:url(#SVGID_00000094592546477226182660000003866761158994126728_);" d="M249.6,44.5l-8.6-0.3l-5.8,6.4l-2.3-8.4
		l-7.9-3.6l7.2-4.8l1-8.6l6.8,5.4l8.4-1.6l-3.1,8.1C245.3,37,249.6,44.5,249.6,44.5z M243.3,32.8l-4.6,1l-3.6-3.3l-0.5,4.9l-4,2.6
		l4.3,2l1.2,4.4l3.1-3.5l4.6,0.2l-2.3-4.1L243.3,32.8L243.3,32.8z"/>
</g>
</svg>
