<?xml version="1.0" encoding="utf-8"?>
<!-- Generator: Adobe Illustrator 24.3.0, SVG Export Plug-In . SVG Version: 6.00 Build 0)  -->
<svg version="1.1" id="圖層_1" xmlns="http://www.w3.org/2000/svg" xmlns:xlink="http://www.w3.org/1999/xlink" x="0px" y="0px"
	 viewBox="0 0 289.2 249.2" style="enable-background:new 0 0 289.2 249.2;" xml:space="preserve">
<style type="text/css">
	.st0{fill:url(#SVGID_1_);}
	.st1{fill:url(#SVGID_2_);}
	.st2{fill:url(#SVGID_3_);}
	.st3{fill:url(#SVGID_4_);}
	.st4{fill:url(#SVGID_5_);}
	.st5{fill:url(#SVGID_6_);}
	.st6{fill:url(#SVGID_7_);}
</style>
<g>
	<linearGradient id="SVGID_1_" gradientUnits="userSpaceOnUse" x1="163.7953" y1="33.2769" x2="268.5503" y2="33.2769">
		<stop  offset="1.017608e-06" style="stop-color:#D7DAEE"/>
		<stop  offset="1" style="stop-color:#A0A8C2"/>
	</linearGradient>
	<path class="st0" d="M268.6,66.6c-4.2-16-12-29.7-23.1-40.2C227.6,9.4,202.6,0,175,0c-3.7,0-7.5,0.2-11.2,0.5
		c6.6,1.6,13.1,3.6,19.6,5.9C218.3,18.8,248.4,40.2,268.6,66.6z"/>
	<linearGradient id="SVGID_2_" gradientUnits="userSpaceOnUse" x1="22.8086" y1="211.916" x2="165.1216" y2="211.916">
		<stop  offset="1.017608e-06" style="stop-color:#D7DAEE"/>
		<stop  offset="1" style="stop-color:#A0A8C2"/>
	</linearGradient>
	<path class="st1" d="M22.8,174.7c3.8,17.2,11.6,32.4,23.2,44.7c18.1,19.2,44.4,29.8,74.1,29.8c14.9,0,30.2-2.7,45-7.9
		c-20.4-0.4-40.9-4.3-61-11.4C71.2,218.2,42.9,198.9,22.8,174.7z"/>
	<linearGradient id="SVGID_3_" gradientUnits="userSpaceOnUse" x1="76.3049" y1="99.1171" x2="123.9209" y2="99.1171">
		<stop  offset="1.017608e-06" style="stop-color:#D7DAEE"/>
		<stop  offset="1" style="stop-color:#A0A8C2"/>
	</linearGradient>
	<path class="st2" d="M114,87.8c-1.8-0.3-6.1-0.4-12.9-0.4H82.2l-5.9,23.5h18.6c8.4,0,14.4-0.5,18-1.5c3.7-1,6.4-2.6,8.3-4.8
		c1.8-2.3,2.8-4.7,2.8-7.2c0-2.5-0.9-4.6-2.6-6.2C119.6,89.4,117.2,88.3,114,87.8z"/>
	<linearGradient id="SVGID_4_" gradientUnits="userSpaceOnUse" x1="66.2271" y1="140.9766" x2="117.2881" y2="140.9766">
		<stop  offset="1.017608e-06" style="stop-color:#D7DAEE"/>
		<stop  offset="1" style="stop-color:#A0A8C2"/>
	</linearGradient>
	<path class="st3" d="M113.2,131.3c-2.7-2.1-7.3-3.2-13.6-3.2H72.3l-6.1,25.9h22.1c9.2,0,15.4-0.6,18.6-1.6c3.1-1.1,5.7-2.8,7.6-5.2
		c1.9-2.4,2.9-5,2.9-7.7C117.3,136.1,115.9,133.4,113.2,131.3z"/>
	<linearGradient id="SVGID_5_" gradientUnits="userSpaceOnUse" x1="20.2371" y1="118.7033" x2="272.1699" y2="118.7033">
		<stop  offset="1.017608e-06" style="stop-color:#D7DAEE"/>
		<stop  offset="1" style="stop-color:#A0A8C2"/>
	</linearGradient>
	<path class="st4" d="M272,88.3c-18.1-32.4-51.4-59-91.6-73.3c-13.8-4.9-27.9-8.2-42-9.8c-24.9,7-48.8,20.8-69.2,39.9
		C36.2,76,18.5,116.3,20.4,156c19,29.1,49.8,52.2,86.8,65.3c20.4,7.2,41.2,10.9,61.9,10.9c6.4,0,12.8-0.4,19-1.1
		c12.3-6.7,23.8-15.1,34.3-24.9C255.5,175.1,274.4,130,272,88.3z M140.9,109.2c-3.4,4-9.8,9.1-16.9,11.2c5.7,1.4,13.8,9.1,13.8,18.7
		c0,14.9-9.7,26.1-16.3,28.5c-6.7,2.3-15.4,2.3-27,2.3H42.1l23.2-99h38c8.2,0,14,0.2,17.3,0.7c5.5,0.7,10.1,2,13.9,4
		c3.8,2,6.7,4.7,8.7,8.1c2,3.4,3,7.1,3,11.2C146,100.4,144.3,105.2,140.9,109.2z M192.7,171.5c-13.7,0-45.1-7.6-45.1-42.1
		c0-28.6,17.4-45.7,26.9-51.5c9.5-5.8,20.7-8.8,33.5-8.8c12.9,0,21.1,3.6,28.9,8.9c7.7,5.3,14.5,15.7,13.5,25.8h-22.8
		c-0.9-10.8-13.1-18.3-19.4-18.3c-7.4,0-14.2,1.7-20.3,5.1c-6.2,3.4-11,8.7-14.5,15.8c-3.5,7.2-3.9,15.7-3.7,24.1
		c0.3,15.4,15.3,23.8,23.5,23.8c4.9,0,9.9-0.6,15.1-1.9c5.1-1.2,16.2-8.1,19-19.8c-5.9-0.1-34.6,0-34.6,0l3.8-16.5
		c0,0,47.9,0.6,55.8,0c-4.1,40.6-25.1,49.4-33.7,51.7C210.2,170.4,201.5,171.5,192.7,171.5z"/>
	<linearGradient id="SVGID_6_" gradientUnits="userSpaceOnUse" x1="204.96" y1="169.4365" x2="289.2113" y2="169.4365">
		<stop  offset="1.017608e-06" style="stop-color:#D7DAEE"/>
		<stop  offset="1" style="stop-color:#A0A8C2"/>
	</linearGradient>
	<path class="st5" d="M280.7,104.5c0,0-3.5,34-19.7,68.9c-16.2,34.8-56,61-56,61s44.7-6.5,69.4-42.5
		C303.6,149.2,280.7,104.5,280.7,104.5z"/>
	<linearGradient id="SVGID_7_" gradientUnits="userSpaceOnUse" x1="-1.024750e-04" y1="74.1805" x2="123.9211" y2="74.1805">
		<stop  offset="1.017608e-06" style="stop-color:#D7DAEE"/>
		<stop  offset="1" style="stop-color:#A0A8C2"/>
	</linearGradient>
	<path class="st6" d="M37.3,71.1C70.7,19,123.9,2.3,123.9,2.3S46-3.9,14.4,47.5c-31.6,51.4-1.1,98.8-1.1,98.8S9.7,114.2,37.3,71.1z"
		/>
</g>
</svg>
