<?xml version="1.0" encoding="utf-8"?>
<!-- Generator: Adobe Illustrator 24.3.0, SVG Export Plug-In . SVG Version: 6.00 Build 0)  -->
<svg version="1.1" id="圖層_1" xmlns="http://www.w3.org/2000/svg" xmlns:xlink="http://www.w3.org/1999/xlink" x="0px" y="0px"
	 viewBox="0 0 240.8 135.7" style="enable-background:new 0 0 240.8 135.7;" xml:space="preserve">
<style type="text/css">
	.st0{fill:#FFFFFF;}
</style>
<g>
	<g>
		<path class="st0" d="M21.2,16L0.1,135.7h119.7l2.8-71.7L141,16H21.2z M100,119.7L89.1,91.6h-42l-21,28.1H9.7L79,26.5l37.4,93.3
			H100z"/>
	</g>
	<g>
		<polygon class="st0" points="57.2,77.7 83.7,77.7 74.8,54.2 		"/>
	</g>
</g>
<g>
	<polygon class="st0" points="100,119.7 119.8,135.7 122.7,119.7 	"/>
</g>
<g>
	<path class="st0" d="M121.1,0L100,119.7h119.7L240.8,0H121.1z M165.2,90.8c16,0,29-14.7,29-14.7h-25.2l2.5-14.3h40.3L209.7,76
		c0,0-16,28.6-46.2,28.6c-30.3,0-41.6-26.9-36.1-47.1C132.8,37.4,152.6,16,179,16c26.5,0,35.3,22.3,35.7,29H200
		c0,0-6.3-15.1-23.9-15.1c-17.6,0-34.5,18.9-35.7,32.4C138.9,77.7,150.5,90.8,165.2,90.8z"/>
</g>
</svg>
