<?xml version="1.0" encoding="utf-8"?>
<!-- Generator: Adobe Illustrator 24.3.0, SVG Export Plug-In . SVG Version: 6.00 Build 0)  -->
<svg version="1.1" id="圖層_1" xmlns="http://www.w3.org/2000/svg" xmlns:xlink="http://www.w3.org/1999/xlink" x="0px" y="0px"
	 viewBox="0 0 1778.4 1047.8" style="enable-background:new 0 0 1778.4 1047.8;" xml:space="preserve">
<style type="text/css">
	.st0{fill:url(#SVGID_1_);}
	.st1{fill:url(#SVGID_2_);}
	.st2{fill:url(#SVGID_3_);}
	.st3{fill:url(#SVGID_4_);}
	.st4{fill:url(#SVGID_5_);}
	.st5{fill:url(#SVGID_6_);}
	.st6{fill:url(#SVGID_7_);}
	.st7{fill:url(#SVGID_8_);}
	.st8{fill:url(#SVGID_9_);}
	.st9{fill:url(#SVGID_10_);}
	.st10{fill:url(#SVGID_11_);}
	.st11{fill:url(#SVGID_12_);}
	.st12{fill:url(#SVGID_13_);}
	.st13{fill:url(#SVGID_14_);}
	.st14{fill:url(#SVGID_15_);}
	.st15{fill:url(#SVGID_16_);}
	.st16{fill:url(#SVGID_17_);}
	.st17{fill:url(#SVGID_18_);}
	.st18{fill:url(#SVGID_19_);}
	.st19{fill:url(#SVGID_20_);}
	.st20{fill:url(#SVGID_21_);}
	.st21{fill:url(#SVGID_22_);}
	.st22{fill:url(#SVGID_23_);}
	.st23{fill:url(#SVGID_24_);}
	.st24{fill:url(#SVGID_25_);}
	.st25{fill:url(#SVGID_26_);}
	.st26{fill:url(#SVGID_27_);}
	.st27{fill:url(#SVGID_28_);}
	.st28{fill:url(#SVGID_29_);}
	.st29{fill:url(#SVGID_30_);}
	.st30{fill:url(#SVGID_31_);}
	.st31{fill:url(#SVGID_32_);}
	.st32{fill:url(#SVGID_33_);}
	.st33{fill:url(#SVGID_34_);}
	.st34{fill:url(#SVGID_35_);}
	.st35{fill:url(#SVGID_36_);}
	.st36{fill:url(#SVGID_37_);}
	.st37{fill:url(#SVGID_38_);}
	.st38{fill:url(#SVGID_39_);}
	.st39{fill:url(#SVGID_40_);}
	.st40{fill:url(#SVGID_41_);}
	.st41{fill:url(#SVGID_42_);}
</style>
<g>
	<linearGradient id="SVGID_1_" gradientUnits="userSpaceOnUse" x1="332.9503" y1="35.1111" x2="332.9503" y2="990.2213">
		<stop  offset="1.017608e-06" style="stop-color:#D8DBEF"/>
		<stop  offset="1" style="stop-color:#A1AAC3"/>
	</linearGradient>
	<path class="st0" d="M430.4,542.6c1.1,1.1,2.1,1.1,3.2,2.1c1.1,0,1.1,1.1,2.1,1.1c2.1,1.1,4.2,3.2,7.4,3.2c1.1,1.1,3.2,1.1,4.2,2.1
		c1.1,0,1.1,1.1,2.1,1.1s2.1,1.1,2.1,1.1c1.1,0,0,1.1,1.1,2.1c0,1.1,0,1.1,2.1,1.1V555c2.1,1.1,3.2,2.1,4.2,3.2c0,0,0,1.1,1.1,1.1
		c2.1,1.1,3.2,2.1,5.3,4.2c1.1,1.1,2.1,1.1,3.2,2.1c1.1,0,2.1,1.1,2.1,1.1c1.1,1.1,3.2,2.1,3.2,3.2c0,0,1.1,0,1.1,1.1
		c2.1,1.1,3.2,2.1,5.3,3.2c0,1.1,1.1,1.1,2.1,1.1c1.1,1.1,2.1,1.1,3.2,2.1l2.1,2.1c1.1,1.1,2.1,1.1,3.2,2.1l6.3,3.2
		c1.1,0,3.2,1.1,4.2,1.1c0,0,1.1,0,1.1,1.1s1.1,2.1,2.1,2.1c1.1-1.1,1.1-1.1,2.1-1.1h1.1c1.1,0,2.1,1.1,2.1,1.1l1.1,1.1
		c0,1.1,1.1,2.1,3.2,2.1h1.1v-1.1h5.3c1.1,0,2.1,0,3.2,1.1c1.1,0,2.1-1.1,2.1-2.1V586c-3.2-1.1-3.2-2.1-3.2-3.2V575
		c0-2.1-1.1-3.2-2.1-5.3c-1.1-1.1-2.1-3.2-2.1-5.3c-1.1-2.1-1.1-3.2-2.1-5.3c0-1.1-1.1-1.1-1.1-2.1c-1.1-2.1-2.1-3.2-2.1-5.3
		c0-1.1,0-1.1-1.1-2.1c0,0,0-1.1-1.1-1.1c-1.1-3.2-2.1-6.3-4.2-8.4c-1.1-2.1-2.1-4.2-3.2-5.3c-2.1-3.2-3.2-6.3-3.2-9.5
		c0-1.1,0-1.1-1.1-2.1c-1.1-1.1-2.1-2.1-3.2-2.1h-1.1c-1.1,1.1-2.1,0-3.2,0l-1.1-1.1c-1.1-1.1-1.1-1.1-2.1-1.1
		c-1.1,0-2.1-1.1-3.2-1.1c-2.1-2.1-5.3-3.2-8.4-3.2h-1.1v-1.1h-8.4c-2.1-1.1-3.2-1.1-5.3-2.1c-1.1,0-3.2-1.1-4.2-1.1
		c-1.1-1.1-2.1-1.1-3.2-1.1h-5.3c-1.1,0-2.1,0-3.2-1.1h-1.1l-1.1,1.1l-1.1-1.1l-2.1-2.1c-2.1-1.1-4.2-1.1-6.3-2.1
		c-1.1,0-1.1,0-2.1-1.1c-1.1,0-3.2-1.1-4.2-1.1c-2.1-1.1-3.2-1.1-5.3-1.1c-1.1,0-2.1,0-3.2-1.1l-1.1-1.1c-1.1,0-2.1-1.1-2.1-1.1
		c-1.1-1.1-2.1-1.1-3.2-2.1l-3.2-3.2c-2.1-2.1-3.2-4.2-4.2-6.3h1.1c-1.1-1.1-2.1-2.1-3.2-2.1c-1.1-1.1-1.1-2.1-2.1-3.2v-1.1
		c0-1.1-1.1-2.1-1.1-3.2c1.1-1.1,2.1-1.1,3.2-1.1v-3.2c0-1.1,0-2.1,1.1-2.1c1.1-1.1,2.1-1.1,2.1-2.1c1.1-1.1,1.1-2.1,3.2-1.1
		c1.1,0,2.1-1.1,3.2-1.1c2.1-1.1,3.2-2.1,3.2-3.2v-1.1c1.1-1.1,1.1-2.1,2.1-4.2v-4.2c0,1.1,0,1.1-1.1,1.1c-1.1-1.1-2.1-1.1-3.2-2.1
		v-2.1c1.1,0,1.1-1.1,2.1-1.1v1.1l-1.1,1.1c0,1.1,1.1,0,1.1,0l1.1-1.1c1.1-1.1,2.1-1.1,3.2-2.1c1.1,0,2.1-1.1,3.2-2.1
		c1.1-1.1,3.2-3.2,5.3-4.2c0,0,1.1,0,1.1-1.1c1.1-1.1,1.1-1.1,2.1,0c0-1.1,0-1.1,1.1-1.1c1.1-1.1,2.1-2.1,3.2-2.1
		c1.1,0,3.2-1.1,4.2-2.1c2.1,0,3.2-1.1,5.3-1.1c1.1,0,2.1-1.1,2.1-1.1c1.1-1.1,3.2-2.1,4.2-3.2c0,0,1.1,0,1.1-1.1h-1.1
		c0-1.1,1.1-2.1,1.1-2.1c1.1,0,2.1,0,2.1-1.1c1.1,0,1.1-1.1,2.1-1.1c1.1-1.1,3.2-1.1,4.2-2.1c1.1-1.1,3.2-2.1,5.3-2.1h2.1
		c1.1,0,3.2,0,4.2,1.1c1,1.1,2.1,1.1,3.2,1.1c1.1,0,2.1,1.1,3.2,0c1.1-1.1,2.1-1.1,4.2-2.1c2.1,0,3.2,0,5.3-1.1h1.1
		c1.1,0,1.1,0,1.1-1.1c0-1.1,0-2.1,1.1-3.2v-2.1c-2.1-2.1-3.2-5.3-5.3-6.3l-1.1-1.1c-2.1-2.1-4.2-3.2-6.3-4.2c0-1.1-1.1-1.1-1.1-1.1
		c-1.1,0-1.1,0-1.1-1.1c0-1.1,0-1.1-1.1-2.1c-1.1-1.1-2.1-1.1-2.1-3.2c0,0-1.1-1.1-1.1,0c-1.1,0-1.1,0-2.1-1.1
		c-1.1-1.1-2.1-3.2-2.1-5.3c0-1.1-1.1-2.1-1.1-3.2c0-2.1-1.1-4.2-2.1-5.3c0-1.1-1.1-2.1-1.1-2.1v0.7c-1.1-1.1-1.1-1.1-1.1-2.1
		c0-1.1-1.1-1.1-1.1-2.1l-3.2-3.2c-1.1-1.1-3.2-2.1-4.2-4.2c-1.1-1.1-1.1-2.1-3.2-2.1v-1.1c-2.1-2.1-2.1-2.1-3.2-1.1
		c1.1,0,1.1,1.1,2.1,1.1H446c0,0-1.1,0-1.1-1.1c-1.1-1.1-3.2-1.1-3.2-2.1h-1.1c-1.1,0-3.2,0-4.2-1.1h-1.1c0,1.1-1.1,1.1-2.1,1.1H430
		c-1.1,0-2.1,0-4.2,1.1c-1.1,0-2.1,1.1-3.2,0c-1.1,1.1-2.1,2.1-4.2,2.1l-1.1,1.1c-2.1,1.1-4.2,1.1-5.3,2.1c-2.1,1.1-4.2,2.1-6.3,2.1
		c-1.1,0-2.1,1.1-3.2,2.1c-1.1,1.1-3.2,2.1-5.3,2.1c0,1.1-1.1,1.1-1.1,1.1c-1.1,0-2.1,1.1-4.2,2.1c-3.2,2.1-7.4,3.2-10.5,6.3
		c0,0-1.1,0-1.1,1.1c-1.1,1.1-2.1,1.1-3.2,2.1c-1.1,1.1-2.1,2.1-3.2,2.1c-1.1,1.1-2.1,1.1-3.2,2.1c-1.1,1.1-2.1,1.1-3.2,2.1
		c-1.1,0-3.2,1.1-4.2,2.1l-2.1,2.1c-1.1,0-2.1,0-2.1,1.1H358c-1.1,0-2.1,0-3.2,1.1c-1.1,1.1-2.1,1.1-2.1,0c1.1-2.1,2.1-4.2,3.2-7.4
		v-1.1c1.1-1.1,2.1-3.2,3.2-4.2c0-1.1,1.1-1.1,2.1-2.1c1.1-1.1,1.1-2.1,1.1-3.2c1.1-2.1,2.1-4.2,3.2-5.3c0-1.1,1.1-1.1,1.1-2.1
		c1.1,0,1.1-1.1,1.1-2.1v-4.2c0-1.1,0-2.1,2.1-1.1c0-1.1-1.1-1.1-1.1-2.1h2.1c1.1,0,1.1,0,2.1-1.1c0-1.1,1.1-1.1,2.1-2.1
		c1.1,0,1.1-1.1,1.1-2.1c0-1.1,1.1-2.1,2.1-3.2c0,0,1.1-1.1,1.1-2.1c0-1.1,0-1.1,1.1-2.1c1.1-1.1,2.1-3.2,2.1-4.2
		c1.1-1.1,1.1-2.1,1.1-3.2c0-1.1,1.1-1.1,1.1-2.1c0-2.1,2.1-3.2,3.2-4.2l3.2-6.3c1.1-1.1,1.1-3.2,2.1-5.3c0,0,1.1-1.1,2.1-1.1
		c-1.1-1.1,0-2.1,0-2.1c0-1.1,1.1-1.1,1.1-2.1c0,0,0-1.1,1.1-1.1c0-1.1,0-1.1,1.1-2.1c1.1-1.1,2.1-3.2,1.1-4.2v-3.2
		c0-1.1,0-3.2,1.1-4.2c1.1-2.1,2.1-4.2,4.2-5.3c1.1-1.1,1.1-1.1,1.1-2.1c0,0,0-1.1,1.1-1.1l3.2-3.2c1.1-1.1,1.1-2.1,1.1-3.2
		c0,0,0-1.1-1.1-1.1c0-1.1,0-2.1-1.1-3.2c0-1.1,0-2.1-1.1-2.1c-1.1-2.1-3.2-4.2-4.2-6.3c-1.1-1.1-1.1-2.1-2.1-3.2l-3.2-6.3
		c-1.1-1.1-1.1-2.1-1.1-3.2c0-2.1-1.1-4.2-2.1-6.3c0-1.1-1.1-1.1-1.1-2.1c-1.1-2.1-3.2-5.3-5.3-6.3c-2.1-1.1-4.2-3.2-7.4-4.2h-6.3
		c-1.1,0-1.1,0-1.1,1.1v3.2c1.1,2.1,1.1,4.2,1.1,6.3v3.2c-1.1,2.1,0,3.2,0,5.3v7.4c0,1.1,0,2.1-1.1,3.2v3.2c0,2.1-1.1,4.2-2.1,5.3
		c-1.1,2.1-1.1,3.2-2.1,5.3v1.1c0,2.1-1.1,4.2-1.1,5.3c-1.1,2.1-2.1,5.3-3.2,7.4v1.1c0,2.1-1.1,3.2-2.1,5.3c0,1.1-1.1,2.1-1.1,3.2
		c0,1.1-1.1,2.1-1.1,3.2c0,1.1-1.1,1.1-1.1,0l-1.1-1.1c0,1.1-1.1,2.1-1.1,2.1c1.1,1.1,1.1,2.1,0,3.2c0,3.2-2.1,5.3-3.2,7.4
		c-1.1,1.1-2.1,3.2-3.2,4.2c-1.1,1.1-1.1,2.1-2.1,3.2c-1.1,1.1-1.1,2.1-1.1,3.2l-3.2,6.3c0,1.1-1.1,1.1-1.1,2.1s0,1.1-1.1,1.1
		c-1.1,0-1.1,1.1-1.1,2.1c-1.1,0-1.1,0-2.1,1.1c-1.1,2.1-1.1,3.2-2.1,5.3c0,1.1-1.1,2.1-2.1,4.2v1.1h1.1c1.1-1.1,1.1-2.1,2.1-3.2
		c0.5-0.5,0.8-1.1,1.1-1.6c0-0.5,0.2-0.7,1-1.5v1.1c-1.1,1.1-1.1,3.2-2.1,4.2c-1.1,1.1-1.1,2.1-3.2,1.1c-1.1,2.1-1.1,4.2-3.2,5.3
		v1.1c0,1.1-1.1,2.1-1.1,3.2v4.2c0-1.1,1.1-3.2,2.1-4.2c0-1.1,0-3.2,1.1-4.2c0,1.1,0,2.1-1.1,4.2c0,2.1-1.1,3.2-2.1,4.2
		c0,1.1-1.1,1.1-1.1,2.1c0,1.1-1.1,2.1-1.1,3.2c-1.1,2.1-1.1,3.2-2.1,4.2c0,1.1-1.1,1.1,0,2.1v1.1c0,1.1-1.1,2.1-2.1,3.2
		c0,1.1,0,1.1-1.1,2.1l-1.1,1.1c0,1.1,0,2.1-1.1,2.1c0,1.1,0,2.1-1.1,2.1c-1.1,1.1-1.1,1.1-2.1,0c0,2.1-1.1,3.2-2.1,4.2
		c0,0-1.1,0-2.1,1.1h-3.2v-1.1c-1.1-1.1-1.1-2.1,0-2.1v-4.2c0-1.1-1.1-1.1-1.1-2.1c-1.1-1.1-1.1-3.2-1.1-5.3c0-1.1,0-2.1-1.1-3.2
		c-1.1-1.1-2.1-3.2-3.2-4.2l-1.1-1.1c-1.1-1.1-1.1-2.1-3.2-2.1c-1.1,1.1-2.1,1.1-2.1,0v-2.1c2.1-1.1,3.2-3.2,4.2-5.3
		c0-1.1,1.1-1.1,1.1-2.1c0-1.1,1.1-1.1,1.1-2.1c1.1-2.1,2.1-3.2,3.2-5.3c1.1-1.1,1.1-2.1,2.1-3.2c0-1.1,1.1-1.1,1.1-1.1
		s1.1,0,1.1-1.1c1.1-1.1,1.1-2.1,2.1-2.1c1.1-1.1,3.2-1.1,4.2-2.1c0,0,1.1,0,1.1-1.1c1.1,0,1.1-1.1,0-1.1c0-1.1-1.1-1.1-1.1-2.1
		c0-1.1-1.1-1.1-1.1-2.1c-2.1-2.1-3.2-4.2-6.3-5.3c-1.1,0-1.1-1.1-2.1-1.1l-2.1-2.1c-1.1-1.1-3.2-1.1-4.2-2.1h-1.1v2.1
		c-2.1,0-2.1-1.1-2.1-3.2h-1.1c-1.1,0-1.1,0-2.1-1.1c-1.1-1.1-1.1-2.1-3.2-2.1H292c-2.1-2.1-5.3-3.2-9.5-4.2c-1.1,0-1.1,0-1.1,1.1
		v1.1c0,0,0,1.1-1.1,1.1c0,0-1.1,0-1.1-1.1v-1.1c0-1.1-1.1-2.1-2.1-1.1c0,0,0,1.1-1.1,1.1l-1.1,1.1c-1.1,0-1.1,0-2.1,1.1
		c0,0-1.1,0-1.1-1.1l-1.1,1.1h-1.1c-1.1,1.1-2.1,1.1-3.2,2.1c0,1.1-1.1,1.1-2.1,1.1c-1.1,0-2.1,1.1-3.2,2.1c0,0-1.1,1.1-1.1,0h-1.1
		c-1.1,1.1-2.1,1.1-4.2,1.1c0,0,0,1.1-1.1,1.1c0,0-1.1,1.1-1.1,0c-1.1-1.1-2.1,0-2.1,1.1v2.1h-2.1c-1.1,1.1-2.1,1.1-4.2,1.1
		c-2.1,0-4.2,1.1-6.3,2.1c-1.1,0-1.1,1.1-2.1,1.1c0,0,0-1.1-1.1-1.1c-1.1,1.1-1.1,2.1-2.1,2.1l-1.1,1.1c-1.1,1.1-2.1,1.1-3.2,2.1
		c-1.1,0-1.1,1.1-2.1,0h-2.1c-1.1,1.1-2.1,0-3.2,0c0-1.1,1.1-1.1,1.1-1.1c2.1-1.1,3.2-1.1,5.3-2.1c2.1-1.1,3.2-2.1,5.3-3.2
		c1.1,0,1.1-1.1,2.1-1.1c0,0,0,1.1,1.1,1.1c1.1-1.1,1.1-3.2,2.1-4.2c0-1.1,1.1-1.1,2.1-2.1c1.1-1.1,1.1-2.1,2.1-3.2
		c0,0,1.1,0,1.1-1.1c1.1,0,2.1-1.1,3.2-1.1c1.1,0,1.1,0,2.1-1.1l2.1-2.1c1.1-1.1,2.1-2.1,4.2-3.2c1.1-1.1,2.1-2.1,3.2-2.1
		c1.1-1.1,1.1-1.1,2.1-1.1c1.1-1.1,2.1-1.1,3.2-2.1c2.1-1.1,3.2-3.2,5.3-4.2c2.1-1.1,4.2-2.1,6.3-2.1h5.3c1.1,0,3.2-1.1,4.2-1.1
		s3.2,0,4.2-1.1h1.1c2.1-1.1,5.3-2.1,7.4-1.1h3.2c1.1,0,1.1,0,2.1-1.1c1.1,0,2.1-1.1,2.1-1.1H318c3.2,0,5.3,0,8.4-1.1
		c1.1,0,1.1,0,2.1-1.1c0,0,1.1-1.1,2.1,0h2.1c1.1,0,2.1-1.1,1.1-2.1v-1.1c1.1-1.1,0-2.1,0-3.2c0-1.1,0-3.2-2.1-4.2v-1.1
		c0-2.1-2.1-4.2-3.2-6.3c-1.1-1.1-2.1-2.1-3.2-4.2c0-1.1-2.1-2.1-3.2-3.2c-1.1-1.1-2.1-1.1-2.1-2.1c-1.1-2.1-2.1-3.2-4.2-3.2
		c-1.1,0-2.1-1.1-2.1-1.1l1.1-1.1h-5.3c-1.1,1.1-2.1,0-3.2,0c-2.1,0-3.2,0-5.3,1.1c-1.1,0-2.1,1.1-4.2,1.1c-2.1,0-5.3,0-7.4,1.1
		h-1.1c-2.1,1.1-4.2,1.1-6.3,2.1h-1.1c-1.1,0-1.1,0-1.1-1.1c0,0,0-1.1-1.1,0v1.1h-4.2c-2.1,0-3.2,1.1-5.3,1.1c-1.1,0-1.1,0-2.1,1.1
		l-1.1-1.1c-1.1,1.1-2.1,1.1-3.2,1.1c-1.1,1.1-3.2,1.1-5.3,1.1h-2.1c-2.1,0-3.2,0-5.3,1.1c-1.1,0-2.1,0-2.1,1.1l1.1,1.1l-1.1,1.1
		c-3.2,1.1-6.3,2.1-8.4,3.2h-1.1c0,0,0,1.1-1.1,1.1c-1.1,0-3.2,1.1-4.2,1.1h-2.1c0,2.1-1.1,2.1-2.1,2.1h-1.1
		c-3.2,1.1-6.3,3.2-9.5,5.3c-1.1,1.1-3.2,2.1-4.2,3.2c-2.1,1.1-5.3,3.2-7.4,4.2c-1.1,1.1-3.2,2.1-4.2,3.2c-2.1,1.1-3.2,2.1-5.3,3.2
		c-1.1,1.1-2.1,1.1-3.2,2.1c-1.1,0-2.1,1.1-3.2,1.1c-1.1,0-1.1,1.1-2.1,1.1c-2.1,1.1-3.2,2.1-5.3,3.2c-1.1,1.1-3.2,1.1-4.2,1.1h-2.1
		c-2.1,0-3.2,1.1-3.2,3.2c0,1.1-1.1,1.1-1.1,1.1h-1.1c0,2.1-1.1,3.2-1.1,4.2c0,1.1-1.1,2.1,0,3.2v1.1c0,1.1,0,2.1,1.1,3.2
		c1.1,1.1,0,3.2,1.1,4.2v6.3c0,2.1,1.1,3.2,1.1,5.3v4.2c0,2.1,1.1,4.2,3.2,6.3c0,1.1,1.1,1.1,1.1,2.1c1.1,2.1,2.1,3.2,3.2,5.3
		c0,0,1.1,1.1,1.1,2.1c1.1,2.1,2.1,3.2,3.2,3.2c1.1,1.1,2.1,1.1,3.2,0h1.1c1.1,0,2.1,0,2.1-1.1c1.1-1.1,2.1-1.1,3.2-1.1
		s2.1,1.1,2.1,2.1v2.1c1.1,1.1,1.1,1.1,0,2.1c0,1.1-1.1,2.1-2.1,4.2c0,1.1-1.1,2.1-1.1,2.1v6.3c1.1,0,1.1,0,1.1,1.1v4.2
		c0,1.1-1.1,1.1-1.1,2.1c0,0,0,1.1-1.1,1.1V397h-1.1v1.1c-1.1,0-2.1,0-2.1-1.1l-3.2-3.2c-2.1-1.1-3.2-3.2-6.3-4.2
		c-1.1-1.1-3.2-1.1-4.2-2.1c0,0-1.1,0-1.1-1.1c-1.1-1.1-1.1-2.1-2.1-2.1H172c-1.1-1.1-3.2-1.1-4.2-1.1h-6.3c-1.1-1.1-2.1,0-4.2,0
		c-1.1,0-2.1,1.1-3.2,2.1c-2.1,1.1-3.2,3.2-3.2,6.3v1.1c0,1.1-1.1,3.2-1.1,4.2c-1.1,1.1,0,2.1,1.1,4.2c1.1,1.1,2.1,3.2,3.2,4.2v1.1
		c-1.1,0-1.1-1.1-2.1,0c0,1.1,2.1,2.1,2.1,4.2H153c0,2.1-1.1,3.2,0,4.2l1.1-1.1v-1.1h2.1v5.3c0,1.1,0,2.1-1.1,3.2
		c-1.1,2.1-2.1,3.2-2.1,5.3c0,1.1-1.1,2.1-1.1,3.2c-1.1,2.1-1.1,3.2-2.1,5.3c-1.1,2.1-1.1,3.2-1.1,5.3c-1.1,2.1-1.1,4.2-2.1,5.3
		c-1.1,3.2-2.1,5.3-2.1,8.4v1.1c0,1.1-1.1,3.2-1.1,4.2v5.3c0,1.1-1.1,3.2-1.1,4.2c0,1.1-1.1,2.1-1.1,3.2c0,2.1-1.1,5.3-1.1,7.4v6.3
		c0,1.1,0,2.1,1.1,3.2c1.1,1.1,0,1.1,0,2.1v9.5c0,0,1.1,0,1.1,1.1v3.2c0,0,0,1.1,1.1,1.1c1.1,1.1,1.1,2.1,2.1,3.2
		c0,2.1,0,4.2,1.1,5.3v1.1c1.1,1.1,1.1,2.1,2.1,4.2v2.1c0,1.1,1.1,2.1,0,3.2v1.1l1.1-1.1l3.2,3.2c1.1,3.2,2.1,5.3,2.1,8.4
		c0,1.1,1.1,2.1,1.1,2.1c0,1.1,1.1,3.2,2.1,4.2c1.1,1.1,1.1,2.1,2.1,3.2c0,0,0,1.1,1.1,1.1c0,2.1,1.1,4.2,3.2,6.3c0,0,0,1.1,1.1,1.1
		c1.1,1.1,3.2,2.1,4.2,3.2l-1.1,1.1h1.1c1.1,0,1.1,0,2.1,1.1l4.2,4.2c2.1,1.1,3.2,2.1,5.3,3.2c2.1,1.1,4.2,2.1,5.3,3.2
		c1.1,1.1,2.1,1.1,4.2,2.1v1.1c1.1,1.1,0-1.1,1.1-1.1c0,0,1.1,1.1,2.1,1.1h1.1c1.1,0,2.1,0,3.2,1.1h1.1c1.1,0,3.2,1.1,4.2,1.1h5.3
		c1.1,0,2.1-1.1,3.2-1.1s2.1-1.1,3.2-1.1c2.1-1.1,4.2-1.1,5.3-2.1c1.1,0,2.1-1.1,2.1-1.1c2.1-1.1,4.2-1.1,6.3-2.1
		c2.1,0,3.2-1.1,5.3-2.1c2.1-1.1,4.2-1.1,6.3-2.1c1.1,0,2.1-1.1,3.2-2.1l1.1-1.1c0-1.1,1.1-2.1,2.1-2.1c1.1,0,1.1-1.1,2.1-1.1
		l1.1-1.1c1.1-1.1,1.1-1.1,2.1,0c1.1-1.1,0-1.1,0-1.1l1.1-1.1c1.1-1.1,3.2-1.1,4.2-2.1c3.2-1.1,5.3-2.1,8.4-3.2
		c1.1,0,3.2-1.1,4.2-2.1c1.1,0,1.1-1.1,2.1,0c0-1.1,1.1-2.1,2.1-2.1h1.1c1.1-1.1,2.1-2.1,3.2-2.1c1.1,0,1.1-1.1,2.1-1.1
		s1.1-1.1,2.1-1.1h2.1c0-1.1,1.1-1.1,1.1-2.1c1.1-1.1,2.1-1.1,4.2-1.1h1.1c1.1,0,1.1-1.1,2.1-1.1h2.1c0-1.1,1.1-1.1,1.1-1.1
		c0-1.1,1.1-1.1,1.1-1.1c0-1.1,1.1-1.1,1.1-1.1c1.1,0,2.1-1.1,4.2-1.1c1.1,0,2.1-1.1,3.2-1.1c1.1-1.1,2.1-1.1,3.2-2.1
		c1.1-1.1,2.1-1.1,3.2-2.1c1.1-1.1,2.1-2.1,3.2-1.1c0-1.1,0-1.1,1.1-1.1c0,0,0,1.1,1.1,1.1c1.1,0,1.1-1.1,1.1-1.1
		c0-1.1,1.1-2.1,2.1-3.2c0.9,0,1,0.8,1,1c0-2.1-2.1-4.2-1-6.3c1.1,0,1.1,0,1.1-1.1s1.1-1.1,1.1-2.1c1.1-1.1,1.1-2.1,2.1-3.2
		c0-1.1,1.1-2.1,1.1-3.2c0-1.1,0-1.1,1.1-2.1c0-1.1,0-1.1-1.1-1.1c0,0-1.1,0-1.1,1.1h-1.1v-1.1l1.1-1.1l2.1-2.1
		c1.1-1.1,2.1-3.2,3.2-4.2v-8.4c0,0,0-1.1,1.1-1.1c2.1-1.1,2.1-2.1,3.2-4.2c0-1.1,0-2.1-1.1-2.1c1.1-1.1,1.1-1.1,0-2.1
		c-1.1-1.1-1.1,0-2.1,0v-8.4c0-1.1,0-3.2-1.1-4.2v-2.1c0-1.1,1.1-1.1,1.1-2.1c0-1.1,1.1-2.1,1.1-2.1v-14.7c0-1.1,1.1-3.2,0-4.2V438
		c0-1.1,0-2.1,1.1-3.2c-1.1-1.1-1.1-3.2,0-4.2c1.1,0,2.1-1.1,2.1-1.1c2.1-1.1,4.2-3.2,5.3-6.3c1.1-2.1,2.1-3.2,4.2-4.2
		c2.1,1.1,3.2,1.1,5.3,1.1s3.2,1.1,5.3,2.1v1.1c2.1,2.1,5.3,5.3,8.4,5.3c1.1,1.1,2.1,1.1,3.2,0c1.1,1.1,1.1,1.1,1.1,2.1
		c0,1.1,0,1.1-1.1,1.1c-1.1,1.1-1.1,2.1-1.1,4.2c1.1,2.1,1.1,3.2,0,5.3c0,1.1,0,2.1,1.1,3.2l2.1,2.1c1.1,1.1,1.1,3.2,1.1,4.2
		c0,1.1-1.1,2.1-2.1,2.1c0,1.1-1.1,1.1-2.1,1.1h-1.1c2.1,1.1,2.1,2.1,2.1,3.2c0,2.1-1.1,3.2-2.1,5.3l-1.1,1.1v1.1
		c0,1.1,0,2.1-1.1,3.2v1.1c-1.1,2.1-2.1,4.2-2.1,6.3c0,1.1-1.1,2.1-2.1,2.1c0,1.1-1.1,1.1-1.1,2.1c-1.1,1.1-2.1,3.2-3.2,4.2
		c-1.1,1.1-1.1,2.1-1.1,3.2c0,1.1-1.1,2.1-1.1,3.2c-1.1,2.1-3.2,4.2-4.2,7.4c0,1.1-1.1,1.1-1.1,2.1h-1.1v1.1c1.1,0,1.1,1.1,0,1.1
		c-1.1,1.1-1.1,2.1-2.1,2.1c0,0,0,1.1-1.1,1.1c0,1.1,0,1.1-1.1,2.1c-1.1,0-1.1,1.1-1.1,2.1c0,2.1-1.1,3.2-3.2,4.2
		c-1.1,0-1.1,1.1-1.1,2.1v1.1c-1.1,1.1-1.1,2.1-1.1,3.2c0,1.1-1.1,1.1-1.1,1.1l-1.1,1.1c0,1.1-1.1,2.1-2.1,2.1c0,1.1,0,1.1-1.1,2.1
		l-1.1,1.1c-1.1,2.1-2.1,3.2-4.2,4.2c-1.1,1.1-2.1,2.1-2.1,3.2c-1.1,1.1-2.1,3.2-3.2,4.2c-1.1,0-1.1,1.1-2.1,1.1
		c-1.1,2.1-3.2,3.2-4.2,5.3c-1.1,1.1-2.1,3.2-4.2,4.2c0,1.1-1.1,1.1-1.1,2.1c-1.1,2.1-3.2,4.2-4.2,5.3l-3.2,3.2
		c-1.1,1.1-2.1,1.1-3.2,2.1c-1.1,0-2.1,1.1-3.2,1.1c-1.1,1.1-3.2,1.1-4.2,2.1c-1.1,0-2.1,1.1-3.2,1.1c-1.1,0-2.1,1.1-3.2,2.1
		l-1.1,1.1c-2.1,0-3.2,1.1-5.3,1.1h-5.3c-1.1,0-2.1,1.1-3.2,1.1c-1.1,0-2.1,1.1-3.2,1.1c-1.1,0-2.1,1.1-2.1,1.1V573H263
		c0,1.1,0,1.1-1.1,1.1h-4.2v1.1h2.1c1.1,0,2.1,0,2.1,1.1c-1.1,1.1-1.1,1.1-2.1,1.1c-1.1-1.1-3.2-1.1-4.2-1.1h-1.1
		c-1.1,0-2.1,1.1-3.2,1.1v1.1c1,1,1.1,1.1,1.1,1.9c-0.1-0.1-0.3-0.1-1-0.1c-1.1,0-1.1,0-2.1,1.1v1.1c0,1.1,0,3.2,1.1,3.2
		c1.1,0,1.1,1.1,2.1,2.1c1.1,1.1,2.1,1.1,3.2,1.1s1.1,0,2.1,1.1c1.1,1.1,3.2,2.1,4.2,3.2c1.1,0,3.2,1.1,4.2,2.1
		c1.1,1.1,2.1,1.1,3.2,2.1h1.1c1.1,0,1.1,0,2.1,1.1c1.1,0,2.1,1.1,3.2,1.1c1.1,0,3.2,0,4.2,1.1c3.2,1.1,6.3,1.1,9.5,1.1
		c1.1,0,3.2,0,4.2,1.1h1.1c1.1,1.1,2.1,1.1,3.2,1.1h4.2c1.1,0,2.1-1.1,3.2-1.1c2.1,0,4.2-1.1,6.3-1.1c2.1-1.1,4.2-1.1,6.3-2.1
		c1.1,0,2.1-1.1,2.1-2.1c1.1-1.1,2.1-2.1,3.2-2.1h1.1c0-1.1,0-2.1,1.1-3.2c0,0,1.1,1.1,1.1-2.1c0,0,1.1-1.1,2.1-1.1
		c0-1.1,1.1-1.1,1.1-2.1c1.1,1.1,2.1,0,2.1,0l1.1-1.1l2.1-2.1c1.1-1.1,2.1-1.1,3.2-3.2l3.2-3.2c1.1-1.1,1.1-1.1,2.1-1.1
		c1.1-1.1,1.1-1.1,1.1-2.1v-1.1c1.1-1.1,2.1-2.1,2.1-4.2c0,0,0-1.1,1.1-1.1l4.2-4.2v-1.1l3.2-6.3c0,0,0-1.1,1.1-1.1
		c0-1.1,1.1-2.1,1.1-3.2c1.1-1.1,1.1-3.2,2.1-4.2c0-1.1,1.1-1.1,2.1-1.1c0,0,1.1-1.1,0-1.1c0-1.1,1.1-2.1,2.1-3.2h1.1
		c1.1,0,1.1,0,1.1-1.1v-2.1l1.1,1.1c2.1-2.1,4.2-4.2,3.2-7.4h1.1v-1.1c0,0,1.1,0,1.1-1.1v-1.1c1.1,0,0-1.1,0-1.1v-1.1
		c0-1.1,1.1-2.1,1.1-3.2s1.1-3.2,2.1-4.2c2.1-3.2,4.2-5.3,5.3-8.4c1.1-2.1,2.1-3.2,3.2-5.3h2.1v-2.1c1.1-2.1,1.1-3.2,2.1-5.3
		c0-1.1,1.1-1.1,1.1-2.1c0-1.1,1.1-1.1,1.1-2.1l1.1-1.1c1.1,0,2.1-1.1,3.2,1.1v1.1h1.1v1.1c0,1.1,0,2.1,1.1,3.2
		c0,1.1,1.1,2.1,1.1,3.2c0,1.1,0,1.1,1.1,2.1c1.1,1.1,1.1,1.1,1.1,2.1l1.1,1.1c2.1,1.1,2.1,2.1,3.2,3.2v1.1c0,1.1-1.1,1.1,0,2.1v1.1
		c0,1.1,0,1.1,1.1,2.1l1.1,1.1c0,2.1,1.1,3.2,2.1,4.2c0,1.1,1.1,1.1,2.1,1.1v1.1c0,1.1,0,2.1,1.1,2.1h1.1l2.1,2.1h1.1
		c1.1,2.1,0,2.1,2.1,2.1c0,1.1,0,2.1,1.1,2.1c1.1,1.1,2.1,1.1,3.2,3.2l1.1,1.1l1.1,1.1v1.1C427.2,540.5,429.3,541.6,430.4,542.6z
		 M480,518.1c0-1.1,1.1-1.1,1.1-1.1c1.1,0,1.1,0,1.1,1.1c0,0,0,1.1-1.1,2.1l-1.1-1.1V518.1z M253.5,298
		C254.6,299.1,253.5,299.1,253.5,298L253.5,298z M146.1,497.1c1.1,1.1,1.1,2.1,1.1,3.2C146.1,499.2,145.1,498.1,146.1,497.1z
		 M293.6,409.7C294.6,410.7,293.6,410.7,293.6,409.7L293.6,409.7z M258.8,413.9c1.1,0,1.1-1.1,2.1-2.1v-1.1h1.1c0,0,0,1.1,1.1,1.1
		C263,412.8,260.9,414.9,258.8,413.9c0,1.1-1.1,1.1-1.1,2.1v1.1c-1.1,1.1-2.1,1.1-3.2,2.1c-1.1,0-2.1,0-2.1-1.1V416
		c2.1-1.1,3.2-3.2,5.3-4.2C257.8,413.9,257.8,413.9,258.8,413.9z M242,379.1c0,1.1,1.1,1.1,1.1,1.1l3.2-3.2c1.1-1.1,2.1-1.1,3.2-1.1
		c1.1,0,2.1,0,2.1-1.1c0,0,1.1,0,1.1-1.1c1.1-1.1,2.1-1.1,3.2,0c1.1,1.1,1.1,2.1,0,3.2v3.2c0,1.1,0,2.1-1.1,2.1
		c-1.1,0-1.1,1.1-1.1,1.1c0,1.1,0,1.1-1.1,2.1c-1.1,1.1-2.1,2.1-4.2,2.1c-1.1,1.1-2.1,1.1-4.2,2.1c-1.1,0-2.1,0-2.1-1.1
		c-1.1-1.1-1.1-2.1-1.1-3.2C242,384.4,242,382.3,242,379.1z M240.9,450.7v-1.1c0-1.1,0-2.1,1.1-3.2c1.1-1.1,1.1-3.2,2.1-4.2
		c1.1-2.1,2.1-4.2,3.2-5.3l1.1-1.1c0-1.1,1.1-2.1,1.1-2.1c1.1-1.1,1.1-1.1,2.1-1.1c0,0,1.1,0,1.1-1.1c1.1-2.1,2.1-3.2,4.2-4.2
		l2.1-2.1c0,0,1.1-1.1,2.1-1.1h1.1l1.1-1.1c2.1-1.1,3.2-2.1,5.3-2.1c1.1-1.1,3.2-1.1,4.2-2.1h1.1c1.1,0,2.1,0,3.2-1.1h2.1v2.1h1.1
		c0,0,0-1.1,1.1-1.1h1.1c0,0,1.1,0,1.1,1.1c0,2.1,1.1,3.2,3.2,4.2c1.1,1.1,1.1,1.1,1.1,2.1V437c0,2.1,0,5.3-2.1,7.4
		c-2.1,3.2-4.2,5.3-7.4,8.4c-1.1,1.1-2.1,1.1-2.1,2.1c-1.1,1.1-2.1,1.1-3.2,2.1H272c-3.2,1.1-5.3,2.1-7.4,3.2
		c-2.1,0-4.2,1.1-6.3,1.1c-2.1-1.1-3.2,0-5.3,0c-1.1,0-2.1,0-2.1-1.1c-1.1,0-1.1-1.1-2.1-1.1c-1.1,0-2.1-1.1-3.2-2.1v-1
		C239.8,453.9,239.8,452.8,240.9,450.7z M229.3,526.6c-1.1,1.1-2.1,1.1-3.2,1.1H225c-2.1,1.1-3.2,2.1-5.3,2.1h-1.1
		c-2.1,1.1-4.2,1.1-5.3,2.1c0,0-1.1,0-1.1,1.1c-1.1,1.1-2.1,1.1-3.2,2.1c-1.1,0-2.1,1.1-3.2,1.1l-1.1-1.1c-1.1-1.1-3.2-1.1-4.2,0
		c-3.2,2.1-6.3,2.1-9.5,2.1c-1.1,0-2.1-1.1-2.1-2.1c-1.1-1.1-2.1-2.1-2.1-4.2c0-1.1-1.1-1.1-1.1-2.1c0-1.1-1.1-1.1-2.1-2.1
		c0-1.1-1.1-1.1-1.1-2.1c-2.1-2.1-3.2-4.2-5.3-7.4c-1.1-2.1-2.1-4.2-3.2-7.4c0-2.1-1.1-3.2-1.1-5.3v-1.1c1.1-2.1,1.1-4.2,2.1-6.3
		c0-1.1,1.1-3.2,0-4.2v-1.1c1.1-3.2,1.1-5.3,1.1-8.4c0-4.2,1.1-8.4,1.1-11.6c0-1.1,1.1-3.2,1.1-4.2c0-1.1,0-1.1,1.1-2.1
		c1.1-2.1,1.1-5.3,3.2-7.4c1.1-2.1,1.1-3.2,2.1-5.3c1.1-1.1,1.1-3.2,2.1-4.2l4.2-4.2c0-1.1,1.1-1.1,2.1-2.1h1.1
		c1.1,1.1,2.1,1.1,3.2,2.1c1.1,1.1,1.1,1.1,1.1,2.1c1.1,1.1,1.1,2.1,1.1,3.2v2.1c-1.1,2.1-1.1,4.2-1.1,6.3v6.3
		c0,2.1,1.1,3.2,2.1,5.3c1.1,2.1,2.1,4.2,3.2,7.4v11.6c0,2.1,1.1,3.2,1.1,5.3c2.1,3.2,3.2,7.4,6.3,9.5c1.1,1.1,2.1,1.1,2.1,2.1
		c0,0,0,1.1,1.1,2.1c0,1.1,1.1,2.1,2.1,3.2l2.1,2.1c1.1,1.1,1.1,2.1,2.1,2.1c1.1,2.1,3.2,3.2,4.2,5.3c1.1,1.1,1.1,2.1,2.1,3.2h4.2
		c1.1,0,1.1,0,1.1,1.1C230.4,525.5,230.4,526.6,229.3,526.6z M234.6,422.3h-1.1l-1.1-1.1c-1.1,0-1.1,1.1-1.1,2.1
		c0,1.1,0,1.1-1.1,1.1l-1.1,1.1l-3.2,3.2c-2.1,1.1-3.2,2.1-5.3,4.2c-2.1,1.1-3.2,3.2-5.3,3.2c-1.1,0-1.1,1.1-2.1,1.1
		c0,0,0,1.1-1.1,1.1c0,1.1-1.1,1.1-1.1,1.1c-1.1,1.1-2.1,1.1-3.2,1.1h-2.1l-2.1-2.1l-6.3-3.2c-2.1-1.1-4.2-1.1-5.3-3.2
		c0,0,0-1.1-1.1-1.1c0-1.1-1.1-2.1-1.1-3.2c1.1-1.1,1.1-2.1,2.1-2.1c0-1.1,1.1-1.1,2.1-1.1s2.1,0,3.2-1.1c-1.1,0-1.1,0-1.1-1.1
		c1.1,0,1.1-1.1,2.1,0h2.1l1.1,1.1h-2.1l-1.1,1.1h4.2c2.1-1.1,3.2-1.1,5.3-1.1c0-1.1,1.1-2.1,2.1-3.2l1.1-1.1c0,0,0-1.1,1.1-1.1
		l2.1-2.1c0-1.1,1.1-1.1,2.1-2.1h1.1c2.1,1.1,3.2,1.1,5.3,1.1c0,0,1.1,0,1.1,1.1c1.1,1.1,3.2,2.1,4.2,3.2h1.1c1.1,0,3.2,1.1,4.2,1.1
		c1.1,0,1.1,0,2.1-1.1c0,0,1.1,0,1.1,1.1c1.1,0,1.1,1.1,2.1,1.1c1.1,0,1.1,0,1.1,1.1C234.6,421.2,234.6,422.3,234.6,422.3z
		 M295.7,489.7c-1.1,0-1.1,1.1-2.1,1.1h-1.1c-1.1,2.1-3.2,2.1-4.2,3.2c-1.1,0-1.1,1.1-2.1,2.1c-1.1,2.1-2.1,3.2-4.2,4.2
		c-1.1,0-1.1,1.1-2.1,1.1c-1.1,1.1-3.2,2.1-4.2,3.2c-1.1,1.1-2.1,1.1-3.2,2.1c-2.1,1.1-3.2,2.1-5.3,3.2c-2.1,1.1-3.2,3.2-5.3,3.2
		c-1.1,0-2.1,1.1-3.2,1.1c-1.1,0-2.1,1.1-3.2,2.1c0,0-1.1,1.1-2.1,1.1c-1.1,0-2.1,0-3.2-1.1s-1.1-1.1-2.1,0c-1.1,1.1-2.1,1.1-4.2,0
		L243,515c-1.1-2.1-1.1-4.2-1.1-5.3v-6.3l-3.2-6.3c-1.1-2.1-1.1-4.2-2.1-6.3c-1.1-2.1-1.1-3.2-1.1-5.3c0-1.1-1.1-2.1,0-3.2
		c0-1.1,0-1.1,1.1-2.1l1.1-1.1c0,0,1.1,0,1.1-1.1c1.1-1.1,1.1-1.1,2.1,1.1c0,0-1.1,0-1.1,1.1c0,0,0,1.1,1.1,1.1l1.1-1.1
		c0,1.1,1.1,1.1,2.1,1.1c1.1,0,2.1,0,3.2,1.1c1.1,1.1,3.2,1.1,4.2,1.1s3.2,0,4.2,1.1h1.1c1.1,0,2.1,1.1,3.2,2.1h3.2
		c1.1,0,3.2,0,4.2,1.1h2.1c2.1,1.1,4.2,1.1,6.3,2.1c1.1,0,1.1,0,2.1,1.1c1.1,1.1,3.2,1.1,5.3,0h1.1c1.1,0,1.1,0,2.1,1.1l1.1-1.1
		c2.1,0,3.2,0,5.3-1.1c1.1,0,1.1,0,1.1-1.1c1.1-1.1,2.1-1.1,4.2-1.1C296.7,488.6,295.7,488.6,295.7,489.7z M298.8,408.6
		c-1.1,2.1-1.1,3.2-1.1,4.2c0,0,0,1.1,1.1,1.1c0,2.1,0,2.1-2.1,2.1h-1.1c-1.1,1.1-2.1,0-3.2-1.1l-1.1-1.1c-1.1-1.1-1.1-2.1,0-2.1
		h1.1c1.1,0,1.1,0,2.1-1.1c2.1-1.1,3.2-2.1,4.2-4.2C298.8,407.6,299.9,408.6,298.8,408.6z M322,431.8h-1.1
		C322,430.7,322,430.7,322,431.8z M308.3,508.6c0-1.1,0-1.1,1.1-1.1c1.1,0,1.1,1.1,1.1,2.1C309.4,509.7,308.3,508.6,308.3,508.6z
		 M315.7,495c-1.1,0-1.1,0-1.1-1.1v-1.1h1.1c0,0,1.1,0,1.1,1.1C315.7,493.9,315.7,495,315.7,495z M322,449.7c0,1.1-1.1,1.1-1.1,2.1
		c0,2.1-1.1,2.1-2.1,3.2c-1.1,0-1.1,1.1-1.1,1.1c0,1.1-1.1,1.1-1.1,2.1v2.1l-1.1,1.1c-1.1,0,0-1.1,0-1.1v-2.1
		c-1.1-1.1-1.1-1.1-2.1,0c0-2.1-1.1-3.2-1.1-5.3c-1.1-2.1-2.1-5.3-3.2-7.4c-1.1-2.1-2.1-4.2-2.1-5.3l-3.2-6.3v-4.2
		c0-1.1,0-2.1,1.1-2.1c1.1,0,1.1,0,2.1,1.1l3.2,3.2c0,1.1,1.1,1.1,2.1,1.1h4.2c1.1,0,2.1,0,3.2,2.1c0,1.1,2.1,1.1,2.1,0
		c1.1,1.1,1.1,2.1,1.1,3.2v3.2h1.1v2.9h0.1C324.1,446.5,323,448.6,322,449.7z M326.3,438.1L326.3,438.1c-0.7,0-1.2,0.2-1.5,0.5
		c-0.1-0.6-0.3-1.1-0.7-1.5c0-1.1,0-2.1,1.1-2.1h0.3c0,0.3,0.3,0.5,0.8,1.1V438.1z M256.7,581.4c0,0-1.1,1.1-2.1,0l-1.1-1.1v-2.1
		h1.1c1.1,0,1.1,1.1,2.1,2.1C257.8,581.4,256.7,581.4,256.7,581.4z M428.4,403.3c1.1,1.1,1.1,1.1,0,1.1V403.3z M399,436.2
		c-2.1,1.1-2.1,1.1-3.2,1.1c-1.1,0-1.1,0-2.1-1.1h-1.1l-3.2-3.2l-3.2-3.2l-1.1-1.1v-2.1c0,0-1.1,0-1.1,1.1c0,0-1.1,0-1.1-1.1
		c0.2-1.1,1.2-1.1,2.3-1.1c0-2.1,2.1-4.2,4.2-5.3c1.1-1.1,2.1-1.1,3.2-2.1c1.1-1.1,2.1-2.1,3.2-2.1c0,0,1.1,0,1.1-1.1l2.1-2.1
		c1.1,0,2.1-1.1,3.2-1.1c1.1,0,1.1-1.1,2.1-1.1c1.1-1.1,3.2-1.1,4.2-2.1c1.1-1.1,3.2-2.1,4.2-2.1c1.1-1.1,2.1-1.1,3.2-1.1
		c-1.1,1.1-1.1,1.1,0,2.1c0,0,1.1,0,1.1-1.1c0,1.1,1.1,1.1,1.1,2.1v1.1c0,0,0,1.1,1.1,1.1c0,0,1.1,0,1.1-1.1c0-1.1,1.1-1.1,1.1-2.1
		v-2.1c-1.1-1.1-1.1-1.1,0-2.1c1.1,0,1.1,0,2.1-1.1v1.1c0,1.1,0,1.1,1.1,1.1h1.1c0,1.1,0,1.1,1.1,2.1c-1.1,1.1-2.1,3.2-3.2,4.2
		c0,1.1-1.1,1.1-1.1,2.1c0,0,0,1.1-1.1,1.1c-1.1,1.1-2.1,3.2-3.2,4.2l-1.1,1.1c-1.1,1.1-2.1,1.1-2.1,2.1c0,1.1-1.1,1.1-1.1,1.1h-2.1
		v1.1l-2.1,2.1c0,0-1.1,0-1.1,1.1l-2.1,2.1l-3.2,3.2l-1.1,1.1C402.2,434.1,401.1,434.1,399,436.2z"/>
	<linearGradient id="SVGID_2_" gradientUnits="userSpaceOnUse" x1="872.8" y1="35.1111" x2="872.8" y2="990.2213">
		<stop  offset="1.017608e-06" style="stop-color:#D8DBEF"/>
		<stop  offset="1" style="stop-color:#A1AAC3"/>
	</linearGradient>
	<path class="st1" d="M939.1,733c-13.7-40-28.4-81.1-44.2-133.7h-35.8C837,662.4,817,714,796.9,762.4c-20,48.4-33.7,82.1-41.1,99
		c-4.2,8.4-9.5,15.8-14.7,19c-4.2,3.2-1.1,6.3-22.1,6.3v13.7c21.1-1.1,19-1.1,27.4-1.1h47.4c8.4,0,21.1,1.1,31.6,1.1v-6.3h-11.6
		c-9.5,0-15.8-5.3-19-8.4s-5.3-9.5-5.3-15.8c0-5.3,2.1-13.7,5.3-25.3c1.1-4.2,10.5-29.5,23.2-60c2.1-2.1,4.2-5.3,7.4-7.4
		c26.3-23.2,53.7-32.6,81.1-33.7L940.2,853c1.1,4.2,2.1,7.4,3.2,9.5c1.1,3.2,1.1,5.3,1.1,7.4c0,6.3-2.1,13.7-5.3,16.8
		c-3.2,2.1-10.5,7.4-20,7.4v6.3c10.5-1.1,17.9-1.1,27.4-1.1H994c8.4,0,20,1.1,30.5,1.1v-6.3h-7.4c-7.4,0-13.7-5.3-17.9-8.4
		c-4.2-3.2-8.4-12.6-14.7-26.3c-9.5-23.2-22.1-57.9-37.9-103.2c-1.1-2.1-1.1-4.2-2.1-5.3c27.4,8.4,55.8,25.3,82.1,47.4
		C1000.2,768.8,969.7,743.5,939.1,733z M827.5,759.3l-2.1,2.1c22.1-55.8,47.4-120.1,47.4-120.1l27.4,87.4
		C874.9,729.8,850.7,739.3,827.5,759.3z"/>
	<linearGradient id="SVGID_3_" gradientUnits="userSpaceOnUse" x1="1087.65" y1="35.1111" x2="1087.6501" y2="990.2213">
		<stop  offset="1.017608e-06" style="stop-color:#D8DBEF"/>
		<stop  offset="1" style="stop-color:#A1AAC3"/>
	</linearGradient>
	<path class="st2" d="M1140.3,825.6l6.3-19l-8.4-2.1c-3.2,10.5-8.4,17.9-13.7,21.1c-5.3,3.2-17.9,5.3-37.9,5.3h-15.8l6.3-80v-22.1
		c0-14.7-5.3-66.3-3.2-70.6c2.1-4.2,0-6.3,5.3-6.3h19v-7.4c-10.5,0-16.8,1.1-21.1,1.1h-26.3c-4.2,0-5.3,0-15.8-1.1v7.4h-6.3
		c6.3,0,10.5,2.1,12.6,6.3s3.2,55.8,3.2,68.5V794c0,28.4-5.3,42.1-14.7,42.1h6.3v7.4c10.5,0,14.7-1.1,22.1-1.1h46.3
		c10.5,0,21.1,0,32.6,1.1C1138.1,837.2,1139.2,832,1140.3,825.6z"/>
	<linearGradient id="SVGID_4_" gradientUnits="userSpaceOnUse" x1="1554.15" y1="35.1111" x2="1554.15" y2="990.2213">
		<stop  offset="1.017608e-06" style="stop-color:#D8DBEF"/>
		<stop  offset="1" style="stop-color:#A1AAC3"/>
	</linearGradient>
	<path class="st3" d="M1506.7,657.1c2.1,3.2,3.2,8.4,3.2,16.9v109.5c0,34.8-5.3,52.7-14.7,52.7h5.3v9.5c22.1-3.2,34.8-3.2,45.3-3.2
		h26.3c9.5,0,21.1,1.1,31.6,1.1c1.1-7.4,3.2-14.7,4.2-22.1c2.1-7.4,3.2-14.7,6.3-23.2l-8.4-3.2c-3.2,12.6-8.4,22.1-13.7,26.3
		c-6.3,4.2-17.9,6.3-36.9,6.3h-15.8c-4.2,0-8.4-1.1-12.6-1.1v-79h28.4c13.7,0,24.2,1.1,28.4,4.2c3.2,3.2,8.4,8.4,8.4,15.8v1.1h4.2
		c0-1.1-2.1-4.2-2.1-6.3c0-8.4-1.1-13.7-1.1-15.8V733c0-5.3,0-10.5,1.1-15.8l-7.4-1.1c0,7.4-2.1,11.6-5.3,13.7
		c-3.2,2.1-10.5,4.2-21.1,4.2c-2.1,0-6.3-3.2-12.6-3.2c-6.3,0-11.6-3.2-15.8-3.2h-3.2c0,0,0-11.6,1.1-28.4c0-16.8,0-28.4,1.1-40
		c1.1,0,3.2,1.1,5.3,1.1h22.1c15.8,0,26.3,2.1,31.6,6.3c5.3,4.2,7.4,11.6,8.4,23.2l7.4-1.1c0-7.4-1.1-14.7-1.1-22.1
		c0-7.4-1.1-14.7-1.1-22.1c-8.4,1.1-16.9,1.1-25.3,1.1H1531c-10.5,0-21.1-1.1-31.6-1.1v7.4h-5.3
		C1500.4,651.9,1504.6,654,1506.7,657.1z"/>
	<linearGradient id="SVGID_5_" gradientUnits="userSpaceOnUse" x1="1398.4001" y1="35.1111" x2="1398.4001" y2="990.2213">
		<stop  offset="1.017608e-06" style="stop-color:#D8DBEF"/>
		<stop  offset="1" style="stop-color:#A1AAC3"/>
	</linearGradient>
	<path class="st4" d="M1350.9,657.1c2.1,3.2,3.2,8.4,3.2,16.8v109.5c0,34.8-5.3,52.7-14.7,52.7c0.2,0,0.3,0,0.3,0h0.8v9.5
		c10.5,0,7.4-1.1,11.6-1.1c4.2-2.1,5.3-2.1,8.4-2.1c5.3,0,12.6,0,22.1,1.1c8.4,0,14.7,1.1,17.9,1.1c17.9,0,31.6-5.3,42.1-15.8
		s15.8-24.2,15.8-41.1c0-13.7-3.2-24.2-9.5-31.6c-6.3-8.4-15.8-13.7-28.4-16.8c9.5-7.4,16.8-13.7,21.1-22.1
		c4.2-7.4,6.3-15.8,6.3-26.3c0-14.7-4.2-26.3-12.6-34.8c-8.4-8.4-21.1-12.6-35.8-12.6c-2.1,0-7.4,0-14.7,1.1c-7.4,0-13.7,1.1-19,1.1
		h-7.4c-4.2,0-7.4,0-7.4-1.1v7.4h-12.6C1344.6,651.9,1348.8,654,1350.9,657.1z M1374,702.3c0-16.7,0-31.5,1.1-44.1
		c4.2-1.1,7.4-1.1,10.5-2.1c3.2,0,5.3-1.1,7.4-1.1c10.5,0,19,3.2,24.2,10.5c6.3,7.4,8.4,15.8,8.4,28.4c0,7.4-1.1,13.7-4.2,20
		c-3.2,6.3-6.3,11.6-11.6,16.8c-3.2,0-6.3,1.1-10.5,1.1H1374V702.3z M1374,763.4v-17.8h16.8c15.8,0,26.3,3.2,33.7,10.5
		c7.4,7.4,11.6,17.9,11.6,31.6c0,13.7-3.2,24.2-9.5,31.6c-6.3,7.4-15.8,11.6-28.4,11.6c-4.2,0-7.4,0-11.6-1.1l-12.6-3.2V763.4z"/>
	<linearGradient id="SVGID_6_" gradientUnits="userSpaceOnUse" x1="1243.4999" y1="35.1111" x2="1243.5" y2="990.2213">
		<stop  offset="1.017608e-06" style="stop-color:#D8DBEF"/>
		<stop  offset="1" style="stop-color:#A1AAC3"/>
	</linearGradient>
	<path class="st5" d="M1197.1,658.2c2.1,4.2,3.2,55.8,3.2,68.5V794c0,28.4-5.3,42.1-14.7,42.1h8.4v7.4c10.5,0,13.7-1.1,21.1-1.1
		h14.7h28.4c10.5,0,21.1,0,33.7,1.1c1.1-6.3,3.2-12.6,4.2-17.9l6.3-19l-8.4-2.1c-3.2,10.5-8.4,17.9-13.7,21.1
		c-5.3,3.2-17.9,5.3-37.9,5.3h-14.7l7.4-80v-22.1c0-14.7-6.3-66.3-4.2-70.6c2.1-4.2-1.1-6.3,4.2-6.3v-7.4c0,0-7.4,1.1-11.6,1.1
		h-16.8c-4.2,0-2.1,0-12.6-1.1v7.4h-9.5C1190.8,651.9,1195,654,1197.1,658.2z"/>
	<linearGradient id="SVGID_7_" gradientUnits="userSpaceOnUse" x1="1708.3002" y1="35.1111" x2="1708.3002" y2="990.2213">
		<stop  offset="1.017608e-06" style="stop-color:#D8DBEF"/>
		<stop  offset="1" style="stop-color:#A1AAC3"/>
	</linearGradient>
	<path class="st6" d="M1775.3,667.7c0-6.3-1.1-12.6-1.1-17.9v-8.4c-2.1,2.1-7.4,6.3-13.7,7.4c-6.3,1.1-21.1,4.2-43.2,4.2H1691
		c-16.9,0-28.4-4.2-34.8-4.2c-6.3-1.1-11.6-4.2-13.7-5.3c0,7.4,0,14.7-1.1,22.1c-1.1,7.4-2.1,15.8-3.2,23.2l7.4,2.1
		c2.1-11.6,4.2-19,8.4-22.1c4.2-4.2,10.5-4.2,22.1-4.2h32.6v43.2c0,37.9-5.3,66.3-5.3,84.2s-3.2,28.4-4.2,31.6
		c-1.1,4.2-4.2,11.6-6.3,13.7c-2.1,2.1-7.4,6.3-12.6,6.3h7.4v1.1c10.5,0,6.3-1.1,12.6-1.1h25.3c5.3,0,5.3,0,15.8,1.1v-3.2h-4.2
		c-4.2,0-8.4-5.3-10.5-6.3c-2.1-1.1-4.2-5.3-4.2-9.5c-1.1-3.2-1.1-11.6-2.1-23.2V661.3h21.1c11.6,0,19,1.1,23.2,5.3
		c3.2,4.2,6.3,10.5,6.3,21.1l7.4-2.1C1776.3,680.3,1775.3,674,1775.3,667.7z"/>
	<linearGradient id="SVGID_8_" gradientUnits="userSpaceOnUse" x1="1396.7" y1="35.1111" x2="1396.7001" y2="990.2213">
		<stop  offset="1.017608e-06" style="stop-color:#D8DBEF"/>
		<stop  offset="1" style="stop-color:#A1AAC3"/>
	</linearGradient>
	<path class="st7" d="M1105.5,869.9c59,49.5,172.7,82.1,294.9,82.1s228.5-32.6,287.5-82.1c-68.5,42.1-171.7,68.5-287.5,68.5
		C1284.5,937.3,1174,910.9,1105.5,869.9z"/>
	<linearGradient id="SVGID_9_" gradientUnits="userSpaceOnUse" x1="542.6" y1="35.1111" x2="542.6" y2="990.2213">
		<stop  offset="1.017608e-06" style="stop-color:#D8DBEF"/>
		<stop  offset="1" style="stop-color:#A1AAC3"/>
	</linearGradient>
	<path class="st8" d="M541,817.3c2.1-1.1,2.1-1.1,3.2-3.2C543.1,815.2,541,816.2,541,817.3z"/>
	<linearGradient id="SVGID_10_" gradientUnits="userSpaceOnUse" x1="513.1609" y1="35.1111" x2="513.1609" y2="990.2213">
		<stop  offset="1.017608e-06" style="stop-color:#D8DBEF"/>
		<stop  offset="1" style="stop-color:#A1AAC3"/>
	</linearGradient>
	<path class="st9" d="M513.1,814.3c0,0.1,0.1,0.2,0.1,0.4c0-0.1,0-0.2-0.1-0.2C513.1,814.4,513.1,814.3,513.1,814.3z"/>
	<linearGradient id="SVGID_11_" gradientUnits="userSpaceOnUse" x1="620.0392" y1="35.1111" x2="620.0392" y2="990.2213">
		<stop  offset="1.017608e-06" style="stop-color:#D8DBEF"/>
		<stop  offset="1" style="stop-color:#A1AAC3"/>
	</linearGradient>
	<path class="st10" d="M620.1,703.1C620.1,703.1,620.1,703.1,620.1,703.1c-0.1,0.1-0.1,0.2-0.1,0.4C620,703.3,620,703.2,620.1,703.1
		z"/>
	<linearGradient id="SVGID_12_" gradientUnits="userSpaceOnUse" x1="585.024" y1="35.1111" x2="585.024" y2="990.2213">
		<stop  offset="1.017608e-06" style="stop-color:#D8DBEF"/>
		<stop  offset="1" style="stop-color:#A1AAC3"/>
	</linearGradient>
	<path class="st11" d="M584.7,883.1h0.3l0.3,0.3C585.3,882.8,585.3,882.7,584.7,883.1z"/>
	<linearGradient id="SVGID_13_" gradientUnits="userSpaceOnUse" x1="541.45" y1="35.1111" x2="541.45" y2="990.2213">
		<stop  offset="1.017608e-06" style="stop-color:#D8DBEF"/>
		<stop  offset="1" style="stop-color:#A1AAC3"/>
	</linearGradient>
	<path class="st12" d="M722.2,746.7c-1.1-1.1-1.1-2.1-2.1-3.2c-1.1-1.1-1.1-1.1,0-2.1c1.1-1.1,1.1-2.1,0-2.1l-1.1-1.1
		c-2.1-1.1-3.2-1.1-5.3-2.1c-2.1,0-4.2,0-5.3-1.1c-2.1-1.1-4.2-2.1-7.4-3.2c-1.1,0-1.1-1.1-2.1-1.1h-3.2c-2.1,0-3.2,1.1-5.3,0h-17.9
		c-1.1,0-2.1,0-3.2,1.1c-1.1,1.1-2.1,1.1-3.2,0c-1.1,0-2.1,0-2.1,1.1c-1.1,0-2.1,0-3.2,1.1h-6.3c-2.1,1.1-2.1,0-2.1,2.1
		c-1.1,0-1.1-1.1-1.1-1.1l1.1-1.1c0-1.1,1.1-1.1,1.1-2.1s1.1-2.1,1.1-3.2v-2.1c0-1.1-1.1-1.1-1.1-2.1c-1.1-1.1,0-2.1,0-3.2
		c0,0,0-1.1,1.1-1.1c0,1.1,1.1,1.1,1.1,2.1c0,0,0,2.1,1.1,2.1V719c0-1.1,0-1.1-1.1-2.1c0,1.1,0,1.1-1.1,2.1c0,0-1.1,1.1-1.1,0
		c0,0,0-1.1-1.1-1.1v-1.1c0,0,0-1.1,1.1-1.1c1.1-2.1,1.1-3.2,3.2-5.3l2.1-2.1c1.1-1.1,2.1-3.2,2.1-4.2c1.1-2.1,1.1-4.2,2.1-7.4v-4.2
		c1.1-1.1,2.1-3.2,2.1-4.2c1.1-2.1,1.1-5.3,2.1-7.4v-1.1c0-1.1,0-2.1,1.1-2.1c1.1-2.1,1.1-4.2,0-6.3c-1.1-3.2-3.2-6.3-5.3-8.4
		l-1.1-1.1c0-1.1,0-2.1-1.1-1.1l-4.2-4.2c-2.1-2.1-4.2-4.2-7.4-5.3c-2.1-1.1-3.2-2.1-5.3-3.2l-1.1-1.1c-1.1-1.1-2.1-1.1-3.2-2.1
		c0-1.1-1.1-1.1-1.1-2.1c-1.1-1.1-2.1-1.1-3.2-2.1c-1.1,0-1.1-1.1-1.1-2.1c-1.1,0-2.1,0-3.2-1.1c-1.1-1.1-3.2-1.1-4.2-1.1
		c-1.1,0-1.1,0-2.1-1.1c0,0-1.1,0-1.1-1.1c-1.1,0-2.1-1.1-2.1-2.1l-1.1-1.1c0-1.1,1.1-1.1,1.1-2.1c0-1.1,1.1-1.1,1.1-2.1v-1.1
		c0,0,0-1.1-1.1-1.1v-1.1h3.2c1.1-1.1,3.2-1.1,5.3-1.1h8.4c1.1,0,3.2,0,4.2,1.1h1.1c1.1,1.1,3.2,1.1,5.3,1.1h12.6
		c1.1,0,2.1,1.1,2.1,1.1c1.1,1.1,1.1,2.1,1.1,3.2c0,1.1,0,3.2,1.1,4.2l3.2,3.2l2.1,2.1c2.1,1.1,3.2,3.2,5.3,4.2l1.1,1.1
		c0,1.1,0,1.1,1.1,1.1s1.1,0,1.1,1.1s1.1,2.1,1.1,4.2c0,1.1,1.1,1.1,1.1,1.1c-1.1,1.1,0,2.1,1.1,2.1s1.1,0,2.1,1.1h1.1
		c0,0-1.1,0-2.1-1.1h3.2c1.1,0,2.1,1.1,4.2,1.1h1.1c1.1,1.1,2.1,0,2.1-1.1v-1.1c0-1.1,1.1-2.1,0-2.1V649c0-1.1,1.1-1.1,1.1-1.1
		l1.1-1.1c0-1.1,1.1-1.1,1.1-2.1c0-1.1,0-2.1,1.1-2.1c1.1-1.1,1.1-1.1,1.1-2.1v-3.2c0-2.1,1.1-3.2,0-5.3v-1.1c1.1-1.1,0-2.1,0-3.2
		v-3.2H699v-2.1c0,0,1.1-1.1,0-1.1c0-2.1-1.1-4.2-2.1-6.3c0-1.1-1.1-2.1-1.1-3.2s-1.1-2.1-1.1-3.2c-1.1-1.1-1.1-1.1-1.1-2.1
		c0-1.1,0-1.1-1.1-1.1c0,0,0-1.1-1.1-1.1v-1.1c-1.1-2.1-2.1-4.2-4.2-6.3l-1.1-1.1c-1.1-2.1-2.1-4.2-4.2-5.3l-3.2-3.2
		c-2.1-1.1-3.2-3.2-5.3-5.3c-1.1-1.1-2.1-2.1-4.2-2.1c-1.1,0-3.2,0-4.2,1.1c-1.1,0-2.1,1.1-3.2,2.1v1.1c-1.1,1.1-2.1,2.1-2.1,4.2
		v10.5c0,1.1,0,2.1,1.1,2.1c0,0,0,1.1,1.1,1.1c0,0,0,1.1-1.1,1.1c0,1.1-1.1,1.1-1.1,0v-1.1c-1.1-1.1-1.1-2.1-2.1-1.1h-1.1
		c-1.1-1.1-2.1-2.1-3.2-2.1l-1.1-1.1l-3.2-3.2c-2.1-1.1-4.2-1.1-6.3-2.1h-12.6c-1.1,0-2.1,1.1-3.2,1.1c-0.9,0-1,0-1.8,0.7l0.7,1.4
		h-1.1v-1.1c0.1-0.1,0.2-0.2,0.4-0.4l-0.4-0.7l-1.1,1.1c-0.6,0-0.5,0.3-0.3,0.6c0.7-0.2,1.1,0.4,0.3,0.4c0,0-0.2-0.2-0.3-0.4
		c-0.2,0.1-0.5,0.2-0.7,0.4c0,1.1,0,1.1-1.1,2.1H620l-1.1-1.1c-1.1,0-2.1-1.1-2.1-2.1c0,0,0-0.1,0-0.1c0.3,0.1,0.5,0.1,1-0.4
		l-1.1-1.1c-1.1-1.1-1.1-1.1-1.1-2.1c0-1.1,1.1-1.1,2.1-2.1c-4.2,1.1-4.2,0-2.1,0c1.1-1.1,1.1-1.1,2.1,0c0,0,1.1,1.1,1.1,0v-1.1
		l-1.1-1.1c1.1-1.1,2.1-1.1,2.1,0c1.1-1.1,1.1-3.2,2.1-4.2v-2.1c-1.1-1.1-1.1-2.1-2.1-4.2c-1.1-3.2-3.2-5.3-5.3-7.4l-3.2-3.2
		c-1.1-1.1-1.1-1.1-2.1-1.1c-2.1,0-4.2-2.1-5.3-3.2l-3.2-3.2c-2.1-1.1-3.2-3.2-5.3-4.2c-1.1-1.1-3.2-2.1-4.2-3.2l-3.2-3.2
		c-1.1-1.1-1.1-1.1-2.1-1.1c-1.1,0-1.1,0-2.1-1.1c-1.1-1.1-2.1-1.1-4.2,0c-2.1,0-3.2,1.1-4.2,1.1h-1.1c-2.1,1.1-4.2,2.1-6.3,4.2
		c-1.1,0-1.1,1.1-2.1,1.1c0,0-1.1,0-1.1,1.1s-1.1,2.1-2.1,3.2l-1.1,1.1h1.1c1.1-1.1,2.1-1.1,4.2-1.1h1.1c2.1-1.1,3.2-1.1,5.3-1.1
		c1.1,0,2.1,0,2.1-1.1c1.1,0,3.2,0,4.2,1.1c1.1,1.1,2.1,2.1,3.2,2.1h1.1c2.1,1.1,2.1,3.2,3.2,5.3v2.1c-1.1,1.1-1.1,2.1-1.1,2.1h1.1
		c0,1.1-1.1,2.1,0,3.2v8.4c0,1.1-1.1,2.1-1.1,3.2c0,1.1,0,2.1-1.1,3.2v2.1c0,1.1-1.1,2.1,0,3.2v1.1c0,1.1-1.1,2.1-1.1,3.2v3.2
		c1.1,1.1,0,3.2,0,4.2c-1.1,1.1,0,2.1,0,3.2c0,0,0,1.1-1.1,1.1s-1.1,1.1-2.1,1.1c0,0-1.1,0-1.1,1.1c-2.1,1.1-4.2,1.1-6.3,3.2
		c-1.1,0-3.2,1.1-4.2,1.1c-1.1,0-2.1,1.1-3.2,1.1c-1.1,0-1.1,0-2.1,1.1c-2.1,1.1-4.2,2.1-5.3,3.2c-1.1,1.1-2.1,1.1-3.2,2.1
		c-1.1,1.1-3.2,2.1-4.2,3.2l-1.1,1.1c-2.1,2.1-4.2,3.2-6.3,4.2c0,0,0-1.1,1.1-1.1c-1.1-1.1-1.1-2.1-1.1-3.2c1.1-2.1,1.1-4.2,1.1-6.3
		V614c-1.1-1.1-1.1-2.1,0-3.2v-1.1c0-1.1,0-3.2,1.1-4.2c0-1.1,1.1-1.1,1.1-2.1v-1.1c0-1.1,0-2.1,1.1-3.2V595c0-1.1,1.1-2.1,1.1-3.2
		c1.1-3.2,2.1-6.3,4.2-9.5v-2.1c1.1-1.1,1.1-2.1,0-3.2c-1.1-2.1-1.1-2.1,1.1-2.1h1.1c0,0,1.1,0,1.1-1.1c-1.1-1.1-2.1-1.1-3.2-2.1
		c0-1.1,1.1-2.1,1.1-3.2v-1.1c-1.1,0-1.1,0-1.1,1.1v1.1c0,1.1,0,2.1-1.1,3.2v1.1h1.1c-2.1,1.1-2.1,1.1-2.1,3.2v1.1
		c1.1,2.1-1.1,3.2-1.1,4.2h-1.1c-1.1,0-1.1,1.1-1.1,1.1c0,1.1,0,2.1,1.1,2.1c-2.1,1.1-3.2,3.2-3.2,4.2c1.1,1.1,1.1-1.1,2.1-1.1
		c0,1.1,0,2.1-1.1,2.1s-1.1,1.1-1.1,1.1c0,2.1-1.1,4.2-1.1,5.3v1.1c-2.1,2.1-2.1,5.3-3.2,8.4c-1.1,2.1-1.1,5.3-2.1,7.4
		c0,1.1,0,2.1-1.1,3.2v2.1c0,1.1-1.1,2.1-1.1,4.2c0,2.1-1.1,4.2-1.1,6.3c0,1.1-1.1,2.1-2.1,2.1h-1.1c-3.2,1.1-5.3,3.2-7.4,5.3
		l-1.1,1.1c0,0,0,1.1-1.1,1.1s-2.1,1.1-2.1,1.1c-1.1,0-1.1,1.1-2.1,1.1c-2.8,1.9-4.8,3.7-7.4,6.3c0.3,0,0.5,0,0.6,0
		c-2,0.9-3,1.9-3.9,2.8c-2.1,1.1-3.2,2.1-5.3,4.2l-3.2,3.2l-1.1,1.1l-3.2,3.2c0,1.1-1.1,1.1-1.1,1.1c-1.1,1.1-1.1,1.1-1.1,2.1
		c0,0.4,0.1,0.8,0.4,1.1c0.6,0.2,0.8,0.8,1.4,0.9c-0.5-0.1-1-0.5-1.4-0.9c-0.1,0-0.2-0.1-0.4-0.1c-2.1-1.1-3.2-3.2-5.3-5.3
		c-1.1-1.1-2.1-2.1-3.2-4.2c-1.1-2.1-2.1-2.1-3.2-3.2H481c-1.1,0-3.2,1.1-4.2,1.1c-1.1,0-2.1,0-3.2,1.1c-1.1,1.1-3.2,2.1-4.2,2.1
		h-2.1c-1.1-1.1-1.1-2.1-2.1-3.2h-1.1c-1.1,0-1.1,0-1.1-1.1v-3.2c0-2.1,1.1-4.2,1.1-5.3v-2.1c0-2.1,0-4.2,1.1-7.4v-1
		c0-1.1,0-3.2,1.1-4.2v-3.2c0-1.1,1.1-2.1,0-3.2c0-1.1,0-2.1,1.1-2.1c0,0,1.1,0,1.1-1.1l2.1-2.1c1.1-1.1,3.2-1.1,4.2-3.2l1.1-1.1
		c1.1,0,1.1-1.1,1.1-2.1v-5.3c0-1.1-1.1-2.1-2.1-2.1c-2.1-3.2-6.3-5.3-8.4-8.4c-2.1-2.1-4.2-4.2-5.3-6.3v-1.1c0-1.1,0-2.1-1.1-3.2
		l-1.1-1.1c-1.1-2.1-2.1-3.2-4.2-4.2c-2.1-1.1-4.2-2.1-4.2-5.3c-5.3,5.3-5.3,3.2-7.4,2.1l-1.1-1.1c-1.1-2.1-3.2-2.1-4.2-2.1
		c0,0-1.1,0-1.1,1.1c-1.1,2.1-3.2,4.2-4.2,6.3c0,1.1,0,2.1-1.1,2.1c0,1.1,0,2.1-1.1,2.1c0,1.1-1.1,3.2,0,4.2c0,1.1,0,1.1,1.1,2.1
		v7.4c0,1.1-1.1,3.2-1.1,4.2v9.5c-1.1,1.1-1.1,2.1-1.1,3.2v6.3c-1.1,2.1-2.1,4.2-2.1,7.4c0,1.1-1.1,3.2-1.1,4.2v4.2
		c0,2.1,0,4.2-1.1,6.3c0,2.1,0,4.2-1.1,7.4c-1.1,2.1-1.1,5.3-1.1,7.4c0,3.2,0,6.3-1.1,8.4c0,2.1,0,5.3-1.1,7.4v13.7
		c0,1.1,0,1.1-1.1,1.1c-1.1,0-1.1,0-2.1,1.1c-1.1,0-1.1,1.1-2.1,1.1s-2.1,0-2.1,1.1c-1.1,1.1-3.2,1.1-4.2,1.1s-1.1,0-2.1,1.1
		c-1.1,1.1-3.2,2.1-4.2,3.2H401c-1.1,0-1.1,0-2.1,1.1c0,2.1-1.1,2.1-3.2,1.1h-1.1c-1.1,0-2.1,0-3.2-1.1l-1.1-1.1
		c0,2.1,2.1,3.2,3.2,4.2c-1.1,0-3.2,1.1-4.2,2.1c-2.1,1.1-4.2,2.1-5.3,2.1c-1.1,0-1.1-1.1,0-1.1c1.1,0,1.1,0,2.1-1.1
		c1.1,0,1.1,0,1.1-1.1c-1.1-1.1-1.1,0-2.1,0c-2.1-1.1-2.1-3.2-1.1-5.3c1.1-2.1,0-3.2,0-5.3h-2c-1.1,0-1.1,0-1.1,1.1v1.1
		c0,1.1,0,1.1-1.1,1.1c-1.1,0-1.1,1.1-2.1,1.1l-3.2,3.2l-4.2,4.2c0,0-1.1,1.1-2.1,1.1c-1.1,0-1.1,0-2.1,1.1c0,1.1,1.1,1.1,1.1,1.1
		c0,1.1-1.1,1.1-1.1,2.1c0,1.1-1.1,1.1-1.1,2.1c0,0,0,1.1-1.1,1.1c-1.1,0-2.1,1.1-3.2,1.1v1.1c0,1.1,0,2.1,1.1,3.2
		c0,0,1.1,1.1,1.1,2.1v3.2c0,0,1.1,1.1,0,1.1v3.2c0,0-1.1,0-1.1,1.1s1.1,2.1,1.1,3.2L362,734v1.1h2.1c-1.1,1.1-1.1,1.1,0,2.1
		c-1.1,1.1-1.1,1.1,0,2.1h1.1c0,1.1,1.1,2.1,1.1,3.2h-1.1c0,0,1.1,0,1.1,1.1c1.1,1.1,1.1,1.1,1.1,2.1v4.2c0,0-1.1,0-1.1,1.1
		c1.1,0,1.1,1.1,2.1,1.1c1.1,0,1.1,1.1,2.1,1.1c1.1,0,1.1,2.1,2.1,2.1l1.1,2.1h2.1c1.1,0,1.1-2.1,1.1-1.1s2.1,0,3.2,0
		c-1.1,0-1.1-1.1-1.1-2.1c0,0-1.1-1.1-1.1-2.1c2.1,0,3.2-1.1,4.2,0h1.1c0-1.1,1.1-1.1,1.1-2.1l1.1,1.1c1.1,1.1,1.1,0,2.1,0
		c0-1.1,1.1-1.1,1.1-1.1c1.1,0,1.1,0,1.1-1.1s0-1.1,1.1-1.1c0,0,1.1,0,1.1,1.1c1.1-1.1,2.1-1.1,3.2-2.1c0,1.1,1.1,2.1,1.1,3.2h3.2
		l-2.1-2.1v-1.1h1.1c1.1,0,2.1,0,3.2-1.1c1.1,0,1.1,0,2.1-1.1h1.1c0,0,0,0.5,0.3,0.8c-0.1,0.1-0.2,0.1-0.3,0.3c0,0,0.3,0,0.5-0.1
		c0.1,0.1,0.3,0.1,0.5,0.1h1.1c0-0.2,0.1-0.4,0.2-0.6c-0.5,0.1-0.9,0-1.4,0.1c0.1-0.1,0.1-0.3,0.1-0.6c1.1,0,2.1-1.1,4.2-1.1
		c0-1.1,1.1-1.1,1.1,0l-0.8,0.8c1-0.3,2.2-0.8,2.9-0.8h2.1v1.1c0,0,1.1,0,1.1-1.1c0,0,0-1.1-1.1-2.1h-1.1c0,0-1.1,0-2.1-1.1h1.1
		c1.1,0,1.1,0,2.1-1.1c0,0,1.1-1.1,2.1,0c0,0,1.1,1.1,0,1.1v1.1c0,1.1,0,3.2-1.1,4.2v6.3c0,1.1,1.1,1.1,1.1,2.1
		c0,1.1-1.1,1.1-1.1,1.1c0,1.1,1.1,1.1,1.1,2.1c0,1.1,1.1,1.1,1.1,2.1c0,1.1-1.1,1.1-2.1,1.1c-1.1,2.1,0,3.2,0,4.2v-3.2
		c1.1,0,1.1,1.1,1.1,2.1v2.1c0,1.1,0,1.1-1.1,1.1c-1.1,0-1.1-1.1-2.1-1.1c0,1.1,0,2.1,1.1,2.1c1.1,1.1,1.1,2.1,1.1,3.2
		c0,1.1-1.1,1.1-1.1,1.1h-1.1v1.1h1.1v1.1c0,2.1-1.1,3.2-1.1,5.3v8.4c0,3.2-1.1,6.3,0,9.5v16.9c1.1,3.2,1.1,6.3,2.1,8.4v11.6
		c-1.1,2.1-1.1,4.2-3.2,5.3c0,0,0,1.1-1.1,1.1c0,1.1-1.1,3.2-1.1,4.2v4.2h-1.1v1.1c1.1,0,1.1,1.1,1.1,1.1c1.1,1.1,0,2.1,1.1,3.2
		c1.1,2.1,0,3.2,0,5.3v4.2c0,1.1,0,1.1-1.1,2.1c0,1.1,0,2.1,1.1,2.1c1.1,0,1.1,1.1,1.1,2.1c1.1,1.1,1.1,2.1,2.1,2.1
		c1.1,1.1,2.1,1.1,2.1,3.2v1.1c2.1,0,3.2,1.1,3.2,3.2c1.1,0,1.1,1.1,1.1,2.1v1.1c1.1,0,2.1,0,3.2,2.1l1.1,1.1
		c1.1,1.1,2.1,1.1,3.2,2.1c1.1,1.1,1.1,1.1,1.1,2.1h1.1c0,0,0,1.1,1.1,1.1c1.1,0,1.1,1.1,2.1,1.1s1.1,1.1,2.1,1.1
		c1.1,1.1,2.1,2.1,4.2,2.1c1.1,1.1,2.1,1.1,3.2,0c2.1,0,3.2-2.1,3.2-4.2v-2.1c0,0,0,1.1,1.1,0v-1.1c0-1.1-1.1-1.1-1.1-2.1
		c0-1.1-1.1-1.1-1.1-2.1c0-2.1-1.1-3.2-1.1-5.3v-2.1c1.1-1.1,1.1-1.1,0-2.1V873c-1.1,0-1.1,0-2.1-1.1c1.1,0,1.1,0,1.1-1.1
		c-2.1-2.1-1.1-4.2-1.1-6.3v1.1c1.1,1.1,1.1,1.1,0,2.1h1.1v-3.2c0-1.1,0-2.1-1.1-2.1c-1.1,0-1.1-1.1-1.1-2.1l1.1,1.1
		c0,0,1.1,1.1,1.1,0v-1.1l-1.1-1.1c0,0-1.1-1.1,0-2.1h1.1v-3.2c0-1.1-1.1-1.1-1.1-2.1v-16.9c0-2.1,0-4.2,1.1-5.3v-2.1
		c0-1.1,0-1.1,1.1-2.1c-1.1-1.1-1.1-2.1-1.1-2.1c0-1.1,1.1-1.1,1.1-2.1c0,0,0,1.1,1.1,1.1c0,0,1.1,1.1,1.1,0s-1.1-2.1-1.1-3.2
		c0-1.1,0-1.1,1.1-1.1c1.1,0,1.1,0,1.1-1.1c-2.1-1.1-2.1-2.1-1.1-3.2c1.1,0,1.1,1.1,2.1,1.1c1.1,0,1.1,1.1,0,2.1v1.1
		c0-1.1,1.1-2.1,2.1-3.2V812c0.1,0.6,0.3,1,1,1c1.1,0,1.1,0,1.1-1c1,1,1,1,2-0.1h-2.1c0,0,0,0,0,0c-1,0.1-1,1-2,0.1v0
		c0.3-0.1,1-0.3,1-1.1h-0.8c0.3-0.4,0.7-0.6,0.8-1.1c1,0,1.1,0,2-1.1c-0.9,0.1-1.7,0.1-2,0.6c0.1-1,0.9-1.8,0.2-1.9l0.1-0.1
		c0.3-0.1,0.7-0.3,0.8-0.8l0.9-0.9c-0.3,0-0.5,0.1-0.7,0.2c0.3-1.1,0.8-1.9,0.8-2.6c0,1.1,1.1,1.1,1.1,2.1c0-1.1-1.1-2.1-1.1-3.2
		v-4.2l0.6,0.6c-0.7,0.8-0.5,0.8,1.4,0.8c0-0.6,0-0.9-0.2-1l0.3-0.3l1.1-1.1c-1.1,0-1.1,0-1.1-1.1c0,0-1.1,0-1.1-1.1s0-3.2,1.1-4.2
		h1.1c0,0,1.1,0,1.1,1.1l-1.1,1.1h2.1c0.9-0.9,1.1-1.8,0.4-2.7c0.8,0.3,1.5,1,1.5,1c2.2-2.2,2.2-3.3,1.1-4.3c-1.1,0-1.1,1.1-1.1,1.1
		c-0.9,0.9-1.1,1.7-1.6,2c-0.1-0.1-0.2-0.2-0.3-0.3H459v1.1c-0.4-0.4-0.5-0.7-0.5-1.1h-0.6l-0.1-0.1v-0.6c0,0-0.1,0.1-0.2,0.4
		l-0.8-0.8v-2.1c1.1,0,1.1-1.1,2.1-1.1h1.1c1.1,0,1.1,1.1,2.1,0v-2.1c0,1.1,0,1.1,1.1,1.1l1.1-1.1c0-1.1,0-2.1-1.1-2.1l-0.3-0.3
		c-0.2,0.2-0.4,0.3-0.8,0.3c0-0.3,0.1-0.6,0.2-0.9c0.3-0.7,0.8-1.2,0.8-1.2v1.1c0,0,0,0.1,0,0.2c0.7-0.3,1.4-1.3,2.1-1.3
		c1.1,0,1.1-1.1,0-3.2c0,0-1.1,0-1.1,1.1H463v-2.1c-1.1,0,0-1.1,0-1.1h2.1v1.1c1.1,0,2.1-1.1,2.1-3.2c0-1.1,0-2.1,1.1-3.2l1.1-1.1
		h1.1v-1.1c-1.1,0-3.2-1.1-4.2,0c-1.1,0-1.1,1.1-1.1,2.1c0,1.1,0,2.1,1.1,2.1v1.1c-1.1,0-1.1-1.1-2.1-1.1l-1.1,1.1
		c0,1.1-1.1,1.1-1.1,2.1v-2.1l3.2-6.3c0-1.1,1.1-2.1,1.1-3.2c0-1.1,1.1-2.1,2.1-2.1c1.1,0,2.1,0,2.1-1.1c0,0,1.1,0,1.1-1.1
		c1.1,0,1.1-1.1,0-2.1c-1.1,0-1.1,1.1-2.1,1.1c0-1.1-1.1-1.1-1.1-2.1l1.1-1.1V753c0-1.1,1.1-1.1,1.1-2.1v-1.1c0-0.5-0.3-0.8-0.5-1.1
		c-0.1,0-0.3,0-0.5,0v-1.1c0,1.1-1.1,2.1-1.1,3.2c0,1.1-1.1,1.1-1.1,2.1c0,1.1,0,2.1-1.1,2.1v2.1c-1.1,0-1.1,0-1.1,1.1
		s-1.1,2.1-1.1,2.1v2.1c-1.1,1.1-1.1,2.1-2.1,3.2c0,0,0,1.1-1.1,1.1v-2.1c1.1-2.1,2.1-4.2,2.1-6.3s1.1-3.2,2.1-4.2
		c1.1-3.2,2.1-7.4,4.2-10.5c0-1.1,1.1-1.1,1.1-2.1c0-1.1,1.1-2.1,1.1-3.2v-1.1c-1.1,0-1.1-2.1-1.1-3.2c-1.1,1.1-1.1,2.1-2.1,3.2
		c0,1.1-1.1,1.1-1.1,2.1c-1.1,0-1.1,1.1-1.1,2.1c1.1,0,1.1,0,1.1,1.1s0,2.1-2.1,3.2l-1.1,1.1c1.1,1.1,0,2.1-1.1,2.1
		c-1.1,0-1.1,1.1-1.1,1.1c0,1.1,0,2.1-1.1,2.1c0,1.1-1.1,2.1-1.1,2.1c0,1.1-1.1,2.1-2.1,2.1c0,1.1-1.1,2.1-1.1,2.1
		c-1.1,2.1-3.2,5.3-4.2,7.4c-1.1,2.1-2.1,3.2-3.2,5.3c-1.1,2.1-2.1,4.2-4.2,6.3v1.1c0,2.1-1.1,3.2-2.1,4.2c-1.1,1.1-1.1,2.1-2.1,3.2
		v1.1c1.1,1.1,0,2.1-1.1,3.2v-5.3c0-2.1-1.1-3.2,1.1-5.3h1.1v-1.1c0,0,0-1.1-1.1-1.1h-1.1c-1.1,0-1.1-1.1-1.1-2.1V770
		c0-2.1-1.1-5.3,0-7.4c-1.1-2.1,0-4.2,0-6.3v-13.7c0-2.1,0-3.2,1.1-5.3v-16.8c0-2.1,1.1-3.2,1.1-5.3c1.1,1.1,1.1,1.1,2.1,0H441
		c0-1.1,0-1.1-1.1-2.1c0-1.1,0-1.1,1.1-2.1h2.1c1.1,0,0,1.1,0,1.1s-1.1,1.1,0,1.1c1.1-1.1,1.1-2.1,2.1-3.2c0,0,0-1.1,1.1-2.1h-2.1
		c0,0-1.1,0-2.1-1.1c1.1,0,1.1-1.1,1.1-1.1c2.1-1.1,3.2-2.1,5.3-3.2c1.1-1.1,2.1-2.1,3.2-2.1l6.3-3.2c1.1,0,1.1-1.1,2.1,0l1.1-1.1
		c1.1-1.1,3.2-2.1,5.3-2.1c0,0,1.1,0,1.1-1.1v2.1c1.1-1.1,1.1-1.1,1.1-3.2c2.1-1.1,4.2-3.2,6.3-4.2c1.1-1.1,3.2-1.1,4.2-2.1
		c2.1-2.1,5.3-3.2,7.4-4.2h1.1v1.1c-1.1,0-1.1,1.1-2.1,1.1c0,0-1.1,0-1.1,1.1v1.1h1.1c1.1,0,1.1-1.1,2.1-1.1c1.1,0,1.1-1.1,2.1-2.1
		v-3.2c0-1.1,0-1.1,1.1-2.1c0-1.1,0-2.1,1.1-2.1c1.1-2.1,1.1-2.1-1.1-3.2c-1.1-1.1-1.1-1.1-1.1-2.1c0-1.1,1.1-1.1,1.1-2.1
		c0-1.1,1.1-1.1,2.1,0c1.1,1.1,1.1,1.1,1.1,2.1c0,0.9,0,1.1,0.7,1.7c0,0.1-0.1,0.3-0.1,0.4c0.1,0,0.3,0,0.4-0.1c0,0,0,0,0.1,0.1
		c0,0,0,0-0.1-0.1c0.9-0.2,1.7-1,1.7-1l6.3-6.3c-1.1-1.1-2.1,0-2.1,1.1c-1.1,1.1-3.2,2.1-4.2,2.1l-0.6,0.6c0-0.2,0-0.4,0-0.6v-1.1
		c0-2.1,1.1-3.2,2.1-4.2c1.1-1.1,3.2-2.1,4.2-4.2c1.1-2.1,3.2-3.2,5.3-5.3c1.1-1.1,1.1-2.1,2.1-2.1h1.1c1.1,0,0,1.1,0,1.1l-1.1,1.1
		c0,0-1.1,0-1.1,1.1s-1.1,1.1-1.1,1.1c0,1.1-1.1,1.1-1.1,2.1l-1.1,1.1v1.1h2.1c1.1,1.1,2.1-1.1,3.2-2.1c0-1.1,0-2.1,1.1-2.1
		c1.1,0,1.1-1.1,1.1-1.1V651l-1.1-1.1v-1.1c0.4-0.4,0.7-0.7,1-1c0.2-0.2,0.5-0.4,0.9-0.9c1.1,0,1.1-1.1,2.1-1.1
		c1.1,0,2.1-1.1,3.2-1.1c1.1,0,1.1-1.1,2.1-1.1c1.1,0,1.1,0,1.1,1.1v21.1c-1.1,1.1-1.1,2.1-2.1,4.2c-1.1,1.1-1.1,3.2-2.1,4.2
		c0,1.1-1.1,2.1-1.1,2.1c0,2.1-1.1,3.2-2.1,5.3v1.1c0,1.1-1.1,3.2-1.1,4.2c0,1.1-1.1,2.1-1.1,2.1c0,1.1-1.1,2.1-1.1,3.2
		c-1.1,2.1-2.1,4.2-2.1,7.4c0,2.1-1.1,3.2-1.1,5.3c0,1.1,0,2.1-1.1,3.2c0,1.1-1.1,2.1-1.1,4.2v1.1c0,1.1-1.1,2.1-1.1,2.1
		c0,1.1-1.1,2.1-2.1,2.1c-1.1,0-2.1,2.1-4.2,2.1c0,1.1-1.1,2.1-1.1,3.2c0,1.1,0,1.1,1.1,2.1l1.1,1.1c0-1.1,0-2.1-1.1-3.2l1.1-1.1
		h1.1v1.1c-1.1,1.1,0,2.1,0,3.2v1.1c1.1,1.1,2.1,3.2,3.2,4.2v1.1c1.1,1.1,1.1,1.1,0,2.1c-1.1,1.1,0,1.1,1.1,2.1h1.1
		c0,0-1.1,0-1.1,1.1c1.1,1.1,2.1,1.1,3.2,2.1c1.1,1.1,1.1,1.1,1.1,2.1c1.1,2.1,1.1,4.2,2.1,6.3c0,1.1,1.1,1.1,1.1,2.1
		c0,1.1,1.1,1.1,1.1,2.1c1.1,2.1,1.1,3.2,1.1,5.3v1.1c1.1,1.1,1.1,3.2,0,4.2c1.1,0,1.1,1.1,1.1,1.1c1.1,0,2.1,1.1,3.2,1.1
		c1.1,1.1,1.1,1.1,1.1,2.1v1.1c0,1.1,0,1.1-1.1,1.1c-1.1,1.1-3.2,1.1-4.2,2.1H514c-1.1,0-1.1,0-2.1,1.1l-1.1,1.1
		c-1.1,0-2.1,1.1-3.2,1.1c-2.1,1.1-4.2,1.1-6.3,3.2c-1.1,1.1-2.1,2.1-4.2,1.1c0,1.1,0,1.1-1.1,1.1c0,0-1.1,1.1-1.1,0
		c-1.1,0-1.1,0-2.1,1.1l-1.1,1.1c-1.1,0-1.1,1.1-2.1,1.1h-1.1c-1.1,1.1-3.2,1.1-4.2,2.1c-1.1,0-1.1,0-1.1-1.1l2.1-2.1
		c0-1.1,1.1-1.1,1.1-2.1c0-1.1,1.1-1.1,1.1-1.1l4.2-4.2c0-1.1,1.1-1.1,1.1-2.1c1.1-2.1,2.1-3.2,3.2-5.3c0,0,1.1-1.1,0-1.1
		c-1.1,1.1-2.1,1.1-2.1,2.1c-1.1,2.1-3.2,2.1-4.2,4.2c-1.1,1.1-3.2,2.1-4.2,3.2c-1.1,1.1-1.1,1.1-2.1,1.1s-2.1,1.1-3.2,2.1l-3.2,3.2
		c-1.1,1.1-1.1,1.1-1.1,3.2c0,1.1-1.1,1.1-2.1,1.1c0,0-1.1,0-1.1-1.1h-3.2c0,1.1-1.1,1.1-2.1,2.1l-1.1,1.1l-1.1,1.1
		c-1.1,1.1-2.1,1.1-2.1,2.1c0,1.1-1.1,2.1-2.1,2.1c-1.1,0-1.1,1.1-1.1,2.1c1.1,1.1,2.1,3.2,3.2,4.2c0,0,0,1.1,1.1,1.1
		c0,2.1,2.1,3.2,3.2,4.2c0,1.1,1.1,1.1,1.1,2.1c0,1.1,1.1,1.1,2.1,2.1l2.1,2.1l2.1,2.1h1.1c0,1.1,1.1,1.1,2.1,1.1h3.2
		c1.1-1.1,3.2,0,4.2-1.1c1.1,0,2.1,0,3.2-1.1l1.1-1.1v1.1l-1.1,1.1v1.1h1.1c1.1,0,1.1-1.1,2.1-1.1c1.1,1.1,1.1,0,2.1,0
		c1.1,0,2.1-1.1,3.2-1.1h1.1c1.1-1.1,2.1-1.1,3.2-2.1c1.1,0,2.1-1.1,3.2-1.1v1.1l-1.1,1.1c-1.1,1.1-2.1,2.1-3.2,2.1H500
		c-1.1,1.1-2.1,1.1-3.2,2.1v1.1c1.1,1.1,1.1,0,2.1,0c1.1,0,1.1-1.1,2.1-1.1c1.1,0,2.1-1.1,3.2-1.1l1.1-1.1c1.1,0,1.1,0,1.1-1.1V812
		c1.1,1.1,1.1,1.1,2.1,0c1.1-1.1,1.1-1.1,1.1-2.1c-1.1,0-2.1,1.1-2.1-1.1l1.1-1.1c1.1-1.1,1.1-1.1,2.1-1.1c0,0,1.1,0,1.1-1.1
		l3.2-3.2l3.2-3.2c0-1.1,1.1-1.1,1.1-1.1c1.1,0,1.1,0,2.1-1.1v-1.1c1.1,0,1.1,1.1,2.1,1.1c-1.1,0-2.1,1.1-2.1,1.1s-1.1,0-1.1,1.1
		l1.1,1.1l1.1,1.1c1.1,1.1,0,1.1-1.1,1.1h-3.2c-2.1,1.1-3.2,2.1-3.2,4.2c0,2.1-1.1,3.2-1.1,5.3c-0.7,0.7-0.9,1.6-0.7,2.5
		c0.1,0.3,0.3,0.5,0.5,0.8c0,2.1,1.1,4.2,1.1,6.3c-0.1-1.1-1.1-2.2-1.1-3.2c0-0.7,0-2.2-0.5-3.6c0,0.1,0,0.2,0.1,0.3
		c-0.1-0.3-0.3-0.7-0.4-1c0-1.1,0-1.1-1.1-2.1h-1.1c-1.1,0-1.1,1.1-2.1,1.1v1.1c1.1,1.1,1.1,1.1,1.1,2.1v1.1c1.1,0,2.1,0,2.1,1.1
		s0,2.1,1.1,3.2v1.1h-2.1v2.1c0,1.1,0,1.1,1.1,2.1c0,1.1,0,3.2,1.1,4.2c0,1.1,1.1,2.1,1.1,3.2v1.1c1.1,0,2.1-1.1,2.1,0
		c1.1,1.1,2.1,3.2,3.2,4.2c0,0.7,0.1,1.2,0.3,1.8c-0.3-0.6-0.8-1.1-0.8-1.1c0-1.1-1.1-1.1-1.1-2.1c0.1,2.2,1.1,4.3,2.2,5.3v-1.1
		c0-0.2,0-0.3-0.1-0.5c0.4,0.9,1,1.8,1.6,3c1.1,2.1,2.1,3.2,2.1,5.3c0,0,0,1.1,1.1,1.1c1.1,1.1,2.1,2.1,2.1,4.2v2.1
		c0,1.1,1.1,1.1,1.1,2.1c1.1,1.1,1.1,1.1,1.1,2.1c0,1.1,1.1,2.1,2.1,3.2v-1.1c1.1,1.1,1.1,1.1,0,2.1c1.1,0,1.1,1.1,2.1,2.1
		c1.1,1.1,2.1,2.1,4.2,2.1c0,0,1.1,0,1.1,1.1s0,1.1,1.1,1.1v1.1h-2.1c0,1.1,1.1,1.1,2.1,1.1h3.2c1.1,1.1,2.1,1.1,3.2,2.1
		c1.1,1.1,3.2,3.2,5.3,3.2c2.1,1.1,3.2,3.2,5.3,4.2l1.1,1.1c1.1,0,1.1,1.1,2.1,1.1c1.1,1.1,2.1,1.1,3.2,2.1c1.1,0,1.1,1.1,2.1,2.1
		h1.1l3.2,3.2h1.1c1.1,0,2.1,0,2.1,1.1c2.1-1.1,3.2,0,4.2,1.1c0,1.1,0,2.1,1.1,1.1c1.1,0,2.1,0,2.1,1.1c1.1,0,1.1,1.1,2.1,1.1h4.2
		c1.1,0,1.1,0,1.1,1.1c0,0,0-1.1,1.1-1.1c1.1,1.1,4.2,2.1,5.3,1.1c1.1,1.1,1.1,1.1,2.1,0h1.1c1.1,1.1,3.2,1.1,4.2,1.1
		c1.1,0,2.1,0,3.2,1.1c1.1,0,2.1,0,2.1-1.1c1.1,0,3.2,0,4.2,1.1l-1.1,1.1h4.2c1.1,0,2.1-1.1,4.2-1.1h19c1.1,0,2.1-1.1,3.2-1.1h4.2
		c-1.1,1.1-1.1,1.1-2.1,1.1c1.1,1.1,2.1,1.1,3.2,0c0-1.1,1.1-1.1,1.1-2.1c0-1.1,0-1.1-1.1-2.1h-2.1c-1.1,1.1-1.1,1.1-2.1,1.1
		c-1.1,0-1.1,0-1.1-1.1s1.1-1.1,1.1-1.1c1.1,0,2.1,0,3.2-1.1c1.1,0,1.1-1.1,2.1,0h1.1l1.1-1.1c0-1.1,1.1-1.1,1.1-1.1v-7.4
		c-1.1-2.1,0-3.2,0-5.3c0-1.1,0-1.1,1.1-1.1h-1.1v-4.2h-1.1V872c0.3,0.1,0.8,0.3,0.8,1.1v-1.2c0.1,0,0.2-0.1,0.3-0.1v-1.9
		c-0.1,0.1-0.3,0.2-0.4,0.2c-0.1-0.1-0.2-0.2-0.4-0.2c-0.4-0.5-0.4-1.8-0.4-1.1v-14.7c0-1.1,0-1.1,1.1-2.1v-2.1c0-1.1,0-1.1-1.1-2.1
		c0-1.1,0-1.1-1.1-1.1h-1.1c0-2.1,0-3.2,1.1-4.2c0,0,0,1.1,1.1,1.1s1.1,1.1,1.1,2.1c0,2.1,0,4.2,1.1,5.3c0,1.1,0,1.1,1.1,1.1v-5.3
		c0-1.1-1.1-3.2,0-4.2v-1.1c-1.1,0-1.1,1.1-2.1,0h-1.1c-1.1,0-1.1,0-2.1-1.1c0,0,0-1.1-1.1-2.1c1.1,0,1.1-1.1,2.1,0
		c1.1,0,1.1,1.1,2.1,1.1l-2.1-2.1c-1.1,0-2.1,1.1-2.1,0v-1.1c1.1-1.1,1.1-2.1,1.1-3.2v-2.1c-1.1-1.1-1.1-2.1-1.1-3.2
		c0-1.1,0-2.1,1.1-3.2v-4.2c0,0,1.1,0,1.1-1.1s-1.1-2.1-1.1-3.2c-1.1-1.1-1.1-2.1-1.1-3.2v-5.3c0-1.1,1.1-2.1,0-4.2v-11.6
		c0-1.1,0-1.1,1.1-2.1c1.1-1.1,1.1-1.1,1.1-2.1v-4.2c0-1.1,1.1-2.1,0-3.2l3.2-6.3V773c1.1-1.1,2.1-2.1,3.2-2.1v-1.1h1.1
		c1.1,0,3.2-1.1,4.2-2.1c1.1,0,1.1-1.1,0-2.1c0,0-1.1,0-2.1-1.1l1.1-1.1c1.1-1.1,1.1-1.1,0-2.1c0-1.1-1.1-1.1-1.1-2.1v-1.1
		c-0.6-1.2-1.2-2.8-1.8-4.3c3-1.1,5.1-3,8.1-2c1.1,0,1.1,0,2.1,1.1h2.1c1.1,0,2.1,1.1,3.2,0c0,0,0-1.1,1.1-1.1h4.2
		c3.2,0,5.3,0,8.4-1.1h3.2c1.1,0,2.1,1.1,2.1,1.1h1.1c1.1,0,2.1-1.1,4.2-1.1h6.3c2.1,0,3.2,1.1,5.3,1.1h2.1c1.1,0,1.1,0,2.1,1.1h1.1
		v-1.1c1.1,0,2.1-1.1,3.2-1.1c1.1,0,2.1-1.1,3.2,0c0,0,1.1-1.1,3.2-2.1C720.1,747.7,721.1,747.7,722.2,746.7z M572.6,551.8
		c1.1-1.1,1.1-1.1,2.1,0H572.6z M585.3,551.8C584.2,551.8,585.3,550.8,585.3,551.8L585.3,551.8z M457.7,670.7l-0.3-0.3l0,0l-0.6-0.6
		c1.1,0,1.1,0,1.1,1.1C457.8,670.8,457.8,670.8,457.7,670.7z M458.9,669.8v-1.1h1.7C460,669,459.4,669.3,458.9,669.8z M461,668.5
		c0-0.8-0.1-0.8-1.1-0.8c-1.1,0-1.1,0,0-1.1c0,0,1.1,0,1.1,1.1v-2.1c1.1,0,2.1,0,2.1,1.1l0.1,0.1c-0.3-0.2-0.6-0.2-1.1-0.2
		C462.1,667.6,461.6,668.1,461,668.5z M495.2,669.8l0.2-0.2c-0.2,0.8-0.5,1.3-0.6,1.9C494.1,670.8,494.3,670.6,495.2,669.8z
		 M508.4,735.1c0-1.1,1.1-1.1,1.1-1.1C509.4,735.1,509.4,735.1,508.4,735.1z M490.5,802.5v-1.1h2.1
		C492.6,802.5,491.5,802.5,490.5,802.5z M615.7,594c0.2,0,0.4,0,0.5,0.1c-0.3,0.1-0.5,0.4-0.5,0.4V594z M614.8,626.6
		c2.1,0,3.2-1.1,5.3-1.1c0,1.1-1.1,2.1-2.1,2.1c1.1,1.1,1.1,2.1,0,2.1h-1.1c0-1.1,0-1.1-1.1-2.1
		C613.7,627.7,614.8,626.6,614.8,626.6z M618.7,631.7c-0.6-0.1-1.2-0.3-1.7-0.7C617.7,631.1,618.3,631.3,618.7,631.7z M610.5,598.2
		c0,1.1,0,1.1-1.1,1.1L610.5,598.2z M605.3,629.8c1.1-1.1,2.1,0,3.2,1.1c1.1-2.1-1.1-2.1-2.1-3.2c1.1,0,2.1-1.1,3.2-1.1
		c1.1,0,1.1-1.1,2.1-1.1h2.1c-1.1,1.1-3.2,1.1-3.2,3.2c0,0,0,1.1,1.1,1.1s2.1,1.1,3.2,1.1h-5.3c-1.1,0-2.1,1.1-3.2,0h-1.1
		c0,0-1.1,0-1.1,1.1C603.2,630.8,604.2,629.8,605.3,629.8z M597.9,722.4c0-2.1,1.1-2.1,2.1-1.1h1.1h2.1l-3.2-3.2
		c1.1,2.1-1.1,0,0-2.1c1.1,0,2.1,0,1.1-1.1v-3.2c0-1.1,0-1.1,1.1-1.1h2.1c0,0,1.1,1.1,1.1,0v-1.1h-1.1c1.1-2.1,3.2-3.2,5.3-2.1h1.1
		c0-1.1,1.1-1.1,1.1-1.1c1.1-1.1,3.2-1.1,3.2-2.1c0,0,0-1.1,1.1-1.1s2.1,0,2.1-1.1c0,1.1,0,1.1,1.1,1.1c0.4,0,0.6,0,0.7,0
		c0.2-0.7,1.1-0.6,1.1,0.4c0,0-0.8-0.8-1-0.4c0.3,0.1,0.3,0.3,0.3,1.1c0,1.1-1.1,1.1-1.1,2.1c0,1.1,0,2.1-1.1,3.2
		c0,1.1-1.1,1.1-1.1,1.1c1.1,1.1,1.1,2.1,0,4.2c-1.1,2.1-1.1,2.1-3.2,2.1c0,1.1,0,1.1-1.1,1.1c0,0-1.1,0-1.1,1.1
		c-1.1,1.1-2.1,1.1-3.2,2.1h-1.1c0,0-1.1,0-1.1,1.1s-1.1,1.1-2.1,2.1h-1.1c0,0,0-1.1-1.1-1.1c0,0-1.1,0-1.1-1.1c0,0,0,1.1-1.1,1.1
		h1.1c0,1.1-1.1,2.1-2.1,3.2c0,1.1-1.1,1.1-2.1,1.1c-1.1,0-1.1-1.1-1.1-2.1C597.9,725.6,597.9,723.5,597.9,722.4z M600,675
		c0-1.1,0-1.1,1.1-1.1c2.1-1.1,4.2-2.1,6.3-1.1c-1.1,0-2.1,0-2.1,1.1l-3.2,3.2H600C601.1,676.1,601.1,675,600,675z M601.1,672.9
		c-1.1,0-1.1-1.1-2.1-1.1c0-2.1,1.1-3.2,2.1-3.2V672.9z M604.2,725.6C603.2,726.6,603.2,725.6,604.2,725.6L604.2,725.6z
		 M567.4,641.3c1.1,0,1.1-1.1,1.1-1.1h1.1c1.1,0,2.1-1.1,2.1-1.1c1.1,0,1.1-1.1,2.1-1.1h1.1v1.1c0,0-1.1,0-1.1,1.1h-1.1v1.1h1.1
		c1.1-1.1,2.1-2.1,4.2-3.2c0,0,0,1.1,1.1,1.1c-1.1,1.1-1.1,2.1-2.1,4.2v3.2c0,2.1-1.1,3.2-1.1,5.3l-1.1,1.1l-1.1,1.1
		c-1.1,1.1-2.1,2.1-3.2,2.1c-2.1,0-2.1,1.1-3.2,2.1c-1.1,1.1-2.1,3.2-4.2,3.2l-1.1,1.1c0,0-1.1,1.1-2.1,1.1c-1.1,0-1.1,0-1.1,1.1
		v1.1c-1.1,1.1-2.1,3.2-3.2,4.2c0,0-1.1,0-1.1,1.1l-1.1,1.1c-1.1,1.1-1.1,1.1-2.1,0c1.1-1.1,1.1-2.1,2.1-2.1v-1.1
		c0-1.1,1.1-1.1,1.1-2.1c1.1-1.1,1.1-2.1,2.1-3.2l1.1-1.1l2.1-2.1c0-1.1,1.1-2.1,2.1-2.1c0-1.1,1.1-1.1,1.1-2.1l1.1-1.1V654
		l-1.1-1.1c0,0,0-1.1-1.1-1.1v-2.1c0,0,0-1.1,1.1-1.1c1.1-1.1,1.1-2.1,2.1-3.2C566.3,642.4,566.3,642.4,567.4,641.3z M571.6,729.8
		c-1.1-1.1-3.2-2.1-4.2-1.1v1.1c1.1,1.1,2.1,2.1,3.2,2.1c-1.1,1.1-1.1,1.1-2.1,1.1c-1.1,0-1.1-1.1-2.1-1.1c0-1.1-1.1-1.1-1.1-2.1
		c0-1.1-1.1-2.1-2.1-2.1l-1.1-1.1c0,0,0-1.1-1.1-1.1s-1.1-1.1,0-2.1v-4.2c-1.1,0-1.1-1.1-1.1-2.1l-2.1,2.1c-1.1-1.1-1.1-2.1-1.1-3.2
		c0-1.1,0-1.1,1.1-1.1h2.1c1.1,0,1.1,0,1.1,1.1s1.1,1.1,1.1,1.1c0-2.1,0-2.1,2.1-2.1h1.1c1.1,0,1.1,0,2.1,1.1c1.1,0,1.1,0,2.1,1.1
		c1.1,0,3.2,0,4.2,1.1c0,0,1.1,0,1.1,1.1v5.3c0,1.1,0,2.1-1.1,3.2v1.1c0,1.1,0,2.1-1.1,3.2C573.7,730.9,572.6,730.9,571.6,729.8z
		 M572.6,694c-1.1,1.1-2.1,1.1-3.2,2.1c-1.1,0-2.1,1.1-3.2,1.1c0-2.1,1.1-2.1,2.1-2.1h-3.2c-1.1,0-2.1,1.1-1.1,2.1v1.1h-2.1
		c-2.1,0-2.1,0-2.1,2.1c-1.1,0-1.1,0-1.1-1.1s1.1-2.1,2.1-3.2h1.1V694c0-1.1,1.1-2.1,2.1-4.2c0-1.1,1.1-2.1,2.1-3.2l1.1-1.1
		c0-1.1,1.1-1.1,1.1-1.1c1.1,0,1.1,1.1,1.1,2.1c0,1.1-1.1,2.1-2.1,2.1v1.1h1.1c1.1-1.1,2.1-2.1,4.2-3.2v2.1c0,0,0,1.1-1.1,1.1
		c1.1,0,1.1,1.1,1.1,1.1c4.2,0,4.2,0,3.2,1.1C574.7,692.9,573.7,692.9,572.6,694z M573.7,682.4v2.1l-1.1-1.1
		C571.6,683.5,571.6,682.4,573.7,682.4z M543.1,660.3L543.1,660.3c1.1-3.2,1.1-4.2,1.1-6.3c0-1.1,0-2.1,2.1-3.2
		c1.1,0,1.1-1.1,2.1-1.1c0,0,1.1,0,1.1-1.1c1.1,0,1.1-1.1,2.1-1.1c1.1-1.1,2.1-1.1,3.2-1.1l1.1-1.1c0,0,1.1-1.1,1.1,0h1.1
		c1.1-1.1,2.1-1.1,3.2-2.1v-1.1c1.1,0,3.2-1.1,4.2-1.1c0,0,0,1.1-1.1,1.1c-2.1,1.1-3.2,2.1-5.3,3.2l-2.1,2.1l-3.2,3.2
		c-1.1,1.1-2.1,2.1-3.2,2.1c-1.1,0-2.1,1.1-2.1,1.1c1.1,1.1,1.1,1.1,0,2.1l-1.1,1.1c-1.1,1.1-2.1,2.1-3.2,4.2h-1.1V660.3z
		 M540,767.7c1.1-2.1,1.1-4.2,1.1-6.3v-3.2c0-1.1,0-1.1,1.1-1.1c0,1.1,1.1,1.1,1.1,2.1v2.1c0,0-1.1,1.1,0,1.1s2.1-1.1,1.1-2.1
		c0-2.1,1.1-4.2,1.1-5.3c-1.1-1.1-1.1-1.1-1.1-2.1s0-1.1-1.1-2.1c-1.1,1.1,0,2.1-1.1,3.2c0,1.1,0,2.1-1.1,3.2v-6.3
		c0-1.1,1.1-2.1,1.1-4.2c0-1.1,1.1-3.2,1.1-4.2s1.1-2.1,1.1-3.2h2.1c1.1,1.1,1.1,2.1,2.1,3.2c0,1.1,1.1,1.1,1.1,1.1s1.1,0,1.1,1.1
		l3.2,6.3c0,0,0,1.1,1.1,1.1c1.1,2.1,1.1,2.1,3.2,3.2v1.1h2.1v2.1h2.1c-1.1,1.1,0,2.1,1.1,3.2l1.1,1.1c0,1.1,1.1,1.1,1.1,1.1
		c1.1,0,1.1,0,1.1,1.1s0,1.1-1.1,1.1h-1.1c-3.2,1.1-5.3,3.2-8.4,4.2c-1.1,1.1-3.2,1.1-4.2,2.1l-6.3,3.2H540c0-1.1,0-2.1,1.1-3.2
		c0,1.1,0,1.1,1.1,2.1c2.1,0,3.2-2.1,5.3-2.1c-1.1-1.1-2.1,0-3.2,1.1l-1.1-1.1c0,0,1.1,0,1.1-1.1v-1.1c0-1.1,0-1.1-1.1-1.1h-1.1
		C541,767.7,540,767.7,540,767.7v2.1C538.9,768.8,538.9,767.7,540,767.7z M538.9,791.9h1.1c1.1-1.1,3.2-2.1,5.3-2.1l6.3-3.2
		c1.1,0,1.1-1.1,2.1-1.1c0,1.1-1.1,2.1-1.1,3.2c0.6,0.6,1.1,0.5,1.7,0.4c-1.1,0.9-2.9,1.9-3.8,2.8c-1.1,1.1-3.2,1.1-4.2,1.1
		c-2.1,0-3.2,0-5.3,1.1c0,0-1.1,1.1-1.1,0c-1.1,0-1.1-1.1-2.1,0h-1.1L538.9,791.9z M531.6,810.9v1.1c0,1.1-1.1,1.1-2.1,1.1
		c-1.1-2.1-1.1-2.1-2.1-2.1c-1.1,0-1.1-1.1,0-1.1l1.1-1.1c1.1,0,1.1-1.1,2.1-1.1c0,0,1.1-1.1,2.1-1.1h1.1l-1.1,1.1
		C531.6,808.8,531.6,808.8,531.6,810.9z M629.5,780.4c-2.1,11.6-2.1,12.6-3.2,13.7v7.4l1.1,1.1c0,0-1.1,0-1.1,1.1l-1.1,1.1
		c1.1,1.1,1.1,1.1,1.1,2.1v13.7c0,3.2,0,2.1-1.1,4.2c0,1.1,1.1,1.1,1.1,2.1c0,0,0,1.1-1.1,1.1v15.8c1.1,1.1,0,2.1,1.1,3.2v1.1
		c-1.1,1.1-1.1,2.1-1.1,3.2v1.1c-1.1,2.1,0,4.2-1.1,5.3v9.5c0,1.1,0,1.1-2.1,2.1c0,1.1,2.1,1.1,1.1,2.1c-1.1,0-2.1,0-2.1,1.1h2.1
		c0,2.1-2.1,3.2-4.2,2.1c0,1.1,1.1,2.1,2.1,3.2v1.1c0,0-1.1,1.1-1.1,2.1c0,1.1-1.1,2.1-2.1,2.1h-1.1c-1.1,1.1-2.1,1.1-4.2,1.1h-1.1
		c-1.1,1.1-3.2,1.1-5.3,1.1v1.1c-2.1,0-4.2,1.1-6.3,2.1h-7.4c-1.1,0-1.1,0-1.1-1.1h-4.2c1.1,0,1.1-1.1,1.1-1.1l-2.9-2.9
		c0,0,0,0.1,0,0.1c-1.1,0.1-1.1,1.1-2.1,1.1c0.8-0.8,1.2-1.2,1.5-1.5h-0.8c-2.1-1.1-3.2-1.1-5.3-2.1h-3.2c1.1,0,2.1,1.1,3.2,1.1
		c1.1,0,2.1,1.1,3.2,1.1c0,1.1,0,1.1-1.1,1.1v-1.1c-1.1,1.1-2.1,1.1-3.2-1.1c-1.1-1.1-2.1-1.1-3.2-1.1h-1.1
		c-1.1-1.1-1.1-1.1-2.1-1.1H569c-1.1,0-2.1-1.1-3.2-1.1c0-1.1-2.1-1.1-2.1-2.1c-1.1-1.1-2.1-1.1-3.2-1.1H560c-2.1,0-3.2,0-4.2-2.1
		c0,0,0-1.1-1.1-1.1c0,0,0,1.1-1.1,1.1s-1.1,0-1.1-1.1v-1.1c-2.1-1.1-2.1-2.1-3.2-4.2c0-1.1-1.1-1.1-1.1-1.1c-1.1,0-2.1-1.1-2.1-2.1
		s-1.1-1.1-1.1-2.1c-1.1-1.1-2.1-3.2-3.2-4.2c0,0-1.1-1.1-1.1-2.1c0-1.1-1.1-2.1,0-3.2l-1.1-1.1c0,0-1.1-1.1-1.1-2.1V848
		c-1.1-1.1-1.1-2.1-1.1-3.2c0-1.1-1.1-1.1-2.1-2.1v-1.1c-2.1,0-2.1-2.1-2.1-3.2c0,0,1.1-1.1,1.1,0c1.1,0,0,1.1,0,2.1
		c1.1,1.1,1.1,1.1,2.1,1.1v-1.1c0-1.1-1.1-1.1,0-2.1v-3.2c0-1.1,1.1-3.2,1.1-4.2c0,0,0-1.1,1.1-1.1v-1.1c0-1.1,0-1.1,1.1-2.1
		c-1.1,0-1.1,1.1-2.1,1.1v-1.1h-1.1c0,2.1,0,3.2-1.1,5.3v1.1c0,1.1,0,1.1-1.1,1.1l-1.1-1.1c0-1.1-1.1-2.1-1.1-3.2
		c0-1.1,0-2.1,1.1-2.1c1.1-1.1,1.1-2.1,1.1-4.2c0-1.1,0-1.1,1.1-2.1c0-1.1,1.1-1.1,1.1-2.1c0,0,1.1,0,1.1-1.1c1.1,1.1,0,1.1,0,2.1
		c1.1,1.1,2.1,0,2.1-1.1h2.1v-1.1l-1.1-1.1c0,0-1.1-1.1,0-2.1l2.1-2.1h4.2c1.1,0,1.1,0,1.1-1.1H547c0-1.1,1.1-2.1,1.1-3.2
		c1.1-1.1,2.1-1.1,3.2-1.1c1.1,1.1,3.2,1.1,4.2,2.1c0-1.1-1.1-2.1-2.1-3.2h5.3l-2.1,2.1c-1.1,1.1,0,1.1,1.1,2.1h1.1
		c0,0,0,0.5-0.3,0.8c1.8-0.5,3.6,0.5,4.5,2.4c0,1.1-1.1,1.1,0,2.1c1.1,1.1,1.1,0,2.1,0h3.2c1.1,0,1.1,1.1,2.1,1.1
		c1.1,1.1,3.2,2.1,4.2,3.2c1.1,2.1,3.2,3.2,4.2,4.2c1.1,1.1,1.1,2.1,3.2,3.2c1.1,0,0,1.1,0,2.1c1.1,1.1,2.1,2.1,3.2,2.1l1.1,1.1
		l1.1,1.1c0,1.1,1.1,2.1,2.1,2.1c1.1,0,2.1,1.1,2.1,2.1h1.1c0,1.1-1.1,1.1-1.1,1.1s1.1,0,1.1,1.1v-1.1c0-1.1,1.1-1.1,1.1-1.1h7.4
		c1.1,0,2.1-1.1,3.2-1.1V836c0-1.1,0-1.1,1.1-1.1s1.1,0,1.1-1.1h1.1c1.1,0,1.1-1.1,1.1-2.1c0-1.1,0-1.1,1.1-2.1
		c0-1.1,1.1-3.2,1.1-4.2c-1.1-1.1-1.1-1.1-1.1-2.1v-1.1c-1.1-1.1-1.1-2.1-2.1-4.2v-2.1c1.1-2.1,0-3.2,0-4.2s-1.1-2.1-1.1-3.2v-2.1
		c0-1.1-2.1-3.2-3.2-3.2c-1.1,0-2.1-1.1-2.1-1.1s0-1.1-1.1-1.1c-2.1-1.1-4.2-3.2-6.3-5.3c-2.1-1.1-3.2-2.1-5.3-3.2
		c-1.1-1.1-3.2-1.1-4.2-2.1c-1.1,0-1.1-1.1-2.1,0c-1.1,0-2.1,0-4.2-1.1c-2.1-1.1-3.2-1.1-5.3-1.1H561c1.1,0,2.1,0,3.2-1.1h6.3
		c0,0,1.1,0,1.1-1.1s0-1.1-1.1-1.1h-6.3c-1.1,0-2.1,0-3.2,1.1c-1.6,0.8-2.6,1-3.9,1.5c0.4-0.4,0.7-0.9,0.7-1.5h-1.1
		c-1.1,0-1.1,0-1.1-1.1c1.1-1.1,2.1-2.1,4.2-2.1c1.1,0,2.1-1.1,3.2-1.1c2.1-1.1,3.2-2.1,5.3-2.1h1.1c1.1,0,2.1-1.1,2.1-2.1
		c1.1,0,2.1-1.1,2.1-2.1c0-1.1,1.1-1.1,2.1-2.1c1.1,0,1.1-1.1,2.1-1.1l1.1-1.1c1.1,0,1.1-1.1,1.1-1.1c1.1,0,1.1,1.1,2.1,0
		c0,0,1.1,0,2.1,1.1l1.1-1.1c0-1.1,1.1-1.1,2.1-1.1c2.1-1.1,5.3-1.1,7.4-3.2c1.1-1.1,3.2-2.1,4.2-2.1c1.1,0,2.1-1.1,4.2-2.1
		c1.1,0,2.1-1.1,3.2-1.1c1.1-1.1,2.1-1.1,4.2-2.1h1.1c1.1,0,2.1-1.1,3.2-1.1c1.1,0,1.1,0,2.1,1.1c1.1,0,1.1,0,1.1-1.1l1.1-1.1
		c1.1,0,2.1-1.1,3.2-1.1c0,1.1-1.1,1.1-1.1,1.1h2.1v1.1c0,0,0,1.1,1.1,0v-1.1h1.1c0,1.1,1.1,2.1,1.1,3.2c0,1.1,0,1.1-1.1,1.1h-2.1
		c0,1.1,0,1.1,1.1,1.1h2.1v1.1c0,1.1,1.1,3.2,2.1,4.2c-1.1,1.1-1.1,1.1,0,2.1v1.1c0,1.1,0,2.1,1.1,3.2v3.2c-1.1,0-1.1,2.1-2.1,2.1
		v1.1c0,0,1.1,0,1.1-1.1c1.1-1.1,1.1-1.1,2.1,0L629.5,780.4z M563.2,806.7c0,0,1.1,0,1.1-1.1l1.1,1.1H563.2z M629.5,672.7v0.2
		c-2.1-1.1-3.2-1.1-5.3-2.1h-1.1c-2.1,0-3.2,0-5.3,1.1h-1.1c-2.1-1.1-3.2,0-4.2,0c-1.6,0-3.2,0.6-4.3,0.9c0.1-0.1,0.1-0.4,0.1-0.9
		c0,0,0-1.1-1.1-1.1s-2.1-1.1-3.2-2.1l1.1-1.1c1.1-1.1,1.1-1.1,1.1-2.1c0,0,0-1.1,1.1-1.1c-1.1,0-2.1,0-3.2,1.1l-1.1,1.1
		c0,0-1.1,1.1-2.1,1.1s-2.1,0-2.1-1.1c1.1,0,1.1-1.1,2.1,0c0,0,1.1,0,1.1-1.1s1.1-2.1,1.1-3.2c0-1.1,1.1-1.1,1.1-2.1
		c0,0,1.1,0,1.1-1.1c1.1-2.1,3.2-2.1,5.3-3.2h1.1c1.1,0,3.2,0,4.2-1.1h5.3c0,0,1.1,0,1.1-1.1c1.1-1.1,2.1-2.1,3.2-1.1h3.2
		c1.1,1.1,2.1,2.1,2.1,3.2v2.1c0,2.1,1.1,3.2,0,5.3v8.4l1.1,1.1H629.5z M639,645.6C640,645.6,639,646.6,639,645.6L639,645.6z
		 M655.7,766.5c-1-1.1-2-3.1-3-4.1c-1.1-1.1-2.1-2.1-4.2-3.2c-1.1,0-1.1-1-2-2c0.4,0,0.6-0.3,0.8-0.4c-0.3,0.1-0.6,0.2-0.8,0.4
		c0,0,0,0-0.1-0.1c0,0-0.4-0.4-0.5-0.5l-0.6-0.6h1.1c0,0,0.7,0,1,0.6c0,0.1,0.1,0.2,0.1,0.4c0-0.2,0-0.4,0-0.4
		c1.6-0.6,3.2-0.6,4.8-0.6C654.5,762.6,655.4,765.5,655.7,766.5z"/>
	<linearGradient id="SVGID_14_" gradientUnits="userSpaceOnUse" x1="570.4349" y1="35.1111" x2="570.4349" y2="990.2213">
		<stop  offset="1.017608e-06" style="stop-color:#D8DBEF"/>
		<stop  offset="1" style="stop-color:#A1AAC3"/>
	</linearGradient>
	<path class="st13" d="M575.8,1037.3c-1.1,0-2.1-1.1-3.2,0c-2.1,0-3.2,1.1-8.4,4.2h9.5C575.8,1040.5,577.9,1037.3,575.8,1037.3z"/>
	<linearGradient id="SVGID_15_" gradientUnits="userSpaceOnUse" x1="663.15" y1="35.1111" x2="663.15" y2="990.2213">
		<stop  offset="1.017608e-06" style="stop-color:#D8DBEF"/>
		<stop  offset="1" style="stop-color:#A1AAC3"/>
	</linearGradient>
	<path class="st14" d="M662.6,790.8c-0.1,0-0.5,0-0.5,0v2.2c1.1-1.1,1.1-1.1,2.1-1.1v-1.1H662.6z"/>
	<linearGradient id="SVGID_16_" gradientUnits="userSpaceOnUse" x1="597.35" y1="35.1111" x2="597.35" y2="990.2213">
		<stop  offset="1.017608e-06" style="stop-color:#D8DBEF"/>
		<stop  offset="1" style="stop-color:#A1AAC3"/>
	</linearGradient>
	<path class="st15" d="M594.7,848.8h4.2l1.1-1.1h-3.2C595.8,847.7,595.8,847.7,594.7,848.8z"/>
	<linearGradient id="SVGID_17_" gradientUnits="userSpaceOnUse" x1="558.2499" y1="35.1111" x2="558.25" y2="990.2213">
		<stop  offset="1.017608e-06" style="stop-color:#D8DBEF"/>
		<stop  offset="1" style="stop-color:#A1AAC3"/>
	</linearGradient>
	<path class="st16" d="M558.6,811.7c-0.2,0.1-0.5,0.2-0.7,0.3C558.2,811.9,558.5,811.8,558.6,811.7z"/>
	<linearGradient id="SVGID_18_" gradientUnits="userSpaceOnUse" x1="654.25" y1="35.1111" x2="654.25" y2="990.2213">
		<stop  offset="1.017608e-06" style="stop-color:#D8DBEF"/>
		<stop  offset="1" style="stop-color:#A1AAC3"/>
	</linearGradient>
	<path class="st17" d="M653.7,839.3c0,1.1,0,1.1,1.1,2.1C654.8,841.4,653.7,840.3,653.7,839.3z"/>
	<linearGradient id="SVGID_19_" gradientUnits="userSpaceOnUse" x1="215.9973" y1="35.1111" x2="215.9973" y2="990.2213">
		<stop  offset="1.017608e-06" style="stop-color:#D8DBEF"/>
		<stop  offset="1" style="stop-color:#A1AAC3"/>
	</linearGradient>
	<path class="st18" d="M228.3,1012c-2.1-1.1-6.3-2.1-8.4-2.1c-6.3,0-12.6,1.1-19,2.1c-2.1,6.3,1.1,9.5,5.3,10.5
		c7.4,1.1,14.7,1.1,22.1,0c1.1,0,3.2-2.1,3.2-4.2C232.5,1016.2,230.4,1013.1,228.3,1012z"/>
	<linearGradient id="SVGID_20_" gradientUnits="userSpaceOnUse" x1="493.6" y1="35.1111" x2="493.6" y2="990.2213">
		<stop  offset="1.017608e-06" style="stop-color:#D8DBEF"/>
		<stop  offset="1" style="stop-color:#A1AAC3"/>
	</linearGradient>
	<path class="st19" d="M493.6,672.9c0,0-1.1,0,0,1.1C494.7,672.9,493.6,672.9,493.6,672.9z"/>
	<linearGradient id="SVGID_21_" gradientUnits="userSpaceOnUse" x1="593.75" y1="35.1111" x2="593.75" y2="990.2213">
		<stop  offset="1.017608e-06" style="stop-color:#D8DBEF"/>
		<stop  offset="1" style="stop-color:#A1AAC3"/>
	</linearGradient>
	<path class="st20" d="M591.6,1025.7c0,0-1.1,2.1-2.1,3.2c1.1,1.1,2.1,3.2,3.2,4.2c1.1,1.1,3.2,0,5.3,0c0-2.1,0-3.2-1.1-4.2
		C594.7,1025.7,592.6,1025.7,591.6,1025.7z"/>
	<linearGradient id="SVGID_22_" gradientUnits="userSpaceOnUse" x1="452.1" y1="35.1111" x2="452.1" y2="990.2213">
		<stop  offset="1.017608e-06" style="stop-color:#D8DBEF"/>
		<stop  offset="1" style="stop-color:#A1AAC3"/>
	</linearGradient>
	<path class="st21" d="M452.6,815.1c-1.1,0-2.1,1.1-2.1,1.1c0,1.1,0,2.1,1.1,3.2c1.1-1.1,2.1-2.1,2.1-3.2
		C453.6,816.2,453.6,815.1,452.6,815.1z"/>
	<linearGradient id="SVGID_23_" gradientUnits="userSpaceOnUse" x1="409.05" y1="35.1111" x2="409.05" y2="990.2213">
		<stop  offset="1.017608e-06" style="stop-color:#D8DBEF"/>
		<stop  offset="1" style="stop-color:#A1AAC3"/>
	</linearGradient>
	<path class="st22" d="M408.4,744.5h1l0.3-0.3C409.2,744.4,408.7,744.5,408.4,744.5z"/>
	<linearGradient id="SVGID_24_" gradientUnits="userSpaceOnUse" x1="469.4" y1="35.1121" x2="469.4" y2="990.2223">
		<stop  offset="1.017608e-06" style="stop-color:#D8DBEF"/>
		<stop  offset="1" style="stop-color:#A1AAC3"/>
	</linearGradient>
	<path class="st23" d="M469.4,745.7c0,0,0,1.1-1.1,1.1v1.1c0,0.5,0.3,0.8,0.5,1c0.6-0.2,0.6-0.6,0.6-2.2c1.1,0,1.1-1.1,1.1-2.1
		C470.5,744.6,469.4,744.6,469.4,745.7z"/>
	<linearGradient id="SVGID_25_" gradientUnits="userSpaceOnUse" x1="456.25" y1="35.1111" x2="456.25" y2="990.2213">
		<stop  offset="1.017608e-06" style="stop-color:#D8DBEF"/>
		<stop  offset="1" style="stop-color:#A1AAC3"/>
	</linearGradient>
	<path class="st24" d="M455.7,755.1c0,1.1,1.1,1.1,1.1,1.1c-1.1-1.1,0-1.1,0-2.2L455.7,755.1z"/>
	<linearGradient id="SVGID_26_" gradientUnits="userSpaceOnUse" x1="619.45" y1="35.1111" x2="619.45" y2="990.2213">
		<stop  offset="1.017608e-06" style="stop-color:#D8DBEF"/>
		<stop  offset="1" style="stop-color:#A1AAC3"/>
	</linearGradient>
	<path class="st25" d="M618.9,921.5h1.1v-1.1C620,921.5,618.9,921.5,618.9,921.5z"/>
	<linearGradient id="SVGID_27_" gradientUnits="userSpaceOnUse" x1="649" y1="35.1111" x2="649.0001" y2="990.2213">
		<stop  offset="1.017608e-06" style="stop-color:#D8DBEF"/>
		<stop  offset="1" style="stop-color:#A1AAC3"/>
	</linearGradient>
	<path class="st26" d="M647.4,907.8c1.1,0,2.1,1.1,3.2,0C649.5,906.7,648.5,907.8,647.4,907.8z"/>
	<linearGradient id="SVGID_28_" gradientUnits="userSpaceOnUse" x1="406.8" y1="35.1111" x2="406.8" y2="990.2213">
		<stop  offset="1.017608e-06" style="stop-color:#D8DBEF"/>
		<stop  offset="1" style="stop-color:#A1AAC3"/>
	</linearGradient>
	<path class="st27" d="M407.2,744.6c-0.4,0.1-0.6,0.2-0.8,0.4C406.7,745,406.9,744.8,407.2,744.6z"/>
	<linearGradient id="SVGID_29_" gradientUnits="userSpaceOnUse" x1="407.75" y1="35.1111" x2="407.75" y2="834.9158">
		<stop  offset="1.017608e-06" style="stop-color:#D8DBEF"/>
		<stop  offset="1" style="stop-color:#A1AAC3"/>
	</linearGradient>
	<path class="st28" d="M407.2,744.6l1.1-0.1C407.9,744.5,407.5,744.5,407.2,744.6z"/>
	<linearGradient id="SVGID_30_" gradientUnits="userSpaceOnUse" x1="526.7438" y1="35.1111" x2="526.7438" y2="990.2213">
		<stop  offset="1.017608e-06" style="stop-color:#D8DBEF"/>
		<stop  offset="1" style="stop-color:#A1AAC3"/>
	</linearGradient>
	<path class="st29" d="M524.2,17.9c2.1,2.1,4.2,5.3,10.5,5.3l-9.5-9.5c-3.2-4.2-1.1-9.5,4.2-11.6c2.1-1.1,4.2-1.1,6.3-2.1h-10.5
		c-5.3,1.1-9.5,8.4-6.3,12.6C521,13.7,522.1,15.8,524.2,17.9z"/>
	<linearGradient id="SVGID_31_" gradientUnits="userSpaceOnUse" x1="227.7" y1="35.1111" x2="227.7" y2="990.2213">
		<stop  offset="1.017608e-06" style="stop-color:#D8DBEF"/>
		<stop  offset="1" style="stop-color:#A1AAC3"/>
	</linearGradient>
	<path class="st30" d="M235.6,107.4c-6.3,1.1-10.5,4.2-15.8,9.5c2.1,1.1,3.2,1.1,4.2,1.1C228.3,114.8,234.6,113.7,235.6,107.4z"/>
	<linearGradient id="SVGID_32_" gradientUnits="userSpaceOnUse" x1="775.8955" y1="35.1111" x2="775.8955" y2="990.2213">
		<stop  offset="1.017608e-06" style="stop-color:#D8DBEF"/>
		<stop  offset="1" style="stop-color:#A1AAC3"/>
	</linearGradient>
	<path class="st31" d="M775.9,162.1c-0.2-0.1-0.1,0,0.1,0.4C776,162.4,775.9,162.3,775.9,162.1z"/>
	<linearGradient id="SVGID_33_" gradientUnits="userSpaceOnUse" x1="758.2525" y1="35.1111" x2="758.2525" y2="990.2213">
		<stop  offset="1.017608e-06" style="stop-color:#D8DBEF"/>
		<stop  offset="1" style="stop-color:#A1AAC3"/>
	</linearGradient>
	<path class="st32" d="M760.1,328.6c1.1-0.4-0.9-0.6-4-1c0.8,0.6,1.6,1.2,2.3,1.8C758.9,329.1,759.5,328.8,760.1,328.6z"/>
	<linearGradient id="SVGID_34_" gradientUnits="userSpaceOnUse" x1="1058.0499" y1="35.1111" x2="1058.0499" y2="990.2213">
		<stop  offset="1.017608e-06" style="stop-color:#D8DBEF"/>
		<stop  offset="1" style="stop-color:#A1AAC3"/>
	</linearGradient>
	<path class="st33" d="M1063.3,410.6c-4.1,4.3-8.3,9.6-12.6,13.8c9.5,0,12.6-3.2,14.7-15.8v-1.1c-0.5-1.4-0.7-3-1.1-4.7
		L1063.3,410.6z"/>
	<linearGradient id="SVGID_35_" gradientUnits="userSpaceOnUse" x1="763.2" y1="35.1111" x2="763.2" y2="990.2213">
		<stop  offset="1.017608e-06" style="stop-color:#D8DBEF"/>
		<stop  offset="1" style="stop-color:#A1AAC3"/>
	</linearGradient>
	<path class="st34" d="M763.2,360.1c-0.1,0-0.2-0.1-0.3-0.2c0.1,0.4,0.2,0.9,0.3,1.3c0.1-0.2,0.2-0.4,0.3-0.7
		C763.4,360.4,763.3,360.2,763.2,360.1z"/>
	<linearGradient id="SVGID_36_" gradientUnits="userSpaceOnUse" x1="1063.9" y1="35.1111" x2="1063.9" y2="990.2213">
		<stop  offset="1.017608e-06" style="stop-color:#D8DBEF"/>
		<stop  offset="1" style="stop-color:#A1AAC3"/>
	</linearGradient>
	<path class="st35" d="M1062.3,393.9v3.2c1.2,1.8,1.7,3.8,2.1,5.9l1.1-8l-2.1-2.1c-0.1-0.1-0.2-0.2-0.3-0.3
		C1063.1,393.3,1062.9,393.9,1062.3,393.9z"/>
	<linearGradient id="SVGID_37_" gradientUnits="userSpaceOnUse" x1="673.6681" y1="35.1111" x2="673.6681" y2="634.9646">
		<stop  offset="1.017608e-06" style="stop-color:#D8DBEF"/>
		<stop  offset="1" style="stop-color:#A1AAC3"/>
	</linearGradient>
	<path class="st36" d="M673.8,91.6C673.5,91.5,673.4,91.5,673.8,91.6L673.8,91.6z"/>
	<linearGradient id="SVGID_38_" gradientUnits="userSpaceOnUse" x1="531.4679" y1="35.1111" x2="531.4679" y2="990.2213">
		<stop  offset="1.017608e-06" style="stop-color:#D8DBEF"/>
		<stop  offset="1" style="stop-color:#A1AAC3"/>
	</linearGradient>
	<path class="st37" d="M682.2,935.2c-4.2,1.1-8.4,2.1-11.6,5.3c-13.7,11.6-31.6,14.7-47.4,22.1c-2.1,1.1-5.3,2.1-6.3,3.2
		c-7.4,7.4-16.8,9.5-26.3,12.6c-10.5,3.2-21.1,8.4-31.6,11.6c-10.5,3.2-21.1,6.3-32.6,8.4c-13.7,2.1-27.4,5.3-40,8.4
		c-9.5,3.2-13.7,3.2-17.9,3.2c-12.6,0-26.3-1.1-39,0c-10.5,1.1-21.1,0-31.6-3.2s-19-4.2-29.5,0c-6.3-2.1-11.6-4.2-17.9-6.3
		c-5.3-2.1-10.5-3.2-16.9-3.2c-7.4,1.1-14.7,0-21.1-5.3c-2.1-1.1-4.2-2.1-7.4-2.1c-5.3-1.1-9.5-2.1-13.7-5.3
		c-5.3-4.2-10.5-6.3-16.9-7.4c-2.1,0-4.2-2.1-7.4-3.2c-11.6-5.3-21.1-12.6-32.6-16.9c-11.6-4.2-23.2-10.5-33.7-15.8
		c-4.2-2.1-8.4-5.3-12.6-7.4c-1.1-1.1-2.1-3.2-3.2-4.2c4.2-1.1,7.4-2.1,12.6-4.2c-6.3-2.1-10.5-2.1-13.7-4.2
		c-3.2-2.1-5.3-5.3-7.4-8.4c-7.4-7.4-15.8-13.7-26.3-16.8c-3.2-1.1-5.3-3.2-7.4-5.3c-12.6-16.8-17.9-23.2-32.6-32.6
		c-4.2-3.2-8.4-6.3-9.5-10.5c-2.1-7.4-8.4-11.6-10.5-19c0-2.1-2.1-5.3-4.2-6.3c-7.4-5.3-11.6-12.6-14.7-21.1
		c-4.2-10.5-10.5-17.9-19-25.3c0-11.6-2.1-22.1-8.4-31.6c-2.1-3.2-2.1-7.4-2.1-10.5c-1.1-11.6-4.2-21.1-12.6-27.4
		c-2.1-16.8-5.3-33.7-7.4-50.5c-1.1-6.3-1.1-12.6-1.1-19c0-7.4,0-13.7-3.2-20c-1.1-1.1-1.1-2.1-1.1-3.2c0-22.1-1.1-45.3,3.2-67.4
		c2.1-9.5,2.1-20,4.2-29.5c4.2-22.1,7.4-45.3,19-66.3c1.1-3.2,3.2-5.3,3.2-8.4c3.2-15.8,11.6-28.4,17.9-43.2
		c2.1-5.3,5.3-9.5,8.4-14.7c4.2-5.3,7.4-11.6,11.6-17.9c7.4-1.1,14.7-3.2,17.9-12.6h-5.3c-2.1,0-3.2-2.1-3.2-3.2
		c1.1-3.2,2.1-5.3,5.3-7.4c3.2-3.2,7.4-4.2,10.5-7.4c4.2-3.2,8.4-6.3,8.4-11.6c0-2.1,2.1-4.2,3.2-6.3c6.3-6.3,12.6-11.6,19-17.9
		c3.2-3.2,5.3-6.3,8.4-9.5c-1.1,0-2.1-1.1-2.1-1.1c0-6.3,2.1-6.3,3.2-6.3c2.1-2.1,4.2-3.2,6.3-5.3c5.3-4.2,10.5-6.3,16.8-4.2
		c1.9,0,3.7-0.8,5.6-1c0.2,0.3,0.4,0.7,0.7,1c0-0.4,0-0.7-0.1-1h0.1c3.2,2.1,5.3,4.2,10.5,4.2c4.2,0,5.3-13.7,10.5-13.7
		c4.2,7.4,23.2-21.1,19-22.1c-6.3-2.1-6.3-5.3-2.1-9.5c6.3-5.3,12.6-10.5,20-13.7c10.5-3.2,20-9.5,28.4-16.8
		c1.1-1.1,3.2-2.1,4.2-3.2c3.2,0,6.3,1.1,8.4,1.1c1.1-1.1,3.2-1.1,3.2-2.1c6.3-8.4,14.7-11.6,25.3-13.7h1.1
		c2.1-11.6,20-15.8,33.7-17.9c0-1.1,1.1-1.1,2.1-1.1h3.2V163c1.1-2.1,4.2-5.3,6.3-6.3c3.2-3.2,7.4-6.3,10.5-8.4
		c2.1-2.1,4.2,2.1,2.1,4.2c-3.2,2.1-5.3,4.2-8.4,6.3c1.1,1.1,2.1,2.1,1.1,3.2c-2.1,2.1-5.3,4.2-7.4,6.3c-1.1,1.1-2.1,1.1-3.2,0
		c-5.3,1.1-13.7,2.1-20,4.2c0,1.1,0,1.1-1.1,2.1l-4,4.4c0,1.1,0,2.1-1.1,2.1c0,0-1.1,0-1.1,1.1h17.9c11.6-3.2,23.2-5.3,34.8-5.3
		c-1.1-1.1-3.2-3.2-3.2-5.3h1.1c0-1.1,1.1-2.1,2.1-3.2c2.1,1.1,6.3,1.1,10.5,1.1c9.5,2.1,5.3,6.3,11.6,5.3c5.3-1.1,9.5-4.2,15.8-8.4
		c1.1,0,1.1,1.1,2.1,2.1h1.1c6.3,0,13.7-1.1,20-2.1c2.1-2.1,2.1-4.2,1.1-7.4c5.3-1.1,9.5-2.1,15.8-3.2c2.1,0,5.3-1.1,8.4-1.1v1.1
		c4.2,4.2,6.3,9.5,11.6,11.6c7.4,3.2,15.8,8.4,25.3,6.3c7.4-1.1,12.6,3.2,14.7,10.5c1.1,5.3,0,8.4,4.2,13.7c4.2,0,5.3,6.3,8.4,12.6
		c2.1,3.2,10.5,3.2,17.9,3.2c0,0,3.2-15.8,3.2-14.7c6.3-1.1,9.5,3.2,11.6,6.3c2.1-4.2,6.3-5.3,12.6-5.3h1.1c0,0,1.1,0,1.1-1.1h3.2
		c5.3-2.1,10.5-5.3,14.7-7.4c0-1.1,1.1-1.1,2.1-1.1h6.3c1.1,0,2.1,0,2.1,1.1h2.1c8.4-4.2,19-5.3,26.3,0c1.1,1.1,1.1,2.1,1.1,3.2
		c3.2,1.1,7.4,3.2,10.5,5.3c0-1.1,1.1-1.1,2.1-1.1c6.3,1.1,11.6,3.2,16.8,6.3c1.1,0,1.1,1.1,1.1,2.1v4.2h1.1c0-1.1,1.1-1.1,2.1-1.1
		c1.1,0,2.1,1.1,2.1,1.1c2.1,0,4.2,1.1,6.3,1.1c1.1,0,2.1,1.1,2.1,2.1v1.1c1.1,1.1,2.1,1.1,3.2,2.1c1.1,1.1,1.1,2.1,0,3.2
		c-2.1,3.2-2.1,8.4-5.3,4.2l-6.3-6.3c0,0-1.1,0-1.1-1.1c-1.1,1.1-2.1,1.1-3.2,1.1c-4.2-2.1-8.4-5.3-11.6-8.4
		c-13.7-6.3-27.4-11.6-41.1-13.7c-1.1,0-2.1,1.1-3.2,1.1c-1.1,1.1-1.1,1.1-2.1,0c-10.5,3.2-20,7.4-29.5,11.6
		c-2.1,2.1-3.2,4.2-5.3,6.3c-1.1,2.1-4.2,4.2-3.2,6.3c1.1,9.5-9.5,12.6-16.9,15.8c-6.3,3.2,0,8.4,3.2,8.4s7.4,0,10.5,2.1
		c4.2,2.1,5.3,7.4,4.2,11.6c-3.2,3.2-5.3-1.1-11.6,1.1c-1.1,1.1-5.3,4.2-9.5,6.3c-4.2,2.1-7.4,4.2-11.6,5.3
		c-3.2,1.1-7.4,1.1-10.5-2.1c-4.2-3.2-7.4-6.3-11.6-9.5c-2.1-8.4,0-14.7,6.3-19c5.3-4.2,9.5-7.4,16.8-8.4c4.2,0,7.4-2.1,9.5-5.3
		c-16.8-2.1-26.3,2.1-34.8,12.6c-1.1,1.1-2.1,3.2-3.2,4.2c-3.2,6.3-5.3,17.9-5.3,23.2c-6.3-1.1-12.6-2.1-15.8-5.3
		c-6.3-6.3,11.6-26.3-2.1-14.7c-13.7,11.6-9.5,14.7-7.4,24.2c2.1,7.4,14.7,8.4,25.3,9.5c1.1,1.1,4.2,2.1,6.3,3.2
		c5.3,1.1,10.5-1.1,16.8-1.1c8.4,0,11.6,0,14.7,8.4v1.1c-4.2,5.3-8.4,9.5-11.6,10.5c-8.4,2.1-16.8-24.2-13.7-5.3
		c3.2,17.9,7.4,15.8,16.8,17.9c8.4,2.1,16.8-11.6,23.2-21.1c5.3,1.1,7.4,5.3,16.8,6.3c2.1,0,9.5-4.2,11.6-5.3
		c2.1-1.1,3.2-8.4,7.4-8.4c2.1,0,6.3-5.3,9.5-6.3l2.1-6.3c0,0,1.1-8.4,9.5-15.8c0-1.1,0-2.1,1.1-3.2c1.1-1.1,3.2-1.1,5.3-2.1
		c3.2-4.2,1.1-5.3,7.4-5.3c2.1-1.1,3.2-5.3,5.3-6.3c1.1,0,12.6,7.4,13.7,7.4c-2.1-3.2,14.7-6.3,22.1-3.2c1.1,0,1.1,1.1,1.1,1.1v1.1
		c0,2.1-1.1,4.2-2.1,5.3c0,0,0,1.1,1.1,1.1c0,0,1.1,0,2.1,1.1c0,0,1.1,1.1,1.1,0l7.4,5.3c-1.1,2.1-1.1,5.3-4.2,5.3
		c-5.3,0,4.2,5.3,0,8.4c-1.1,1.1,9.5,4.2,9.5,5.3c1.1,1.1,6.3,15.8,7.4,15.8c2.1,0,11.6-8.4,13.7-9.5c5.3-2.1,5.3-8.4,11.6-8.4
		c8.4,1.1,8.4-3.2,11.6,3.2c0,1.1,3.2,3.2,3.2,4.2c-1.1,1.1-5.3,4.2-6.3,4.2c-3.2-1.1-5.3-1.1-9.5-3.2c-2.1,5.3-1.1,7.4-6.3,10.5
		l-3.2,2.1l-2.1,4.2c-1.1,4.2,0,4.2-2.1,8.4c-3.2,0,3.2,1.1,4.2,5.3c1.1,5.3,5.3,8.4,9.5,5.3c9.5-8.4,19-5.3,29.5,0
		c-0.7,2.8,9.1,3.7,15,4.3c-9.4-6.9-20.2-10.7-31.8-10.7c-1.1,0-2.1-1.1-3.2-2.1c1.1-2.1,1.1-4.2,2.1-6.3c2.1-1.1,4.2-1.1,5.3-2.1
		c10.5-2.1,20,0,27.4,8.4c7.4,7.4,14.7,15.8,21.1,23.2c0,0,0,2.1-1.1,4.2c-5.3-4.2-10.5-7.4-14.7-10.5c-0.9-0.8-1.8-1.6-2.7-2.3
		c-4,2.5-5.7,7.1-5.7,11.8c0,8.3,4.1,13.5,10.2,18.7c-0.9-3.6-1.9-6.5-2.8-10.2c-1.1-5.3,1.1-8.4,9.5-10.5c-1.1,2.1-3.2,4.2-3.2,6.3
		c-1.1,3.2,0,6.3-1.1,9.5c0,1.9-0.8,3.8-1.8,5.7c4.1,5.1,8.2,9.2,12.3,15.4h-2.1c-8.4-2.1-10.5-4.2-15.8-12.6c0,0-3.2,9.5,8.4,22.1
		c6.3,7.4,14.7,12.6,20,14.7c2.1,3.2,4.2,6.3,7.4,9.5s4.2,7.4,5.3,10.5c-2.1-1.1-5.3-2.1-7.4-4.2c-7.4-5.3-10.5-8.4-16.9-15.8
		c0,0,0,10.5,9.5,23.2c5.3,6.3,12.6,11.6,19,14.7c0,2.1-1.1,3.2-2.1,5.3c4.2,2.1,7.4,4.2,8.4,8.4c1.1,3.2,2.1,5.3,3.2,8.4
		c-3.2,0-7.4-2.1-10.5-4.2c-6.3-5.3-9.5-8.4-13.7-15.8c0,0-1.1,11.6,6.3,24.2c5.3,8.4,13.7,12.6,20,15.8c-7.4,5.3-13.7,11.6-19,17.9
		c-3.2,4.2-5.3,9.5-5.3,15.8c0,8.4,7.4,13.7,15.8,9.5c2.1-1.1,2.1-1.1,5.3-7.4c-3.2-2.1-5.3,1.1-7.4,1.1c-4.2,0-8.4-3.2-6.3-6.3
		c1.1-3.2,2.1-6.3,4.2-8.4c2.1-3.2,6.3-6.3,8.4-9.5c4.2-4.2,8.4-7.4,11.6-11.6l2.1-2.1c3.2,3.2,6.3,5.3,10.5,6.3
		c3.2,1.1,5.3,2.1,8.4,3.2c3.2,1.1,6.3,4.2,9.5,4.2l10.5,2.1c1.1,1.1,1.1,2.1,1.1,3.2c1.1,0,2.1-1.1,3.2-1.1c1.1,0,1.1,1.1,2.1,1.1
		l1.1-3.2c0-1.1,1.1-1.1,1.1-2.1c1.1-2.1,3.2-4.2,4.2-5.3h1.1v-1.1c0-1.1,1.1-2.1,2.1-3.2c1.1-1.1,1.1-2.1,1.1-2.1
		c0-3.2,0-7.4,1.1-10.5h-1.1c-1.1,2.1-2.1,4.2-4.2,6.3c-3.2,4.2-9.5,2.1-12.6-1.1c-2.1,0-4.2-2.1-5.3-3.2l-3.2-3.2
		c-1.1,1.1-2.1,1.1-2.1,2.1l-2.1-2.1c-2.1-4.2,0-16.8,2.1-23.2c3.2-6.3,3.2-6.3,1.1-7.4h1.1c0-1.1-1.1-1.1-1.1-2.1l-1.1-1.1
		c-1.1-1.1-2.1-1.1-2.1-2.1c-1.1-1.1-1.1-2.1-1.1-2.1c0-1.1-1.1-2.1-1.1-2.1c0-1.1-1.1-1.1-1.1-2.1c-1.1-1.1-1.1-2.1-1.1-4.2v-4.2
		c3.2-7.4,12.6-9.5,19-5.3c5.3,4.2,10.5,9.5,14.7,13.7c1.1,5.3-3.2,10.5,5.3,12.6c5.3,1.1,5.3,3.2,4.2,7.4c1.1,1.1,1.1,2.1,2.1,4.2
		c4.2,11.6-13.7,19-5.3,15.8c3.2-1.1,6.3-3.2,9.5-5.3l3.2,6.3l9.5,3.2c3.2,0,5.3,0,7.4,1.1c5.3,1.1,10.5,2.1,15.8,4.2
		c5.3,1.1,9.5,3.2,14.7,3.2c5.3,1.1,9.5-5.3,7.4-10.5l-6.3-9.5c-5.3-7.4-6.3-14.7-6.3-23.2c0-3.2,2.1-6.3,5.3-6.3
		c1.1,0,2.1,0,4.2-1.1c14.7,0,24.2-7.4,28.4-22.1l-1.1,1.1c2.1-3.2,3.2-7.4,4.2-8.4c0-1.1,1.1-2.1,1.1-4.2l4.2-4.2
		c2.1-3.2,4.2-7.4,5.3-11.6c3.2-7.4,9.5-11.6,17.9-11.6s16.8,0,24.2,1.1c4.2,2.1,15.8,6.3,27.4,21.1c0,1,0,1.1,0.8,1.8
		c0-0.8-0.3-1.8-0.8-2.9c-8.4-13.7-23.2-23.2-31.6-23.2c-9.5,0-20-1.1-29.5-1.1c-8.4,0-13.7,4.2-16.8,11.6
		c-2.1,6.3-5.3,13.7-5.3,21.1c0,1.1,0,2.1-1.1,2.1l-4.2,9.5c-2.1,2.1-4.2,3.2-6.3,5.3c-5.3,3.2-10.5,5.3-15.8,6.3
		c-3.2,1.1-8.4,0-10.5-3.2c-4.2-9.5-12.6-13.7-22.1-16.9c-8.4-2.1-12.6-9.5-17.9-15.8c-2.1-2.1-2.1-5.3-2.1-8.4
		c-1.1-6.3-1.1-13.7-2.1-20c0-3.2-1.1-6.3-3.2-8.4c-6.3-6.3-8.4-13.7-9.5-22.1c-1.1-5.3-3.2-9.5-6.3-13.7c-6.3-9.5-2.1-19,0-28.4
		c11.6-5.3,8.4-15.8,8.4-24.2c0-15.8,3.2-29.5,11.6-43.2c5.3-8.4,5.3-17.9,3.2-27.4c-1.1-6.3-2.1-12.6-3.2-17.9
		c-2.1-7.4,0-14.7,3.2-22.1c3.2-6.3,5.3-12.6,8.4-21.1c-3.2,2.1-5.3,2.1-6.3,3.2l-3.2,6.3c-7.4,14.7-8.4,15.8-25.3,21.1
		c0,6.3,0,11.6,1.1,17.9c1.1,11.6,0,23.2-1.1,35.8c0,1.1-1.1,2.1-2.1,2.1c-2.1,0-4.2,0-5.3-1.1c-2.1-4.2-3.2-7.4-5.3-13.7
		c-1.1,2.1-2.1,3.2-2.1,5.3v14.7c0,3.2,0,6.3-3.2,8.4c-2.1,2.1-3.2,4.2-2.1,6.3c0,11.6,0,23.2,5.3,33.7l1.1,1.1l-2.1,5.3
		c-6.3-7.4-13.7-13.7-22.1-17.9c0-1.1,1.1-3.2,1.1-4.2c2.1-4.2,2.1-8.4,1.1-12.6c-1.1-5.3-3.2-10.5-5.3-15.8
		c2.1-9.5,4.2-25.3,3.2-29.5c0,0,0-1.1-1.1-2.1v-1.1c-4.2-10.5-20-44.2-25.3-54.8c4.2-4.2,9.5-12.6,14.7-13.7
		c-2.1-1.1-5.3-2.1-7.4-3.2l-10.5,6.3c-4.2-13.7-10.5-47.4-14.7-62.1V80c-1.1,10.5-5.3,21.1-11.6,29.5c4.2,3.2,8.4,5.3,11.6,8.4
		v10.5c0,3.2,2.1,9.5,3.2,17.9v5.3c0,8.4-1.1,17.9,0,26.3v4.2l-2.1,12.6c-6.3,12.6-6.3,22.1-6.3,27.4v2.1l-19-29.5v-2.1
		c4.2,3.2,8.4,5.3,8.4,5.3s8.4-6.3,6.3-19c-0.9-6.2-6.2-14.5-7.3-16.5c2.9,9.3-2.3,15.5-8.5,18.6c-1.1-1.1-1.1-2.1-2.1-3.2
		c-1.1-2.1-2.1-3.2-3.2-5.3c2.1-3.2,6.3-10.5,3.2-22.1c-2.1-10.5-12.6-25.3-11.6-23.2c5.3,12.6-2.1,22.1-10.5,25.3
		c-1.1,0-3.2-1.1-3.2,0l-1.1,1.1c-1.1-3.2-3.2-7.4-6.3-10.5l-4.2-4.2c2.1-3.2,4.2-9.5,4.2-15.8c-1.1-8.4-8.4-20-7.4-17.9
		c4.2,11.6-7.4,22.1-16.8,24.2c-1.1-1.1-3.2-1.1-4.2-2.1c-2.1-1.1-3.2-2.1-5.3-2.1c0-4.2,0-11.6-6.3-19
		c-5.4-7.3-17.1-13.7-18.9-14.7c9.4,8.4,7.3,18.9,2.1,26.3c0,0,0-1.1-1.1-1.1c-6.3-10.5-8.4-23.2-9.5-35.8c0-3.2,0-7.4-1.1-10.5
		c-3.2-10.5-9.5-20-16.8-27.4c0,4.2,1.1,8.4,4.2,12.6c2.1,2.1-1.1,5.3-3.2,3.2c-2.1-2.1-3.2-4.2-4.2-6.3c-1.1,0-2.1,0-3.2-1.1
		c-2.1-4.2-5.3-8.4-7.4-12.6v-2.1c0-1.1-1.1-1.1-1.1-2.1v-2.1c0,0,0-1.1-1.1-1.1c-5.3-4.2-9.5-9.5-13.7-13.7
		c-3.2,4.2-3.2,9.5-7.4,11.6c-3.2,1.1-5.3-2.1-7.4-4.2c-4.2-4.2-7.4-8.4-14.7-8.4c-4.2,6.3,1.1,13.7-4.2,20
		c5.3,1.1,8.4,1.1,11.6,1.1c2.1,3.2,3.2,7.4,5.3,10.5c0,0-1.1,0-1.1,1.1c-5.3,3.2-9.5,3.2-12.6-1.1c-7.4-9.5-17.9-14.7-29.5-22.1
		c0,3.2,0,5.3,1.1,6.3c7.4,8.4,15.8,15.8,23.2,23.2c3.2,3.2,5.3,5.3,4.2,9.5c-0.4,0.4-1,0.8-1.6,1.2c0,0,0.1,0,0.1,0
		c-0.1,0-0.3-0.1-0.4-0.1v0.5c0.2-0.1,0.3-0.2,0.5-0.3c3.9,1.1,7.8,3.1,10.8,6.1c3.2,2.1,5.3,5.3,4.2,9.5c0,1.1-2.1,3.2-3.2,3.2
		c-4.2,1.1-8.4-1.1-10.5-5.3c-1.1-1.1-2.1-3.2-2.1-5.3v-7.9c-0.8,0.5-1.6,1.1-2.1,1.6c-4.2,4.2-5.3,9.5-2.1,12.6
		c2.1,3.2,5.3,5.3,7.4,8.4c2.1,3.2,3.2,6.3,2.1,9.5c-5.3-4.2-10.5-6.3-15.8-7.4c-1.1,0.7-1.6,1.2-1.9,1.5c0.5-2.3,1.6-10.3-6.5-18.3
		c-6.3-5.3-17.9-9.5-16.8-8.4c11.6,7.4,7.4,17.9,0,23.2c-4.2,0-7.4-1.1-11.6-1.1c0-4.2-1.1-8.4-10.5-15.8
		c-8.4-6.3-25.3-12.6-23.2-11.6c13.7,7.4,11.6,21.1,5.3,29.5h-2.1v-1.1c-1.1,0-2.1-1.1-3.2,0c-2.1,2.1-4.2,5.3-6.3,7.4
		c-1.1,1.1-2.1,3.2-3.2,4.2c-1.1,1.1-3.2,1.1-5.3,1.1s-4.2-4.2-3.2-6.3c0-1.1,1.1-2.1,1.1-3.2c2.1-7.4,4.2-14.7,5.3-21.1
		c1.1-3.2-1.1-7.4-2.1-10.5c-1.1-2.1-3.2-4.2-4.2-5.3c-2.1-1.1-5.3,1.1-7.4,4.2c-3.2,6.3-7.4,12.6-7.4,21.1
		c5.3-2.1,5.3-9.5,10.5-10.5c1.1,1.1,2.1,1.1,2.1,2.1c1.1,6.3,1.1,12.6-2.1,17.9c-1.1,2.1-2.1,5.3-3.2,8.4
		c-3.2-3.2-6.3-4.2-17.9-7.4h-1.1c-1.1-4.2-4.2-9.5-11.6-13.7c-6.4-4.6-19.2-5.2-21-5.3c8.4,2.1,11.5,9.5,11.5,16.8
		c-7.4,1.1-14.7,2.1-21.1,3.2c-1.1-3.2-3.2-7.4-9.5-10.5c-5.8-2.9-15.9-3.1-16.8-3.2c8.4,2.1,10.5,10.5,9.5,16.8
		c-4.2,1.1-11.6,3.2-19,5.3l-6.3-6.3c-2.1-2.1-5.3-3.2-8.4-5.3l-5.3,5.3c-3.2,2.1-6.3,2.1-7.4-1.1c-2.1-5.3-4.2-10.5-7.4-14.7
		c-1.1-2.1-5.3-4.2-7.4-5.3c-17.9-2.1-34.8-2.1-54.8,7.4c20-1.1,34.8-2.1,49.5,0c5.3,5.3-1.1,7.4-2.1,10.5
		c-1.1,7.4-3.2,15.8-4.2,23.2c-2.1-4.2-7.4-8.4-16.8-10.5c-10.5-2.1-27.4,1.1-25.3,1.1c12.6,0,17.9,8.4,19,16.9
		c-4.2,5.3-10.5,7.4-16.8,3.2c-5.3-4.2-10.5-3.2-15.8-2.1c-11.6,3.2-24.2,7.4-35.8,11.6c-4.2,2.1-8.4,5.3-12.6,8.4
		c-17.9,14.7-36.9,30.5-54.8,45.3c-9.5,7.4-20,13.7-28.4,24.2c-3.2,4.2-9.5,5.3-12.6,11.6c1.1,1.1,1.1,3.2,2.1,4.2
		c2.1,3.2,2.1,5.3,0,8.4c-2.1,2.1-4.2,5.3-6.3,7.4c-8.4,11.6-17.9,23.2-26.3,34.8c-5.3,7.4-9.5,14.7-12.6,23.2
		c-4.2,10.5-10.5,20-15.8,29.5c0,1.1,0,3.2,1.1,3.2c1.1,1.1,2.1,0,3.2,0c2.1-1.1,3.2-2.1,4.2-3.2c2.1-2.1,3.2-4.2,4.2-6.3l19-34.8
		c3.2-5.3,6.3-10.5,10.5-15.8c3.2-4.2,6.3-9.5,10.5-13.7c5.3-6.3,11.6-11.6,17.9-16.8c4.2-3.2,9.5-4.2,13.7-2.1
		c1.1,0,2.1,2.1,2.1,3.2c-4.2,5.3-3.2,13.7-9.5,17.9c-3.2,2.1-6.3,4.2-8.4,7.4c-9.5,13.7-22.1,23.2-33.7,34.8
		c-2.1,3.2,1.1,6.3,1.1,9.5c-8.4,11.6-15.8,23.2-30.5,28.4c-3.2,1.1-5.3,4.2-6.3,6.3c-7.4,10.5-12.6,21.1-15.8,33.7
		c-4.2,16.8-9.5,32.6-15.8,47.4c-7.4,17.9-13.7,37.9-20,55.8c-1.1,3.2-2.1,6.3-2.1,9.5c1.1,12.6-3.2,23.2-5.3,34.8
		c-2.1,9.5-6.3,17.9-4.2,27.4c1.1,7.4-6.3,12.6-3.2,20c2.1,6.3,1.1,13.7,1.1,20c0,8.4,1.1,15.8-1.1,24.2c0,2.1,0,5.3,1.1,7.4
		c0,2.1,1.1,4.2,1.1,5.3c-2.1,16.8,5.3,31.6,8.4,47.4c4.2,20,12.6,37.9,17.9,56.9c5.3,17.9,11.6,33.7,20,50.5
		c7.4,14.7,14.7,29.5,21.1,43.2c5.3,12.6,10.5,25.3,21.1,34.8c5.3,11.6,15.8,20,19,31.6c1.1,3.2,4.2,6.3,6.3,8.4
		c17.9,17.9,35.8,35.8,55.8,52.7c12.6,10.5,25.3,20,35.8,32.6c3.2,4.2,9.5,6.3,14.7,7.4c9.5,2.1,17.9,4.2,26.3,10.5
		c2.1,1.1,4.2,2.1,7.4,2.1c6.3,0,10.5,1.1,15.8,4.2c4.2,3.2,9.5,4.2,14.7,3.2c5.3-1.1,9.5-2.1,14.7,0c3.2,1.1,4.2-2.1,6.3-3.2
		c2.1-2.1,5.3-1.1,6.3,2.1v3.2c-1.1,5.3,1.1,8.4,5.3,10.5c8.4,4.2,17.9,9.5,26.3,13.7c2.1,1.1,5.3,1.1,7.4,1.1h19
		c-3.2-2.1-4.2-3.2-5.3-3.2c-16.8,0-29.5-7.4-42.1-17.9c-1.1-1.1-2.1-2.1-2.1-3.2c0-1.1-1.1-3.2,0-3.2c1.1-1.1,3.2-3.2,4.2-3.2
		c9.5,2.1,20,4.2,28.4,7.4c3.2,1.1,5.3,5.3,8.4,8.4c2.1,0,5.3,0,8.4-1.1c5.3-2.1,10.5-2.1,15.8,2.1c1.1,1.1,3.2,1.1,5.3,2.1
		c5.3,3.2,10.5,2.1,15.8,0c2.1-1.1,4.2-3.2,6.3-4.2c7.4-3.2,14.7,0,21.1,4.2c3.2,2.1,7.4,2.1,9.5-2.1c1.1-2.1,4.2-3.2,6.3-3.2h21.1
		c8.4,0,16.8,2.1,24.2,1.1c8.4-1.1,15.8-2.1,24.2-1.1c5.3,1.1,9.5,0,15.8-1.1c-3.2-6.3-9.5-2.1-11.6-6.3c0-3.2,2.1-4.2,5.3-4.2
		c13.7,0,26.3-9.5,40-7.4c2.1,0,3.2-1.1,5.3-2.1c15.8-5.3,31.6-10.5,47.4-16.8c2.1-1.1,5.3-1.1,6.3-3.2c8.4-6.3,17.9-8.4,27.4-11.6
		c2.1-1.1,5.3-2.1,6.3-4.2c2.1-6.3,7.4-8.4,11.6-11.6c6.3-4.2,13.7-9.5,20-13.7c2.1-1.1,4.2-3.2,6.3-4.2
		c5.3-5.3,10.5-10.5,15.8-16.8c-2.1-1.1-4.2-2.1-5.3-2.1C703.2,928.8,692.7,933.1,682.2,935.2z M588.4,263.3
		c-2.1,4.2-5.3,8.4-7.4,12.6h-2.1c-1.1-1.1-2.1-2.1-2.1-3.2c0-7.4,1.1-9.5,8.4-19C589.5,255.9,589.5,260.1,588.4,263.3z M619,244.3
		c0,1.1-2.1,2.1-3.2,3.2c-3.2,0-5.3-1.1-6.3-3.2c0-1.1,1.1-2.1,2.1-3.2C614.8,240.1,620,242.2,619,244.3z M924.4,417
		c1.1-1.1,2.1-1.1,3.2-1.1c1.1,0,2.1,1.1,2.1,2.1c2.1,7.4-1.1,12.6-6.3,14.7c-3.2,1.1-6.3,1.1-7.4-4.2
		C919.1,425.5,921.2,421.2,924.4,417z M839.1,324.4c8.4,6.3,15.8,10.5,22.1,14.7c1.1,1.1,3.2,2.1,4.2,3.2c5.3,4.2,9.5,7.4,11.6,13.7
		v5.3c-9.5-4.2-17.9-8.4-27.4-11.6c-10.5-4.2-11.6-3.2-11.6-13.7C838,332.8,838,329.6,839.1,324.4z M801.2,384.4
		c2.1,0,4.2,0,5.3,1.1c3.2,3.2,6.3,5.3,9.5,8.4c-3.2,1.1-7.4,5.3-5.3,9.5c1.1,1.1,3.2,2.1,5.3,2.1c0,1.1,0,1.1-1.1,2.1
		c-1.1,2.1-2.1,5.3-5.3,4.2c-2.1,0-4.2-2.1-6.3-3.2c-4.2-5.3-5.3-12.6-5.3-19C798,387.5,799,384.4,801.2,384.4z M781.1,319.1
		c-2.1-3.2-4.2-6.3-7.4-9.5c2.1,1.1,4.2,1.1,6.3,2.1c4.2,4.2,5.3,10.5,7.4,15.8C785.4,325.4,783.3,322.2,781.1,319.1z M782.2,282.2
		l4.2,33.7c-4.2-4.2-8.4-8.4-12.6-11.6c-3.2-2.1-7.4-5.3-10.5-7.4l-1.1-1.1c1.1-1.1,2.1-1.1,3.2-1.1c-3.2-3.2-7.4-6.3-11.6-7.4
		l-2.1-2.1v-1.1c-1.1-1.1-2.1-3.2-1.1-4.2h-2.1c-2.1-2.1-3.2-5.3-5.3-8.4c0,0,0-1.1-1.1-1.1v-1.1c0-1.1,0-1.1,1.1-2.1
		c1.1-4.2,4.2-7.4,5.3-11.6c-3.2-1.1-5.3-2.1-8.4-2.1c-2.1-3.2-6.3-5.3-9.5-6.3c-2.1,0-2.1,0-3.2-1.1c-1.1,0-1.1-1.1-2.1-1.1
		c-4.2-4.2-9.5-8.4-13.7-12.6l-2.1-2.1v-1.1c-1.1-8.4-2.1-21.1-4.2-27.4c3.2-1.1,5.3-3.2,9.5,0c0,2.1,1.1,4.2,1.1,6.3
		c1.1,10.5,6.3,16.9,16.8,20c14.7,5.3,24.2,16.8,36.9,25.3c7.4,5.3,8.4,12.6,4.2,21.1C776.9,277,780.1,279.1,782.2,282.2z
		 M693.7,153.9v-0.1c11.6,2.1,30.5,12.6,42.1,19c16.8,11.6,24.2,29.5,35.8,45.3c4.2,6.3,3.2,13.7-3.2,20h-3.2
		c-2.1-3.2,2.1-10.5,0-13.7c-5.3-1.1-9.5-11.6-14.7-12.6c-3.2-1.1-17.9-11.6-17.9-14.7c0-6.3-1.1-12.6-3.2-19
		c-6.3-4.2-13.7-5.3-21.1-7.4c-8.4-1.1-12.6-5.3-14.7-12.6c0-1.1-1.1-3.2-1.1-4.2H693.7z M613.7,141.1c1.1-1.1,3.2-1.1,4.2-2.1
		c0,0,1.1,0,1.1-1.1c0,0,0-1.1,1.1-1.1c1.1-1.1,2.1-1.1,2.1-1.1c1.1,0,3.2,1.1,3.2,2.1c9.5,7.4,24.2,9.5,29.5,21.1
		c1.1,2.1-1.1,4.2-2.1,4.2l-13.7-3.2c-1.1-2.1-2.1-3.2-4.2-5.3c0,1.1-1.1,1.1-2.1,1.1c-2.1-1.1-3.2-1.1-5.3-2.1
		c-2.1,0-3.2,1.1-4.2,3.2c0,0,0,1.1,1.1,1.1c1.1,2.1-2.1,5.3-4.2,2.1c-1.1,0-3.2-1.1-3.2-2.1v-4.2c-2.1-3.2-3.2-7.4-4.2-10.5
		C612.6,142.2,612.6,141.1,613.7,141.1z M526.3,106.4c-8.4,3.2-16.8,19-17.9,13.7c-1.1-5.3-11.6-5.3-11.6-5.3
		C506.3,109.5,533.7,104.3,526.3,106.4z M302,168.5c3.2-1.1,7.4-2.1,10.5,1.1c-2.1,5.3-6.3,4.2-10.5,3.2c-1.1,0-2.1-1.1-2.1-2.1
		C299.9,169.5,300.9,168.5,302,168.5z M177.7,270.9c-0.3-0.1-0.7-0.3-1-0.3l-1.1-1.1v-1.1c1.1,1.1,2.1,1.1,2.1,2.1
		C177.7,270.6,177.7,270.8,177.7,270.9z M172.4,203.2c8.4-3.2,15.8-9.5,23.2-15.8c8.4-6.3,14.7-14.7,23.2-21.1
		c3.2-2.1,6.3-4.2,9.5-5.3c10.5-2.1,21.1-1.1,30.5,6.3c3.2,3.2,6.3,5.3,10.5,7.4c2.1,1.1,5.3,1.1,4.2,5.3
		c-10.5,8.4-19,15.8-31.6,17.9c-5.3,1.1-9.5,5.3-13.7,8.4c-2.1,2.1-4.2,5.3-6.3,6.3c-8.4,5.3-16.9,10.5-27.4,4.2l3.2-12.6
		c-6.3-2.1-10.5,1.1-14.7,3.2c-3.2,1.1-6.3,2.1-8.4,2.1c-1.1,0-3.2-2.1-3.2-3.2C171.4,205.4,172.4,203.2,172.4,203.2z"/>
	<linearGradient id="SVGID_39_" gradientUnits="userSpaceOnUse" x1="150.2501" y1="35.1111" x2="150.2501" y2="990.2213">
		<stop  offset="1.017608e-06" style="stop-color:#D8DBEF"/>
		<stop  offset="1" style="stop-color:#A1AAC3"/>
	</linearGradient>
	<path class="st38" d="M151.3,284.2c0,0-1.1,0-2.1-1.1v3.2C150.3,285.2,151.3,285.2,151.3,284.2z"/>
	<linearGradient id="SVGID_40_" gradientUnits="userSpaceOnUse" x1="412.7128" y1="35.1111" x2="412.7128" y2="990.2213">
		<stop  offset="1.017608e-06" style="stop-color:#D8DBEF"/>
		<stop  offset="1" style="stop-color:#A1AAC3"/>
	</linearGradient>
	<path class="st39" d="M418.9,50.5c3.2-3.2,0-5.3-3.2-7.4c-5.3,1.1-8.4,5.3-10.5,10.5c3.2,3.2,8.4,6.3,12.6,8.4
		C417.8,57.9,414.7,54.8,418.9,50.5z"/>
	<linearGradient id="SVGID_41_" gradientUnits="userSpaceOnUse" x1="389.8125" y1="35.1111" x2="389.8125" y2="990.2213">
		<stop  offset="1.017608e-06" style="stop-color:#D8DBEF"/>
		<stop  offset="1" style="stop-color:#A1AAC3"/>
	</linearGradient>
	<path class="st40" d="M383.1,85.3c1.1,0,3.2-1.1,3.2-2.1c0-6.3-1.1-12.6-2.1-19c0-2.1,1.1-4.2,3.1-5.3c4.2,3.2,6.3,7.4,11.6,8.4
		c2.1,1.2,4.2,0.1,5.2-1c1.1-1.1,1.1-4.2,0-5.3c-5.3-4.2-10.5-6.3-16.7-2.1c-1.1-1.1-2.1-3.2-3.2-4.2c-5.3,4.2-6.3,9.5-9.5,15.8
		c2.1,4.2,4.2,9.5,6.3,13.7C381,85.3,382,85.3,383.1,85.3z"/>
	<linearGradient id="SVGID_42_" gradientUnits="userSpaceOnUse" x1="535.9548" y1="35.1111" x2="535.9548" y2="990.2213">
		<stop  offset="1.017608e-06" style="stop-color:#D8DBEF"/>
		<stop  offset="1" style="stop-color:#A1AAC3"/>
	</linearGradient>
	<path class="st41" d="M529.5,59c4.2,4.2,5.3,9.5,8.4,13.7c1.1,1.1,3.2,1.1,3.2,1.1c1.1-1.1,3.2-3.2,2.1-4.2
		c-1.1-3.2-3.2-7.4-5.3-9.5c-3.2-3.2-6.3-6.3-9.5-13.7C529.5,53.7,528.4,57.9,529.5,59z"/>
</g>
</svg>
