<?xml version="1.0" encoding="utf-8"?>
<!-- Generator: Adobe Illustrator 24.3.0, SVG Export Plug-In . SVG Version: 6.00 Build 0)  -->
<svg version="1.1" id="圖層_1" xmlns="http://www.w3.org/2000/svg" xmlns:xlink="http://www.w3.org/1999/xlink" x="0px" y="0px"
	 viewBox="0 0 1176.7 954.6" style="enable-background:new 0 0 1176.7 954.6;" xml:space="preserve">
<style type="text/css">
	.st0{fill:#FFFFFF;}
</style>
<g>
	<path class="st0" d="M658,486.2c0.2,86.1-68.6,159.5-153.2,165.6c-109.6,7.8-191.1-85-181.8-184.6
		c9.4-100.1,106.5-172.2,204.2-149.3c48.2,11.3,84.6,38.8,111.1,83.1c10.2-18.4,19-35.4,28.9-51.6c7.2-11.8,4.6-20.4-4.5-29.8
		c-46.1-47.8-108.5-73.3-172-73.3c-30.8,0-61.9,6-91.6,18.4c-99.7,41.7-159.2,147-143.5,254C279.9,684.7,464,774.8,608.9,690.5
		c67.5-39.3,107.5-98.6,116.4-177.3c2.4-21,1-42.5,4.7-63.2c16.2-91,109.3-152.3,199.3-132.1c52.7,11.8,91.4,42,115.9,89.9
		c6.1,11.8,13.7,16.3,26.4,15.6c8.6-0.5,17.2-0.4,25.9-0.3c5.1,0.1,10.1,0.1,15.2,0c3.4,0,6.8-0.9,10.9-1.5
		c-10.7-39.9-29.4-73.5-57-101.3c-50.6-51.1-111.1-76.2-184.4-72.3c-59,3.1-109,24.5-150.9,64.4C682,359.4,657.8,417.5,658,486.2z"
		/>
	<path class="st0" d="M963.5,522.8c-4.1,0.1-11.4,7.3-11.7,11.6c-1.3,19.3-0.6,38.7-0.6,60.1h68.7c-62.8,77.5-206.3,85.3-274.5-31.4
		c-9.2,17.5-17.6,33.6-26,49.8c-10.6,20.4-10.8,22.4,5.9,38.5c65.5,63.3,143.1,86.5,231.2,62.6c88.4-24,144-83.5,168.7-171.7
		c1.7-6.1,2.2-12.5,3.4-20c-22.7,0-45,0-67.1,0C1028.5,522.3,996,522.4,963.5,522.8z"/>
	<path class="st0" d="M126.3,295.5c19.5,29.5,17.2,64.2,16.5,98.7c-49.5-15.4-100.2,18.4-115.3,74.5c7.7-7,15.4-14.5,23.6-21.3
		c36.6-30.2,69.7-31.3,107.4-2.7c13.5,10.3,25.4,22.7,38.7,33.3c8.2,6.5,17.6,11.6,28.4,18.6c0.8-16.9,1.8-29.8,1.7-42.7
		c0-4.1-2.2-9.5-5.2-12c-21.4-17.6-35.8-39.6-40.1-66.9c-3.8-24.1-5.2-48.7-7.5-73.1c-3.6-39.4-21.5-61-57.1-66
		c-11.2-1.6-23.2-0.3-34.5,1.7c-25.2,4.5-63.4,25.8-74.3,40.2c16.3-2.6,32.6-5.6,49-7.8C84.9,266.4,110.8,272.1,126.3,295.5z"/>
	<path class="st0" d="M277.8,683.4c9.6-1.1,19-3.6,30-5.7c-10.7-12.7-19.4-23.3-28.4-33.5c-1.7-1.9-4.9-3.9-7-3.6
		c-47.1,7.7-82.2-15.3-115.4-44.1c-10.6-9.2-21.5-18.4-33.4-25.9c-31.2-19.7-63.5-14.7-88.5,12.6c-20.1,21.9-36.3,66.9-35.2,97.5
		c11.8-15.9,23.1-32.3,35.6-47.7c18.7-23,50.7-32.4,74.6-21.4c26.7,12.3,48.7,31.1,70.4,52.9c-49.2,21.5-56.3,96.1-26.2,132.4
		c0-11.2-0.6-22,0.1-32.7c3-42.5,26.7-69.1,68.8-75.9C241.3,685.4,259.7,685.4,277.8,683.4z"/>
	<path class="st0" d="M209.6,149.5c43.9,2.5,71,26.1,78,69.3c2.4,14.6,1.6,29.8,2.7,44.7c0.9,12.6,2.5,25.1,4,39.9
		c13.6-12,24.4-21.2,34.7-30.8c2.4-2.3,4.9-6.1,4.8-9.1c-1.1-40.9,18.8-72.1,45.5-100.3c10.5-11.2,21.5-22,30.7-34.2
		c25.3-33.6,21-71.4-13.6-95.5C378.5,20.8,356.6,13.8,336,5.4c-8.2-3.3-17.5-3.7-26.3-5.4c14,13.6,29.1,24,42.5,36.1
		c18.6,16.7,30.7,38.3,23.4,63.2c-9.7,33.2-34.7,56.4-60.4,78.8c-23.3-48.8-92-56.6-135.2-28.7C191,149.4,200.3,148.9,209.6,149.5z"
		/>
	<path class="st0" d="M537.1,152.9c-8.4,12.3-18.9,23.1-28.5,34.5c-7.5,8.8-15.1,17.4-24.4,28.1c18.1,1.5,32.9,3,47.6,3.7
		c3.2,0.2,7.3-1.6,9.6-3.9c23.8-23.2,52.9-33.1,85.2-36.2c22.2-2.1,44.7-3.4,66.6-7.7c29.4-5.8,45.7-24,49-52.4
		c5.1-43.8-15.9-77.6-41.9-110.3c2.8,22.9,7.1,44.6,7.6,66.4c0.5,21.5-6.9,42.2-26.5,53.2c-30.6,17.2-64.7,17.6-99.3,16.6
		c19.1-50.6-30.6-106.3-73.5-111.2c9.2,10.5,19.7,20.7,27.9,32.4C557.3,96,557.5,123.2,537.1,152.9z"/>
	<path class="st0" d="M434.8,750.8c-19.8,20.4-44.3,30.4-71.9,33.2c-22.3,2.3-44.7,2.6-67,5c-42.8,4.7-66.8,36-61.8,78.7
		c3.9,33.1,20.6,59.8,41.3,86.9c-2.9-20.7-5.9-39.5-8-58.4c-2.7-24.2,12.4-55.1,32.6-64.1c29.5-13.1,60.8-15.1,92.6-12.3
		c0.6,0.1,1.1,1.1,1.6,1.7C377,865.9,415.9,922,467.5,932.4c-8.8-10.3-18.1-19.7-25.7-30.3c-22-30.8-22.2-60.3-0.2-91
		c8.9-12.4,20.1-23.1,30.2-34.7c6.7-7.6,13.2-15.3,21-24.5c-17.7-2-32.5-4.1-47.3-5.2C442,746.5,437.3,748.3,434.8,750.8z"/>
	<path class="st0" d="M229.4,548.7c-26-19.1-52.4-37.7-78.2-57.2c-18-13.6-37.9-18.9-59.6-15c-33.4,6-61,37.8-67.4,76.5
		c3.4-3.8,6.4-7.2,9.5-10.4c24.7-25.5,54.2-31,84.3-12.3c25.3,15.7,48.4,34.8,72.6,52.2c17.8,12.8,37.1,21.4,60.7,20.3
		c-6-16.9-11.6-32.8-17.5-48.6C233.3,552,231.3,550.1,229.4,548.7z"/>
	<path class="st0" d="M199.4,261c2.9,15,3.8,30.4,6.4,45.5c3.7,22,6.8,44.2,12.4,65.7c2.7,10.3,10.7,19.3,17.4,30.8
		c9-19.2,16.3-34.5,23.2-50c1.2-2.7,1-6.3,0.7-9.3c-3.5-29.2-8.9-58.2-10.6-87.5c-2.4-41.3-38.2-73.3-73.4-68
		c-20.6,3.1-40.7,9.1-61,13.8c0.3,1.2,0.6,2.4,0.9,3.6C158.1,200.5,191.4,219.2,199.4,261z"/>
	<path class="st0" d="M260.4,767.7c22.6-4.8,45.8-6.5,68.7-10.1c22.8-3.5,46.1-6.1,65.4-23.2c-16-8.7-30.7-16.9-45.7-24.7
		c-2.6-1.3-6.3-1.3-9.4-0.9c-29.6,3.5-59,7.9-88.6,10.7c-31.4,3-59.5,26-66,56.9c-5.9,28.1,6.7,52.5,18.6,80.5
		C195.4,808.6,215.9,777.2,260.4,767.7z"/>
	<path class="st0" d="M464.8,91.3c-1.9,21.7-15.5,37.1-27.8,53.2c-17.4,22.7-35.5,44.9-52.2,68.1c-5.5,7.7-7.4,18.1-11.4,28.6
		c20.8-6.7,38.6-12.2,56.1-18.1c3.3-1.1,6.7-3.5,9-6.2c18.9-22.1,38-44,56.1-66.7c22.9-28.8,19.6-70.9-8.5-94.1
		c-14-11.6-31-19.7-46.7-29.4c-0.9,1.3-1.8,2.6-2.7,3.9C455.6,46.5,467,65.8,464.8,91.3z"/>
	<path class="st0" d="M716.4,203.4c-25,5.2-50.7,6.8-76.1,9.7c-19.4,2.2-38.4,5.5-55.9,17.4c16.7,8.8,32.2,17.4,48.2,25.1
		c5.1,2.5,11.5,3.6,17.2,3.2c21.5-1.3,42.8-3.9,64.3-5.1c39.5-2.3,68.8-26.9,74.8-63.6c2.9-17.7-5.5-49.2-19.1-71.6
		C778.6,160.8,758.3,194.6,716.4,203.4z"/>
	<path class="st0" d="M540.6,779.5c-9,0-16.2,2.8-21.8,8.4c-5.6,5.6-8.3,12.1-8.3,19.6c0,7.6,2.8,14.1,8.4,19.6
		c5.6,5.5,12.8,8.3,21.7,8.3c8.8,0,16-2.8,21.6-8.3c5.6-5.5,8.4-12.1,8.4-19.6c0-7.4-2.8-14-8.3-19.6
		C556.8,782.3,549.6,779.5,540.6,779.5z M552.6,819.5c-3,3.1-7,4.6-12,4.6c-5,0-9-1.5-12.1-4.6c-3-3.1-4.6-7.1-4.6-12
		c0-5,1.5-9,4.6-12c3-3,7.1-4.6,12.1-4.6c5,0,9,1.5,12,4.6c3,3,4.6,7.1,4.6,12C557.2,812.5,555.7,816.5,552.6,819.5z"/>
	<path class="st0" d="M611.8,809.2c6-2.9,9-7.3,9-13.3c0-4.3-1.6-8-4.8-11.1c-3.2-3.1-7.3-4.6-12.4-4.6h-23.5v54.5h13.1v-22.1h3.8
		c1.7,0,3.4,0.7,4.9,2.1c1.5,1.4,3.3,4.7,5.5,9.7c2.1,5,3.6,8.5,4.5,10.3h14.4c-2.2-4.8-4.5-10-6.9-15.4
		C616.9,813.8,614.4,810.5,611.8,809.2z M605.4,801c-1.3,1.1-3,1.6-5.2,1.6h-6.9v-12.4h6.6c5,0,7.5,2.1,7.5,6.2
		C607.3,798.4,606.7,799.9,605.4,801z"/>
	<rect x="632.7" y="780.2" class="st0" width="13.1" height="54.5"/>
	<polygon class="st0" points="671.2,811.6 695.1,811.6 695.1,801.6 671.2,801.6 671.2,790.2 696.3,790.2 696.3,780.2 658.1,780.2 
		658.1,834.7 696.8,834.7 696.8,824.7 671.2,824.7 	"/>
	<polygon class="st0" points="747,813.5 718.9,780.2 706.9,780.2 706.9,834.7 720,834.7 720,799.8 749,834.7 760,834.7 760,780.2 
		747,780.2 	"/>
	<polygon class="st0" points="819.3,780.2 768.1,780.2 768.1,790.2 787.2,790.2 787.2,834.7 800.3,834.7 800.3,790.2 819.3,790.2 	
		"/>
	<path class="st0" d="M833.6,780.2l-21.2,54.5h13.9l3.9-10.8h23.5l4.3,10.8h14.1l-23.3-54.5H833.6z M833.6,814.4l7.7-21.2l8.5,21.2
		H833.6z"/>
	<polygon class="st0" points="891.2,780.2 878.1,780.2 878.1,834.7 918.2,834.7 918.2,824.7 891.2,824.7 	"/>
	<path class="st0" d="M977.4,815.8h7.6v6.4c-2.9,1.3-5.8,2-8.7,2c-5.4,0-9.8-1.5-13.2-4.4c-3.3-3-5-6.8-5-11.6c0-5,1.7-9.1,5-12.3
		c3.3-3.2,8.1-4.8,14.3-4.8c6.4,0,12.9,1.7,19.6,5V784c-6.1-3-13-4.5-20.7-4.5c-9.4,0-17,2.6-22.8,7.8c-5.9,5.2-8.8,11.9-8.8,20.2
		c0,8.1,2.9,14.7,8.8,20c5.9,5.2,13.4,7.9,22.6,7.9c4.2,0,8.4-0.7,12.6-2c4.3-1.4,7.4-3.1,9.5-5.3v-22.3h-20.7V815.8z"/>
	<path class="st0" d="M1025.1,780.2l-21.2,54.5h13.9l3.9-10.8h23.5l4.3,10.8h14.1l-23.3-54.5H1025.1z M1025.2,814.4l7.7-21.2
		l8.5,21.2H1025.2z"/>
	<polygon class="st0" points="1098,800.4 1081.1,780.2 1069.7,780.2 1069.7,834.7 1082.8,834.7 1082.8,800.7 1097,817.8 
		1098.9,817.8 1113.1,800.7 1113.1,834.7 1126.2,834.7 1126.2,780.2 1114.8,780.2 	"/>
	<polygon class="st0" points="1151.1,824.7 1151.1,811.6 1175,811.6 1175,801.6 1151.1,801.6 1151.1,790.2 1176.2,790.2 
		1176.2,780.2 1138,780.2 1138,834.7 1176.7,834.7 1176.7,824.7 	"/>
</g>
</svg>
