<?xml version="1.0" encoding="utf-8"?>
<!-- Generator: Adobe Illustrator 24.3.0, SVG Export Plug-In . SVG Version: 6.00 Build 0)  -->
<svg version="1.1" id="圖層_1" xmlns="http://www.w3.org/2000/svg" xmlns:xlink="http://www.w3.org/1999/xlink" x="0px" y="0px"
	 viewBox="0 0 240.8 135.7" style="enable-background:new 0 0 240.8 135.7;" xml:space="preserve">
<style type="text/css">
	.st0{fill:url(#SVGID_1_);}
	.st1{fill:url(#SVGID_2_);}
	.st2{fill:url(#SVGID_3_);}
	.st3{fill:url(#SVGID_4_);}
</style>
<g>
	<linearGradient id="SVGID_1_" gradientUnits="userSpaceOnUse" x1="70.5533" y1="2.3417" x2="70.5533" y2="122.0816">
		<stop  offset="1.017608e-06" style="stop-color:#D7DAEE"/>
		<stop  offset="1" style="stop-color:#A0A8C2"/>
	</linearGradient>
	<path class="st0" d="M21.2,16L0.1,135.7h119.7l2.8-71.7L141,16H21.2z M100,119.7L89.1,91.6h-42l-21,28.1H9.7L79,26.5l37.4,93.3H100
		z"/>
	<linearGradient id="SVGID_2_" gradientUnits="userSpaceOnUse" x1="57.1866" y1="65.9619" x2="83.6554" y2="65.9619">
		<stop  offset="1.017608e-06" style="stop-color:#D7DAEE"/>
		<stop  offset="1" style="stop-color:#A0A8C2"/>
	</linearGradient>
	<polygon class="st1" points="57.2,77.7 83.7,77.7 74.8,54.2 	"/>
</g>
<linearGradient id="SVGID_3_" gradientUnits="userSpaceOnUse" x1="100.0409" y1="127.7226" x2="122.6831" y2="127.7226">
	<stop  offset="1.017608e-06" style="stop-color:#D7DAEE"/>
	<stop  offset="1" style="stop-color:#A0A8C2"/>
</linearGradient>
<polygon class="st2" points="100,119.7 119.8,135.7 122.7,119.7 "/>
<linearGradient id="SVGID_4_" gradientUnits="userSpaceOnUse" x1="170.4144" y1="2.3417" x2="170.4144" y2="122.0816">
	<stop  offset="1.017608e-06" style="stop-color:#D7DAEE"/>
	<stop  offset="1" style="stop-color:#A0A8C2"/>
</linearGradient>
<path class="st3" d="M121.1,0L100,119.7h119.7L240.8,0H121.1z M165.2,90.8c16,0,29-14.7,29-14.7h-25.2l2.5-14.3h40.3L209.7,76
	c0,0-16,28.6-46.2,28.6c-30.3,0-41.6-26.9-36.1-47.1C132.8,37.4,152.6,16,179,16c26.5,0,35.3,22.3,35.7,29H200
	c0,0-6.3-15.1-23.9-15.1c-17.6,0-34.5,18.9-35.7,32.4C138.9,77.7,150.5,90.8,165.2,90.8z"/>
</svg>
