<svg width="16" height="16" viewBox="0 0 16 16" fill="none" xmlns="http://www.w3.org/2000/svg">
<path d="M2 9.55556C2 8.19444 2.3125 6.98241 2.9375 5.91944C3.5625 4.85648 4.25 3.96204 5 3.23611C5.75 2.51019 6.4375 1.95602 7.0625 1.57361L8 1V3.56667C8 4.0463 8.15625 4.42546 8.46875 4.70417C8.78125 4.98287 9.13125 5.12222 9.51875 5.12222C9.73125 5.12222 9.93438 5.07685 10.1281 4.98611C10.3219 4.89537 10.5 4.7463 10.6625 4.53889L11 4.11111C11.9 4.65556 12.625 5.41065 13.175 6.37639C13.725 7.34213 14 8.40185 14 9.55556C14 10.6963 13.7313 11.7366 13.1938 12.6764C12.6563 13.6162 11.95 14.3583 11.075 14.9028C11.2875 14.5917 11.4531 14.2514 11.5719 13.8819C11.6906 13.5125 11.75 13.1204 11.75 12.7056C11.75 12.187 11.6562 11.6977 11.4688 11.2375C11.2812 10.7773 11.0125 10.3657 10.6625 10.0028L8 7.3L5.35625 10.0028C4.99375 10.3787 4.71875 10.7935 4.53125 11.2472C4.34375 11.7009 4.25 12.187 4.25 12.7056C4.25 13.1204 4.30937 13.5125 4.42812 13.8819C4.54687 14.2514 4.7125 14.5917 4.925 14.9028C4.05 14.3583 3.34375 13.6162 2.80625 12.6764C2.26875 11.7366 2 10.6963 2 9.55556ZM8 9.47778L9.59375 11.0917C9.80625 11.312 9.96875 11.5583 10.0813 11.8306C10.1938 12.1028 10.25 12.3944 10.25 12.7056C10.25 13.3407 10.0313 13.8819 9.59375 14.3292C9.15625 14.7764 8.625 15 8 15C7.375 15 6.84375 14.7764 6.40625 14.3292C5.96875 13.8819 5.75 13.3407 5.75 12.7056C5.75 12.4074 5.80625 12.119 5.91875 11.8403C6.03125 11.5616 6.19375 11.312 6.40625 11.0917L8 9.47778Z" fill="url(#paint0_linear_1_21)"/>
<defs>
<linearGradient id="paint0_linear_1_21" x1="8" y1="1" x2="8" y2="15" gradientUnits="userSpaceOnUse">
<stop stop-color="#FFA06A"/>
<stop offset="0.807292" stop-color="#FF5449"/>
</linearGradient>
</defs>
</svg>
