<?xml version="1.0" encoding="utf-8"?><!--Generator: Adobe Illustrator 26.3.1, SVG Export Plug-In . SVG Version: 6.00 Build 0)--><svg version="1.1" id="圖層_1" xmlns="http://www.w3.org/2000/svg" xmlns:xlink="http://www.w3.org/1999/xlink" x="0px" y="0px" viewBox="0 0 24 24" style="enable-background:new 0 0 24 24" xml:space="preserve"><style type="text/css">.st0{fill:#54728E;}</style><path class="st0" d="M14.9,4.4H5.7l1-0.8C7.2,3,7.3,2.1,6.8,1.4C6.2,0.8,5.3,0.7,4.7,1.3l-4,3.5c0,0,0,0,0,0c0,0-0.1,0.1-0.1,0.1
	c0,0-0.1,0.1-0.1,0.1c0,0-0.1,0.1-0.1,0.1c0,0,0,0.1-0.1,0.1c0,0.1,0,0.1-0.1,0.2c0,0,0,0.1,0,0.1c0,0.1,0,0.1,0,0.2
	c0,0,0,0.1,0,0.1c0,0,0,0,0,0c0,0,0,0,0,0c0,0,0,0.1,0,0.1c0,0,0,0.1,0,0.1c0,0.1,0,0.1,0,0.2c0,0,0,0.1,0,0.1
	c0,0.1,0.1,0.1,0.1,0.2c0,0,0,0.1,0,0.1c0.1,0.1,0.1,0.2,0.2,0.2l4,4c0.3,0.3,0.7,0.4,1.1,0.4s0.8-0.1,1.1-0.4
	c0.6-0.6,0.6-1.5,0-2.1L5.2,7.4h9.7c3.2,0,5.9,2.6,6,5.8c0.1,1.6-0.5,3.2-1.7,4.4c-1.1,1.2-2.7,1.9-4.3,1.9H5.1
	c-0.8,0-1.5,0.7-1.5,1.5s0.7,1.5,1.5,1.5h9.8c2.4,0,4.8-1,6.5-2.8c1.7-1.8,2.6-4.2,2.5-6.6C23.7,8.3,19.7,4.4,14.9,4.4z"/></svg>