<?xml version="1.0" encoding="utf-8"?>
<!-- Generator: Adobe Illustrator 24.3.0, SVG Export Plug-In . SVG Version: 6.00 Build 0)  -->
<svg version="1.1" id="_x31_32_x5F_icon-icconBALL01"
	 xmlns="http://www.w3.org/2000/svg" xmlns:xlink="http://www.w3.org/1999/xlink" x="0px" y="0px" viewBox="0 0 100 100"
	 style="enable-background:new 0 0 100 100;" xml:space="preserve">
<style type="text/css">
	.st0{fill:#596079;}
</style>
<path class="st0" d="M31.2,3.7c-6.2,2.5-11.8,6.2-16.5,11C9.9,19.4,6.2,25,3.7,31.2C1.2,37.2,0,43.5,0,50s1.2,12.8,3.7,18.8
	c2.5,6.2,6.2,11.8,11,16.5c4.8,4.8,10.3,8.5,16.5,11c6,2.4,12.3,3.7,18.8,3.7s12.8-1.2,18.8-3.7c6.2-2.5,11.8-6.2,16.5-11
	c4.8-4.8,8.5-10.3,11-16.5c2.4-6,3.7-12.3,3.7-18.8s-1.2-12.8-3.7-18.8c-2.5-6.2-6.2-11.8-11-16.5C80.6,9.9,75,6.2,68.8,3.7
	C62.8,1.2,56.5,0,50,0S37.2,1.2,31.2,3.7 M12.5,71.1c-2.4-1.5-4.6-3.3-6.6-5.3c-3-8.4-3.5-17.6-1.5-26.3c0.9-1.8,2-3.6,3.2-5.3
	c0.4-0.5,0.7-1.1,1.1-1.6L20,39.3v0.3c0,6.1,0.6,12.1,1.8,18c0,0,0,0,0,0.1L13,71.4C12.9,71.3,12.7,71.2,12.5,71.1 M46,94.2
	c1.9,1,3.9,1.8,6,2.5c-8.7,0.4-17.6-1.7-25.4-6.1l19,3.4C45.7,94.1,45.9,94.2,46,94.2 M46,90.8l-22.3-4c-2.6-3.2-5-6.5-7-10.1
	c-0.5-0.9-1.1-1.8-1.5-2.7l8.7-13.7c0.2,0,0.4,0.1,0.7,0.2c5.5,1.5,11,2.5,16.6,3.3c0.3,0,0.6,0.1,0.8,0.1L52.5,82
	c-1.8,2.6-3.7,5.1-5.5,7.6C46.7,90,46.3,90.4,46,90.8 M83.1,83.1c-1.8,1.8-3.7,3.4-5.6,4.8c-0.3-2.6-0.9-5.2-1.7-7.7L87,59.4
	c3.1-1.4,6.1-3,8.8-5c0.4-0.3,0.7-0.5,0.9-0.9C95.9,64.3,91.3,74.9,83.1,83.1 M82.6,56.1c0.4,0.8,0.8,1.6,1.2,2.4L73.1,78.6
	c-0.1,0-0.1,0-0.2,0c-5.8,1.1-11.7,1.7-17.7,1.7L44.4,61.7c1.7-3.1,3.3-6.2,5-9.4c1.1-2.1,2.2-4.3,3.3-6.4L75,43.7
	C77.8,47.7,80.4,51.8,82.6,56.1 M78.1,32.2c-1.1,2.8-2.2,5.6-3.3,8.3L53,42.7c-0.3-0.3-0.5-0.7-0.8-1c-2.6-2.9-5.1-5.8-7.7-8.7
	c0,0,0-0.1,0.1-0.1c-1-1-2.1-2.1-3.1-3.1l6-18.2c0.4-0.1,0.8-0.2,1.3-0.2c3.3-0.3,6.6-0.7,9.9-0.9c2-0.1,4-0.2,6.1,0l15,16.9
	C79.2,28.9,78.7,30.6,78.1,32.2 M83.1,16.9c4.1,4.1,7.3,8.8,9.6,13.9c-2.8-1.9-5.8-3.5-8.9-4.8c-0.5-0.2-1-0.4-1.5-0.6L67.5,8.8
	c0.1-0.7,0.2-1.4,0.2-2.2C73.3,8.9,78.6,12.3,83.1,16.9 M35,5.8C35.1,5.8,35.1,5.9,35,5.8c3.5,1.3,6.5,3,9.4,5l-5.7,17h-0.1
	c-1.2,0.5-2.3,0.9-3.5,1.4c-4.7,2.1-9.3,4.5-13.6,7.3l-11-6.5c0-0.3,0.1-0.7,0.2-1c0.7-2,1.5-4,2.3-6c0.7-1.5,1.4-3,2.2-4.4
	c0.5-0.6,1.1-1.2,1.6-1.7C22.1,11.6,28.4,7.8,35,5.6C35.1,5.7,35,5.7,35,5.8"/>
</svg>
