<?xml version="1.0" encoding="utf-8"?>
<!-- Generator: Adobe Illustrator 24.3.0, SVG Export Plug-In . SVG Version: 6.00 Build 0)  -->
<svg version="1.1" id="_x31_33_x5F_icon-icconBALL02"
	 xmlns="http://www.w3.org/2000/svg" xmlns:xlink="http://www.w3.org/1999/xlink" x="0px" y="0px" viewBox="0 0 100 100"
	 style="enable-background:new 0 0 100 100;" xml:space="preserve">
<style type="text/css">
	.st0{fill:#596079;}
</style>
<g>
	<g>
		<path class="st0" d="M50,0.5C22.7,0.5,0.5,22.7,0.5,50c0,3.2,0.3,6.3,0.9,9.3l-0.2,0.2c0.1,0.1,0.2,0.1,0.3,0.2
			C6,82.4,26,99.5,50,99.5c27.3,0,49.5-22.2,49.5-49.5S77.3,0.5,50,0.5z M92.2,32.6c-0.1,16.1-14.4,19.5-20.4,20.2
			c5-17.3,3.6-33.9,2.5-41.4C82.2,16.4,88.5,23.8,92.2,32.6z M69.9,9c0.8,4.3,4,23.6-2.1,43.7c-11.6-3.1-13.3-11.5-15.5-23
			c-1.5-7.8-3.2-16.5-8.5-24.8c2-0.3,4.1-0.4,6.2-0.4C57.1,4.4,63.9,6,69.9,9z M39.6,5.6c5.7,8,7.4,16.9,8.9,24.7
			c2.2,11.4,4.3,22.2,18,26c-1,2.8-2.2,5.6-3.7,8.4c-28.5-13.9-46-36.1-49.9-41.3C19.3,14.6,28.7,8.1,39.6,5.6z M10.7,26.9
			c5.3,7,22.8,27.8,50.3,41.2c-1.1,1.8-2.3,3.6-3.5,5.3C49.9,69.6,42.8,69,36,68.5c-9.5-0.8-19.3-1.6-31-10.9
			c-0.4-2.5-0.6-5-0.6-7.6C4.4,41.6,6.7,33.7,10.7,26.9z M6.4,63.4c11,7.4,20.3,8.2,29.3,8.9c6.5,0.5,12.7,1,19.2,4.1
			c-5.3,6.2-12.2,11.8-21.1,16.2C20.8,87.7,10.5,76.9,6.4,63.4z M39.1,94.3c8.1-4.5,14.5-10,19.4-16c2.1,1.2,6.2,3.8,7.2,7.7
			c0.6,2.3,0.1,4.8-1.7,7.4c-4.4,1.4-9.2,2.2-14.1,2.2C46.2,95.6,42.6,95.2,39.1,94.3z M69.4,91.3c0.6-2.1,0.7-4.3,0.1-6.3
			c-1.4-4.9-5.9-8.2-8.6-9.8c1.3-1.8,2.5-3.6,3.6-5.5c6.8,3.1,14.2,5.6,22.1,7.4C82.2,83.2,76.2,88.1,69.4,91.3z M89,73.7
			c-8.1-1.7-15.6-4.3-22.6-7.4c1.6-3.1,3-6.3,4.1-9.5c3.4-0.2,13-1.5,19.5-8.1c2.2-2.2,3.8-4.8,4.8-7.8c0.6,2.9,0.9,5.9,0.9,9
			C95.6,58.7,93.2,66.8,89,73.7z"/>
		<path class="st0" d="M50,100C26.3,100,5.7,83.2,1,60l-0.1-0.1c-0.2-0.2-0.2-0.5-0.1-0.7l0,0C0.3,56.1,0,53,0,50
			C0,22.4,22.4,0,50,0s50,22.4,50,50S77.6,100,50,100z M1.8,59.4c0,0.1,0.1,0.1,0.1,0.2C6.5,82.5,26.7,99,50,99c27,0,49-22,49-49
			S77,1,50,1S1,23,1,50c0,3,0.3,6.1,0.9,9.2C1.8,59.3,1.8,59.3,1.8,59.4z M50,96.1c-3.7,0-7.4-0.5-11.1-1.3c-0.2,0-0.3-0.2-0.4-0.4
			c0-0.2,0.1-0.4,0.2-0.5C46.3,89.7,52.8,84.3,58,78c0.1-0.2,0.4-0.2,0.6-0.1c2.3,1.3,6.4,4,7.5,8c0.7,2.4,0.1,5-1.7,7.8
			c-0.1,0.1-0.1,0.2-0.2,0.2C59.6,95.3,54.8,96.1,50,96.1z M40.4,94.1c7.8,1.7,15.9,1.3,23.4-1.1c1.6-2.4,2.1-4.8,1.5-6.9
			c-1-3.5-4.4-6-6.7-7.2C53.6,84.9,47.5,90,40.4,94.1z M33.8,93.1c-0.1,0-0.1,0-0.2,0C20.4,88.1,10.1,77,5.9,63.6
			c-0.1-0.2,0-0.4,0.2-0.5s0.4-0.1,0.6,0c10.9,7.4,20.1,8.1,29.1,8.9c6.6,0.5,12.8,1,19.4,4.2c0.1,0.1,0.2,0.2,0.3,0.3
			c0,0.1,0,0.3-0.1,0.4c-5.8,6.5-12.9,12-21.4,16.2C34,93.1,33.9,93.1,33.8,93.1z M7.3,64.6c4.3,12.5,14.1,22.8,26.5,27.5
			c8-4,14.9-9.2,20.4-15.5c-6.3-2.8-12.2-3.3-18.5-3.8C26.9,72.1,17.9,71.4,7.3,64.6z M69.4,91.8c-0.1,0-0.2,0-0.3-0.1
			c-0.1-0.1-0.2-0.3-0.1-0.5c0.6-2.1,0.7-4.1,0.1-6.1c-1.3-4.8-5.8-8-8.3-9.5c-0.1-0.1-0.2-0.2-0.2-0.3c0-0.1,0-0.3,0.1-0.4
			c1.3-1.7,2.5-3.6,3.6-5.4c0.1-0.2,0.4-0.3,0.6-0.2c7.2,3.2,14.6,5.7,22,7.4c0.2,0,0.3,0.1,0.3,0.3c0.1,0.2,0,0.3-0.1,0.5
			c-4.5,6.1-10.6,11.1-17.5,14.3C69.5,91.8,69.4,91.8,69.4,91.8z M61.6,75.1c2.7,1.7,7,4.9,8.3,9.8c0.5,1.8,0.5,3.7,0.1,5.6
			c6.1-3.1,11.6-7.5,15.7-13c-7.1-1.7-14.2-4-21.1-7.1C63.8,72,62.7,73.5,61.6,75.1z M89,74.2C89,74.2,88.9,74.2,89,74.2
			c-7.7-1.6-15.4-4.1-22.8-7.4c-0.1-0.1-0.2-0.2-0.3-0.3c0-0.1,0-0.3,0-0.4c1.5-3,2.9-6.1,4-9.4c0.1-0.2,0.2-0.3,0.4-0.3
			c3.7-0.3,12.9-1.6,19.2-8c2.1-2.1,3.7-4.7,4.7-7.6c0.1-0.2,0.2-0.3,0.5-0.3c0.2,0,0.4,0.2,0.4,0.4c0.6,3,0.9,6.1,0.9,9.1
			c0,8.5-2.3,16.7-6.7,23.9C89.3,74.1,89.2,74.2,89,74.2z M67.1,66.1c7.1,3.1,14.4,5.5,21.7,7c4.2-7,6.4-15,6.4-23.1
			c0-2.4-0.2-4.9-0.6-7.3c-1,2.4-2.5,4.5-4.3,6.4C84,55.6,74.8,57,70.8,57.3C69.7,60.4,68.5,63.3,67.1,66.1z M57.4,73.8
			c-0.1,0-0.1,0-0.2,0C49.8,70.1,42.8,69.5,36,69c-9.5-0.8-19.4-1.6-31.2-11c-0.1-0.1-0.2-0.2-0.2-0.3C4.2,55.1,4,52.6,4,50
			c0-8.2,2.2-16.3,6.4-23.4c0.1-0.1,0.2-0.2,0.4-0.2s0.3,0.1,0.4,0.2c4.8,6.2,22.4,27.6,50.1,41.1c0.1,0.1,0.2,0.2,0.2,0.3
			c0,0.1,0,0.3,0,0.4c-1.1,1.8-2.3,3.6-3.6,5.3C57.7,73.8,57.6,73.8,57.4,73.8z M5.5,57.3C17.1,66.5,26.7,67.2,36,68
			c6.8,0.6,13.8,1.1,21.2,4.7c1.1-1.5,2.1-3,3-4.5C33.5,55.1,16.1,34.6,10.7,27.7C6.9,34.5,4.8,42.2,4.8,50
			C4.8,52.4,5,54.9,5.5,57.3z M62.9,65.2c-0.1,0-0.1,0-0.2,0c-29-14-46.8-37-50.1-41.4c-0.1-0.2-0.1-0.4,0-0.6
			c6.5-9.1,16.1-15.5,27-18c0.2,0,0.4,0,0.5,0.2c5.7,8.1,7.4,17,9,24.9c2.2,11.3,4.2,21.9,17.7,25.6c0.1,0,0.2,0.1,0.3,0.2
			c0.1,0.1,0.1,0.3,0,0.4c-1.1,2.9-2.3,5.7-3.7,8.4C63.2,65.1,63,65.2,62.9,65.2z M13.5,23.4c3.7,5,21.1,26.9,49.1,40.6
			c1.2-2.4,2.3-4.8,3.2-7.4c-13.6-4-15.7-14.8-17.9-26.2c-1.5-7.7-3.1-16.4-8.6-24.3C29,8.6,19.9,14.7,13.5,23.4z M71.8,53.3
			c-0.1,0-0.3-0.1-0.4-0.2c-0.1-0.1-0.1-0.3-0.1-0.4c4.9-17,3.7-33.1,2.5-41.2c0-0.2,0.1-0.4,0.2-0.5c0.2-0.1,0.4-0.1,0.5,0
			c8.2,5.2,14.4,12.6,18.1,21.5c0,0.1,0,0.1,0,0.2C92.6,49,78.1,52.5,71.8,53.3L71.8,53.3z M74.9,12.3C76,20.7,77,36,72.4,52.2
			c6.3-0.9,19.2-4.6,19.3-19.6C88.2,24.4,82.4,17.3,74.9,12.3z M67.8,53.1L67.8,53.1C55.7,49.9,54,41,51.9,29.7
			c-1.5-7.7-3.1-16.4-8.5-24.6c-0.1-0.1-0.1-0.3,0-0.5c0.1-0.1,0.2-0.3,0.4-0.3C45.9,4,48,3.9,50,3.9c7,0,13.8,1.6,20.1,4.6
			c0.1,0.1,0.2,0.2,0.3,0.3c0.7,3.8,4,23.6-2.1,43.9C68.2,53,68,53.1,67.8,53.1z M44.6,5.2c5.1,8.2,6.7,16.7,8.2,24.3
			c2.1,11.3,3.7,19.4,14.7,22.5c5.8-19.6,2.8-38.5,2-42.8C63.4,6.3,56.8,4.8,50,4.8C48.2,4.8,46.4,5,44.6,5.2z"/>
	</g>
</g>
</svg>
