<?xml version="1.0" encoding="utf-8"?>
<!-- Generator: Adobe Illustrator 24.3.0, SVG Export Plug-In . SVG Version: 6.00 Build 0)  -->
<svg version="1.1" id="圖層_1" xmlns="http://www.w3.org/2000/svg" xmlns:xlink="http://www.w3.org/1999/xlink" x="0px" y="0px"
	 viewBox="0 0 228.1 50" style="enable-background:new 0 0 228.1 50;" xml:space="preserve">
<style type="text/css">
	.st0{fill:#CC9A6C;}
</style>
<polygon class="st0" points="47.2,4.1 47.2,50 52.5,43 52.5,4.1 "/>
<polygon class="st0" points="66.2,13.6 73.1,13.6 60.6,28.2 73.2,43 66.3,43 53.6,28.3 "/>
<path class="st0" d="M88.7,12.8c-4.3,0-8,1.5-11.1,4.5s-4.7,6.7-4.7,10.9s1.6,7.9,4.6,11c3.1,3,6.8,4.6,11.1,4.6
	c3.2,0,6.1-0.9,8.8-2.7l0.4-0.3v-7.1l-1.7,1.8c-2.1,2.2-4.6,3.2-7.5,3.2s-5.3-1-7.3-3.1c-2.1-2.1-3.1-4.5-3.1-7.4s1-5.3,3-7.3
	s4.4-3,7.3-3c3,0,5.4,1.1,7.5,3.2l1.7,1.8v-7.1l-0.4-0.3C94.8,13.7,91.9,12.8,88.7,12.8"/>
<path class="st0" d="M151.8,26.5c-1.2-0.5-2.6-0.9-4-1.2c-1.4-0.4-2.8-0.6-4-0.9c-1-0.2-1.9-0.6-2.5-1.1s-0.9-1.1-0.9-2
	s0.4-1.7,1.3-2.4c1-0.7,2.1-1.1,3.5-1.1s2.6,0.4,3.6,1.2c0.9,0.8,1.4,1.7,1.4,2.8v1h5.2v-1c0-2.6-1-4.8-3-6.5s-4.4-2.5-7.1-2.5
	c-2.7,0-5.1,0.8-7.1,2.4c-2.1,1.6-3.1,3.7-3.1,6.1c0,1.9,0.5,3.5,1.4,4.8c0.9,1.2,2.1,2.1,3.5,2.5c1.2,0.4,2.6,0.7,4,1.1
	c1.4,0.3,2.7,0.6,3.9,0.9c1,0.2,1.8,0.7,2.5,1.3c0.6,0.6,0.9,1.5,0.9,2.6s-0.6,2.1-1.7,3c-1.2,0.9-2.6,1.4-4.3,1.4s-3.1-0.5-4.3-1.4
	c-1.1-0.9-1.7-2-1.7-3.4v-1H134v1c0,2.9,1.1,5.3,3.4,7.2c2.2,1.8,4.9,2.7,8,2.7s5.8-0.9,8-2.6c2.3-1.8,3.4-4.1,3.4-6.8
	c0-2-0.5-3.7-1.4-5.1C154.3,28,153.2,27,151.8,26.5"/>
<rect x="159.4" y="13.6" class="st0" width="5.3" height="29.4"/>
<path class="st0" d="M162,3.3c-0.9,0-1.6,0.3-2.3,1c-0.7,0.6-1,1.4-1,2.3s0.4,1.7,1,2.3c0.7,0.6,1.4,1,2.3,1c0.9,0,1.6-0.3,2.3-1
	c0.7-0.6,1-1.4,1-2.3s-0.3-1.7-1-2.3C163.7,3.6,162.9,3.3,162,3.3"/>
<path class="st0" d="M181.1,12.8c-3.7,0-6.7,1.2-9.1,3.6c-2.4,2.4-3.6,5.4-3.6,9V43h5.3V25.4c0-2.1,0.7-3.8,2.2-5.3
	c1.5-1.5,3.2-2.2,5.2-2.2s3.8,0.7,5.2,2.2c1.5,1.5,2.2,3.2,2.2,5.3V43h5.3V25.4c0-3.6-1.2-6.6-3.6-9C187.8,14,184.7,12.8,181.1,12.8
	"/>
<path class="st0" d="M126.5,17.3c-3.1-3-6.8-4.5-11.1-4.5c-4.3,0-8,1.5-11.1,4.5s-4.7,6.7-4.7,10.9s1.6,7.9,4.6,11
	c3.1,3,6.8,4.6,11.1,4.6c1.9,0,3.6-0.3,5.3-0.9v-5.6c-1.6,1-3.3,1.5-5.3,1.5c-2.9,0-5.3-1-7.3-3.1c-2.1-2.1-3.1-4.5-3.1-7.4
	s1-5.3,3-7.3c2.1-2.1,4.4-3,7.3-3s5.3,1,7.3,3c2,2.1,3,4.4,3,7.3V43h5.3V28.2C131.1,24,129.6,20.3,126.5,17.3"/>
<path class="st0" d="M224.5,18.4l-1.7-2.1v11.9c0,2.9-1,5.3-3.1,7.4c-2,2.1-4.4,3.1-7.3,3.1c-2.9,0-5.3-1-7.3-3.1
	c-2.1-2.1-3.1-4.5-3.1-7.4s1-5.3,3-7.3c2.1-2.1,4.4-3,7.3-3c2,0,3.7,0.5,5.3,1.4v-5.6c-1.7-0.6-3.5-0.9-5.3-0.9
	c-4.3,0-8,1.5-11.1,4.5s-4.7,6.7-4.7,10.9c0,4.3,1.6,8,4.7,11c3.1,3,6.8,4.5,11.1,4.5s8.1-1.5,11.1-4.5c3.1-3,4.6-6.7,4.6-11
	C228.1,24.5,226.9,21.2,224.5,18.4"/>
<path class="st0" d="M25.3,26.8c-2.7-2.9-4.4-5.2-5-6c-0.6,0.8-2.1,3-4.9,6c-5.7,5.9-0.2,10.1,4.4,7.3c0,1.4-1.1,2.8-1.8,4.1h4.9
	c-0.7-1.3-1.9-2.6-2-4.1C25.6,36.8,30.5,32.2,25.3,26.8"/>
<path class="st0" d="M40.3,27L36,27.5c-0.2-1.7-0.7-3.3-1.4-4.8l4-1.9c-1.7-3.7-4.6-6.7-8-8.8l-2.2,3.8c-1.4-0.8-3-1.5-4.7-1.8
	l0.9-4.3c-1.4-0.3-2.8-0.5-4.3-0.5c-4.8,0-9.1,1.6-12.6,4.4l2.7,3.4c-1.3,1-2.5,2.3-3.4,3.7l-3.7-2.4C1.2,21.6,0,25.4,0,29.5
	c0,0.9,0.1,1.7,0.2,2.5l4.3-0.5c0.2,1.7,0.7,3.3,1.4,4.8l-4,1.9c1.7,3.7,4.6,6.7,8,8.8l2.2-3.8c1.4,0.8,3,1.5,4.7,1.8L16,49.3
	c1.4,0.3,2.8,0.5,4.3,0.5c4.8,0,9.1-1.6,12.6-4.4L30.2,42c1.3-1,2.5-2.3,3.4-3.7l3.7,2.4c2.1-3.2,3.3-7,3.3-11.1
	C40.5,28.7,40.4,27.8,40.3,27 M3.4,27.4c-0.5,0-0.9-0.4-0.9-0.9s0.4-0.9,0.9-0.9s0.9,0.4,0.9,0.9S3.9,27.4,3.4,27.4 M32.9,17.2
	c0.5,0,0.9,0.4,0.9,0.9S33.4,19,32.9,19S32,18.6,32,18.1S32.4,17.2,32.9,17.2 M16.3,12c0.5,0,0.9,0.4,0.9,0.9s-0.4,0.9-0.9,0.9
	s-0.9-0.4-0.9-0.9S15.8,12,16.3,12 M7.9,42.2c-0.5,0-0.9-0.4-0.9-0.9s0.4-0.9,0.9-0.9s0.9,0.4,0.9,0.9S8.4,42.2,7.9,42.2 M24.4,47
	c-0.5,0-0.9-0.4-0.9-0.9s0.4-0.9,0.9-0.9s0.9,0.4,0.9,0.9S24.9,47,24.4,47 M20.3,43.9c-8,0-14.4-6.5-14.4-14.4s6.5-14.4,14.4-14.4
	s14.4,6.5,14.4,14.4S28.2,43.9,20.3,43.9 M36.9,34.3c-0.5,0-0.9-0.4-0.9-0.9s0.4-0.9,0.9-0.9s0.9,0.4,0.9,0.9S37.3,34.3,36.9,34.3"
	/>
<path class="st0" d="M7.6,11.6c1.9-1.5,4.1-2.7,6.5-3.5C14,8,13.9,7.8,13.8,7.6c-0.2-0.7,0.1-1.3,0.6-1.4c0.5-0.1,1,0.3,1.2,0.9
	c0.1,0.2,0.1,0.4,0,0.6C17.4,7.3,19.3,7,21.2,7c0.6,0,1.1,0,1.7,0.1L22.8,2c0-0.1-0.2-0.2-0.2-0.1c-0.2,0.3-0.5,0.7-1,1
	c-0.5,0.4-0.4,1.1,0,1.4c0.3,0.2,0.3,0.6,0.1,0.9c-0.1,0.2-0.4,0.4-0.7,0.4c-0.9,0.2-1.4-1.5-1.6-2.1c0-0.1,0-0.1,0.1-0.1
	c0.2,0,0.7-0.1,0.8-0.4c0.2-0.5-1.8-2.2-2.5-3c-0.1-0.1-0.2-0.1-0.2,0c-0.2,0.4-0.6,1.6-0.4,2.5c0.3,1.2,0.4,3-0.2,3.3
	c-0.6,0.3-1.8-0.3-2.2-1.6l-0.1-0.5c0-0.1,0.1-0.2,0.2-0.2c0.1,0,0.3,0.1,0.5,0C16,3.4,16.2,3,16,2.4c-0.2-0.6-2.4-1.7-3.3-2.3l0,0
	l0,0c-0.5,0.9-1.9,3-1.7,3.6s0.6,0.9,1.2,0.7c0.2-0.1,0.4-0.2,0.5-0.3c0.1-0.1,0.2,0,0.3,0.1l0.1,0.5C13.5,6,12.6,7.1,12,7.2
	c-0.6,0-1.5-1.6-1.8-2.8C9.9,3.6,9,2.8,8.6,2.5c-0.1-0.1-0.2,0-0.2,0.1c-0.2,1-1.1,3.5-0.7,3.8c0.3,0.3,0.7,0.1,0.9,0
	c0.1,0,0.1,0,0.2,0.1C8.9,7,9.3,8.8,8.4,9.1c-0.3,0-0.6,0-0.8-0.1C7.3,8.9,7.1,8.5,7.2,8.2C7.4,7.8,7.2,7,6.5,7C6,7,5.5,6.8,5.1,6.6
	C5.1,6.5,5,6.7,5,6.8L7.6,11.6z M12.8,2.5c-0.1-0.4,0-0.9,0.4-1c0.3-0.1,0.7,0.2,0.8,0.6s0,0.9-0.4,1C13.2,3.2,12.9,2.9,12.8,2.5"/>
</svg>
