<?xml version="1.0" encoding="utf-8"?>
<!-- Generator: Adobe Illustrator 24.3.0, SVG Export Plug-In . SVG Version: 6.00 Build 0)  -->
<svg version="1.1" id="圖層_1" xmlns="http://www.w3.org/2000/svg" xmlns:xlink="http://www.w3.org/1999/xlink" x="0px" y="0px"
	 viewBox="0 0 140 37" style="enable-background:new 0 0 228.1 50;" xml:space="preserve">

<style type="text/css">
	:root {
		--logo-color-st0:#DBB997;
	}	
	</style>
<title>smgame-logo</title>
<path fill="var(--logo-color-st0)"  d="M68.37 21.615l-2.835 9.508h-3.399c-0.94 0-1.864-0.11-2.741-0.313s-1.707-0.58-2.412-1.112c-0.705-0.533-1.284-1.237-1.723-2.146s-0.642-2.052-0.642-3.43c0-0.924 0.172-1.88 0.486-2.851s0.752-1.88 1.3-2.694c0.548-0.799 1.175-1.457 1.88-1.974s1.457-0.768 2.287-0.768h9.382c-0.439 0.72-0.893 1.425-1.331 2.068-0.454 0.642-0.94 1.253-1.457 1.833h-5.921c-0.235 0-0.486 0.078-0.705 0.235s-0.439 0.376-0.627 0.642c-0.204 0.266-0.36 0.58-0.517 0.908s-0.266 0.658-0.36 1.002c-0.125 0.501-0.188 0.893-0.188 1.175 0 0.36 0.078 0.752 0.219 1.159 0.157 0.407 0.329 0.799 0.58 1.128 0.235 0.345 0.501 0.627 0.767 0.861 0.282 0.219 0.564 0.345 0.83 0.345h1.347l0.533-1.88h-2.569c0.016-0.063 0.11-0.235 0.282-0.564 0.188-0.313 0.376-0.674 0.627-1.065 0.235-0.392 0.501-0.783 0.752-1.175 0.266-0.392 0.501-0.689 0.705-0.908l5.451 0.016z"></path>
<path fill="var(--logo-color-st0)"  d="M78.99 31.123l-0.486-3.258c-0.031 0.125-0.141 0.329-0.329 0.658s-0.407 0.674-0.627 1.034c-0.235 0.36-0.47 0.689-0.689 1.018-0.219 0.298-0.392 0.486-0.501 0.548h-9.633c0.031-0.157 0.047-0.219 0.047-0.204v-0.094l8.192-13.251c0.047-0.125 0.141-0.266 0.266-0.47s0.282-0.376 0.439-0.564c0.172-0.188 0.313-0.345 0.486-0.486 0.172-0.157 0.282-0.219 0.392-0.219h3.822c0.157 0 0.282 0.11 0.423 0.313s0.235 0.47 0.329 0.783c0.094 0.298 0.172 0.627 0.235 0.971s0.125 0.627 0.172 0.846l1.488 12.358-4.025 0.016zM73.883 27.254h4.621l-0.799-6.782-3.822 6.485v0.298z"></path>
<path fill="var(--logo-color-st0)"  d="M97.472 31.123l2.459-8.583-6.187 8.583h-1.566l-1.253-8.583-2.459 8.583h-4.37l4.386-15.272h5.513l1.159 7.675 5.576-7.675h5.513l-4.386 15.272h-4.386z"></path>
<path fill="var(--logo-color-st0)"  d="M120.45 15.851c-0.11 0.266-0.282 0.627-0.533 1.049-0.251 0.439-0.517 0.861-0.799 1.284s-0.564 0.783-0.814 1.096c-0.266 0.298-0.454 0.47-0.58 0.47h-6.986l-1.3 4.527 2.162-2.663h5.247l-3.258 3.916h-4.527l-0.501 1.739h8.709c-0.016 0.047-0.063 0.125-0.125 0.235s-0.125 0.251-0.188 0.392-0.125 0.251-0.188 0.376-0.11 0.188-0.125 0.204c-0.141 0.219-0.313 0.501-0.564 0.799s-0.47 0.611-0.689 0.877c-0.219 0.266-0.423 0.517-0.611 0.705s-0.266 0.282-0.282 0.282h-11.434l4.386-15.272 13.001-0.016z"></path>
<path fill="var(--logo-color-st0)"  d="M128.689 6.845c0.83 1.096 0.815 2.506-0.047 3.148s-2.209 0.266-3.039-0.83c-0.83-1.096-0.814-2.506 0.047-3.148s2.209-0.266 3.039 0.83z"></path>
<path fill="var(--logo-color-st0)"  d="M128.282 10.197c0.83-0.454 1.081-1.613 0.548-2.741-0.595-1.222-1.895-1.927-2.945-1.582-0.016 0-0.047 0.016-0.063 0.031 0.078-0.047 0.157-0.078 0.235-0.11 1.034-0.345 2.334 0.36 2.945 1.582 0.595 1.175 0.251 2.428-0.72 2.819v0z"></path>
<path fill="var(--logo-color-st0)"  d="M134.438 2.678c-0.016-0.172 0.016-0.282 0.031-0.345 0.219-0.094 0.47-0.141 0.736-0.141 0.376 0 0.705 0.11 1.002 0.266-0.861-0.172-1.566 0.11-1.77 0.219v0z"></path>
<path fill="var(--logo-color-st0)"  d="M136.803 3.101c-1.065-0.423-1.895 0.094-2.083 0.219-0.172-0.204-0.235-0.392-0.266-0.564 0.141-0.078 0.955-0.47 1.942-0.172 0.188 0.141 0.313 0.313 0.407 0.517v0z"></path>
<path fill="var(--logo-color-st0)"  d="M136.928 3.524c-0.705-0.141-1.378 0.251-1.504 0.345-0.282-0.157-0.486-0.313-0.627-0.47 0.172-0.125 0.987-0.658 2.068-0.188 0.016 0.094 0.047 0.204 0.063 0.313v0z"></path>
<path fill="var(--logo-color-st0)"  d="M135.064 4.558c-0.141 0.141-0.345 0.251-0.642 0.329-0.548-0.235-0.924-0.721-0.924-1.269 0-0.298 0.125-0.595 0.313-0.83 0.016 1.237 0.987 1.676 1.253 1.77v0z"></path>
<path fill="var(--logo-color-st0)"  d="M135.362 3.947c0 0.078-0.016 0.329-0.219 0.58-0.204-0.063-1.269-0.486-1.222-1.817 0.125-0.125 0.266-0.219 0.454-0.313-0.078 0.266-0.094 0.971 0.987 1.551v0z"></path>
<path fill="var(--logo-color-st0)"  d="M135.205 5.059c-0.219 0-0.454-0.047-0.642-0.11 0.877-0.266 0.908-0.893 0.908-1.018 0.063-0.047 0.313-0.204 0.642-0.282 0.016 0.204 0 0.987-0.908 1.41v0z"></path>
<path fill="var(--logo-color-st0)"  d="M136.928 3.587v0.031c0 0.736-0.658 1.347-1.519 1.425 0.83-0.47 0.815-1.253 0.799-1.441 0.219-0.047 0.47-0.063 0.72-0.016v0z"></path>
<path fill="var(--logo-color-st0)"  d="M136.928 3.618c0 0.799-0.768 1.441-1.723 1.441s-1.723-0.642-1.723-1.441c0-0.799 0.768-1.441 1.723-1.441s1.723 0.658 1.723 1.441z"></path>
<path fill="var(--logo-color-st0)"  d="M127.734 21.004c-0.078 0.611-0.204 1.331-0.47 2.146 0 0-5.56 5.717-6.030 10.604 0 0-1.739-7.55 6.485-14.849 0.016 0 0.188 0.783 0.016 2.099z"></path>
<path fill="var(--logo-color-st0)"  d="M127.734 21.004c-0.078 0.611-0.204 1.331-0.47 2.146 0 0-5.56 5.717-6.030 10.604 0.235-6.187 5.216-11.481 6.5-12.75z"></path>
<path fill="var(--logo-color-st0)"  d="M131.352 10.338c-0.063-0.11-0.125-0.204-0.204-0.251-0.11-0.094-0.266-0.094-0.392-0.031v0c-1.504 0.815-2.992 1.472-4.292 1.958h-0.016c-1.598 0.595-2.913 0.908-3.681 0.861-0.392-0.016-0.736-0.11-1.018-0.298-1.347-0.955 1.002-4.213 1.096-4.37-6.939 8.145-0.439 7.252 2.929 6.406 1.002-0.251 2.036 0.235 2.287 1.081 1.018 3.556 1.159 9.132-4.558 14.582 0-0.016 14.504-7.174 7.847-19.939v0z"></path>
<path fill="var(--logo-color-st0)"  d="M123.505 30.261c6.563-4.746 7.769-10.212 6.626-15.005-0.924-3.884-3.368-3.336-3.916-3.148 0.078-0.031 0.157-0.063 0.219-0.094h0.016c1.159-0.423 2.459-1.018 3.822-1.707 0.157-0.078 0.282-0.157 0.439-0.219v0c0.016 0 0.031-0.016 0.047-0.016v0c0.125-0.063 0.282-0.063 0.392 0.031 0.031 0.031 0.063 0.063 0.094 0.094v0c0.047 0.047 0.078 0.11 0.125 0.172 6.641 12.734-7.863 19.892-7.863 19.892v0z"></path>
<path fill="var(--logo-color-st0)"  d="M131.352 10.338c-0.031-0.063-0.078-0.125-0.125-0.172v0 0c-0.031-0.031-0.063-0.063-0.094-0.094-0.11-0.094-0.266-0.094-0.392-0.031v0c-0.016 0-0.031 0.016-0.047 0.016v0c-0.157 0.078-0.282 0.157-0.439 0.219v0c0 0 0.486-0.11 0.799 0.36v0c1.519 2.647 5.357 11.7-7.581 19.595 0.031 0.031 14.535-7.127 7.879-19.892v0z"></path>
<path fill="var(--logo-color-st0)"  d="M139.231 13.141c-0.924-1.034-3.18-1.034-5.999-0.204 1.128-0.235 4.198-0.971 5.122 0.564 0.799 1.316-1.629 4.229-4.981 6.814-0.235 0.767-0.548 1.488-0.908 2.177 5.341-3.462 8.349-7.597 6.767-9.351v0zM127.154 15.632c-0.313 0.188-0.627 0.376-0.94 0.564-5.576 3.493-8.771 7.769-7.158 9.586 0.47 0.517 1.269 0.767 2.318 0.799 0.172-0.423 0.36-0.877 0.595-1.316-0.799-0.016-1.457-0.172-1.739-0.595-2.068-2.929 6.626-8.834 6.923-9.038v0z"></path>
<path fill="var(--logo-color-st0)"  d="M132.48 22.477c0.063-0.11 0.125-0.219 0.172-0.329v0c5.56-3.603 7.221-7.064 6.798-8.38-0.689-2.099-4.715-1.206-5.874-0.893 2.663-0.736 4.793-0.689 5.67 0.282 1.566 1.739-1.441 5.874-6.767 9.32v0z"></path>
<path fill="var(--logo-color-st0)"  d="M126.23 16.196c0.282-0.188 0.58-0.36 0.861-0.533-0.721 0.439-8.693 5.341-8.208 9.194 0.11 0.814 0.893 1.441 2.6 1.519-0.031 0.063-0.047 0.125-0.078 0.188-1.034-0.016-1.864-0.266-2.318-0.799-1.629-1.801 1.582-6.077 7.142-9.57v0z"></path>
<path fill="var(--logo-color-st0)"  d="M33.347 4.495v26.674c0 0.47 0.376 0.83 0.83 0.83h3.791c0.47 0 0.83-0.376 0.83-0.83v-20.018c0-0.752 0.94-1.128 1.457-0.58l9.758 10.526c0.329 0.36 0.908 0.36 1.237-0.016l8.114-9.069c0.517-0.58 1.457-0.219 1.457 0.564v0c0 0.47 0.392 0.846 0.861 0.83l4.26-0.11c0.454-0.016 0.814-0.376 0.814-0.83v-11.638c0-0.47-0.376-0.83-0.83-0.83h-13.188c-0.454 0-0.83 0.36-0.83 0.83l-0.063 4.323c0 0.47 0.376 0.846 0.83 0.846h1.519c0.736 0 1.112 0.877 0.611 1.41l-4.151 4.401c-0.329 0.345-0.893 0.345-1.206 0l-7.456-7.879c-0.157-0.172-0.376-0.251-0.611-0.251h-7.205c-0.454-0.016-0.83 0.345-0.83 0.815v0z"></path>
<path fill="var(--logo-color-st0)"  d="M27.129 3.665h-26.095c-0.564 0-1.034 0.454-1.034 1.034v14.708c0 0.564 0.454 1.034 1.034 1.034h21.521c0.58 0 1.034 0.47 1.034 1.034l-0.031 5.153c0 0.564-0.47 1.018-1.034 1.018h-21.49c-0.564 0-1.034 0.454-1.034 1.034v2.349c0 0.58 0.47 1.034 1.034 1.034l26.095-0.345c0.564 0 1.018-0.47 1.018-1.034v-13.47c0-0.564-0.454-1.018-1.018-1.034l-21.584-0.282c-0.564 0-1.018-0.47-1.018-1.034l0.078-5.216c0.016-0.564 0.47-1.018 1.034-1.018l21.49-0.047c0.564 0 1.034-0.454 1.034-1.034v-2.866c-0.031-0.564-0.486-1.018-1.034-1.018v0z"></path>

</svg>
