<?xml version="1.0" encoding="utf-8"?>
<!-- Generator: Adobe Illustrator 24.3.0, SVG Export Plug-In . SVG Version: 6.00 Build 0)  -->
<svg version="1.1" id="圖層_1" xmlns="http://www.w3.org/2000/svg" xmlns:xlink="http://www.w3.org/1999/xlink" x="0px" y="0px"
viewBox="0 0 64.2 33.2" style="enable-background:new 0 0 40.6 50;" xml:space="preserve">
	<style type="text/css">
		.st0{fill:#CC9A6C;}
	</style>

	<path  class="st0"  d="M31.408 4.56v26.552c0 0.464 0.368 0.824 0.808 0.824h3.704c0.456 0 0.808-0.376 0.808-0.824v-19.928c0-0.752 0.92-1.12 1.424-0.576l9.52 10.48c0.32 0.36 0.888 0.36 1.208-0.016l7.912-9.024c0.504-0.576 1.424-0.216 1.424 0.56v0c0 0.464 0.384 0.84 0.84 0.824l4.152-0.112c0.44-0.016 0.792-0.376 0.792-0.824v-11.592c0-0.464-0.368-0.824-0.808-0.824h-12.864c-0.448 0-0.808 0.36-0.808 0.824l-0.064 4.304c0 0.464 0.368 0.84 0.808 0.84h1.48c0.72 0 1.088 0.872 0.6 1.4l-4.048 4.392c-0.32 0.344-0.872 0.344-1.176 0l-7.272-7.84c-0.152-0.168-0.368-0.248-0.6-0.248h-7.032c-0.44-0.024-0.808 0.336-0.808 0.808v0 0z"></path>
	<path  class="st0" d="M25.552 3.728h-24.576c-0.536 0-0.976 0.456-0.976 1.032v14.64c0 0.56 0.424 1.032 0.976 1.032h20.272c0.544 0 0.976 0.464 0.976 1.032l-0.032 5.128c0 0.56-0.44 1.016-0.976 1.016h-20.24c-0.536-0.008-0.976 0.448-0.976 1.024v2.336c0 0.576 0.44 1.032 0.976 1.032l24.576-0.344c0.528 0 0.96-0.464 0.96-1.032v-13.408c0-0.56-0.424-1.016-0.96-1.032l-20.328-0.28c-0.528 0-0.96-0.464-0.96-1.032l0.072-5.192c0.016-0.56 0.44-1.016 0.976-1.016l20.24-0.048c0.528 0 0.976-0.448 0.976-1.032v-2.84c-0.032-0.56-0.456-1.016-0.976-1.016 0 0 0 0 0 0z"></path>
</svg>
