<?xml version="1.0" encoding="utf-8"?>
<!-- Generator: Adobe Illustrator 24.3.0, SVG Export Plug-In . SVG Version: 6.00 Build 0)  -->
<svg version="1.1" id="圖層_1" xmlns="http://www.w3.org/2000/svg" xmlns:xlink="http://www.w3.org/1999/xlink" x="0px" y="0px"
	 viewBox="0 0 468.3 390.7" style="enable-background:new 0 0 468.3 390.7;" xml:space="preserve">
<style type="text/css">
	.st0{clip-path:url(#SVGID_2_);fill:#E56353;}
	.st1{clip-path:url(#SVGID_2_);fill:#44C4A1;}
	.st2{clip-path:url(#SVGID_2_);fill:#2F4859;}
	.st3{clip-path:url(#SVGID_2_);fill:#CE412D;}
	.st4{clip-path:url(#SVGID_2_);fill:#EBF0F3;}
	.st5{clip-path:url(#SVGID_2_);fill:#D5D6DB;}
</style>
<g>
	<defs>
		<rect id="SVGID_1_" width="468.3" height="390.7"/>
	</defs>
	<clipPath id="SVGID_2_">
		<use xlink:href="#SVGID_1_"  style="overflow:visible;"/>
	</clipPath>
	<path class="st0" d="M42.3,150.3H12.8c-7.1,0-12.8,5.8-12.8,12.8V225c0,7.1,5.8,12.8,12.8,12.8h29.4V150.3z"/>
	<path class="st1" d="M133.3,250.8c16.8,0,30.4,13.6,30.4,30.4c0,16.8-13.6,30.4-30.4,30.4s-30.4-13.6-30.4-30.4
		C102.9,264.4,116.5,250.8,133.3,250.8"/>
	<polygon class="st2" points="55.6,245.1 80.8,387.7 135.7,387.7 135.7,245.1 	"/>
	<path class="st3" d="M21.1,130.4v129.8c0,8.8,7.1,15.9,15.9,15.9h132.1V114.5H37.1C28.3,114.5,21.1,121.6,21.1,130.4"/>
	<polygon class="st4" points="412,0 412,390.7 135.8,276.2 135.8,114.5 	"/>
	<path class="st5" d="M380.8,195.6C380,87.7,393.3,0.1,410.5,0c17.2-0.1,31.9,87.2,32.7,195.1c0.8,107.9-12.5,195.4-29.7,195.5
		C396.3,390.8,381.6,303.4,380.8,195.6"/>
	<path class="st0" d="M412,139.1c-4.5,0-8.8,0.6-13,1.6V250c4.2,1,8.5,1.6,13,1.6c31.1,0,56.3-25.2,56.3-56.3S443.1,139.1,412,139.1
		"/>
	<path class="st5" d="M410.5,0c-17.2,0.1-30.6,85.5-29.7,195.6s15.5,195.2,32.7,195.1"/>
</g>
</svg>
