<?xml version="1.0" encoding="utf-8"?><!--Generator: Adobe Illustrator 25.2.3, SVG Export Plug-In . SVG Version: 6.00 Build 0)--><svg version="1.1" id="圖層_1" xmlns="http://www.w3.org/2000/svg" xmlns:xlink="http://www.w3.org/1999/xlink" x="0px" y="0px" viewBox="0 0 50 50" style="enable-background:new 0 0 50 50" xml:space="preserve"><style type="text/css">.st0{display:none;}
	.st1{display:inline;fill-rule:evenodd;clip-rule:evenodd;}
	.st2{display:inline;}
	.st3{fill-rule:evenodd;clip-rule:evenodd;}</style><g id="nav" class="st0"><path class="st1" d="M48.9,49.4h-9.5c-0.6,0-1.1-0.5-1.1-1.1v-9.5c0-0.6,0.5-1.1,1.1-1.1h9.5c0.6,0,1.1,0.5,1.1,1.1v9.5
		C50,48.9,49.5,49.4,48.9,49.4z M48.9,30.8h-9.5c-0.6,0-1.1-0.5-1.1-1.1v-9.5c0-0.6,0.5-1.1,1.1-1.1h9.5c0.6,0,1.1,0.5,1.1,1.1v9.5
		C50,30.4,49.5,30.8,48.9,30.8z M48.9,12.2h-9.5c-0.6,0-1.1-0.5-1.1-1.1V1.6c0-0.6,0.5-1.1,1.1-1.1h9.5C49.5,0.6,50,1,50,1.6v9.5
		C50,11.7,49.5,12.2,48.9,12.2z M30.3,49.4h-9.5c-0.6,0-1.1-0.5-1.1-1.1v-9.5c0-0.6,0.5-1.1,1.1-1.1h9.5c0.6,0,1.1,0.5,1.1,1.1v9.5
		C31.4,48.9,30.9,49.4,30.3,49.4z M30.3,30.8h-9.5c-0.6,0-1.1-0.5-1.1-1.1v-9.5c0-0.6,0.5-1.1,1.1-1.1h9.5c0.6,0,1.1,0.5,1.1,1.1
		v9.5C31.4,30.4,30.9,30.8,30.3,30.8z M30.3,12.2h-9.5c-0.6,0-1.1-0.5-1.1-1.1V1.6c0-0.6,0.5-1.1,1.1-1.1h9.5c0.6,0,1.1,0.5,1.1,1.1
		v9.5C31.4,11.7,30.9,12.2,30.3,12.2z M10.6,49.4H1.1c-0.6,0-1.1-0.5-1.1-1.1v-9.5c0-0.6,0.5-1.1,1.1-1.1h9.5c0.6,0,1.1,0.5,1.1,1.1
		v9.5C11.6,48.9,11.2,49.4,10.6,49.4z M10.6,30.8H1.1c-0.6,0-1.1-0.5-1.1-1.1v-9.5c0-0.6,0.5-1.1,1.1-1.1h9.5c0.6,0,1.1,0.5,1.1,1.1
		v9.5C11.6,30.4,11.2,30.8,10.6,30.8z M10.6,12.2H1.1c-0.6,0-1.1-0.5-1.1-1.1V1.6c0-0.6,0.5-1,1.1-1h9.5c0.6,0,1.1,0.5,1.1,1.1v9.5
		C11.6,11.7,11.2,12.2,10.6,12.2z"/></g><g id="login" class="st0"><path class="st1" d="M49.4,46.1C47.1,49.3,34.8,50,25,50S2.9,49.3,0.6,46.1c-0.6-0.9-0.8-1.9-0.4-2.9c2.3-5.8,6.1-7.1,9.2-7.6
		c2.6-0.4,5.1-1.4,6.2-2c0-0.3,0-2.7,0-4.2c-2.9-3.4-4.7-8-4.7-12.2C11,7.7,15.7,0,25,0c9.4,0,14,7.7,14,17.2
		c0,4.2-1.8,8.8-4.7,12.2c0,0.6,0,1.4,0,4.1c1.1,0.6,3.6,1.5,6.2,2c3.1,0.5,6.9,1.9,9.2,7.6C50.1,44.1,50,45.2,49.4,46.1z M36,17.2
		c0-7.8-3.7-14.1-11-14.1S14.1,9.4,14.1,17.2c0,6.4,4.9,14.1,10.9,14.1C31.1,31.2,36,23.5,36,17.2z M40,38.6
		c-2.8-0.5-5.7-1.5-7.2-2.3l-1.5-0.8c0,0,0-1.9-0.1-3.2c-1.9,1.3-4,2.1-6.2,2.1c-2.3,0-4.4-0.8-6.3-2.1c0,1.3-0.1,3.2-0.1,3.2
		l-1.5,0.8c-1.5,0.8-4.4,1.8-7.2,2.3c-2.3,0.4-5,1.2-6.7,5.7C3.3,44.4,6,46.9,25,46.9s21.7-2.5,21.8-2.6C45,39.8,42.4,39,40,38.6z"/></g><g id="id" class="st0"><path class="st1" d="M34.8,23.4C34.3,24,33.4,24,33,24.7c-0.6,1-0.2,2.5-0.6,3.6c-0.4,1.2-1.4,1.3-1.5,3c0.5,0.1,1,0.1,1.5,0.2
		c0.5,1.1,1.4,3.2,2.4,3.8c0.8,0.2,1.6,0.4,2.4,0.6c2.8,1.1,5.8,2.5,8.6,3.6c2.5,1.1,2.1,1.4,3,4c0,1.8,0,4.2,0,6.5H1.2
		c0-2.3,0-4.7,0-6.5c0.9-2.6,0.3-2.9,2.8-4c2.8-1.2,5.8-2.5,8.6-3.6c0.8-0.2,1.6-0.4,2.4-0.6c0.9-0.6,1.9-2.8,2.4-3.8l1.1-0.3
		c-0.3-1.4-1.1-1.5-1.5-2.5c-0.1-1.5-0.3-3-0.4-4.5c0,0.1-1-0.2-1.2-0.3c-1.5-0.9-1.5-4.6-1.6-6.1c-0.1-0.7,0.9-1.3,0.6-2.6
		c-1.6-7.5,0.7-12.6,4.3-13.7c2.5-1,7.2-2.9,11.6-0.2l1.1,1l1.8,0.3c0.9,0.5,1.4,2.2,1.4,2.2c0.5,1.8,0.5,3.6,0.5,5.5
		c0,0.7-0.4,4.1-0.3,5.1c0.1,0.9,0.3,0.9,0.7,1.6c0.6,1.2,0.4,2.9,0.2,4.1C35.4,21.9,35.2,22.8,34.8,23.4z"/></g><g id="pw" class="st0"><path class="st1" d="M43,50H7c-2.5,0-4.5-1.8-4.5-4V22.2c0-2.2,2-4,4.5-4h4.5V9.1C11.5,4.1,20,0,25,0s13.5,4.1,13.5,9.1v9.1H43
		c2.5,0,4.5,1.8,4.5,4V46C47.5,48.2,45.4,50,43,50z M20.5,36.4c0,2.5,2,4.5,4.5,4.5s4.5-2,4.5-4.5v-4.5c0-2.5-2-4.5-4.5-4.5
		s-4.5,2-4.5,4.5V36.4z M34,9.1H16v9.1h18V9.1z"/></g><g id="close" class="st0"><path class="st1" d="M27.7,25l21.7,21.7c0.8,0.8,0.8,2,0,2.7c-0.7,0.8-2,0.8-2.7,0L25,27.7L3.3,49.4c-0.7,0.7-2,0.7-2.7,0
		s-0.7-2,0-2.7L22.3,25L0.6,3.3c-0.8-0.8-0.8-2,0-2.7c0.7-0.8,2-0.8,2.7,0L25,22.3L46.7,0.6c0.7-0.7,2-0.7,2.7,0s0.7,2,0,2.7
		L27.7,25z"/></g><g id="phone" class="st0"><g class="st2"><path d="M35.5,0h-21c-2,0-3.6,1.6-3.6,3.6v42.7c0,2,1.6,3.6,3.6,3.6h21c2,0,3.6-1.6,3.6-3.6V3.6C39.2,1.6,37.5,0,35.5,0z
			 M36.4,40.5H13.6V6.1h22.9L36.4,40.5L36.4,40.5z M29.9,3.7h-9.8V2.6h9.8L29.9,3.7L29.9,3.7z M34.1,3.2c0,0.5-0.4,0.9-0.9,0.9
			s-0.9-0.4-0.9-0.9s0.4-0.9,0.9-0.9C33.6,2.3,34.1,2.7,34.1,3.2z M29.4,46.1h-8.9v-2.7h8.9V46.1z"/></g></g><g id="check" class="st0"><path class="st1" d="M27.2,36.7L50,13.3l-9.4-9.6L17.8,27.1l-8.4-8.6L0,28.1l17.8,18.2l0,0l0,0l0,0L27.2,36.7L27.2,36.7z"/></g><g id="bank" class="st0"><g class="st2"><path d="M45.9,6H4.1v28.6H46L45.9,6L45.9,6z M7.9,29.1V9.9H42v19.3L7.9,29.1L7.9,29.1z"/><path d="M30.5,37.4v2.8h-11v-2.8H0.2v1.1c0,3,2.5,5.5,5.5,5.5h38.6c3,0,5.5-2.5,5.5-5.5v-1.1H30.5z"/><rect x="24.4" y="13.9" width="14.6" height="3.9"/><rect x="19.9" y="20.3" width="19.1" height="3.9"/></g></g><path class="st3" d="M25.6,36.3L5,13.7H45L25.6,36.3z"/></svg>